<svg width="183" height="172" viewBox="0 0 183 172" fill="none" xmlns="http://www.w3.org/2000/svg">
<g clip-path="url(#clip0_85_3737)">
<path d="M3.57083 66.406C3.57083 66.406 -6.83202 93.172 8.44614 114.203C23.7243 135.234 49.7384 134.655 69.9154 141.271C80.4731 144.734 87.0188 154.178 96.1454 159.927C125.327 178.305 169.158 152.557 179.199 122.817C187.889 97.0738 181.85 72.9891 161.101 47.8111C140.352 22.6332 126.763 4.01475 89.4776 0.0799596C52.1925 -3.85484 18.4642 32.4395 3.57083 66.406Z" fill="#BEEBC3"/>
<path opacity="0.75" d="M3.57083 66.406C3.57083 66.406 -6.83202 93.172 8.44614 114.203C23.7243 135.234 49.7384 134.655 69.9154 141.271C80.4731 144.734 87.0188 154.178 96.1454 159.927C125.327 178.305 169.158 152.557 179.199 122.817C187.889 97.0738 181.85 72.9891 161.101 47.8111C140.352 22.6332 126.763 4.01475 89.4776 0.0799596C52.1925 -3.85484 18.4642 32.4395 3.57083 66.406Z" fill="white"/>
<path d="M2.80078 155.686H161.401" stroke="#212121" stroke-linecap="round" stroke-linejoin="round"/>
<path d="M20.059 88.3931C20.059 88.3931 20.059 86.7579 17.7833 84.4725C15.5075 82.187 14.0294 80.877 14.0294 80.877C14.0294 80.877 12.8892 84.6468 15.0054 86.9229C16.5606 88.5326 18.248 90.0081 20.0496 91.3336L20.059 88.3931Z" fill="#BEEBC3"/>
<path d="M16.7561 98.6001C16.7561 98.6001 16.7561 96.965 14.4756 94.6795C12.1952 92.394 10.7218 91.084 10.7218 91.084C10.7218 91.084 9.58156 94.8538 11.6978 97.1299C13.2547 98.7411 14.9436 100.218 16.7467 101.545L16.7561 98.6001Z" fill="#BEEBC3"/>
<path d="M19.9191 91.1778C19.9191 91.1778 20.0927 89.552 22.5984 87.5163C25.1041 85.4806 26.6995 84.3496 26.6995 84.3496C26.6995 84.3496 27.4361 88.209 25.09 90.2589C23.3725 91.6939 21.5394 92.9832 19.6094 94.1136L19.9191 91.1778Z" fill="#BEEBC3"/>
<path d="M15.9252 103.232C15.9252 103.232 16.2631 101.635 18.9705 99.8769C21.678 98.1192 23.3813 97.1484 23.3813 97.1484C23.3813 97.1484 23.7098 101.064 21.1619 102.855C19.3061 104.104 17.3487 105.193 15.3105 106.111L15.9252 103.232Z" fill="#BEEBC3"/>
<path d="M16.6758 116.393C16.6758 116.393 16.6758 114.763 18.9515 112.472C21.2273 110.182 22.7054 108.877 22.7054 108.877C22.7054 108.877 23.8456 112.647 21.7294 114.923C20.1736 116.533 18.4863 118.01 16.6852 119.338L16.6758 116.393Z" fill="#BEEBC3"/>
<path d="M16.6342 119.584C16.6342 119.584 16.8688 117.968 14.9356 115.376C13.0023 112.784 11.7307 111.281 11.7307 111.281C11.7307 111.281 10.0696 114.844 11.8386 117.407C13.1547 119.232 14.6207 120.942 16.2213 122.52L16.6342 119.584Z" fill="#BEEBC3"/>
<path d="M14.3906 129.117C14.3906 129.117 14.3906 127.481 16.6664 125.191C18.9422 122.901 20.4202 121.596 20.4202 121.596C20.4202 121.596 21.5605 125.366 19.4442 127.646C17.8876 129.255 16.2004 130.73 14.4 132.057L14.3906 129.117Z" fill="#BEEBC3"/>
<path d="M15.9113 137.712C15.9113 137.712 15.4843 136.133 17.1266 133.357C18.7689 130.582 19.8388 128.928 19.8388 128.928C19.8388 128.928 21.8893 132.273 20.4206 135.025C19.3261 136.978 18.0704 138.835 16.6668 140.577L15.9113 137.712Z" fill="#BEEBC3"/>
<path d="M20.2656 87.9736C20.1527 89.6758 19.9444 91.3702 19.6415 93.0488C18.7406 97.7234 16.493 100.739 15.5921 104.962C14.6912 109.184 17.2766 114.617 16.5822 120.041C15.8877 125.465 13.7668 128.476 14.3909 132.095C15.0149 135.714 18.1447 145.516 18.1447 145.516" stroke="#212121" stroke-width="0.5" stroke-linecap="round" stroke-linejoin="round"/>
<path d="M19.8945 92.2627L22.3486 90.373" stroke="#212121" stroke-width="0.5" stroke-linecap="round" stroke-linejoin="round"/>
<path d="M20.0071 90.0851L18.9795 88.252" stroke="#212121" stroke-width="0.5" stroke-linecap="round" stroke-linejoin="round"/>
<path d="M15.7285 104.764C15.7285 104.764 17.7837 103.218 19.8953 101.668" stroke="#212121" stroke-width="0.5" stroke-linecap="round" stroke-linejoin="round"/>
<path d="M16.7559 101.545C15.731 99.5541 14.5062 97.6735 13.1006 95.9326" stroke="#212121" stroke-width="0.5" stroke-linecap="round" stroke-linejoin="round"/>
<path d="M16.7559 118.702C17.9292 116.529 19.4102 114.539 21.1526 112.793" stroke="#212121" stroke-width="0.5" stroke-linecap="round" stroke-linejoin="round"/>
<path d="M16.3568 120.998C15.731 119.525 14.9856 118.106 14.128 116.756C12.9267 114.98 12.7578 114.749 12.7578 114.749" stroke="#212121" stroke-width="0.5" stroke-linecap="round" stroke-linejoin="round"/>
<path d="M14.3906 132.095C14.9096 130.793 15.5277 129.533 16.2394 128.325C16.9505 127.21 17.7525 126.155 18.6372 125.173" stroke="#212121" stroke-width="0.5" stroke-linecap="round" stroke-linejoin="round"/>
<path d="M16.6529 140.558C16.5348 139.318 16.7469 138.069 17.2676 136.939C18.1263 135.275 19.0976 133.094 19.4964 132.227" stroke="#212121" stroke-width="0.5" stroke-linecap="round" stroke-linejoin="round"/>
<path d="M5.16094 110.229C5.16094 110.229 4.98263 109.202 6.16509 107.52C7.34756 105.838 8.12178 104.857 8.12178 104.857C8.12178 104.857 9.24325 107.091 8.16402 108.755C7.36177 109.928 6.46234 111.032 5.47532 112.053L5.16094 110.229Z" fill="#BEEBC3"/>
<path d="M8.31914 116.271C8.31914 116.271 8.14084 115.244 9.3233 113.562C10.5058 111.88 11.2612 110.899 11.2612 110.899C11.2612 110.899 12.3827 113.133 11.3034 114.797C10.5012 115.97 9.60178 117.073 8.61476 118.095L8.31914 116.271Z" fill="#BEEBC3"/>
<path d="M5.53177 111.96C5.53177 111.96 5.24554 110.961 3.45777 109.957C1.67 108.953 0.539158 108.411 0.539158 108.411C0.539158 108.411 0.496929 110.913 2.18616 111.941C3.41882 112.654 4.70905 113.263 6.04323 113.76L5.53177 111.96Z" fill="#BEEBC3"/>
<path d="M9.3373 119.085C9.3373 119.085 8.95253 118.142 7.06622 117.313C5.17991 116.484 4.00684 116.083 4.00684 116.083C4.00684 116.083 4.22268 118.571 6.01045 119.419C7.31022 120.004 8.65705 120.477 10.0365 120.833L9.3373 119.085Z" fill="#BEEBC3"/>
<path d="M10.2895 127.407C10.2895 127.407 10.1112 126.384 8.4126 125.197C6.71398 124.009 5.67698 123.35 5.67698 123.35C5.67698 123.35 5.36729 125.833 6.94391 127.035C8.09321 127.876 9.31129 128.619 10.5851 129.254L10.2895 127.407Z" fill="#BEEBC3"/>
<path d="M10.6603 129.413C10.6603 129.413 10.3412 128.424 11.2703 126.586C12.1994 124.748 12.8329 123.669 12.8329 123.669C12.8329 123.669 14.2406 125.719 13.4241 127.524C12.8071 128.806 12.0835 130.034 11.2609 131.195L10.6603 129.413Z" fill="#BEEBC3"/>
<path d="M13.5178 137.684C13.5178 137.684 13.6398 136.652 15.2446 135.37C16.8493 134.088 17.8723 133.367 17.8723 133.367C17.8723 133.367 18.3415 135.827 16.8165 137.137C15.7158 138.043 14.5418 138.854 13.3066 139.564L13.5178 137.684Z" fill="#BEEBC3"/>
<path d="M13.0963 135.134C13.0963 135.134 12.918 134.107 11.2194 132.92C9.5208 131.732 8.4838 131.072 8.4838 131.072C8.4838 131.072 8.1788 133.556 9.75072 134.762C10.9008 135.601 12.1188 136.342 13.392 136.977L13.0963 135.134Z" fill="#BEEBC3"/>
<path d="M13.072 140.705C13.072 140.705 13.1612 139.669 11.838 138.095C10.5147 136.521 9.65605 135.611 9.65605 135.611C9.65605 135.611 8.71758 137.935 9.95166 139.499C10.8535 140.604 11.8455 141.632 12.9172 142.571L13.072 140.705Z" fill="#BEEBC3"/>
<path d="M4.96387 109.99C5.21836 111.045 5.53167 112.085 5.90233 113.105C6.97218 115.932 8.71771 117.582 9.73125 120.131C10.7448 122.681 9.73125 126.37 10.7354 129.697C11.7396 133.024 13.4006 134.683 13.4147 137.015C13.4288 139.348 12.5138 145.842 12.5138 145.842" stroke="#212121" stroke-width="0.5" stroke-linecap="round" stroke-linejoin="round"/>
<path d="M5.66351 112.638L3.91797 111.719" stroke="#212121" stroke-width="0.5" stroke-linecap="round" stroke-linejoin="round"/>
<path d="M5.35352 111.285L5.79928 110.022" stroke="#212121" stroke-width="0.5" stroke-linecap="round" stroke-linejoin="round"/>
<path d="M9.62841 120.022C9.62841 120.022 8.17379 119.278 6.68164 118.538" stroke="#212121" stroke-width="0.5" stroke-linecap="round" stroke-linejoin="round"/>
<path d="M8.63379 118.113C9.06386 116.754 9.62982 115.442 10.323 114.197" stroke="#212121" stroke-width="0.5" stroke-linecap="round" stroke-linejoin="round"/>
<path d="M10.491 128.876C9.51905 127.642 8.37485 126.555 7.09375 125.648" stroke="#212121" stroke-width="0.5" stroke-linecap="round" stroke-linejoin="round"/>
<path d="M10.9893 130.271C11.22 129.277 11.534 128.305 11.9277 127.364C12.4861 126.12 12.5706 125.95 12.5706 125.95" stroke="#212121" stroke-width="0.5" stroke-linecap="round" stroke-linejoin="round"/>
<path d="M13.3398 138.786C13.9073 138.08 14.5353 137.426 15.2168 136.831C15.652 136.51 16.06 136.154 16.4368 135.766" stroke="#212121" stroke-width="0.5" stroke-linecap="round" stroke-linejoin="round"/>
<path d="M13.4201 137.015C12.9542 136.258 12.4302 135.538 11.8529 134.862C11.2879 134.238 10.6709 133.665 10.0088 133.146" stroke="#212121" stroke-width="0.5" stroke-linecap="round" stroke-linejoin="round"/>
<path d="M12.9174 142.57C12.8575 141.779 12.5886 141.018 12.1385 140.365C11.4206 139.423 10.5759 138.155 10.2334 137.66" stroke="#212121" stroke-width="0.5" stroke-linecap="round" stroke-linejoin="round"/>
<path d="M7.86426 144.71H22.7717V155.685C22.7717 156.06 22.6234 156.419 22.3594 156.685C22.0954 156.95 21.7374 157.099 21.364 157.099H9.29072C8.91738 157.099 8.55932 156.95 8.29533 156.685C8.03134 156.419 7.88303 156.06 7.88303 155.685V144.71H7.86426Z" fill="#212121"/>
<path d="M22.6398 146.661H7.8637C7.55382 146.661 7.25664 146.538 7.03753 146.318C6.81841 146.098 6.69531 145.799 6.69531 145.488C6.69655 145.178 6.8202 144.88 7.03918 144.661C7.25816 144.442 7.55464 144.319 7.8637 144.319H22.6398C22.9484 144.319 23.2444 144.442 23.4626 144.662C23.6809 144.881 23.8035 145.178 23.8035 145.488C23.8041 145.642 23.7744 145.794 23.7162 145.937C23.658 146.079 23.5724 146.208 23.4643 146.317C23.3562 146.426 23.2277 146.513 23.0862 146.572C22.9447 146.631 22.793 146.661 22.6398 146.661Z" fill="#212121"/>
<path d="M91.4156 26.8037H28.6982C27.7808 26.8037 27.0371 27.5506 27.0371 28.4719V74.7705C27.0371 75.6918 27.7808 76.4387 28.6982 76.4387H91.4156C92.333 76.4387 93.0766 75.6918 93.0766 74.7705V28.4719C93.0766 27.5506 92.333 26.8037 91.4156 26.8037Z" fill="#6E6E6E"/>
<path d="M35.9619 32.1191H47.3971" stroke="white" stroke-linecap="round" stroke-linejoin="round"/>
<path d="M34.8071 31.8318C34.8081 31.6869 34.7661 31.5451 34.6865 31.4242C34.607 31.3034 34.4934 31.209 34.3603 31.1532C34.2272 31.0973 34.0806 31.0825 33.9391 31.1105C33.7976 31.1385 33.6676 31.2082 33.5656 31.3106C33.4636 31.413 33.3942 31.5436 33.3663 31.6857C33.3384 31.8279 33.3532 31.9751 33.4088 32.1088C33.4644 32.2424 33.5584 32.3565 33.6787 32.4364C33.799 32.5163 33.9403 32.5584 34.0845 32.5575C34.2762 32.5575 34.46 32.481 34.5955 32.3449C34.731 32.2088 34.8071 32.0243 34.8071 31.8318Z" fill="white" stroke="white" stroke-linecap="round" stroke-linejoin="round"/>
<path d="M35.9619 35.8984H47.3971" stroke="white" stroke-linecap="round" stroke-linejoin="round"/>
<path d="M34.8071 35.6062C34.8081 35.4613 34.7661 35.3195 34.6865 35.1986C34.607 35.0778 34.4934 34.9835 34.3603 34.9276C34.2272 34.8717 34.0806 34.8569 33.9391 34.8849C33.7976 34.9129 33.6676 34.9826 33.5656 35.085C33.4636 35.1875 33.3942 35.318 33.3663 35.4602C33.3384 35.6023 33.3532 35.7495 33.4088 35.8832C33.4644 36.0168 33.5584 36.1309 33.6787 36.2108C33.799 36.2907 33.9403 36.3328 34.0845 36.3319C34.2762 36.3319 34.46 36.2554 34.5955 36.1193C34.731 35.9833 34.8071 35.7987 34.8071 35.6062Z" fill="white" stroke="white" stroke-linecap="round" stroke-linejoin="round"/>
<path d="M35.9619 39.6777H47.3971" stroke="white" stroke-linecap="round" stroke-linejoin="round"/>
<path d="M34.8071 39.3855C34.8081 39.2406 34.7661 39.0988 34.6865 38.9779C34.607 38.8571 34.4934 38.7628 34.3603 38.7069C34.2272 38.651 34.0806 38.6362 33.9391 38.6642C33.7976 38.6922 33.6676 38.7619 33.5656 38.8643C33.4636 38.9668 33.3942 39.0973 33.3663 39.2395C33.3384 39.3816 33.3532 39.5288 33.4088 39.6625C33.4644 39.7961 33.5584 39.9102 33.6787 39.9901C33.799 40.07 33.9403 40.1121 34.0845 40.1112C34.2762 40.1112 34.46 40.0347 34.5955 39.8986C34.731 39.7626 34.8071 39.578 34.8071 39.3855Z" fill="white" stroke="white" stroke-linecap="round" stroke-linejoin="round"/>
<path d="M35.9619 43.457H47.3971" stroke="white" stroke-linecap="round" stroke-linejoin="round"/>
<path d="M34.8071 43.1648C34.8081 43.0199 34.7661 42.8781 34.6865 42.7572C34.607 42.6364 34.4934 42.5421 34.3603 42.4862C34.2272 42.4303 34.0806 42.4155 33.9391 42.4435C33.7976 42.4715 33.6676 42.5412 33.5656 42.6436C33.4636 42.7461 33.3942 42.8766 33.3663 43.0188C33.3384 43.1609 33.3532 43.3081 33.4088 43.4418C33.4644 43.5754 33.5584 43.6895 33.6787 43.7694C33.799 43.8493 33.9403 43.8914 34.0845 43.8905C34.2762 43.8905 34.46 43.814 34.5955 43.6779C34.731 43.5418 34.8071 43.3573 34.8071 43.1648Z" fill="white" stroke="white" stroke-linecap="round" stroke-linejoin="round"/>
<path d="M35.9619 47.2314H47.3971" stroke="white" stroke-linecap="round" stroke-linejoin="round"/>
<path d="M34.8071 46.9441C34.8081 46.7992 34.7661 46.6574 34.6865 46.5365C34.607 46.4157 34.4934 46.3214 34.3603 46.2655C34.2272 46.2096 34.0806 46.1948 33.9391 46.2228C33.7976 46.2508 33.6676 46.3205 33.5656 46.4229C33.4636 46.5254 33.3942 46.6559 33.3663 46.7981C33.3384 46.9402 33.3532 47.0874 33.4088 47.2211C33.4644 47.3547 33.5584 47.4688 33.6787 47.5487C33.799 47.6286 33.9403 47.6707 34.0845 47.6698C34.2762 47.6698 34.46 47.5933 34.5955 47.4572C34.731 47.3211 34.8071 47.1366 34.8071 46.9441Z" fill="white" stroke="white" stroke-linecap="round" stroke-linejoin="round"/>
<path d="M35.9619 51.0117H47.3971" stroke="white" stroke-linecap="round" stroke-linejoin="round"/>
<path d="M34.8072 50.7187C34.8072 50.574 34.7644 50.4326 34.6842 50.3124C34.6041 50.1922 34.4903 50.0986 34.3571 50.0434C34.2239 49.9883 34.0774 49.9741 33.9362 50.0027C33.795 50.0312 33.6654 50.1013 33.5639 50.2039C33.4624 50.3065 33.3935 50.4371 33.3659 50.5791C33.3384 50.7211 33.3535 50.8681 33.4093 51.0015C33.465 51.1349 33.559 51.2486 33.6792 51.3283C33.7994 51.408 33.9405 51.45 34.0845 51.4491C34.1798 51.4491 34.2742 51.4302 34.3622 51.3934C34.4501 51.3566 34.53 51.3028 34.5972 51.2349C34.6643 51.167 34.7175 51.0864 34.7535 50.9978C34.7895 50.9092 34.8078 50.8144 34.8072 50.7187Z" fill="white" stroke="white" stroke-linecap="round" stroke-linejoin="round"/>
<path d="M35.9619 54.79H47.3971" stroke="white" stroke-linecap="round" stroke-linejoin="round"/>
<path d="M34.8071 54.4988C34.8081 54.3539 34.7661 54.2121 34.6865 54.0912C34.607 53.9704 34.4934 53.876 34.3603 53.8202C34.2272 53.7643 34.0806 53.7494 33.9391 53.7775C33.7976 53.8055 33.6676 53.8752 33.5656 53.9776C33.4636 54.08 33.3942 54.2106 33.3663 54.3527C33.3384 54.4949 33.3532 54.6421 33.4088 54.7758C33.4644 54.9094 33.5584 55.0235 33.6787 55.1034C33.799 55.1833 33.9403 55.2254 34.0845 55.2245C34.2762 55.2245 34.46 55.148 34.5955 55.0119C34.731 54.8758 34.8071 54.6912 34.8071 54.4988Z" fill="white" stroke="white" stroke-linecap="round" stroke-linejoin="round"/>
<path d="M35.9619 58.5703H47.3971" stroke="white" stroke-linecap="round" stroke-linejoin="round"/>
<path d="M34.8071 58.2781C34.8081 58.1332 34.7661 57.9914 34.6865 57.8705C34.607 57.7497 34.4934 57.6553 34.3603 57.5995C34.2272 57.5436 34.0806 57.5287 33.9391 57.5568C33.7976 57.5848 33.6676 57.6545 33.5656 57.7569C33.4636 57.8593 33.3942 57.9899 33.3663 58.132C33.3384 58.2742 33.3532 58.4214 33.4088 58.5551C33.4644 58.6887 33.5584 58.8027 33.6787 58.8826C33.799 58.9625 33.9403 59.0047 34.0845 59.0038C34.2762 59.0038 34.46 58.9273 34.5955 58.7912C34.731 58.6551 34.8071 58.4705 34.8071 58.2781Z" fill="white" stroke="white" stroke-linecap="round" stroke-linejoin="round"/>
<path d="M35.9619 62.3438H47.3971" stroke="white" stroke-linecap="round" stroke-linejoin="round"/>
<path d="M34.8071 62.0574C34.8081 61.9125 34.7661 61.7706 34.6865 61.6498C34.607 61.529 34.4934 61.4346 34.3603 61.3788C34.2272 61.3229 34.0806 61.308 33.9391 61.3361C33.7976 61.3641 33.6676 61.4338 33.5656 61.5362C33.4636 61.6386 33.3942 61.7692 33.3663 61.9113C33.3384 62.0535 33.3532 62.2007 33.4088 62.3344C33.4644 62.468 33.5584 62.582 33.6787 62.6619C33.799 62.7418 33.9403 62.784 34.0845 62.7831C34.2762 62.7831 34.46 62.7066 34.5955 62.5705C34.731 62.4344 34.8071 62.2498 34.8071 62.0574Z" fill="white" stroke="white" stroke-linecap="round" stroke-linejoin="round"/>
<path d="M35.9619 66.123H47.3971" stroke="white" stroke-linecap="round" stroke-linejoin="round"/>
<path d="M34.8072 65.832C34.8072 65.6873 34.7644 65.5459 34.6842 65.4257C34.6041 65.3055 34.4903 65.2119 34.3571 65.1567C34.2239 65.1016 34.0774 65.0874 33.9362 65.1159C33.795 65.1445 33.6654 65.2145 33.5639 65.3172C33.4624 65.4198 33.3935 65.5504 33.3659 65.6924C33.3384 65.8344 33.3535 65.9814 33.4093 66.1148C33.465 66.2481 33.559 66.3619 33.6792 66.4416C33.7994 66.5213 33.9405 66.5633 34.0845 66.5624C34.1798 66.5624 34.2742 66.5434 34.3622 66.5067C34.4501 66.4699 34.53 66.416 34.5972 66.3482C34.6643 66.2803 34.7175 66.1997 34.7535 66.1111C34.7895 66.0225 34.8078 65.9277 34.8072 65.832Z" fill="white" stroke="white" stroke-linecap="round" stroke-linejoin="round"/>
<path d="M35.9619 69.9023H47.3971" stroke="white" stroke-linecap="round" stroke-linejoin="round"/>
<path d="M34.8071 69.6101C34.8081 69.4652 34.7661 69.3234 34.6865 69.2025C34.607 69.0817 34.4934 68.9874 34.3603 68.9315C34.2272 68.8756 34.0806 68.8608 33.9391 68.8888C33.7976 68.9168 33.6676 68.9865 33.5656 69.0889C33.4636 69.1914 33.3942 69.3219 33.3663 69.4641C33.3384 69.6062 33.3532 69.7534 33.4088 69.8871C33.4644 70.0208 33.5584 70.1348 33.6787 70.2147C33.799 70.2946 33.9403 70.3367 34.0845 70.3358C34.2762 70.3358 34.46 70.2593 34.5955 70.1233C34.731 69.9872 34.8071 69.8026 34.8071 69.6101Z" fill="white" stroke="white" stroke-linecap="round" stroke-linejoin="round"/>
<path d="M55.6416 32.1191H67.0768" stroke="white" stroke-linecap="round" stroke-linejoin="round"/>
<path d="M54.4868 31.8318C54.4878 31.6869 54.4458 31.5451 54.3662 31.4242C54.2866 31.3034 54.1731 31.209 54.04 31.1532C53.9069 31.0973 53.7603 31.0825 53.6188 31.1105C53.4773 31.1385 53.3472 31.2082 53.2452 31.3106C53.1433 31.413 53.0739 31.5436 53.046 31.6857C53.0181 31.8279 53.0329 31.9751 53.0885 32.1088C53.1441 32.2424 53.2381 32.3565 53.3584 32.4364C53.4787 32.5163 53.62 32.5584 53.7642 32.5575C53.9559 32.5575 54.1397 32.481 54.2752 32.3449C54.4107 32.2088 54.4868 32.0243 54.4868 31.8318Z" fill="white" stroke="white" stroke-linecap="round" stroke-linejoin="round"/>
<path d="M55.6416 35.8984H67.0768" stroke="white" stroke-linecap="round" stroke-linejoin="round"/>
<path d="M53.7646 36.3323C54.1637 36.3323 54.4872 36.0073 54.4872 35.6066C54.4872 35.2058 54.1637 34.8809 53.7646 34.8809C53.3655 34.8809 53.042 35.2058 53.042 35.6066C53.042 36.0073 53.3655 36.3323 53.7646 36.3323Z" fill="white" stroke="white" stroke-linecap="round" stroke-linejoin="round"/>
<path d="M55.6416 39.6777H67.0768" stroke="white" stroke-linecap="round" stroke-linejoin="round"/>
<path d="M53.7646 40.1116C54.1637 40.1116 54.4872 39.7867 54.4872 39.3859C54.4872 38.9851 54.1637 38.6602 53.7646 38.6602C53.3655 38.6602 53.042 38.9851 53.042 39.3859C53.042 39.7867 53.3655 40.1116 53.7646 40.1116Z" fill="white" stroke="white" stroke-linecap="round" stroke-linejoin="round"/>
<path d="M55.6416 43.457H67.0768" stroke="white" stroke-linecap="round" stroke-linejoin="round"/>
<path d="M54.4868 43.1648C54.4878 43.0199 54.4458 42.8781 54.3662 42.7572C54.2866 42.6364 54.1731 42.5421 54.04 42.4862C53.9069 42.4303 53.7603 42.4155 53.6188 42.4435C53.4773 42.4715 53.3472 42.5412 53.2452 42.6436C53.1433 42.7461 53.0739 42.8766 53.046 43.0188C53.0181 43.1609 53.0329 43.3081 53.0885 43.4418C53.1441 43.5754 53.2381 43.6895 53.3584 43.7694C53.4787 43.8493 53.62 43.8914 53.7642 43.8905C53.9559 43.8905 54.1397 43.814 54.2752 43.6779C54.4107 43.5418 54.4868 43.3573 54.4868 43.1648Z" fill="white" stroke="white" stroke-linecap="round" stroke-linejoin="round"/>
<path d="M55.6416 47.2314H67.0768" stroke="white" stroke-linecap="round" stroke-linejoin="round"/>
<path d="M53.7646 47.6701C54.1637 47.6701 54.4872 47.3452 54.4872 46.9444C54.4872 46.5437 54.1637 46.2188 53.7646 46.2188C53.3655 46.2188 53.042 46.5437 53.042 46.9444C53.042 47.3452 53.3655 47.6701 53.7646 47.6701Z" fill="white" stroke="white" stroke-linecap="round" stroke-linejoin="round"/>
<path d="M55.6416 51.0107H67.0768" stroke="white" stroke-linecap="round" stroke-linejoin="round"/>
<path d="M53.7646 51.4446C54.1637 51.4446 54.4872 51.1197 54.4872 50.7189C54.4872 50.3181 54.1637 49.9932 53.7646 49.9932C53.3655 49.9932 53.042 50.3181 53.042 50.7189C53.042 51.1197 53.3655 51.4446 53.7646 51.4446Z" fill="white" stroke="white" stroke-linecap="round" stroke-linejoin="round"/>
<path d="M55.6416 54.79H67.0768" stroke="white" stroke-linecap="round" stroke-linejoin="round"/>
<path d="M54.4868 54.4978C54.4878 54.3529 54.4458 54.2111 54.3662 54.0902C54.2866 53.9694 54.1731 53.8751 54.04 53.8192C53.9069 53.7633 53.7603 53.7485 53.6188 53.7765C53.4773 53.8045 53.3472 53.8742 53.2452 53.9766C53.1433 54.0791 53.0739 54.2096 53.046 54.3518C53.0181 54.4939 53.0329 54.6411 53.0885 54.7748C53.1441 54.9084 53.2381 55.0225 53.3584 55.1024C53.4787 55.1823 53.62 55.2244 53.7642 55.2235C53.9559 55.2235 54.1397 55.147 54.2752 55.0109C54.4107 54.8749 54.4868 54.6903 54.4868 54.4978Z" fill="white" stroke="white" stroke-linecap="round" stroke-linejoin="round"/>
<path d="M55.6416 58.5693H67.0768" stroke="white" stroke-linecap="round" stroke-linejoin="round"/>
<path d="M53.7646 59.0032C54.1637 59.0032 54.4872 58.6782 54.4872 58.2775C54.4872 57.8767 54.1637 57.5518 53.7646 57.5518C53.3655 57.5518 53.042 57.8767 53.042 58.2775C53.042 58.6782 53.3655 59.0032 53.7646 59.0032Z" fill="white" stroke="white" stroke-linecap="round" stroke-linejoin="round"/>
<path d="M55.6416 62.3438H67.0768" stroke="white" stroke-linecap="round" stroke-linejoin="round"/>
<path d="M54.4868 62.0564C54.4878 61.9115 54.4458 61.7697 54.3662 61.6488C54.2866 61.528 54.1731 61.4337 54.04 61.3778C53.9069 61.3219 53.7603 61.3071 53.6188 61.3351C53.4773 61.3631 53.3472 61.4328 53.2452 61.5352C53.1433 61.6377 53.0739 61.7682 53.046 61.9104C53.0181 62.0525 53.0329 62.1997 53.0885 62.3334C53.1441 62.467 53.2381 62.5811 53.3584 62.661C53.4787 62.7409 53.62 62.783 53.7642 62.7821C53.9559 62.7821 54.1397 62.7056 54.2752 62.5695C54.4107 62.4334 54.4868 62.2489 54.4868 62.0564Z" fill="white" stroke="white" stroke-linecap="round" stroke-linejoin="round"/>
<path d="M55.6416 66.124H67.0768" stroke="white" stroke-linecap="round" stroke-linejoin="round"/>
<path d="M53.7646 66.5569C54.1637 66.5569 54.4872 66.232 54.4872 65.8312C54.4872 65.4304 54.1637 65.1055 53.7646 65.1055C53.3655 65.1055 53.042 65.4304 53.042 65.8312C53.042 66.232 53.3655 66.5569 53.7646 66.5569Z" fill="white" stroke="white" stroke-linecap="round" stroke-linejoin="round"/>
<path d="M55.6416 69.9023H67.0768" stroke="white" stroke-linecap="round" stroke-linejoin="round"/>
<path d="M53.7646 70.3362C54.1637 70.3362 54.4872 70.0113 54.4872 69.6105C54.4872 69.2097 54.1637 68.8848 53.7646 68.8848C53.3655 68.8848 53.042 69.2097 53.042 69.6105C53.042 70.0113 53.3655 70.3362 53.7646 70.3362Z" fill="white" stroke="white" stroke-linecap="round" stroke-linejoin="round"/>
<path d="M75.3213 32.1191H86.7518" stroke="white" stroke-linecap="round" stroke-linejoin="round"/>
<path d="M74.1665 31.8318C74.1674 31.6871 74.1256 31.5455 74.0462 31.4247C73.9669 31.304 73.8536 31.2096 73.7208 31.1536C73.588 31.0976 73.4416 31.0825 73.3002 31.1101C73.1588 31.1378 73.0288 31.207 72.9266 31.3089C72.8244 31.4109 72.7547 31.541 72.7262 31.6829C72.6978 31.8247 72.7119 31.9718 72.7668 32.1055C72.8217 32.2393 72.915 32.3536 73.0347 32.4341C73.1544 32.5145 73.2952 32.5575 73.4392 32.5575C73.5345 32.5581 73.629 32.5398 73.7172 32.5036C73.8054 32.4674 73.8856 32.4141 73.9532 32.3466C74.0208 32.2792 74.0745 32.199 74.1111 32.1106C74.1477 32.0223 74.1665 31.9275 74.1665 31.8318Z" fill="white" stroke="white" stroke-linecap="round" stroke-linejoin="round"/>
<path d="M75.3213 35.8984H86.7518" stroke="white" stroke-linecap="round" stroke-linejoin="round"/>
<path d="M73.4394 36.3323C73.8385 36.3323 74.162 36.0073 74.162 35.6066C74.162 35.2058 73.8385 34.8809 73.4394 34.8809C73.0403 34.8809 72.7168 35.2058 72.7168 35.6066C72.7168 36.0073 73.0403 36.3323 73.4394 36.3323Z" fill="white" stroke="white" stroke-linecap="round" stroke-linejoin="round"/>
<path d="M75.3213 39.6777H86.7518" stroke="white" stroke-linecap="round" stroke-linejoin="round"/>
<path d="M73.4394 40.1116C73.8385 40.1116 74.162 39.7867 74.162 39.3859C74.162 38.9851 73.8385 38.6602 73.4394 38.6602C73.0403 38.6602 72.7168 38.9851 72.7168 39.3859C72.7168 39.7867 73.0403 40.1116 73.4394 40.1116Z" fill="white" stroke="white" stroke-linecap="round" stroke-linejoin="round"/>
<path d="M75.3213 43.457H86.7518" stroke="white" stroke-linecap="round" stroke-linejoin="round"/>
<path d="M74.1665 43.1648C74.1674 43.0202 74.1256 42.8785 74.0462 42.7577C73.9669 42.637 73.8536 42.5427 73.7208 42.4866C73.588 42.4306 73.4416 42.4155 73.3002 42.4432C73.1588 42.4708 73.0288 42.54 72.9266 42.642C72.8244 42.7439 72.7547 42.8741 72.7262 43.0159C72.6978 43.1577 72.7119 43.3048 72.7668 43.4385C72.8217 43.5723 72.915 43.6866 73.0347 43.7671C73.1544 43.8475 73.2952 43.8905 73.4392 43.8905C73.5345 43.8911 73.629 43.8728 73.7172 43.8366C73.8054 43.8004 73.8856 43.7471 73.9532 43.6796C74.0208 43.6122 74.0745 43.532 74.1111 43.4436C74.1477 43.3553 74.1665 43.2605 74.1665 43.1648Z" fill="white" stroke="white" stroke-linecap="round" stroke-linejoin="round"/>
<path d="M75.3213 47.2314H86.7518" stroke="white" stroke-linecap="round" stroke-linejoin="round"/>
<path d="M73.4394 47.6701C73.8385 47.6701 74.162 47.3452 74.162 46.9444C74.162 46.5437 73.8385 46.2188 73.4394 46.2188C73.0403 46.2188 72.7168 46.5437 72.7168 46.9444C72.7168 47.3452 73.0403 47.6701 73.4394 47.6701Z" fill="white" stroke="white" stroke-linecap="round" stroke-linejoin="round"/>
<path d="M75.3213 51.0107H86.7518" stroke="white" stroke-linecap="round" stroke-linejoin="round"/>
<path d="M73.4394 51.4446C73.8385 51.4446 74.162 51.1197 74.162 50.7189C74.162 50.3181 73.8385 49.9932 73.4394 49.9932C73.0403 49.9932 72.7168 50.3181 72.7168 50.7189C72.7168 51.1197 73.0403 51.4446 73.4394 51.4446Z" fill="white" stroke="white" stroke-linecap="round" stroke-linejoin="round"/>
<path d="M75.3213 54.79H86.7518" stroke="white" stroke-linecap="round" stroke-linejoin="round"/>
<path d="M74.1665 54.4978C74.1674 54.3532 74.1256 54.2115 74.0462 54.0907C73.9669 53.97 73.8536 53.8757 73.7208 53.8197C73.588 53.7636 73.4416 53.7485 73.3002 53.7762C73.1588 53.8038 73.0288 53.873 72.9266 53.975C72.8244 54.0769 72.7547 54.2071 72.7262 54.3489C72.6978 54.4907 72.7119 54.6378 72.7668 54.7715C72.8217 54.9053 72.915 55.0196 73.0347 55.1001C73.1544 55.1806 73.2952 55.2235 73.4392 55.2235C73.5345 55.2241 73.629 55.2058 73.7172 55.1696C73.8054 55.1334 73.8856 55.0801 73.9532 55.0126C74.0208 54.9452 74.0745 54.865 74.1111 54.7766C74.1477 54.6883 74.1665 54.5935 74.1665 54.4978Z" fill="white" stroke="white" stroke-linecap="round" stroke-linejoin="round"/>
<path d="M75.3213 58.5693H86.7518" stroke="white" stroke-linecap="round" stroke-linejoin="round"/>
<path d="M73.4394 59.0032C73.8385 59.0032 74.162 58.6782 74.162 58.2775C74.162 57.8767 73.8385 57.5518 73.4394 57.5518C73.0403 57.5518 72.7168 57.8767 72.7168 58.2775C72.7168 58.6782 73.0403 59.0032 73.4394 59.0032Z" fill="white" stroke="white" stroke-linecap="round" stroke-linejoin="round"/>
<path d="M75.3213 62.3438H86.7518" stroke="white" stroke-linecap="round" stroke-linejoin="round"/>
<path d="M74.1665 62.0564C74.1674 61.9118 74.1256 61.7701 74.0462 61.6493C73.9669 61.5286 73.8536 61.4343 73.7208 61.3782C73.588 61.3222 73.4416 61.3071 73.3002 61.3348C73.1588 61.3624 73.0288 61.4316 72.9266 61.5336C72.8244 61.6355 72.7547 61.7657 72.7262 61.9075C72.6978 62.0493 72.7119 62.1964 72.7668 62.3301C72.8217 62.4639 72.915 62.5782 73.0347 62.6587C73.1544 62.7391 73.2952 62.7821 73.4392 62.7821C73.5345 62.7827 73.629 62.7644 73.7172 62.7282C73.8054 62.692 73.8856 62.6387 73.9532 62.5712C74.0208 62.5038 74.0745 62.4236 74.1111 62.3352C74.1477 62.2469 74.1665 62.1521 74.1665 62.0564Z" fill="white" stroke="white" stroke-linecap="round" stroke-linejoin="round"/>
<path d="M75.3213 66.124H86.7518" stroke="white" stroke-linecap="round" stroke-linejoin="round"/>
<path d="M73.4394 66.5569C73.8385 66.5569 74.162 66.232 74.162 65.8312C74.162 65.4304 73.8385 65.1055 73.4394 65.1055C73.0403 65.1055 72.7168 65.4304 72.7168 65.8312C72.7168 66.232 73.0403 66.5569 73.4394 66.5569Z" fill="white" stroke="white" stroke-linecap="round" stroke-linejoin="round"/>
<path d="M75.3213 69.9023H86.7518" stroke="white" stroke-linecap="round" stroke-linejoin="round"/>
<path d="M73.4394 70.3362C73.8385 70.3362 74.162 70.0113 74.162 69.6105C74.162 69.2097 73.8385 68.8848 73.4394 68.8848C73.0403 68.8848 72.7168 69.2097 72.7168 69.6105C72.7168 70.0113 73.0403 70.3362 73.4394 70.3362Z" fill="white" stroke="white" stroke-linecap="round" stroke-linejoin="round"/>
<path d="M41.8931 90.0996C41.4989 92.8186 40.2883 101.88 41.025 106.122C41.9025 111.168 46.4915 153.565 46.4915 153.565H51.7375L53.5347 112.153L53.9241 119.09L55.0362 153.579H60.2822L66.3212 91.5746L64.9135 91.6028C52.5211 93.304 44.9196 91.2353 41.8931 90.0996Z" fill="white" stroke="#212121" stroke-linecap="round" stroke-linejoin="round"/>
<path d="M65.9311 60.3183C65.9311 60.3183 68.6058 61.7933 69.0281 63.1929C69.5724 64.9836 70.6563 74.8559 70.8111 77.1131C70.966 79.3703 71.7496 79.6766 71.0411 80.3787C70.3325 81.0809 68.6433 81.4673 67.2497 81.3212C66.6783 81.2719 66.1098 81.1933 65.5464 81.0856L65.0771 62.2693L65.1522 59.9131L65.9311 60.3183Z" fill="white" stroke="#212121" stroke-linecap="round" stroke-linejoin="round"/>
<path d="M71.8575 81.3066C71.4204 84.2208 71.1587 87.1588 71.0739 90.1046C71.0211 94.5982 70.6431 99.082 69.943 103.521C69.5864 105.995 70.1448 109.877 68.8826 112.097C68.2585 113.195 67.7893 114.453 67.1652 114.453C66.5411 114.453 66.5364 114.453 66.2267 113.666C65.917 112.879 66.0672 111.466 66.0672 110.683C66.0674 110.208 66.1209 109.733 66.2267 109.27C66.2267 109.27 65.7575 112.568 65.2883 111.626C64.819 110.683 64.5046 110.368 64.9739 108.798C65.4431 107.229 66.8508 103.455 66.8508 103.455L65.4431 84.4498L71.8575 81.3066Z" fill="white" stroke="#212121" stroke-linecap="round" stroke-linejoin="round"/>
<path d="M66.3213 80.6048C67.4398 80.7303 68.5719 80.6244 69.6481 80.2938C70.2598 80.1088 70.856 79.8756 71.4312 79.5964C71.4312 79.5964 71.9708 79.3608 71.9708 80.5388C71.9708 81.7169 72.4401 83.5689 72.3603 84.271C72.2805 84.9731 71.5861 85.5151 69.5731 85.5151C68.5008 85.5415 67.4305 85.4098 66.3964 85.1239L66.3213 80.6048Z" fill="white" stroke="#212121" stroke-linecap="round" stroke-linejoin="round"/>
<path d="M42.4752 80.4492L41.9309 90.0906C41.9309 90.0906 41.7761 90.4017 44.6431 91.1792C45.7946 91.4227 46.9669 91.5537 48.1435 91.5703H55.7498C58.232 91.4949 60.5031 91.3724 61.8498 91.2593C65.4863 90.9483 67.4242 89.0822 67.4242 89.0822C67.4242 89.0822 66.8048 70.4214 66.8048 66.463C66.8048 62.5047 65.9508 60.337 65.9508 60.337C65.9508 60.337 62.8539 58.2353 61.2304 57.0714C59.6068 55.9074 55.8108 54.6586 54.0277 55.0498C53.0044 55.2673 51.9965 55.5523 51.0105 55.9027C51.0105 55.9027 43.1697 60.0024 40.847 61.2606C38.5243 62.5188 38.7589 63.2822 38.4492 64.8373C38.1395 66.3923 35.9717 78.503 35.9717 78.503C35.9717 78.503 38.3178 80.289 39.8428 80.388C41.3678 80.4869 42.4752 80.4492 42.4752 80.4492Z" fill="white" stroke="#212121" stroke-linecap="round" stroke-linejoin="round"/>
<path d="M67.5688 91.5702H67.6251C67.6567 90.7359 67.5905 89.9009 67.4281 89.0821C67.4281 89.0821 66.8087 70.4213 66.8087 66.4629C66.8087 62.5045 65.9547 60.3369 65.9547 60.3369L64.6361 59.4368C65.0162 62.7637 65.1054 66.5572 65.1054 66.5572C65.1054 66.5572 60.6899 67.1792 56.2791 67.3347C51.8684 67.4902 49.2407 67.4101 49.2407 67.4101C49.2407 67.4101 49.0858 62.6695 48.0817 60.1814C47.6735 59.1682 47.3778 58.4425 47.1761 57.9336L45.6839 58.7206C45.7496 59.107 47.5608 69.5589 47.5608 71.9151C47.5608 74.2712 47.406 83.4226 47.406 85.3688C47.3311 87.1808 47.1525 88.9871 46.8711 90.7785L46.6646 90.7502L42.0661 89.3365H42.0333L41.7471 90.6796L45.454 92.5409L43.9243 120.862C43.9243 120.862 49.3908 122.181 57.4804 121.743C65.5699 121.305 69.4458 120.4 69.4458 120.4L67.5688 91.5702Z" fill="#212121" stroke="#212121" stroke-linecap="round" stroke-linejoin="round"/>
<path d="M52.385 53.0038C52.385 53.0038 51.0665 53.0792 50.8365 53.7013C50.6066 54.3233 49.2881 56.6559 49.2881 56.6559C49.5586 57.8653 49.8938 59.0593 50.2922 60.2326C50.6881 61.3515 51.1584 62.4426 51.6999 63.4982C51.6999 63.4982 54.5669 60.5436 55.496 60.2326C56.4251 59.9215 60.9156 62.8762 60.9156 62.8762C61.27 61.3475 61.3479 59.7673 61.1455 58.211C60.8359 55.4118 60.6059 54.7144 59.2686 54.1678C57.9313 53.6212 53.6238 52.4572 52.385 53.0038Z" fill="white" stroke="#212121" stroke-linecap="round" stroke-linejoin="round"/>
<path d="M51.5303 49.1166C51.5303 49.1166 51.6851 53.0797 51.9197 54.7149C52.1543 56.3501 54.5521 61.1661 56.1006 61.0106C57.649 60.8551 59.3523 57.2784 59.5823 55.8788C59.8122 54.4793 60.2017 51.1382 60.2017 51.1382C60.2017 51.1382 58.5781 51.9912 55.866 50.667C53.1538 49.3428 51.9948 48.0281 51.5303 49.1166Z" fill="white" stroke="#212121" stroke-linecap="round" stroke-linejoin="round"/>
<path d="M62.9144 38.6973C62.9144 38.6973 62.0604 41.8828 62.3701 43.8808C62.6798 45.8789 63.6886 47.6931 62.3701 50.0069C61.0516 52.3206 59.8175 53.428 57.415 53.428C55.0126 53.428 52.8494 52.0143 51.315 49.5403C49.7806 47.0664 49.6868 45.0306 49.6868 42.7734C49.6868 40.5162 48.7483 38.0328 49.5319 36.5532C50.3156 35.0735 53.0934 33.8341 56.1903 34.9981C59.2872 36.162 62.9144 38.6973 62.9144 38.6973Z" fill="white" stroke="#212121" stroke-linecap="round" stroke-linejoin="round"/>
<path d="M56.3311 48.5699C57.0636 48.9588 57.8448 49.2473 58.6537 49.4276C59.6626 49.5831 60.5917 48.4851 60.5917 48.4851C60.0301 48.1284 59.3793 47.9388 58.7147 47.9385C57.8888 48.0031 57.0813 48.217 56.3311 48.5699Z" fill="white" stroke="#212121" stroke-linecap="round" stroke-linejoin="round"/>
<path d="M59.198 42.4111C59.198 42.4111 58.9634 43.7306 59.3528 44.5081C59.7423 45.2857 60.5916 46.0632 59.7376 46.4543C58.8836 46.8454 57.4947 46.8407 57.3398 46.4543" stroke="#212121" stroke-linecap="round" stroke-linejoin="round"/>
<path d="M58.1136 46.8594C57.3156 47.183 56.4848 47.4185 55.6361 47.5615C54.4724 47.717 54.3175 48.0327 55.3264 48.2589C56.3352 48.4851 58.8878 48.339 58.8878 48.339C58.8878 48.339 60.5114 48.8103 61.2105 48.4144C61.9097 48.0186 61.5202 47.9432 60.8211 47.6369C60.1219 47.3306 59.3524 46.7039 58.1136 46.8594Z" fill="#212121" stroke="#212121" stroke-linecap="round" stroke-linejoin="round"/>
<path d="M55.946 44.4516C56.2025 44.4516 56.4105 44.0676 56.4105 43.594C56.4105 43.1203 56.2025 42.7363 55.946 42.7363C55.6894 42.7363 55.4814 43.1203 55.4814 43.594C55.4814 44.0676 55.6894 44.4516 55.946 44.4516Z" fill="#212121"/>
<path d="M60.2819 44.2908C60.5385 44.2908 60.7465 43.909 60.7465 43.4379C60.7465 42.9668 60.5385 42.585 60.2819 42.585C60.0254 42.585 59.8174 42.9668 59.8174 43.4379C59.8174 43.909 60.0254 44.2908 60.2819 44.2908Z" fill="#212121"/>
<path d="M55.3271 42.8166L56.4861 42.6611" stroke="#212121" stroke-linecap="round" stroke-linejoin="round"/>
<path d="M59.8174 42.7412H60.9013" stroke="#212121" stroke-linecap="round" stroke-linejoin="round"/>
<path d="M57.5699 41.4165C57.5699 41.4165 57.0303 40.9453 55.6366 41.1055C54.243 41.2657 54.3181 41.6521 54.3181 41.6521" stroke="#212121" stroke-linecap="round" stroke-linejoin="round"/>
<path d="M59.5928 41.5727C59.5928 41.5727 60.2122 40.6302 61.9389 41.0308" stroke="#212121" stroke-linecap="round" stroke-linejoin="round"/>
<path d="M50.6012 44.5269C51.2844 44.013 51.8413 43.3489 52.2295 42.5854C52.6987 41.4969 53.2336 40.9503 52.7691 40.0172C52.3046 39.0842 51.3614 38.5423 51.6101 37.8401C51.8588 37.138 56.72 37.0626 59.4275 38.1511C62.1349 39.2397 65.3116 39.3952 65.5275 38.3066C65.7433 37.2181 63.5145 36.5207 63.5145 36.5207C63.5145 36.5207 65.992 36.2097 64.0541 34.2635C62.1162 32.3173 60.3378 31.8555 55.4625 31.8555C50.5872 31.8555 48.9589 32.7979 48.7243 33.7404C48.4897 34.6829 48.3396 35.2154 48.3396 35.2154C48.0286 35.3071 47.7565 35.4992 47.5653 35.762C47.3307 36.1484 47.4856 37.4726 47.9501 38.3255C48.4146 39.1784 49.2686 41.4356 49.034 42.6797C48.7994 43.9237 48.5648 43.9237 48.8041 44.1594C49.0434 44.395 49.4422 45.46 50.6012 44.5269Z" fill="#212121" stroke="#212121" stroke-linecap="round" stroke-linejoin="round"/>
<path d="M51.4555 45.2388C51.4555 45.2388 50.517 42.5151 49.053 43.2172C47.589 43.9194 48.0489 46.1719 48.6682 46.8693C49.2876 47.5667 50.8361 48.7542 51.6103 48.0379" fill="white"/>
<path d="M51.4555 45.2388C51.4555 45.2388 50.517 42.5151 49.053 43.2172C47.589 43.9194 48.0489 46.1719 48.6682 46.8693C49.2876 47.5667 50.8361 48.7542 51.6103 48.0379" stroke="#212121" stroke-linecap="round" stroke-linejoin="round"/>
<path d="M35.8066 81.3066C36.2459 84.2207 36.5107 87.1586 36.5996 90.1046C36.6525 94.5982 37.0304 99.082 37.7305 103.521C38.0918 105.995 37.5287 109.877 38.7909 112.097C39.415 113.195 39.8843 114.453 40.513 114.453C41.1418 114.453 41.1371 114.453 41.4515 113.666C41.7659 112.879 41.6063 111.466 41.6063 110.683C41.6062 110.208 41.5542 109.734 41.4515 109.27C41.4515 109.27 41.9207 112.568 42.3899 111.626C42.8592 110.683 43.1689 110.368 42.6996 108.798C42.2304 107.229 40.8227 103.455 40.8227 103.455L42.2304 84.4498L35.8066 81.3066Z" fill="white" stroke="#212121" stroke-linecap="round" stroke-linejoin="round"/>
<path d="M42.4746 80.4493C41.3291 80.2199 40.23 79.7994 39.2228 79.2052C37.2098 78.1167 35.9711 77.3203 35.9711 77.3203C35.7788 77.4077 35.6171 77.5509 35.5067 77.7315C35.3963 77.9121 35.3423 78.1218 35.3517 78.3335C35.3517 79.111 35.042 81.519 35.042 82.5321C35.042 83.5453 35.8162 83.8516 37.7495 84.5537C39.6827 85.2559 41.6206 85.4067 42.0101 85.025C42.3995 84.6433 42.4746 80.4493 42.4746 80.4493Z" fill="white" stroke="#212121" stroke-linecap="round" stroke-linejoin="round"/>
<path d="M42.4746 80.4488L43.1691 71.665" stroke="#212121" stroke-linecap="round" stroke-linejoin="round"/>
<path d="M52.0141 160.069L51.7373 153.575H46.4913L39.4857 159.348C39.3363 159.471 39.2254 159.634 39.1663 159.819C39.1072 160.004 39.1024 160.202 39.1525 160.389C39.2048 160.597 39.3264 160.782 39.497 160.911C39.6677 161.04 39.8772 161.107 40.091 161.101L51.1367 160.974C51.2537 160.973 51.3695 160.949 51.4772 160.903C51.5849 160.857 51.6825 160.79 51.7641 160.706C51.8458 160.622 51.91 160.522 51.9529 160.413C51.9958 160.303 52.0166 160.186 52.0141 160.069Z" fill="white" stroke="#212121" stroke-linecap="round" stroke-linejoin="round"/>
<path d="M54.759 160.069L55.0358 153.575H60.2818L67.2874 159.348C67.4369 159.471 67.5478 159.634 67.6068 159.819C67.6659 160.004 67.6707 160.202 67.6206 160.389C67.5683 160.597 67.4468 160.782 67.2761 160.911C67.1054 161.04 66.8959 161.107 66.6821 161.101L55.6318 160.974C55.5151 160.972 55.3999 160.948 55.2927 160.902C55.1855 160.855 55.0885 160.788 55.0073 160.704C54.9262 160.62 54.8624 160.52 54.8198 160.411C54.7772 160.302 54.7565 160.186 54.759 160.069Z" fill="white" stroke="#212121" stroke-linecap="round" stroke-linejoin="round"/>
<path d="M88.2571 94.2471C88.2571 94.2471 83.4944 91.1605 81.9554 90.6233C81.656 90.5076 81.3376 90.4501 81.0169 90.4537L80.9606 90.3877H73.5796L73.1104 95.3309H88.4777C88.4495 94.4403 88.2571 94.2471 88.2571 94.2471Z" fill="white" stroke="#212121" stroke-linecap="round" stroke-linejoin="round"/>
<path d="M80.9509 95.3166C80.918 94.4401 80.7256 94.2327 80.7256 94.2327C80.7256 94.2327 75.9582 91.1462 74.4238 90.609C72.8895 90.0717 72.5 90.9907 72.5 90.9907V95.3166H80.9509Z" fill="#212121" stroke="#212121" stroke-linecap="round" stroke-linejoin="round"/>
<path d="M76.8076 90.915L79.1115 92.3052H84.0291L81.3404 90.9904L76.8076 90.915Z" fill="white" stroke="#212121" stroke-linecap="round" stroke-linejoin="round"/>
<path d="M26.1074 162.91H130.591V138.957L113.384 95.915H26.1074V162.91Z" fill="#BEEBC3"/>
<mask id="mask0_85_3737" style="mask-type:luminance" maskUnits="userSpaceOnUse" x="26" y="95" width="105" height="68">
<path d="M26.1074 162.91H130.591V138.957L113.384 95.915H26.1074V162.91Z" fill="white"/>
</mask>
<g mask="url(#mask0_85_3737)">
<path opacity="0.7" d="M53.6137 142.421L99.8658 95.915H90.27L44.6045 142.421H53.6137Z" fill="white"/>
<path opacity="0.7" d="M93.2026 142.421L139.455 95.915H129.859L84.1934 142.421H93.2026Z" fill="white"/>
<path opacity="0.7" d="M105.91 142.421L152.162 95.915H142.566L96.9004 142.421H105.91Z" fill="white"/>
<path opacity="0.7" d="M22.5786 142.421L68.8306 95.915H59.2349L13.5693 142.421H22.5786Z" fill="white"/>
</g>
<path d="M26.1074 162.91H130.591V138.957L113.384 95.915H26.1074V162.91Z" stroke="#212121" stroke-linecap="round" stroke-linejoin="round"/>
<path d="M75.109 96.0884L72.835 96.668L84.8021 144.024L87.0761 143.445L75.109 96.0884Z" fill="#212121"/>
<path d="M116.087 94.6611H26.1074V97.644H116.087V94.6611Z" fill="white" stroke="#212121" stroke-linecap="round" stroke-linejoin="round"/>
<path d="M67.8692 103.926L43 127.723" stroke="#212121" stroke-linecap="round" stroke-linejoin="round"/>
<path d="M42.6666 132.643L40.4189 134.791" stroke="#212121" stroke-linecap="round" stroke-linejoin="round"/>
<path d="M65.2885 110.994L45.0693 130.348" stroke="#212121" stroke-linecap="round" stroke-linejoin="round"/>
<path d="M92.9684 125.484L90.627 127.723" stroke="#212121" stroke-linecap="round" stroke-linejoin="round"/>
<path d="M115.496 103.926L95.7129 122.86" stroke="#212121" stroke-linecap="round" stroke-linejoin="round"/>
<path d="M112.915 110.994L88.0459 134.791" stroke="#212121" stroke-linecap="round" stroke-linejoin="round"/>
<path d="M130.591 138.957H26.1074V162.91H130.591V138.957Z" fill="white" stroke="#212121" stroke-linecap="round" stroke-linejoin="round"/>
<path d="M28.5898 85.7646H31.8416C32.0656 85.7646 32.2804 85.854 32.4388 86.0131C32.5972 86.1722 32.6862 86.3879 32.6862 86.6129V94.5955H27.7452V86.6223C27.7439 86.5101 27.7649 86.3988 27.8067 86.2948C27.8486 86.1908 27.9107 86.0962 27.9892 86.0164C28.0678 85.9366 28.1613 85.8733 28.2644 85.8301C28.3675 85.7869 28.4781 85.7646 28.5898 85.7646Z" fill="white" stroke="#212121" stroke-linecap="round" stroke-linejoin="round"/>
<path d="M31.0576 83.1113H29.373V85.7738H31.0576V83.1113Z" fill="white" stroke="#212121" stroke-linecap="round" stroke-linejoin="round"/>
<path d="M34.1308 85.7637H37.3826C37.6066 85.7637 37.8214 85.853 37.9798 86.0121C38.1382 86.1712 38.2272 86.3869 38.2272 86.6119V94.5946H33.2862V86.6213C33.2849 86.5091 33.3059 86.3978 33.3478 86.2938C33.3896 86.1898 33.4517 86.0952 33.5302 86.0154C33.6088 85.9357 33.7023 85.8723 33.8054 85.8291C33.9085 85.7859 34.0191 85.7637 34.1308 85.7637Z" fill="white" stroke="#212121" stroke-linecap="round" stroke-linejoin="round"/>
<path d="M36.5947 83.1113H34.9102V85.7738H36.5947V83.1113Z" fill="white" stroke="#212121" stroke-linecap="round" stroke-linejoin="round"/>
<path d="M126.622 172.051C137.582 172.051 146.466 170.036 146.466 167.551C146.466 165.066 137.582 163.051 126.622 163.051C115.663 163.051 106.778 165.066 106.778 167.551C106.778 170.036 115.663 172.051 126.622 172.051Z" fill="#BEEBC3"/>
<path opacity="0.5" d="M126.622 172.051C137.582 172.051 146.466 170.036 146.466 167.551C146.466 165.066 137.582 163.051 126.622 163.051C115.663 163.051 106.778 165.066 106.778 167.551C106.778 170.036 115.663 172.051 126.622 172.051Z" fill="white"/>
<path d="M105.877 85.6084C103.923 86.4172 101.873 86.9669 99.7774 87.2436C97.5341 87.5931 95.2529 87.6216 93.0017 87.3284C91.8139 86.8792 90.5848 86.5492 89.3323 86.3435C87.2911 86.0137 85.1092 86.9985 85.006 87.9834C84.9027 88.9683 86.8031 90.5234 89.0883 91.282C91.3734 92.0407 92.2697 91.3669 99.3691 92.102C106.469 92.8371 109.157 92.757 110.382 91.692C110.675 91.4262 110.907 91.1005 111.064 90.7369C111.22 90.3732 111.297 89.98 111.29 89.5839C111.282 89.1877 111.19 88.7978 111.02 88.4404C110.849 88.083 110.605 87.7665 110.302 87.5122C108.974 86.4236 105.877 85.6084 105.877 85.6084Z" fill="white" stroke="#212121" stroke-linecap="round" stroke-linejoin="round"/>
<path d="M121.948 61.1897C121.948 61.1897 120.235 61.8447 115.75 62.9945C111.264 64.1443 110.691 63.8946 109.79 66.0245C108.889 68.1545 108.65 73.8093 108.486 74.4643C108.322 75.1193 106.693 81.9192 106.693 81.9192C106.693 81.9192 106.201 81.0993 105.713 82.1643C105.225 83.2293 104.08 84.789 104.568 85.199C105.056 85.609 106.693 87.0839 107.669 87.8992C108.286 88.4069 108.974 88.8212 109.711 89.1291L107.754 102.484L110.935 104.289C110.935 104.289 111.752 95.0289 113.056 88.3091C114.361 81.5894 115.341 74.5444 116.402 72.5794C117.462 70.6144 118.114 69.2808 118.114 69.2808L122.436 61.741C122.436 61.741 122.685 61.0248 121.948 61.1897Z" fill="#BEEBC3" stroke="#212121" stroke-linecap="round" stroke-linejoin="round"/>
<path d="M109.711 89.129C110.135 86.2523 110.38 83.3517 110.443 80.4442C110.481 77.2416 111.004 74.0635 111.996 71.0195" stroke="#212121" stroke-linecap="round" stroke-linejoin="round"/>
<path d="M128.719 38.9044C128.719 38.9044 129.864 36.6095 133.29 36.7697C136.715 36.93 140.713 44.7807 140.877 49.5543C141.041 54.3279 138.592 55.2892 139.47 57.4192C140.347 59.5491 144.204 60.4492 144.204 65.039C144.204 69.6288 142.979 74.2186 138.494 75.1988C134.008 76.1789 131.455 74.6286 128.945 69.0727C126.434 63.5169 127.316 60.3879 127.804 56.0479C128.292 51.7078 127.725 47.2782 127.396 44.9032C127.068 42.5282 127.415 40.5255 128.719 38.9044Z" fill="#212121" stroke="#212121" stroke-linecap="round" stroke-linejoin="round"/>
<path d="M116.074 65.2038C116.071 66.2467 115.989 67.288 115.83 68.3186C115.586 69.6286 115.665 69.2187 116.299 68.9736C116.932 68.7286 118.34 66.7588 118.34 66.7588C118.34 66.7588 117.308 65.0294 116.074 65.2038Z" fill="white" stroke="#212121" stroke-linecap="round" stroke-linejoin="round"/>
<path d="M122.601 59.2246C122.601 59.2246 120.157 61.5195 118.768 62.9097C117.934 63.7476 117.033 64.5152 116.074 65.2046L118.115 69.2996C118.115 69.2996 119.992 65.7795 120.56 64.3846C121.128 62.9898 122.601 59.2246 122.601 59.2246Z" fill="white" stroke="#212121" stroke-linecap="round" stroke-linejoin="round"/>
<path d="M115.229 162.622C115.229 162.622 112.474 164.465 110.067 165.101C107.66 165.737 107.036 166.095 107.318 166.873C107.599 167.65 108.871 168.15 110.705 168.286C112.54 168.423 115.431 167.791 116.697 167.791C117.964 167.791 120.156 168.498 121.634 168.004C123.112 167.509 123.173 166.802 123.074 165.063C123.076 164.308 122.971 163.556 122.765 162.829L115.229 162.622Z" fill="white" stroke="#212121" stroke-linecap="round" stroke-linejoin="round"/>
<path d="M111.47 93.3035C111.47 93.3035 110.766 98.2515 110.062 103.906C109.359 109.561 109.945 118.161 110.884 121.931C111.822 125.701 112.878 127.939 113.112 131.238C113.347 134.536 115.459 143.019 115.811 148.556C116.056 152.048 116.017 155.555 115.693 159.041C115.672 159.645 115.553 160.242 115.341 160.808C115.341 160.808 114.52 160.69 114.52 161.161C114.52 161.632 114.403 163.164 114.403 163.164C115.595 163.582 116.809 163.936 118.039 164.224C119.682 164.577 123.084 165.049 123.084 165.049C123.532 163 123.689 160.898 123.553 158.805C123.318 155.388 124.374 149.969 124.374 145.021C124.374 140.073 124.374 136.775 124.491 133.594C124.609 130.413 124.374 114.156 124.491 109.679C124.609 105.202 127.541 100.136 127.541 96.9556C127.541 93.7748 126.837 93.1857 125.664 92.7145C124.491 92.2432 111.47 93.3035 111.47 93.3035Z" fill="#212121" stroke="#212121" stroke-linecap="round" stroke-linejoin="round"/>
<path d="M123.76 163.687C123.76 163.687 121.93 164.889 119.743 166.236C117.557 167.584 115.933 168.149 117.557 169.351C119.18 170.553 124.468 170.699 126.514 170.133C128.56 169.568 131.854 168.362 132.577 168.23C133.299 168.098 133.426 167.518 133.21 166.458C132.994 165.397 127.579 164.403 125.946 163.767C124.313 163.131 123.76 163.687 123.76 163.687Z" fill="white" stroke="#212121" stroke-linecap="round" stroke-linejoin="round"/>
<path d="M116.046 102.512L119.917 106.753C119.917 106.753 120.386 118.534 120.386 124.424C120.42 128.73 120.813 133.025 121.559 137.265C121.794 138.443 124.374 148.928 124.374 151.991C124.374 155.054 124.844 159.649 124.844 160.355C124.844 161.062 123.788 161.062 123.671 162.24C123.628 162.842 123.51 163.436 123.319 164.007C124.754 164.484 126.163 165.034 127.542 165.657C128.949 166.364 133.172 167.306 133.524 167.07C133.876 166.835 134.111 164.597 133.994 163.183C133.876 161.769 133.642 159.295 133.642 158.706C133.642 158.117 134.346 148.103 134.346 143.038C134.346 137.972 132.117 131.139 131.53 129.136C131.1 127.644 130.902 126.094 130.944 124.542C130.944 123.481 133.759 110.405 133.642 103.807C133.524 97.2102 131.999 94.265 131.999 94.265C131.999 94.265 126.486 95.5609 121.324 94.6184C116.163 93.676 115.459 93.7938 115.459 93.7938" fill="#212121"/>
<path d="M116.046 102.512L119.917 106.753C119.917 106.753 120.386 118.534 120.386 124.424C120.42 128.73 120.813 133.025 121.559 137.265C121.794 138.443 124.374 148.928 124.374 151.991C124.374 155.054 124.844 159.649 124.844 160.355C124.844 161.062 123.788 161.062 123.671 162.24C123.628 162.842 123.51 163.436 123.319 164.007C124.754 164.484 126.163 165.034 127.542 165.657C128.949 166.364 133.172 167.306 133.524 167.07C133.876 166.835 134.111 164.597 133.994 163.183C133.876 161.769 133.642 159.295 133.642 158.706C133.642 158.117 134.346 148.103 134.346 143.038C134.346 137.972 132.117 131.139 131.53 129.136C131.1 127.644 130.902 126.094 130.944 124.542C130.944 123.481 133.759 110.405 133.642 103.807C133.524 97.2102 131.999 94.265 131.999 94.265C131.999 94.265 126.486 95.5609 121.324 94.6184C116.163 93.676 115.459 93.7938 115.459 93.7938" stroke="#212121" stroke-linecap="round" stroke-linejoin="round"/>
<path d="M122.385 142.104C121.484 137.039 120.199 129.541 120.011 127.063C119.711 123.189 119.415 108.289 119.415 108.289L114.962 105.014" stroke="white" stroke-linecap="round" stroke-linejoin="round"/>
<path d="M123.272 147.024C123.272 147.024 123.112 146.162 122.863 144.786" stroke="white" stroke-linecap="round" stroke-linejoin="round"/>
<path d="M121.15 62.716C121.15 62.716 121.207 61.8678 124.257 61.6322C127.307 61.3966 129.066 62.4569 129.535 64.224C130.005 65.9911 128.714 85.5473 128.832 88.2569C128.949 90.9664 128.832 95.561 128.832 95.561C128.832 95.561 129.183 96.9747 122.028 97.2103C114.872 97.4459 113.582 96.6212 111.235 94.9719C111.235 94.9719 111.235 93.087 113.347 81.6596C115.458 70.2322 118.41 68.6583 119.348 67.009L121.15 62.716Z" fill="white" stroke="#212121" stroke-linecap="round" stroke-linejoin="round"/>
<path d="M128.232 38.2444C125.649 37.3271 122.814 37.4453 120.316 38.5743C115.994 40.4592 116.89 44.8841 116.726 46.114C116.562 47.3439 115.342 48.4042 115.666 50.209C115.99 52.0139 116.726 57.0183 118.523 57.4896C119.657 57.7729 120.848 57.7155 121.949 57.3246C121.949 57.3246 121.62 62.2396 120.541 64.3696C119.462 66.4996 118.096 69.6945 118.096 69.6945C118.096 69.6945 122.826 70.5145 124.539 70.4343C125.516 70.3987 126.481 70.2046 127.397 69.8594C127.397 69.8594 128.129 59.4546 128.213 57.4896C128.297 55.5245 128.377 53.3899 129.109 53.1448C129.841 52.8998 132.126 51.34 132.863 48.31C133.6 45.2799 131.821 39.3942 128.232 38.2444Z" fill="white" stroke="#212121" stroke-linecap="round" stroke-linejoin="round"/>
<path d="M120.217 48.6123C120.217 48.6123 120.625 49.3521 119.644 49.9223C118.664 50.4925 117.932 50.4171 118.584 50.9072C118.875 51.1527 119.205 51.347 119.56 51.4821" stroke="#212121" stroke-linecap="round" stroke-linejoin="round"/>
<path d="M118.767 53.0174C118.767 53.0174 120.235 54.2426 122.112 52.6074" stroke="#212121" stroke-linecap="round" stroke-linejoin="round"/>
<path d="M122.845 48.881C122.845 49.2627 122.629 49.5737 122.375 49.5737C122.122 49.5737 121.906 49.2627 121.906 48.881C121.906 48.4993 122.122 48.1836 122.375 48.1836C122.629 48.1836 122.845 48.4946 122.845 48.881Z" fill="#212121"/>
<path d="M119.091 48.2201C119.091 48.6065 118.875 48.9175 118.622 48.9175C118.368 48.9175 118.152 48.6065 118.152 48.2201C118.152 47.8336 118.373 47.5273 118.622 47.5273C118.87 47.5273 119.091 47.8384 119.091 48.2201Z" fill="#212121"/>
<path d="M122.276 46.4628C122.276 46.4628 123.252 45.478 124.313 47.033" stroke="#212121" stroke-linecap="round" stroke-linejoin="round"/>
<path d="M117.706 45.8087C117.706 45.8087 119.339 44.5788 119.991 46.28" stroke="#212121" stroke-linecap="round" stroke-linejoin="round"/>
<path d="M122.765 48.4286C122.397 48.2917 122.012 48.2092 121.62 48.1836" stroke="#212121" stroke-linecap="round" stroke-linejoin="round"/>
<path d="M119.01 47.7724C118.644 47.6358 118.26 47.5533 117.87 47.5273" stroke="#212121" stroke-linecap="round" stroke-linejoin="round"/>
<path d="M128.231 38.2441C126.542 37.5315 124.682 37.3347 122.883 37.6784C121.083 38.022 119.425 38.8908 118.114 40.1761C118.63 39.8133 121.619 38.7106 124.984 40.6191C126.654 41.5616 127.33 43.4889 127.414 44.8838C127.499 46.2786 128.883 46.6038 128.822 47.4237C128.761 48.2437 128.414 48.9788 129.291 49.3086C130.169 49.6385 129.944 49.8788 129.535 51.5187C129.399 52.0701 129.202 52.6403 129.099 53.1727H129.127C129.864 52.9277 132.144 51.3679 132.881 48.3379C133.618 45.3079 131.82 39.3939 128.231 38.2441Z" fill="#212121" stroke="#212121" stroke-linecap="round" stroke-linejoin="round"/>
<path d="M128.569 49.8789C128.569 49.8789 129.793 47.9139 130.854 48.3238C131.914 48.7338 131.346 51.8487 129.549 52.6686C127.752 53.4886 127.916 52.9136 127.757 52.0136" fill="white"/>
<path d="M128.569 49.8789C128.569 49.8789 129.793 47.9139 130.854 48.3238C131.914 48.7338 131.346 51.8487 129.549 52.6686C127.752 53.4886 127.916 52.9136 127.757 52.0136" stroke="#212121" stroke-linecap="round" stroke-linejoin="round"/>
<path d="M121.948 57.3391C123.098 56.8789 124.199 56.3026 125.233 55.6191" stroke="#212121" stroke-linecap="round" stroke-linejoin="round"/>
<path d="M138.02 90.8477C137.959 92.8634 138.179 94.8776 138.672 96.8324C139.488 99.9425 140.797 105.187 140.797 105.842C140.797 106.497 139.573 107.152 138.92 107.727C138.268 108.302 138.428 109.692 138.512 110.267C138.597 110.842 140.225 111.681 140.225 111.681C140.225 111.681 141.773 112.501 142.017 112.006C142.261 111.511 143.65 110.286 143.815 109.466C143.954 107.859 144.009 106.245 143.979 104.631C143.979 103.651 144.547 92.9165 142.998 89.3115L138.02 89.8864V90.8477Z" fill="white" stroke="#212121" stroke-linecap="round" stroke-linejoin="round"/>
<path d="M123.662 65.4485C124.147 67.3889 124.501 69.36 124.722 71.3483C124.966 74.0532 123.906 89.0478 123.662 95.2728C123.544 98.7857 123.218 102.288 122.686 105.762C124.837 106.181 127.021 106.401 129.213 106.417C132.638 106.417 136.96 105.188 136.96 105.188C136.96 105.188 133.534 93.7979 133.534 90.1929C133.534 86.588 134.515 77.8231 134.515 77.8231L136.228 88.3928C137.408 88.653 138.627 88.6802 139.817 88.4729C141.058 88.2904 142.266 87.9318 143.407 87.4079C143.407 87.4079 144.139 85.278 144.139 81.428C144.139 77.578 141.938 72.1683 141.042 69.2985C140.146 66.4287 141.206 65.4485 138.348 64.5484C135.491 63.6484 130.189 61.5985 129.616 61.4336C129.616 61.4336 126.927 65.1233 125.782 65.6747C125.443 65.8376 125.065 65.9027 124.69 65.8627C124.316 65.8228 123.96 65.6794 123.662 65.4485Z" fill="#BEEBC3" stroke="#212121" stroke-linecap="round" stroke-linejoin="round"/>
<path d="M132.938 73.5166L134.514 77.8237L131.887 75.6324" stroke="#212121" stroke-linecap="round" stroke-linejoin="round"/>
<path d="M139.141 65.5244C139.141 65.5244 135.162 68.3518 134.224 71.6504" stroke="#212121" stroke-linecap="round" stroke-linejoin="round"/>
<path d="M123.661 65.449C123.661 65.449 126.683 70.364 126.599 70.6326C126.514 70.9012 131.005 61.1278 131.005 61.1278L128.719 58.5879L123.661 65.449Z" fill="white" stroke="#212121" stroke-linecap="round" stroke-linejoin="round"/>
<path d="M105.712 82.1633C105.243 83.2283 104.079 84.788 104.567 85.198C105.055 85.608 106.693 87.083 107.669 87.8982C108.285 88.4056 108.971 88.82 109.705 89.1281C110.031 87.3933 110.25 85.6402 110.362 83.8786L106.693 81.9135C106.693 81.9135 106.2 81.0983 105.712 82.1633Z" fill="white" stroke="#212121" stroke-linecap="round" stroke-linejoin="round"/>
<path d="M136.306 87.0789C136.306 87.0789 135.49 86.9988 135.574 87.4889C135.659 87.979 135.818 90.0289 136.044 90.4388C136.269 90.8488 137.451 90.8488 138 90.8488C138.549 90.8488 143.467 90.8488 143.795 90.0288C144.124 89.2089 143.875 86.6737 143.631 86.259C143.387 85.8443 136.306 87.0789 136.306 87.0789Z" fill="white" stroke="#212121" stroke-linecap="round" stroke-linejoin="round"/>
<path d="M139.896 111.253L140.549 110.763" stroke="#212121" stroke-linecap="round" stroke-linejoin="round"/>
<path d="M139.737 110.104C140.315 110.359 140.799 110.789 141.122 111.333" stroke="#212121" stroke-linecap="round" stroke-linejoin="round"/>
<path d="M78.6055 82.4181L76.8787 85.7167C76.8406 85.7893 76.8178 85.8689 76.8114 85.9507C76.805 86.0325 76.8154 86.1147 76.8417 86.1923C76.8681 86.2699 76.9099 86.3413 76.9647 86.4022C77.0194 86.463 77.086 86.512 77.1602 86.5461L87.3801 91.2585C87.5245 91.3241 87.6889 91.3297 87.8375 91.2741C87.986 91.2185 88.1067 91.1061 88.1731 90.9616L89.7168 87.5499C89.7822 87.4048 89.7878 87.2397 89.7324 87.0905C89.677 86.9413 89.5652 86.8202 89.4212 86.7535L79.3844 82.1589C79.246 82.0949 79.0886 82.086 78.944 82.1341C78.7994 82.1822 78.6783 82.2838 78.6055 82.4181Z" fill="#212121" stroke="#212121" stroke-linecap="round" stroke-linejoin="round"/>
<path d="M92.9074 87.899C92.9074 87.899 91.2744 84.869 90.6222 84.5391C89.97 84.2093 88.5811 84.1339 88.0931 84.459C87.1776 85.0191 86.1443 85.3563 85.0759 85.4439C84.0154 85.4439 84.0154 85.6088 84.4237 86.0141C84.8319 86.4193 85.0759 86.834 86.0519 86.834C87.0279 86.834 88.4215 86.6738 88.4215 86.6738C88.4215 86.6738 89.238 89.4588 90.7677 89.4588" fill="white"/>
<path d="M92.9074 87.899C92.9074 87.899 91.2744 84.869 90.6222 84.5391C89.97 84.2093 88.5811 84.1339 88.0931 84.459C87.1776 85.0191 86.1443 85.3563 85.0759 85.4439C84.0154 85.4439 84.0154 85.6088 84.4237 86.0141C84.8319 86.4193 85.0759 86.834 86.0519 86.834C87.0279 86.834 88.4215 86.6738 88.4215 86.6738C88.4215 86.6738 89.238 89.4588 90.7677 89.4588" stroke="#212121" stroke-linecap="round" stroke-linejoin="round"/>
<path d="M136.104 125.956L137.747 148.929L154.874 146.926L150.064 125.014L136.104 125.956Z" fill="#BEEBC3" stroke="#212121" stroke-linecap="round" stroke-linejoin="round"/>
<path d="M136.105 125.955L133.642 147.75L137.747 148.928L136.105 125.955Z" fill="#BEEBC3" stroke="#212121" stroke-linecap="round" stroke-linejoin="round"/>
<path d="M136.105 125.955L140.549 110.763" stroke="#212121" stroke-linecap="round" stroke-linejoin="round"/>
<path d="M143.026 110.758L150.065 125.013" stroke="#212121" stroke-linecap="round" stroke-linejoin="round"/>
<path d="M92.9355 72.7673C92.9375 71.4988 92.5848 70.2551 91.9177 69.1779C91.2505 68.1007 90.2957 67.2332 89.1618 66.6741C88.0279 66.115 86.7605 65.8868 85.5038 66.0154C84.2472 66.144 83.0517 66.6243 82.0534 67.4016C81.0552 68.1789 80.2942 69.2221 79.8572 70.4123C79.4201 71.6025 79.3245 72.8921 79.5813 74.1341C79.838 75.3762 80.4368 76.521 81.3095 77.4382C82.1821 78.3554 83.2936 79.0081 84.5175 79.3222L86.1317 82.1496L87.6707 79.3929C89.1677 79.0542 90.505 78.2134 91.462 77.0089C92.4191 75.8044 92.9389 74.3083 92.9355 72.7673Z" fill="#212121" stroke="#212121" stroke-linecap="round" stroke-linejoin="round"/>
<path d="M86.8307 76.2968V77.4184H85.8359V76.3393C84.9518 76.3097 84.0936 76.0322 83.3584 75.5382L83.9074 74.3224C84.4788 74.721 85.1432 74.9645 85.8359 75.0292V73.3611C84.7332 73.0925 83.4898 72.7202 83.4898 71.2923C83.4898 70.2368 84.2546 69.3273 85.8359 69.1482V68.0361H86.8307V69.1247C87.5419 69.1666 88.2332 69.3765 88.8484 69.7373L88.351 70.9625C87.883 70.6912 87.3664 70.5151 86.8307 70.4441V72.1453C87.9334 72.4045 89.1487 72.772 89.1487 74.181C89.1534 75.2083 88.3932 76.1084 86.8307 76.2968ZM85.8359 71.8861V70.4724C85.3104 70.5902 85.0992 70.8824 85.0992 71.2075C85.0992 71.5327 85.3996 71.7447 85.8359 71.8861ZM87.5439 74.2894C87.5439 73.9407 87.2577 73.7522 86.8307 73.6014V74.9821C87.3281 74.869 87.5439 74.6098 87.5439 74.2894Z" fill="#BEEBC3"/>
</g>
<defs>
<clipPath id="clip0_85_3737">
<rect width="183" height="172" fill="white"/>
</clipPath>
</defs>
</svg>
