<svg width="609" height="569" viewBox="0 0 609 569" fill="none" xmlns="http://www.w3.org/2000/svg">
<g clip-path="url(#clip0_99_1247)">
<path opacity="0.7" d="M37.779 160.007C37.779 160.007 -2.84047 264.954 54.2423 370.629C111.325 476.305 228.9 532.131 323.004 579.867C417.107 627.603 514.824 604.354 561.257 526.169C607.689 447.984 544.006 392.173 543.919 280.681C543.832 169.19 560.601 139.674 500.211 45.4843C439.821 -48.7053 291.781 -69.5635 179.83 0.298943C67.8793 70.1614 37.779 160.007 37.779 160.007Z" fill="white"/>
<path d="M39.3377 545.643H347.028C348.267 543.66 349.52 541.678 350.802 539.739C383.904 489.336 436.907 453.392 494.791 436.527C520.725 428.977 548.814 424.487 569.649 407.288C591.095 389.607 600.944 361.388 605.198 333.913C610.37 300.65 607.573 263.351 585.005 238.382C558.503 209.07 514.096 205.776 479.566 186.565C420.138 153.477 397.103 78.1343 343.036 36.8552C308.871 10.7789 262.774 0.677776 221.455 6.39154C162.901 14.5103 107.814 53.7633 91.2776 111.338C86.5238 128.107 84.8261 145.595 86.2657 162.966C88.9028 197.292 96.2894 232.056 89.3253 265.77C81.6472 302.924 57.4912 334.277 43.0529 369.39C25.0743 413.118 22.6558 462.093 30.2756 508.707C32.315 521.239 35.3453 533.59 39.3377 545.643Z" fill="#BEEBC3"/>
<path opacity="0.7" d="M39.3377 545.643H347.028C348.267 543.66 349.52 541.678 350.802 539.739C383.904 489.336 436.907 453.392 494.791 436.527C520.725 428.977 548.814 424.487 569.649 407.288C591.095 389.607 600.944 361.388 605.198 333.913C610.37 300.65 607.573 263.351 585.005 238.382C558.503 209.07 514.096 205.776 479.566 186.565C420.138 153.477 397.103 78.1343 343.036 36.8552C308.871 10.7789 262.774 0.677776 221.455 6.39154C162.901 14.5103 107.814 53.7633 91.2776 111.338C86.5238 128.107 84.8261 145.595 86.2657 162.966C88.9028 197.292 96.2894 232.056 89.3253 265.77C81.6472 302.924 57.4912 334.277 43.0529 369.39C25.0743 413.118 22.6558 462.093 30.2756 508.707C32.315 521.239 35.3453 533.59 39.3377 545.643Z" fill="white"/>
<path d="M-0.0146484 545.643H609.452" stroke="#212121" stroke-linecap="round" stroke-linejoin="round"/>
<path d="M345.295 81.7342V58.85L328.162 57.3924C327.16 53.8135 325.742 50.3645 323.937 47.1164L334.995 33.9981L318.823 17.8188L305.71 28.8819C302.491 27.0688 299.067 25.6449 295.512 24.6403L294.055 7.49902H270.991L269.535 24.6403C265.979 25.6449 262.555 27.0688 259.336 28.8819L246.224 17.8188L230.052 33.9981L241.11 47.1164C239.304 50.3645 237.886 53.8135 236.885 57.3924L219.751 58.85V81.7342L236.885 83.1918C237.891 86.7457 239.309 90.1699 241.11 93.3949L230.052 106.513L246.224 122.693L259.336 111.629C262.555 113.443 265.979 114.866 269.535 115.871L270.991 133.012H293.865L295.322 115.871C298.902 114.868 302.349 113.444 305.594 111.629L318.706 122.693L334.878 106.513L323.82 93.3949C325.62 90.1699 327.038 86.7457 328.045 83.1918L345.295 81.7342ZM282.501 96.8786C277.245 96.8786 272.107 95.3193 267.737 92.398C263.367 89.4766 259.961 85.3244 257.95 80.4663C255.938 75.6083 255.412 70.2626 256.437 65.1053C257.463 59.9481 259.994 55.2108 263.71 51.4926C267.427 47.7744 272.162 45.2423 277.317 44.2165C282.472 43.1906 287.815 43.7171 292.671 45.7294C297.527 47.7417 301.677 51.1493 304.597 55.5215C307.517 59.8936 309.076 65.0338 309.076 70.2921C309.074 73.7879 308.383 77.249 307.043 80.4775C305.704 83.7061 303.741 86.6388 301.267 89.108C298.794 91.5771 295.858 93.5343 292.628 94.8677C289.398 96.201 285.937 96.8843 282.443 96.8786H282.501Z" stroke="#212121" stroke-linecap="round" stroke-linejoin="round"/>
<path d="M591.067 305.402V294.441L582.85 293.727C582.366 292.012 581.686 290.359 580.825 288.8L586.128 282.489L578.406 274.734L572.112 280.04C570.557 279.171 568.904 278.491 567.188 278.014L566.474 269.793H555.503L554.804 278.014C553.087 278.489 551.433 279.169 549.879 280.04L543.571 274.734L535.82 282.489L541.123 288.8C540.25 290.356 539.566 292.009 539.083 293.727L530.866 294.441V305.402L539.083 306.116C539.566 307.833 540.25 309.487 541.123 311.043L535.776 317.296L543.527 325.05L549.836 319.745C551.39 320.616 553.043 321.296 554.76 321.771L555.459 329.992H566.43L567.144 321.771C568.86 321.293 570.513 320.613 572.068 319.745L578.362 325.05L586.128 317.296L580.825 310.985C581.686 309.426 582.366 307.772 582.85 306.058L591.067 305.402ZM560.952 312.69C558.43 312.693 555.964 311.947 553.865 310.548C551.767 309.148 550.131 307.157 549.164 304.827C548.197 302.497 547.942 299.932 548.432 297.457C548.923 294.982 550.136 292.708 551.918 290.923C553.7 289.138 555.972 287.921 558.445 287.428C560.918 286.935 563.482 287.187 565.813 288.151C568.143 289.116 570.135 290.751 571.536 292.849C572.938 294.946 573.686 297.413 573.686 299.936C573.684 301.611 573.352 303.269 572.71 304.816C572.067 306.362 571.127 307.767 569.941 308.95C568.756 310.133 567.35 311.071 565.802 311.71C564.255 312.349 562.597 312.677 560.923 312.675L560.952 312.69Z" stroke="#212121" stroke-linecap="round" stroke-linejoin="round"/>
<path d="M582.776 105.654C583.94 100.616 583.779 95.363 582.309 90.4063C580.839 85.4497 578.11 80.9586 574.389 77.3709C570.668 73.7831 566.081 71.2212 561.076 69.9347C556.071 68.6482 550.817 68.681 545.829 70.0301C542.789 64.6381 538.089 60.3731 532.43 57.8708C526.77 55.3686 520.454 54.7631 514.423 56.1447C508.391 57.5262 502.967 60.8208 498.96 65.5373C494.952 70.2538 492.576 76.1397 492.184 82.3176C489.013 81.7109 485.75 81.7665 482.602 82.481C479.453 83.1955 476.486 84.5534 473.886 86.4695C471.287 88.3857 469.112 90.8187 467.497 93.6158C465.882 96.413 464.862 99.5139 464.502 102.724C461.255 103.066 458.252 104.607 456.08 107.047C453.909 109.487 452.726 112.65 452.763 115.917C452.799 119.183 454.052 122.319 456.278 124.71C458.503 127.101 461.539 128.575 464.794 128.844H574.472C577.158 128.824 579.773 127.98 581.963 126.425C584.153 124.87 585.814 122.68 586.72 120.15C587.626 117.621 587.733 114.874 587.028 112.281C586.323 109.689 584.839 107.375 582.776 105.654Z" stroke="#212121" stroke-linecap="round" stroke-linejoin="round"/>
<path d="M522.502 118.815V149.06" stroke="#212121" stroke-linecap="round" stroke-linejoin="round"/>
<path d="M522.502 100.684V112.767" stroke="#212121" stroke-linecap="round" stroke-linejoin="round"/>
<path d="M522.502 89.3716V95.8433" stroke="#212121" stroke-linecap="round" stroke-linejoin="round"/>
<path d="M516.791 145.533L522.502 152.603L528.213 145.533" stroke="#212121" stroke-linecap="round" stroke-linejoin="round"/>
<path d="M248.613 460.359C249.773 455.32 249.609 450.067 248.137 445.111C246.665 440.155 243.935 435.665 240.213 432.078C236.491 428.49 231.904 425.929 226.898 424.642C221.893 423.355 216.64 423.387 211.65 424.735C208.614 419.339 203.915 415.07 198.254 412.566C192.593 410.062 186.274 409.457 180.241 410.841C174.209 412.225 168.785 415.523 164.78 420.245C160.775 424.966 158.404 430.857 158.021 437.037C156.58 436.761 155.117 436.62 153.65 436.614C147.886 436.61 142.323 438.73 138.023 442.57C133.723 446.409 130.987 451.699 130.339 457.429C127.091 457.769 124.088 459.309 121.915 461.748C119.743 464.187 118.558 467.349 118.593 470.615C118.627 473.882 119.879 477.018 122.102 479.41C124.326 481.802 127.362 483.278 130.616 483.549H240.396C243.078 483.52 245.687 482.67 247.87 481.112C250.054 479.553 251.707 477.363 252.608 474.835C253.508 472.308 253.612 469.565 252.906 466.976C252.199 464.387 250.716 462.078 248.657 460.359H248.613Z" stroke="#212121" stroke-linecap="round" stroke-linejoin="round"/>
<path d="M188.296 477.85V447.619" stroke="#212121" stroke-linecap="round" stroke-linejoin="round"/>
<path d="M188.296 495.996V483.898" stroke="#212121" stroke-linecap="round" stroke-linejoin="round"/>
<path d="M188.296 507.308V500.836" stroke="#212121" stroke-linecap="round" stroke-linejoin="round"/>
<path d="M194.007 451.146L188.296 444.077L182.585 451.146" stroke="#212121" stroke-linecap="round" stroke-linejoin="round"/>
<path d="M16.7253 76.647H383.072C384.711 76.647 386.282 77.2981 387.44 78.4571C388.599 79.6161 389.25 81.1881 389.25 82.8272V100.114H10.5479V82.8272C10.5479 81.1881 11.1987 79.6161 12.3572 78.4571C13.5157 77.2981 15.0869 76.647 16.7253 76.647Z" fill="#BEEBC3" stroke="#212121" stroke-linecap="round" stroke-linejoin="round"/>
<path d="M409.88 104.443H27.1279V373.908H409.88V104.443Z" fill="white" stroke="#212121" stroke-linecap="round" stroke-linejoin="round"/>
<path d="M415.738 88.366C415.738 89.5192 415.396 90.6464 414.755 91.6052C414.115 92.564 413.205 93.3113 412.14 93.7526C411.075 94.1939 409.903 94.3093 408.773 94.0844C407.642 93.8594 406.604 93.3041 405.789 92.4887C404.974 91.6733 404.419 90.6344 404.194 89.5035C403.969 88.3725 404.085 87.2002 404.526 86.1348C404.967 85.0695 405.714 84.1589 406.672 83.5182C407.63 82.8776 408.757 82.5356 409.91 82.5356C411.455 82.5356 412.938 83.1499 414.031 84.2433C415.124 85.3367 415.738 86.8197 415.738 88.366Z" fill="white" stroke="#212121" stroke-linecap="round" stroke-linejoin="round"/>
<path d="M395.107 88.366C395.107 89.5192 394.765 90.6464 394.125 91.6052C393.484 92.564 392.574 93.3113 391.509 93.7526C390.444 94.1939 389.272 94.3093 388.142 94.0844C387.012 93.8594 385.973 93.3041 385.158 92.4887C384.343 91.6733 383.788 90.6344 383.563 89.5035C383.338 88.3725 383.454 87.2002 383.895 86.1348C384.336 85.0695 385.083 84.1589 386.041 83.5182C387 82.8776 388.126 82.5356 389.279 82.5356C390.825 82.5356 392.307 83.1499 393.4 84.2433C394.493 85.3367 395.107 86.8197 395.107 88.366Z" fill="white" stroke="#212121" stroke-linecap="round" stroke-linejoin="round"/>
<path d="M374.433 88.366C374.433 89.5192 374.091 90.6464 373.451 91.6052C372.81 92.564 371.9 93.3113 370.835 93.7526C369.77 94.1939 368.599 94.3093 367.468 94.0844C366.338 93.8594 365.299 93.3041 364.484 92.4887C363.669 91.6733 363.114 90.6344 362.889 89.5035C362.664 88.3725 362.78 87.2002 363.221 86.1348C363.662 85.0695 364.409 84.1589 365.367 83.5182C366.326 82.8776 367.452 82.5356 368.605 82.5356C370.151 82.5356 371.633 83.1499 372.726 84.2433C373.819 85.3367 374.433 86.8197 374.433 88.366Z" fill="white" stroke="#212121" stroke-linecap="round" stroke-linejoin="round"/>
<path d="M398.283 116.002H383.131" stroke="#212121" stroke-width="2" stroke-linecap="round" stroke-linejoin="round"/>
<path d="M398.283 122.153H383.131" stroke="#212121" stroke-width="2" stroke-linecap="round" stroke-linejoin="round"/>
<path d="M398.283 128.304H383.131" stroke="#212121" stroke-width="2" stroke-linecap="round" stroke-linejoin="round"/>
<path d="M53.6309 274.996H168.336" stroke="#212121" stroke-width="2" stroke-linecap="round" stroke-linejoin="round"/>
<path d="M53.6309 284.048H168.336" stroke="#212121" stroke-width="2" stroke-linecap="round" stroke-linejoin="round"/>
<path d="M53.6309 293.259H144.078" stroke="#212121" stroke-width="2" stroke-linecap="round" stroke-linejoin="round"/>
<path d="M296.865 107.475V108.204" stroke="#212121" stroke-linecap="round" stroke-linejoin="round"/>
<path d="M296.865 112.577V366.533" stroke="#212121" stroke-linecap="round" stroke-linejoin="round" stroke-dasharray="1 3"/>
<path d="M296.865 368.719V369.448" stroke="#212121" stroke-linecap="round" stroke-linejoin="round"/>
<path d="M31.7314 313.477H32.4599" stroke="#212121" stroke-linecap="round" stroke-linejoin="round"/>
<path d="M36.8174 313.477H401.11" stroke="#212121" stroke-linecap="round" stroke-linejoin="round" stroke-dasharray="1 2.99"/>
<path d="M403.295 313.477H404.023" stroke="#212121" stroke-linecap="round" stroke-linejoin="round"/>
<path d="M299.386 310.955H294.359V315.984H299.386V310.955Z" fill="white" stroke="#212121" stroke-linecap="round" stroke-linejoin="round"/>
<path d="M276.804 265.172H209.697" stroke="#212121" stroke-linecap="round" stroke-linejoin="round"/>
<path d="M278.099 296.219C278.099 296.219 278.099 265.012 243.249 265.012C208.399 265.012 208.341 296.219 208.341 296.219" stroke="#212121" stroke-linecap="round" stroke-linejoin="round"/>
<path d="M278.1 299.163C279.726 299.163 281.043 297.845 281.043 296.219C281.043 294.593 279.726 293.274 278.1 293.274C276.475 293.274 275.157 294.593 275.157 296.219C275.157 297.845 276.475 299.163 278.1 299.163Z" fill="#BEEBC3" stroke="#212121" stroke-linecap="round" stroke-linejoin="round"/>
<path d="M205.428 296.219C205.428 295.642 205.599 295.079 205.919 294.599C206.239 294.12 206.694 293.746 207.227 293.526C207.759 293.305 208.345 293.247 208.91 293.36C209.475 293.472 209.995 293.75 210.402 294.158C210.81 294.565 211.087 295.085 211.199 295.65C211.312 296.216 211.254 296.802 211.034 297.334C210.813 297.867 210.44 298.322 209.96 298.643C209.481 298.963 208.918 299.134 208.342 299.134C207.569 299.134 206.828 298.827 206.281 298.28C205.735 297.734 205.428 296.992 205.428 296.219Z" fill="#BEEBC3" stroke="#212121" stroke-linecap="round" stroke-linejoin="round"/>
<path d="M275.521 267.592H280.679V262.432H275.521V267.592Z" fill="#BEEBC3" stroke="#212121" stroke-linecap="round" stroke-linejoin="round"/>
<path d="M240.672 267.592H245.829V262.432H240.672V267.592Z" fill="#BEEBC3" stroke="#212121" stroke-linecap="round" stroke-linejoin="round"/>
<path d="M205.822 267.592H210.979V262.432H205.822V267.592Z" fill="#BEEBC3" stroke="#212121" stroke-linecap="round" stroke-linejoin="round"/>
<path d="M95.3267 171.346V161.026L87.6195 160.371C87.162 158.758 86.5216 157.203 85.7109 155.735L90.6937 149.818L83.409 142.53L77.4792 147.515C76.0178 146.693 74.4621 146.052 72.8462 145.605L72.176 137.88H61.89L61.2198 145.605C59.6079 146.05 58.0568 146.691 56.6013 147.515L50.6716 142.53L43.3869 149.818L48.3696 155.735C47.5529 157.2 46.9122 158.756 46.461 160.371L38.7393 161.026V171.346L46.461 172.002C46.9148 173.616 47.5553 175.172 48.3696 176.637L43.3869 182.555L50.6716 189.843L56.6013 184.858C58.0476 185.679 59.5888 186.321 61.1907 186.768L61.8609 194.493H72.1614L72.8316 186.768C74.4425 186.32 75.9933 185.679 77.4501 184.858L83.3798 189.843L90.6645 182.555L85.6818 176.637C86.49 175.169 87.1302 173.614 87.5904 172.002L95.3267 171.346ZM67.0184 178.168C64.6498 178.168 62.3343 177.465 60.3649 176.148C58.3955 174.832 56.8605 172.961 55.954 170.771C55.0476 168.582 54.8104 166.173 55.2725 163.849C55.7346 161.525 56.8752 159.39 58.5501 157.714C60.225 156.039 62.3589 154.897 64.682 154.435C67.0051 153.973 69.4131 154.21 71.6015 155.117C73.7898 156.024 75.6602 157.559 76.9761 159.53C78.2921 161.5 78.9945 163.817 78.9945 166.186C78.9945 169.364 77.7327 172.411 75.4868 174.658C73.2408 176.905 70.1947 178.168 67.0184 178.168Z" fill="#BEEBC3" stroke="#212121" stroke-linecap="round" stroke-linejoin="round"/>
<path d="M130.351 194.464V187.409L125.063 186.943C124.758 185.84 124.323 184.779 123.766 183.78L127.175 179.728L122.178 174.743L118.128 178.154C117.127 177.598 116.066 177.157 114.966 176.842L114.514 171.536H107.463L106.997 176.827C105.896 177.143 104.836 177.583 103.835 178.139L99.7847 174.728L94.7875 179.713L98.2113 183.765C97.6434 184.761 97.2029 185.823 96.9 186.928L91.6113 187.395V194.449L96.9 194.901C97.2002 196.007 97.6409 197.07 98.2113 198.064L94.7875 202.146L99.7847 207.131L103.835 203.72C104.836 204.276 105.896 204.716 106.997 205.032L107.463 210.308H114.514L114.966 205.032C116.066 204.716 117.127 204.276 118.128 203.72L122.178 207.131L127.175 202.146L123.839 198.079C124.398 197.081 124.834 196.019 125.135 194.916L130.351 194.464ZM110.989 199.128C109.365 199.131 107.777 198.652 106.426 197.751C105.075 196.851 104.021 195.569 103.399 194.069C102.776 192.569 102.612 190.918 102.928 189.325C103.244 187.732 104.026 186.268 105.174 185.119C106.322 183.971 107.785 183.189 109.377 182.873C110.97 182.557 112.62 182.72 114.12 183.343C115.619 183.966 116.9 185.02 117.8 186.372C118.7 187.724 119.179 189.312 119.177 190.937C119.173 193.108 118.309 195.189 116.774 196.725C115.239 198.26 113.159 199.124 110.989 199.128Z" fill="#BEEBC3" stroke="#212121" stroke-linecap="round" stroke-linejoin="round"/>
<path d="M311.26 330.618H367.687" stroke="#212121" stroke-width="2" stroke-linecap="round" stroke-linejoin="round"/>
<path d="M311.26 339.669H367.687" stroke="#212121" stroke-width="2" stroke-linecap="round" stroke-linejoin="round"/>
<path d="M311.26 348.881H343.429" stroke="#212121" stroke-width="2" stroke-linecap="round" stroke-linejoin="round"/>
<path d="M236.913 352.642H207.206C205.274 352.642 203.421 351.874 202.055 350.508C200.688 349.141 199.921 347.287 199.921 345.354C199.921 343.421 200.688 341.568 202.055 340.201C203.421 338.834 205.274 338.066 207.206 338.066H236.913C238.845 338.066 240.697 338.834 242.064 340.201C243.43 341.568 244.197 343.421 244.197 345.354C244.197 347.287 243.43 349.141 242.064 350.508C240.697 351.874 238.845 352.642 236.913 352.642Z" fill="#BEEBC3" stroke="#212121" stroke-linecap="round" stroke-linejoin="round"/>
<path d="M292.276 352.642H262.569C260.637 352.642 258.784 351.874 257.418 350.508C256.052 349.141 255.284 347.287 255.284 345.354C255.284 343.421 256.052 341.568 257.418 340.201C258.784 338.834 260.637 338.066 262.569 338.066H292.276C294.208 338.066 296.061 338.834 297.427 340.201C298.793 341.568 299.561 343.421 299.561 345.354C299.561 347.287 298.793 349.141 297.427 350.508C296.061 351.874 294.208 352.642 292.276 352.642Z" fill="#BEEBC3" stroke="#212121" stroke-linecap="round" stroke-linejoin="round"/>
<path d="M378.381 196.271H315.383V259.297H378.381V196.271Z" fill="white" stroke="#212121" stroke-linecap="round" stroke-linejoin="round"/>
<path d="M315.383 196.271L378.381 259.297" stroke="#212121" stroke-linecap="round" stroke-linejoin="round"/>
<path d="M378.381 196.271L315.383 259.297" stroke="#212121" stroke-linecap="round" stroke-linejoin="round"/>
<path d="M340.094 124.718V139.425L333.611 145.912H318.91V124.718H340.094Z" fill="white" stroke="#212121" stroke-linecap="round" stroke-linejoin="round"/>
<path d="M340.093 139.425L333.609 145.912V139.425H340.093Z" fill="white" stroke="#212121" stroke-linecap="round" stroke-linejoin="round"/>
<path d="M114.805 238.454V253.161L108.322 259.662H93.6211V238.454H114.805Z" fill="white" stroke="#212121" stroke-linecap="round" stroke-linejoin="round"/>
<path d="M114.808 253.162L108.324 259.662V253.162H114.808Z" fill="white" stroke="#212121" stroke-linecap="round" stroke-linejoin="round"/>
<path d="M34.7629 329.073V343.78L28.2795 350.267H13.5645V329.073H34.7629Z" fill="white" stroke="#212121" stroke-linecap="round" stroke-linejoin="round"/>
<path d="M34.7617 343.78L28.2783 350.267V343.78H34.7617Z" fill="white" stroke="#212121" stroke-linecap="round" stroke-linejoin="round"/>
<path d="M446.799 158.826H368.62V207.845H446.799V158.826Z" fill="#212121" stroke="#212121" stroke-linecap="round" stroke-linejoin="round"/>
<path d="M446.799 158.826H368.62V166.274H446.799V158.826Z" fill="#BEEBC3" stroke="#212121" stroke-linecap="round" stroke-linejoin="round"/>
<path d="M376.59 172.556H396.579" stroke="white" stroke-linecap="round" stroke-linejoin="round"/>
<path d="M386.583 178.139H421.171" stroke="white" stroke-linecap="round" stroke-linejoin="round"/>
<path d="M382.171 183.342H392.355" stroke="white" stroke-linecap="round" stroke-linejoin="round"/>
<path d="M386.583 189.479H409.879" stroke="white" stroke-linecap="round" stroke-linejoin="round"/>
<path d="M376.59 195.047H396.579" stroke="white" stroke-linecap="round" stroke-linejoin="round"/>
<path d="M152.775 356.053H74.5957V405.072H152.775V356.053Z" fill="#212121" stroke="#212121" stroke-linecap="round" stroke-linejoin="round"/>
<path d="M152.775 356.053H74.5957V363.501H152.775V356.053Z" fill="#BEEBC3" stroke="#212121" stroke-linecap="round" stroke-linejoin="round"/>
<path d="M82.5801 369.797H102.555" stroke="white" stroke-linecap="round" stroke-linejoin="round"/>
<path d="M92.5596 375.366H127.147" stroke="white" stroke-linecap="round" stroke-linejoin="round"/>
<path d="M88.1445 380.569H98.3285" stroke="white" stroke-linecap="round" stroke-linejoin="round"/>
<path d="M92.5596 386.706H115.856" stroke="white" stroke-linecap="round" stroke-linejoin="round"/>
<path d="M82.5811 392.288H102.556" stroke="white" stroke-linecap="round" stroke-linejoin="round"/>
<path d="M182.116 0.998047H110.289C109.448 1.00188 108.643 1.33789 108.048 1.93297C107.453 2.52805 107.117 3.33404 107.113 4.1756V37.7002C107.117 38.5404 107.453 39.3449 108.049 39.9377C108.644 40.5304 109.45 40.8632 110.289 40.8632H142.488L146.159 53.9815L149.845 40.8632H182.116C182.956 40.8632 183.762 40.5304 184.357 39.9377C184.952 39.3449 185.289 38.5404 185.293 37.7002V4.1756C185.289 3.33404 184.953 2.52805 184.358 1.93297C183.763 1.33789 182.958 1.00188 182.116 0.998047Z" fill="#BEEBC3" stroke="#212121" stroke-linecap="round" stroke-linejoin="round"/>
<path d="M119.03 10.5889H173.301" stroke="#212121" stroke-width="2" stroke-linecap="round" stroke-linejoin="round"/>
<path d="M119.03 17.4688H173.301" stroke="#212121" stroke-width="2" stroke-linecap="round" stroke-linejoin="round"/>
<path d="M119.03 24.3486H173.301" stroke="#212121" stroke-width="2" stroke-linecap="round" stroke-linejoin="round"/>
<path d="M119.03 31.229H159.927" stroke="#212121" stroke-width="2" stroke-linecap="round" stroke-linejoin="round"/>
<path d="M299.94 239.431C292.233 240.087 282.457 230.875 282.457 230.875C282.269 231.068 282.04 231.216 281.785 231.305C281.531 231.394 281.26 231.423 280.992 231.389C280.725 231.355 280.47 231.259 280.246 231.109C280.022 230.959 279.836 230.759 279.703 230.525C278.45 228.717 273.016 224.534 272.71 220.919C272.404 217.304 278.814 211.445 278.814 211.445C273.875 212.786 273.351 209.885 273.351 209.885C273.351 209.885 281.67 203.02 284.584 202.83C285.72 202.758 290.674 205.614 295.467 209.463C300.479 213.5 309.891 227.712 309.891 227.712C309.891 227.712 341.725 250.844 349.767 256.761C360.388 264.574 372.976 278.436 372.976 278.436C372.976 278.436 415.228 297.501 426.883 307.981L411.119 345.325C411.119 345.325 372.699 319.569 368.868 313.039C365.036 306.509 361.19 310.43 357.343 306.159C353.497 301.888 349.811 297.005 349.811 297.005C342.97 293.701 336.762 289.221 331.468 283.771C322.493 274.544 314.582 260.449 309.614 251.966C307.042 247.322 303.78 243.095 299.94 239.431Z" fill="white" stroke="#212121" stroke-linecap="round" stroke-linejoin="round"/>
<path d="M302.286 233.979C302.286 233.979 290.82 231.195 289.83 223.631C289.392 221.713 288.553 219.909 287.367 218.34C287.367 218.34 276.674 217.815 277.344 213.457L291.622 212.188C296.819 214.186 301.195 217.871 304.049 222.654" fill="white"/>
<path d="M302.286 233.979C302.286 233.979 290.82 231.195 289.83 223.631C289.392 221.713 288.553 219.909 287.367 218.34C287.367 218.34 276.674 217.815 277.344 213.457L291.622 212.188C296.819 214.186 301.195 217.871 304.049 222.654" stroke="#212121" stroke-linecap="round" stroke-linejoin="round"/>
<path d="M282.442 230.875C282.951 229.93 283.121 228.84 282.923 227.785C282.923 227.785 286.07 227.202 285.72 224.418C285.72 224.418 290.383 223.85 287.367 218.34" stroke="#212121" stroke-linecap="round" stroke-linejoin="round"/>
<path d="M285.72 224.418C285.72 224.418 279.441 219.768 278.741 217.64" stroke="#212121" stroke-linecap="round" stroke-linejoin="round"/>
<path d="M282.924 227.785C282.924 227.785 276.237 223.704 276.12 221.328" stroke="#212121" stroke-linecap="round" stroke-linejoin="round"/>
<path d="M284.453 206.825C284.453 206.825 282.326 210.644 278.8 211.445" stroke="#212121" stroke-linecap="round" stroke-linejoin="round"/>
<path d="M283.389 208.312C284.507 208.896 285.561 209.594 286.536 210.396" stroke="#212121" stroke-linecap="round" stroke-linejoin="round"/>
<path d="M527.587 337.41C511.101 330.43 494.095 324.748 476.725 320.415C451.141 314.424 409.706 309.075 409.706 309.075C409.706 309.075 421.099 425.391 418.098 432.387C415.097 439.383 397.089 462.88 397.089 462.88C397.089 462.88 494.543 500.894 511.531 504.13C528.519 507.366 519.661 448.377 519.661 448.377C519.661 448.377 537.611 373.398 527.587 337.41Z" fill="#212121"/>
<path d="M492.606 324.919C492.606 324.919 494.923 329.292 488.833 331.58C473.054 337.411 456.241 332.265 458.033 326.085C458.718 323.724 462.623 326.085 462.404 317.34C462.297 315.992 461.936 314.676 461.341 313.462C460.227 311.097 458.886 308.846 457.334 306.743C455.65 304.401 453.846 302.149 451.929 299.994C451.929 299.994 476.973 283.961 495.549 299.994C495.52 299.921 488.614 303.42 492.606 324.919Z" fill="white" stroke="#212121" stroke-linecap="round" stroke-linejoin="round"/>
<path d="M523.638 532.086C513.774 548.12 463.728 555.714 436.411 554.999C409.093 554.285 330.492 517.102 325.159 509.173C320.22 501.885 308.084 477.732 326.791 463.142C328.378 461.916 330.064 460.824 331.832 459.877C344.638 452.939 429.811 474.817 429.811 474.817C429.811 474.817 435.085 471.479 437.023 471.727C442.967 472.485 447.221 477.295 459.227 480.72C467.633 483.126 490.58 473.884 505.237 481.828C506.863 482.698 508.363 483.787 509.695 485.064C523.39 498.153 533.487 516.009 523.638 532.086Z" fill="#BEEBC3"/>
<mask id="mask0_99_1247" style="mask-type:luminance" maskUnits="userSpaceOnUse" x="316" y="458" width="212" height="98">
<path d="M523.638 532.086C513.774 548.12 463.728 555.714 436.411 554.999C409.093 554.285 330.492 517.102 325.159 509.173C320.22 501.885 308.084 477.732 326.791 463.142C328.378 461.916 330.064 460.824 331.832 459.877C344.638 452.939 429.811 474.817 429.811 474.817C429.811 474.817 435.085 471.479 437.023 471.727C442.967 472.485 447.221 477.295 459.227 480.72C467.633 483.126 490.58 473.884 505.237 481.828C506.863 482.698 508.363 483.787 509.695 485.064C523.39 498.153 533.487 516.009 523.638 532.086Z" fill="white"/>
</mask>
<g mask="url(#mask0_99_1247)">
<path opacity="0.3" d="M505.237 481.828C490.216 480.823 476.826 483.971 467.473 489.495C456.386 496.054 404.023 521.285 404.023 521.285C404.14 518.574 407.054 513.108 407.054 513.108C402.129 508.735 389.25 505.31 389.25 505.31C379.27 496.783 339.714 471.348 326.791 463.142C328.378 461.916 330.064 460.824 331.832 459.877C344.639 452.939 429.811 474.817 429.811 474.817C429.811 474.817 435.085 471.479 437.023 471.727C442.967 472.485 447.222 477.295 459.227 480.72C467.677 483.126 490.58 473.884 505.237 481.828Z" fill="black" fill-opacity="0.7"/>
</g>
<path d="M523.638 532.086C513.774 548.12 463.728 555.714 436.411 554.999C409.093 554.285 330.492 517.102 325.159 509.173C320.22 501.885 308.084 477.732 326.791 463.142C328.378 461.916 330.064 460.824 331.832 459.877C344.638 452.939 429.811 474.817 429.811 474.817C429.811 474.817 435.085 471.479 437.023 471.727C442.967 472.485 447.221 477.295 459.227 480.72C467.633 483.126 490.58 473.884 505.237 481.828C506.863 482.698 508.363 483.787 509.695 485.064C523.39 498.153 533.487 516.009 523.638 532.086Z" stroke="#212121" stroke-linecap="round" stroke-linejoin="round"/>
<path d="M508.281 546.604L509.534 552.099C509.534 552.099 506.183 561.603 491.454 563.162C476.724 564.722 467.997 567.972 460.858 568.395C457.126 568.69 453.375 568.631 449.654 568.22L448.197 566.063L508.281 546.604Z" fill="white" stroke="#212121" stroke-linecap="round" stroke-linejoin="round"/>
<path d="M422.745 546.021L448.271 566.063C460.573 565.011 472.797 563.181 484.869 560.583C496.962 557.784 507.524 553.776 508.093 548.266C508.981 539.899 500.036 537.611 489.415 537.932C487.433 537.932 485.393 538.136 483.339 538.34C466.337 540.162 444.716 530.775 444.716 530.775L422.745 546.021Z" fill="#212121"/>
<mask id="mask1_99_1247" style="mask-type:luminance" maskUnits="userSpaceOnUse" x="422" y="530" width="87" height="37">
<path d="M422.745 546.021L448.271 566.063C460.573 565.011 472.797 563.181 484.869 560.583C496.962 557.784 507.524 553.776 508.093 548.266C508.981 539.899 500.036 537.611 489.415 537.932C487.433 537.932 485.393 538.136 483.339 538.34C466.337 540.162 444.716 530.775 444.716 530.775L422.745 546.021Z" fill="white"/>
</mask>
<g mask="url(#mask1_99_1247)">
<path opacity="0.3" d="M508.107 548.062C503.152 549.906 498.397 552.25 493.917 555.058C493.917 555.058 470.212 567.258 433.774 554.694L422.745 546.021L444.716 530.76C444.716 530.76 466.322 540.162 483.339 538.325C485.393 538.107 487.433 537.961 489.415 537.917C499.963 537.596 508.836 539.841 508.107 548.062Z" fill="black" fill-opacity="0.7"/>
</g>
<path d="M422.745 546.021L448.271 566.063C460.573 565.011 472.797 563.181 484.869 560.583C496.961 557.784 507.524 553.776 508.093 548.266C508.981 539.899 500.036 537.611 489.415 537.932C487.433 537.932 485.393 538.136 483.339 538.34C466.337 540.162 444.716 530.775 444.716 530.775L422.745 546.021Z" stroke="#212121" stroke-linecap="round" stroke-linejoin="round"/>
<path d="M446.536 553.921C441.933 554.665 446.988 564.124 453.224 561.209C459.46 558.294 451.14 553.163 446.536 553.921Z" fill="white"/>
<mask id="mask2_99_1247" style="mask-type:luminance" maskUnits="userSpaceOnUse" x="444" y="553" width="12" height="9">
<path d="M446.536 553.921C441.933 554.665 446.988 564.124 453.224 561.209C459.46 558.294 451.14 553.163 446.536 553.921Z" fill="white"/>
</mask>
<g mask="url(#mask2_99_1247)">
<path opacity="0.2" d="M455.176 559.708C451.841 559.301 448.53 558.722 445.254 557.973C444.38 556.122 444.584 554.227 446.537 553.921C450.397 553.28 456.895 556.851 455.176 559.708Z" fill="black" fill-opacity="0.7"/>
</g>
<path d="M446.536 553.921C441.933 554.665 446.988 564.124 453.224 561.209C459.46 558.294 451.14 553.163 446.536 553.921Z" stroke="#212121" stroke-linecap="round" stroke-linejoin="round"/>
<path d="M484.869 560.567C496.962 557.769 507.525 553.761 508.093 548.251C508.982 539.884 500.036 537.596 489.415 537.916C488.949 538.368 478.648 548.324 484.869 560.567Z" fill="white"/>
<mask id="mask3_99_1247" style="mask-type:luminance" maskUnits="userSpaceOnUse" x="482" y="537" width="27" height="24">
<path d="M484.869 560.567C496.962 557.769 507.525 553.761 508.093 548.251C508.982 539.884 500.036 537.596 489.415 537.916C488.949 538.368 478.648 548.324 484.869 560.567Z" fill="white"/>
</mask>
<g mask="url(#mask3_99_1247)">
<path opacity="0.3" d="M508.108 548.061C503.153 549.906 498.398 552.25 493.917 555.058C490.724 556.535 487.377 557.654 483.937 558.396C479.858 547.172 488.978 538.339 489.415 537.916C499.964 537.596 508.836 539.841 508.108 548.061Z" fill="black" fill-opacity="0.7"/>
</g>
<path d="M484.869 560.567C496.962 557.769 507.525 553.761 508.093 548.251C508.982 539.884 500.036 537.596 489.415 537.916C488.949 538.368 478.648 548.324 484.869 560.567Z" stroke="#212121" stroke-linecap="round" stroke-linejoin="round"/>
<path d="M476.244 550.175H476.317C476.483 550.183 476.649 550.158 476.805 550.101C476.961 550.044 477.104 549.957 477.226 549.845C477.348 549.732 477.446 549.596 477.515 549.446C477.584 549.295 477.623 549.131 477.628 548.966C478.041 545.384 479.571 542.023 481.999 539.36C482.116 539.243 482.209 539.105 482.273 538.952C482.336 538.8 482.369 538.636 482.369 538.471C482.369 538.306 482.336 538.142 482.273 537.989C482.209 537.837 482.116 537.698 481.999 537.582C481.762 537.348 481.443 537.218 481.111 537.218C480.778 537.218 480.459 537.348 480.222 537.582C477.365 540.681 475.591 544.625 475.166 548.82C475.137 549.141 475.233 549.461 475.434 549.714C475.634 549.966 475.925 550.132 476.244 550.175Z" fill="white" stroke="#212121" stroke-linecap="round" stroke-linejoin="round"/>
<path d="M471.19 550.511H471.292C471.458 550.514 471.623 550.485 471.777 550.425C471.932 550.365 472.073 550.274 472.192 550.159C472.311 550.044 472.406 549.906 472.472 549.754C472.538 549.601 472.572 549.437 472.574 549.272C472.863 545.632 474.211 542.156 476.45 539.272C476.572 539.147 476.667 538.997 476.729 538.832C476.791 538.668 476.817 538.492 476.808 538.317C476.798 538.142 476.752 537.97 476.672 537.814C476.593 537.657 476.482 537.519 476.346 537.407C476.211 537.296 476.053 537.214 475.884 537.166C475.715 537.119 475.538 537.107 475.364 537.132C475.19 537.156 475.024 537.217 474.874 537.309C474.725 537.402 474.597 537.524 474.497 537.669C471.897 540.987 470.349 545.008 470.054 549.213C470.041 549.534 470.152 549.847 470.363 550.089C470.575 550.33 470.871 550.481 471.19 550.511Z" fill="white" stroke="#212121" stroke-linecap="round" stroke-linejoin="round"/>
<path d="M465.142 549.84C465.307 549.856 465.473 549.839 465.631 549.791C465.789 549.742 465.936 549.663 466.064 549.557C466.191 549.451 466.296 549.321 466.373 549.175C466.45 549.028 466.497 548.868 466.512 548.703C466.905 544.33 470.664 538.602 470.708 538.5C470.892 538.219 470.959 537.876 470.893 537.546C470.828 537.217 470.636 536.926 470.358 536.736C470.079 536.552 469.739 536.486 469.412 536.551C469.085 536.617 468.796 536.809 468.61 537.086C468.435 537.334 464.443 543.339 463.991 548.411C463.969 548.581 463.981 548.754 464.028 548.919C464.074 549.085 464.154 549.239 464.261 549.372C464.369 549.506 464.502 549.616 464.654 549.696C464.805 549.777 464.971 549.826 465.142 549.84Z" fill="white" stroke="#212121" stroke-linecap="round" stroke-linejoin="round"/>
<path d="M459.432 549.243C459.543 549.257 459.656 549.257 459.767 549.243C459.931 549.216 460.088 549.157 460.23 549.069C460.371 548.981 460.493 548.866 460.589 548.731C460.686 548.595 460.754 548.441 460.79 548.279C460.827 548.117 460.83 547.949 460.801 547.785C459.913 542.421 464.895 537.83 464.939 537.786C465.104 537.553 465.185 537.271 465.17 536.986C465.155 536.7 465.044 536.429 464.855 536.214C464.666 536 464.411 535.856 464.13 535.805C463.849 535.755 463.559 535.8 463.307 535.935C463.06 536.153 457.246 541.488 458.368 548.237C458.422 548.493 458.552 548.727 458.742 548.906C458.933 549.086 459.173 549.203 459.432 549.243Z" fill="white" stroke="#212121" stroke-linecap="round" stroke-linejoin="round"/>
<path d="M453.224 547.741C453.359 547.763 453.497 547.763 453.632 547.741C453.945 547.664 454.218 547.471 454.394 547.2C454.57 546.929 454.636 546.601 454.579 546.283C453.486 541.502 458.192 536.08 458.25 536.08C458.469 535.828 458.579 535.5 458.557 535.167C458.535 534.834 458.383 534.523 458.134 534.302C458.011 534.191 457.867 534.106 457.711 534.051C457.555 533.996 457.389 533.973 457.224 533.982C457.058 533.992 456.897 534.034 456.748 534.106C456.599 534.178 456.466 534.28 456.356 534.404C456.123 534.666 450.732 540.832 452.117 546.895C452.197 547.13 452.345 547.336 452.542 547.486C452.739 547.637 452.976 547.725 453.224 547.741Z" fill="white" stroke="#212121" stroke-linecap="round" stroke-linejoin="round"/>
<path d="M321.984 538.383L320.163 543.718C320.163 543.718 322.494 553.527 336.976 556.617C351.458 559.707 359.792 563.905 366.785 565.042C370.466 565.72 374.202 566.052 377.945 566.033L379.621 564.036L321.984 538.383Z" fill="white" stroke="#212121" stroke-linecap="round" stroke-linejoin="round"/>
<path d="M407.055 546.793L379.578 564.037C367.452 561.7 355.486 558.599 343.752 554.752C332.023 550.7 321.897 545.598 321.897 540.059C321.897 531.634 331.032 530.308 341.566 531.737C343.533 531.999 345.544 532.363 347.569 532.786C364.28 536.386 386.76 529.317 386.76 529.317L407.055 546.793Z" fill="#212121"/>
<mask id="mask4_99_1247" style="mask-type:luminance" maskUnits="userSpaceOnUse" x="321" y="529" width="87" height="36">
<path d="M407.055 546.793L379.578 564.037C367.452 561.7 355.486 558.599 343.752 554.752C332.023 550.7 321.897 545.598 321.897 540.059C321.897 531.634 331.032 530.308 341.566 531.737C343.533 531.999 345.544 532.363 347.569 532.786C364.28 536.386 386.76 529.317 386.76 529.317L407.055 546.793Z" fill="white"/>
</mask>
<g mask="url(#mask4_99_1247)">
<path opacity="0.3" d="M407.055 546.793L390.898 556.996C377.796 552.925 366.307 544.832 358.059 533.864C367.798 533.65 377.465 532.135 386.804 529.36L407.055 546.793Z" fill="black" fill-opacity="0.7"/>
</g>
<path d="M407.055 546.793L379.578 564.037C367.452 561.7 355.486 558.599 343.752 554.752C332.023 550.7 321.897 545.598 321.897 540.059C321.897 531.634 331.032 530.308 341.566 531.737C343.533 531.999 345.544 532.363 347.569 532.786C364.28 536.386 386.76 529.317 386.76 529.317L407.055 546.793Z" stroke="#212121" stroke-linecap="round" stroke-linejoin="round"/>
<path d="M343.752 554.738C332.023 550.686 321.897 545.584 321.897 540.045C321.897 531.621 331.032 530.294 341.566 531.723C342.032 532.218 351.226 543.223 343.752 554.738Z" fill="white" stroke="#212121" stroke-linecap="round" stroke-linejoin="round"/>
<path d="M353.425 545.307H353.352C353.017 545.284 352.704 545.131 352.481 544.88C352.257 544.63 352.141 544.301 352.157 543.966C352.134 540.368 350.977 536.868 348.85 533.967C348.726 533.839 348.63 533.687 348.569 533.52C348.508 533.354 348.482 533.176 348.494 532.998C348.506 532.821 348.555 532.648 348.638 532.491C348.72 532.334 348.835 532.196 348.975 532.086C349.115 531.976 349.276 531.897 349.448 531.853C349.62 531.81 349.8 531.803 349.975 531.833C350.15 531.863 350.316 531.93 350.464 532.029C350.612 532.128 350.737 532.257 350.831 532.407C353.345 535.773 354.696 539.866 354.678 544.068C354.674 544.398 354.54 544.713 354.306 544.945C354.071 545.177 353.755 545.307 353.425 545.307Z" fill="white" stroke="#212121" stroke-linecap="round" stroke-linejoin="round"/>
<path d="M358.407 546.138H358.291C357.957 546.108 357.648 545.947 357.432 545.69C357.217 545.434 357.112 545.102 357.14 544.768C357.243 541.125 356.276 537.531 354.357 534.433C354.261 534.295 354.194 534.14 354.158 533.976C354.122 533.812 354.119 533.643 354.149 533.478C354.179 533.313 354.241 533.155 354.332 533.014C354.422 532.873 354.54 532.751 354.678 532.655C354.815 532.559 354.971 532.492 355.134 532.456C355.298 532.42 355.468 532.417 355.633 532.447C355.798 532.477 355.955 532.539 356.096 532.63C356.238 532.72 356.359 532.838 356.455 532.976C358.706 536.544 359.823 540.711 359.66 544.928C359.645 545.252 359.507 545.557 359.274 545.782C359.041 546.007 358.731 546.134 358.407 546.138Z" fill="white" stroke="#212121" stroke-linecap="round" stroke-linejoin="round"/>
<path d="M364.497 546.137C364.162 546.13 363.844 545.991 363.61 545.752C363.375 545.512 363.244 545.19 363.244 544.855C363.332 540.409 360.185 534.389 360.141 534.331C359.987 534.031 359.957 533.682 360.058 533.36C360.159 533.038 360.382 532.769 360.68 532.611C360.978 532.457 361.324 532.428 361.644 532.529C361.963 532.63 362.23 532.853 362.385 533.15C362.531 533.413 365.867 539.797 365.779 544.898C365.772 545.232 365.633 545.55 365.393 545.782C365.153 546.013 364.831 546.141 364.497 546.137Z" fill="white" stroke="#212121" stroke-linecap="round" stroke-linejoin="round"/>
<path d="M370.237 546.137H369.902C369.58 546.046 369.307 545.83 369.143 545.538C368.98 545.246 368.938 544.9 369.028 544.578C370.485 539.345 366.012 534.243 365.968 534.2C365.842 534.079 365.742 533.934 365.674 533.773C365.606 533.611 365.573 533.438 365.575 533.263C365.578 533.089 365.616 532.916 365.689 532.757C365.761 532.598 365.865 532.456 365.995 532.339C366.125 532.222 366.278 532.133 366.443 532.078C366.609 532.023 366.785 532.003 366.959 532.019C367.132 532.035 367.301 532.087 367.454 532.171C367.607 532.255 367.741 532.37 367.848 532.509C368.066 532.757 373.297 538.674 371.461 545.263C371.375 545.519 371.21 545.741 370.991 545.898C370.771 546.055 370.507 546.139 370.237 546.137Z" fill="white" stroke="#212121" stroke-linecap="round" stroke-linejoin="round"/>
<path d="M376.576 545.307C376.437 545.313 376.297 545.288 376.168 545.234C376.009 545.183 375.863 545.101 375.736 544.992C375.61 544.883 375.507 544.75 375.434 544.6C375.36 544.45 375.318 544.287 375.309 544.121C375.3 543.954 375.325 543.788 375.382 543.631C376.97 538.996 372.846 533.122 372.817 533.063C372.698 532.93 372.608 532.773 372.554 532.603C372.499 532.433 372.481 532.253 372.501 532.076C372.521 531.898 372.578 531.726 372.669 531.572C372.759 531.418 372.882 531.285 373.027 531.182C373.173 531.079 373.339 531.007 373.514 530.972C373.69 530.938 373.87 530.94 374.044 530.98C374.219 531.02 374.382 531.097 374.525 531.205C374.667 531.312 374.786 531.449 374.872 531.606C375.076 531.883 379.781 538.588 377.785 544.476C377.693 544.722 377.528 544.933 377.311 545.082C377.095 545.23 376.839 545.309 376.576 545.307Z" fill="white" stroke="#212121" stroke-linecap="round" stroke-linejoin="round"/>
<path d="M382.562 552.142C387.064 553.381 381.105 562.2 375.147 558.702C369.188 555.203 378.075 550.918 382.562 552.142Z" fill="white" stroke="#212121" stroke-linecap="round" stroke-linejoin="round"/>
<path d="M330.608 505.325C337.354 514.785 357.358 525.236 377.23 533.85C380.785 539.74 384.977 545.219 389.731 550.19C401.998 562.813 406.996 555.743 406.996 555.743C406.996 555.743 414.747 554.869 426.183 553.309C426.66 554.419 427.489 555.34 428.544 555.928C429.598 556.516 430.817 556.738 432.011 556.56C433.468 556.326 436.382 554.198 439.602 551.385C468.493 547.012 507.699 539.724 518.277 531.241" fill="#BEEBC3"/>
<path d="M330.608 505.325C337.354 514.785 357.358 525.236 377.23 533.85C380.785 539.74 384.977 545.219 389.731 550.19C401.998 562.813 406.996 555.743 406.996 555.743C406.996 555.743 414.747 554.869 426.183 553.309C426.66 554.419 427.489 555.34 428.544 555.928C429.598 556.516 430.817 556.738 432.011 556.56C433.468 556.326 436.382 554.198 439.602 551.385C468.493 547.012 507.699 539.724 518.277 531.241" stroke="#212121" stroke-linecap="round" stroke-linejoin="round"/>
<path d="M507.015 487.309C502.018 481.814 497.02 481.566 486.53 482.31C486.53 482.31 459.155 491.055 440.054 502.556C420.954 514.056 393.097 526.256 393.097 526.256C393.097 526.256 384.603 523.793 378.688 526.256C378.688 526.256 374.536 526.577 377.318 533.836" stroke="#212121" stroke-linecap="round" stroke-linejoin="round"/>
<path d="M519.719 520.149C519.719 520.149 519.865 528.618 507.859 534.477" stroke="#212121" stroke-linecap="round" stroke-linejoin="round"/>
<path d="M387.312 484.816C387.312 484.816 406.253 498.518 410.055 507.555C413.778 509.125 417.373 510.981 420.807 513.108" stroke="#212121" stroke-linecap="round" stroke-linejoin="round"/>
<path d="M411.426 496.2C412.815 500.138 413.047 504.392 412.096 508.459" stroke="#212121" stroke-linecap="round" stroke-linejoin="round"/>
<path d="M407.055 487.31C408.087 488.811 408.993 490.396 409.765 492.047" stroke="#212121" stroke-linecap="round" stroke-linejoin="round"/>
<path d="M434.037 486.056C434.037 486.056 440.375 494.539 441.948 501.419" stroke="#212121" stroke-linecap="round" stroke-linejoin="round"/>
<path d="M469.339 537.304C471.696 537.166 474.042 536.873 476.361 536.43" stroke="#212121" stroke-linecap="round" stroke-linejoin="round"/>
<path d="M409.881 531.227C427.84 534.786 446.058 536.877 464.356 537.48" stroke="#212121" stroke-linecap="round" stroke-linejoin="round"/>
<path d="M538.077 402.696C538.077 402.696 534.653 462.457 530.617 465.882C526.582 469.308 520.215 470.372 508.166 471.378C496.117 472.383 442.822 475.648 442.822 475.648L437.082 458.522C437.082 458.522 465.419 455.606 477.993 451.015C487.473 447.773 497.171 445.211 507.015 443.348C507.015 443.348 504.626 428.32 504.626 421.849V391.414" fill="white"/>
<path d="M538.077 402.696C538.077 402.696 534.653 462.457 530.617 465.882C526.582 469.308 520.215 470.372 508.166 471.378C496.117 472.383 442.822 475.648 442.822 475.648L437.082 458.522C437.082 458.522 465.419 455.606 477.993 451.015C487.473 447.773 497.171 445.211 507.015 443.348C507.015 443.348 504.626 428.32 504.626 421.849V391.414" stroke="#212121" stroke-linecap="round" stroke-linejoin="round"/>
<path d="M527.586 337.41C540.567 345.412 544.399 363.909 539.911 403.395C539.911 403.395 543.743 408.06 538.076 410.392C538.076 410.392 516.848 402.448 506.985 407.928C497.121 413.409 499.7 400.364 499.7 400.364C499.7 400.364 495.635 364.04 504.624 357.467" fill="#212121"/>
<path d="M503.431 351.914C503.431 351.914 490.945 364.901 501.974 397.726C501.279 400.405 500.792 403.134 500.518 405.888C500.518 408.089 503.533 409.226 503.533 409.226" stroke="white" stroke-linecap="round" stroke-linejoin="round"/>
<path d="M488.833 373.908C488.833 373.908 489.736 389.942 499.673 396.894" stroke="white" stroke-linecap="round" stroke-linejoin="round"/>
<path d="M492.038 336.682C492.038 336.682 472.675 344.101 457.275 335.88C448.14 331.012 451.899 323.185 451.899 323.185" stroke="white" stroke-linecap="round" stroke-linejoin="round"/>
<path d="M352.797 487.338H458.192C460.572 487.339 462.943 487.03 465.244 486.42L486.034 480.968C486.322 480.894 486.576 480.726 486.758 480.491C486.94 480.257 487.039 479.968 487.039 479.671C487.039 479.311 486.897 478.967 486.643 478.712C486.389 478.458 486.044 478.315 485.684 478.315H348.441C348.084 478.319 347.743 478.464 347.492 478.718C347.241 478.971 347.101 479.314 347.101 479.671V481.639C347.101 483.15 347.701 484.6 348.769 485.669C349.837 486.737 351.286 487.338 352.797 487.338Z" fill="#757575" stroke="#212121" stroke-linecap="round" stroke-linejoin="round"/>
<path d="M342.381 482.091H448.068C448.481 482.11 448.894 482.026 449.267 481.846C449.641 481.667 449.964 481.397 450.208 481.062C450.452 480.727 450.609 480.337 450.665 479.926C450.721 479.516 450.675 479.097 450.53 478.709L430.934 402.433C430.671 401.497 430.123 400.667 429.365 400.058C428.608 399.449 427.679 399.092 426.709 399.037H320.993C320.579 399.021 320.167 399.107 319.794 399.288C319.42 399.47 319.098 399.74 318.854 400.076C318.611 400.412 318.454 400.803 318.397 401.214C318.341 401.625 318.387 402.044 318.531 402.433L338.142 478.709C338.404 479.647 338.954 480.478 339.715 481.085C340.476 481.692 341.409 482.044 342.381 482.091Z" fill="#999999" stroke="#212121" stroke-linecap="round" stroke-linejoin="round"/>
<path d="M324.722 401.749H322.726" stroke="#212121" stroke-linecap="round" stroke-linejoin="round"/>
<path d="M340.209 401.749H329.894" stroke="#212121" stroke-linecap="round" stroke-linejoin="round"/>
<path d="M445.503 472.456L428.194 405.145C427.935 404.21 427.389 403.38 426.634 402.771C425.879 402.162 424.952 401.804 423.984 401.749H342.541" stroke="#212121" stroke-linecap="round" stroke-linejoin="round"/>
<path d="M447.002 478.316L446.565 476.64" stroke="#212121" stroke-linecap="round" stroke-linejoin="round"/>
<path d="M374.157 442.488C374.229 443.106 374.356 443.716 374.536 444.31C375.876 448.902 380.174 451.7 384.123 450.534C388.071 449.368 390.184 444.704 388.843 440.113C387.503 435.521 383.176 432.723 379.227 433.889C378.766 434.03 378.322 434.221 377.902 434.457C378.119 436.014 377.881 437.601 377.216 439.027C376.552 440.452 375.489 441.654 374.157 442.488Z" fill="white" stroke="#212121" stroke-linecap="round" stroke-linejoin="round"/>
<path d="M420.809 299.542C411.659 298.551 406.677 289.849 401.169 288.493C398.097 287.758 395.086 286.783 392.165 285.578C392.165 285.578 390.271 278.961 387.43 281.205C384.589 283.45 380.86 332.95 384.516 331.39C388.173 329.831 388.188 335.676 388.188 335.676L422.149 365.615L450.618 315.182C450.618 315.182 429.958 300.548 420.809 299.542Z" fill="#212121"/>
<path d="M144.062 123.276V122.547H144.791" stroke="#212121" stroke-linecap="round" stroke-linejoin="round"/>
<path d="M149.074 122.546H272.331" stroke="#212121" stroke-linecap="round" stroke-linejoin="round" stroke-dasharray="0.98 2.93"/>
<path d="M274.459 122.547H275.187V123.276" stroke="#212121" stroke-linecap="round" stroke-linejoin="round"/>
<path d="M275.202 127.648V207.087" stroke="#212121" stroke-linecap="round" stroke-linejoin="round" stroke-dasharray="1 3"/>
<path d="M275.187 209.274V210.003H274.459" stroke="#212121" stroke-linecap="round" stroke-linejoin="round"/>
<path d="M270.191 210.002H146.934" stroke="#212121" stroke-linecap="round" stroke-linejoin="round" stroke-dasharray="0.98 2.93"/>
<path d="M144.791 210.003H144.062V209.274" stroke="#212121" stroke-linecap="round" stroke-linejoin="round"/>
<path d="M144.078 204.901V125.462" stroke="#212121" stroke-linecap="round" stroke-linejoin="round" stroke-dasharray="1 3"/>
<path d="M209.64 124.704C210.831 124.704 211.796 123.738 211.796 122.547C211.796 121.355 210.831 120.39 209.64 120.39C208.449 120.39 207.483 121.355 207.483 122.547C207.483 123.738 208.449 124.704 209.64 124.704Z" fill="#BEEBC3" stroke="#212121" stroke-linecap="round" stroke-linejoin="round"/>
<path d="M144.077 168.432C145.268 168.432 146.233 167.466 146.233 166.274C146.233 165.083 145.268 164.117 144.077 164.117C142.886 164.117 141.921 165.083 141.921 166.274C141.921 167.466 142.886 168.432 144.077 168.432Z" fill="#BEEBC3" stroke="#212121" stroke-linecap="round" stroke-linejoin="round"/>
<path d="M209.64 212.159C210.831 212.159 211.796 211.193 211.796 210.002C211.796 208.811 210.831 207.845 209.64 207.845C208.449 207.845 207.483 208.811 207.483 210.002C207.483 211.193 208.449 212.159 209.64 212.159Z" fill="#BEEBC3" stroke="#212121" stroke-linecap="round" stroke-linejoin="round"/>
<path d="M275.201 168.432C276.392 168.432 277.357 167.466 277.357 166.274C277.357 165.083 276.392 164.117 275.201 164.117C274.01 164.117 273.045 165.083 273.045 166.274C273.045 167.466 274.01 168.432 275.201 168.432Z" fill="#BEEBC3" stroke="#212121" stroke-linecap="round" stroke-linejoin="round"/>
<path d="M277.707 207.495H272.681V212.524H277.707V207.495Z" fill="#BEEBC3" stroke="#212121" stroke-linecap="round" stroke-linejoin="round"/>
<path d="M277.707 120.04H272.681V125.068H277.707V120.04Z" fill="#BEEBC3" stroke="#212121" stroke-linecap="round" stroke-linejoin="round"/>
<path d="M146.583 207.495H141.557V212.524H146.583V207.495Z" fill="#BEEBC3" stroke="#212121" stroke-linecap="round" stroke-linejoin="round"/>
<path d="M146.583 120.04H141.557V125.068H146.583V120.04Z" fill="#BEEBC3" stroke="#212121" stroke-linecap="round" stroke-linejoin="round"/>
<path d="M266.897 130.286H152.775V202.831H266.897V130.286Z" fill="white" stroke="#212121" stroke-linecap="round" stroke-linejoin="round"/>
<path d="M266.897 181.404L254.207 194.1L219.882 159.759L205.444 174.204L182.424 151.174L152.775 180.821V202.831H266.897V181.404Z" fill="#BEEBC3" stroke="#212121" stroke-linecap="round" stroke-linejoin="round"/>
<path d="M243.25 158.943C247.7 158.943 251.307 155.334 251.307 150.882C251.307 146.431 247.7 142.822 243.25 142.822C238.801 142.822 235.193 146.431 235.193 150.882C235.193 155.334 238.801 158.943 243.25 158.943Z" fill="#BEEBC3" stroke="#212121" stroke-linecap="round" stroke-linejoin="round"/>
<path d="M426.883 312.923C426.883 312.923 418.142 329.204 417.107 354.114" stroke="white" stroke-linecap="round" stroke-linejoin="round"/>
<path d="M401.183 324.19C401.183 324.19 403.791 338.037 411.381 348.065" stroke="white" stroke-linecap="round" stroke-linejoin="round"/>
<path d="M437.082 381.328C437.082 381.328 450.194 424.414 478.678 437.095" stroke="white" stroke-linecap="round" stroke-linejoin="round"/>
<path d="M471.582 303.332C471.582 303.332 470.343 312.733 461.31 313.389C460.197 311.024 458.855 308.773 457.304 306.67C461.994 305.281 466.762 304.167 471.582 303.332Z" fill="#212121"/>
<path d="M490.829 303.988C490.829 303.988 505.937 305.839 512.26 285.549C518.584 265.26 513.615 249.969 488.614 242.609C474.744 238.527 460.933 241.807 455.877 252.316C451.594 261.31 453.619 268.787 452.643 271.804C451.535 275.186 441.308 278.057 441.308 280.375C441.308 282.284 446.975 285.549 446.975 285.549L445.314 290.593L446.873 291.423C446.873 291.423 443.959 302.778 445.314 306.786C446.276 309.702 471.874 310.926 473.87 303.667" fill="white"/>
<path d="M490.829 303.988C490.829 303.988 505.937 305.839 512.26 285.549C518.584 265.26 513.615 249.969 488.614 242.609C474.744 238.527 460.933 241.807 455.877 252.316C451.594 261.31 453.619 268.787 452.643 271.804C451.535 275.186 441.308 278.057 441.308 280.375C441.308 282.284 446.975 285.549 446.975 285.549L445.314 290.593L446.873 291.423C446.873 291.423 443.959 302.778 445.314 306.786C446.276 309.702 471.874 310.926 473.87 303.667" stroke="#212121" stroke-linecap="round" stroke-linejoin="round"/>
<path d="M456.021 259.677C456.021 259.677 461.019 260.93 462.388 263.554" stroke="#212121" stroke-linecap="round" stroke-linejoin="round"/>
<path d="M456.897 271.206C456.678 272.664 457.013 273.932 457.654 274.019C458.295 274.107 458.966 272.999 459.184 271.527C459.403 270.055 459.053 268.801 458.427 268.714C457.8 268.626 457.115 269.734 456.897 271.206Z" fill="#212121"/>
<path d="M446.872 291.423C446.872 291.423 455.002 294.543 458.032 292.662" stroke="#212121" stroke-linecap="round" stroke-linejoin="round"/>
<path d="M449.728 270.041C449.131 273.306 449.859 276.163 451.36 276.439C452.861 276.716 454.58 274.311 455.177 271.061C455.775 267.811 455.061 264.925 453.545 264.648C452.03 264.371 450.34 266.79 449.728 270.041Z" stroke="#212121" stroke-linecap="round" stroke-linejoin="round"/>
<path d="M512.93 253.439C511.713 247.532 508.323 242.299 503.431 238.775C497.978 234.944 491.734 232.389 485.161 231.298C485.161 231.298 489.983 233.411 491.819 236.195C491.819 236.195 479.333 226.808 464.501 232.974C449.67 239.14 451.52 255.159 451.52 255.159L453.676 250.961C453.676 250.961 453.429 255.96 456.051 257.797C456.837 255.348 457.908 252.999 459.242 250.8C459.242 250.8 463.176 262.621 474.001 266.63C473.265 264.766 473.203 262.704 473.826 260.799C473.826 260.799 479.828 273.787 478.08 280.127L479.989 283.45C479.989 283.45 486.88 276.469 492.489 282.284C495.709 285.637 486.326 298.318 484.986 298.318L490.653 306.641C490.653 306.641 504.815 308.667 512.974 293.318C521.133 277.97 519.137 271.454 519.137 271.454C519.137 271.454 521.803 275.186 522.05 277.285C522.08 277.256 524.498 260.77 512.93 253.439Z" fill="#212121"/>
<path d="M479.61 284.922C479.61 284.922 483.981 270.23 493.276 275.404C502.572 280.579 495.943 288.421 492.606 291.438C489.27 294.455 486.778 299.936 484.608 299.936C482.437 299.936 481.956 297.268 481.956 297.268" fill="white"/>
<path d="M479.61 284.922C479.61 284.922 483.981 270.23 493.276 275.404C502.572 280.579 495.943 288.421 492.606 291.438C489.27 294.455 486.778 299.936 484.608 299.936C482.437 299.936 481.956 297.268 481.956 297.268" stroke="#212121" stroke-linecap="round" stroke-linejoin="round"/>
<path d="M455.177 271.061L481.11 276.439" stroke="#212121" stroke-linecap="round" stroke-linejoin="round"/>
</g>
<defs>
<clipPath id="clip0_99_1247">
<rect width="609" height="569" fill="white"/>
</clipPath>
</defs>
</svg>
