<svg width="2496" height="2500" viewBox="0 0 2496 2500" fill="none" xmlns="http://www.w3.org/2000/svg">
<g clip-path="url(#clip0_85_1498)">
<path d="M2432 995.018C2417.2 954.206 2400.2 914.229 2381.06 875.266C2213.28 533.451 1900.52 301.686 1515.5 240.776C1498.93 238.126 1482.28 235.811 1465.57 233.832C1151.06 196.141 711.127 243.162 531.74 533.663C438.601 684.532 476.821 874.789 378.01 1021.36C250.096 1211.62 85.6582 1306.67 55.2303 1603.59C32.807 1822.04 43.25 2058.16 197.722 2232.4C379.759 2437.82 692.149 2508.54 959.003 2469.1C1218.01 2430.88 1449.88 2302.96 1676.39 2182.84C1891.4 2068.81 2137.58 1986.01 2311.56 1811.76C2531.23 1591.61 2531.08 1269.77 2432 995.018Z" fill="#BEEBC3"/>
<path opacity="0.7" d="M2432 995.018C2417.2 954.206 2400.2 914.229 2381.06 875.266C2213.28 533.451 1900.52 301.686 1515.5 240.776C1498.93 238.126 1482.28 235.811 1465.57 233.832C1151.06 196.141 711.127 243.162 531.74 533.663C438.601 684.532 476.821 874.789 378.01 1021.36C250.096 1211.62 85.6582 1306.67 55.2303 1603.59C32.807 1822.04 43.25 2058.16 197.722 2232.4C379.759 2437.82 692.149 2508.54 959.003 2469.1C1218.01 2430.88 1449.88 2302.96 1676.39 2182.84C1891.4 2068.81 2137.58 1986.01 2311.56 1811.76C2531.23 1591.61 2531.08 1269.77 2432 995.018Z" fill="white"/>
<path d="M353.624 1002.39C369.951 1009.54 409.814 1008.64 409.868 1008.64C409.921 1008.64 401.28 982.507 400.538 980.917C391.791 962.628 364.12 932.411 341.59 935.433C337.867 936.048 334.314 937.439 331.162 939.516C328.011 941.592 325.331 944.308 323.297 947.487C321.262 950.666 319.919 954.237 319.354 957.969C318.788 961.7 319.014 965.509 320.015 969.148C323.726 984.733 339.735 996.608 353.624 1002.39Z" fill="#BEEBC3"/>
<path d="M756.873 1011.19C757.191 1011.19 764.082 984.68 764.347 982.931C767.157 962.84 760.743 922.392 740.281 912.479C736.837 910.932 733.107 910.128 729.332 910.119C725.557 910.11 721.823 910.896 718.372 912.427C714.921 913.957 711.832 916.197 709.304 919.001C706.777 921.805 704.869 925.11 703.704 928.701C698.403 943.756 705.188 962.257 713.405 974.979C723.211 989.928 756.873 1011.13 756.873 1011.19Z" fill="#BEEBC3"/>
<path d="M876.04 866.678C853.458 864.239 826.635 895.198 818.365 913.699C817.623 915.342 809.353 941.636 809.777 941.636H810.254C806.014 946.513 801.455 951.761 796.631 957.539C787.778 968.406 777.918 980.758 768.058 994.912C757.284 1010.06 747.39 1025.81 738.425 1042.09C728.326 1060.3 719.864 1079.37 713.14 1099.08C713.116 1099.31 713.116 1099.54 713.14 1099.77C713.14 1093.14 713.139 1074.53 712.768 1073.26C710.171 1053.12 693.314 1015.8 670.943 1011.66C667.215 1011.09 663.408 1011.3 659.767 1012.29C656.127 1013.28 652.735 1015.02 649.811 1017.41C646.887 1019.79 644.497 1022.76 642.795 1026.13C641.094 1029.49 640.118 1033.18 639.932 1036.95C638.66 1052.85 650.216 1068.76 661.507 1079.04C674.283 1090.38 709.641 1101.41 712.45 1102.31C706.12 1122.53 701.126 1143.14 697.501 1164.02C695.381 1176.16 693.526 1188.51 691.882 1200.86C691.882 1195.08 691.882 1189.94 691.882 1189.25C689.232 1169.11 672.375 1131.79 650.057 1127.65C646.328 1127.07 642.517 1127.27 638.873 1128.26C635.229 1129.25 631.834 1130.99 628.909 1133.37C625.983 1135.76 623.593 1138.73 621.893 1142.11C620.194 1145.48 619.224 1149.17 619.046 1152.94C617.721 1168.84 629.33 1184.74 640.621 1195.03C651.913 1205.31 682.075 1215.28 690.027 1217.77C689.444 1222.54 688.808 1227.26 688.225 1232.03C685.521 1254.83 682.924 1277.62 679.637 1299.83C678.471 1307.68 677.093 1315.36 675.714 1323.05C675.714 1317.75 675.714 1313.67 675.396 1312.98C672.799 1292.89 655.941 1255.51 633.624 1251.38C629.895 1250.79 626.084 1251 622.44 1251.99C618.796 1252.97 615.401 1254.72 612.475 1257.1C609.55 1259.49 607.159 1262.46 605.46 1265.83C603.761 1269.2 602.791 1272.89 602.613 1276.67C601.288 1292.57 612.897 1308.47 624.188 1318.76C635.479 1329.04 662.727 1338 672.163 1341.07C670.519 1348.92 668.876 1356.98 666.862 1364.29C665.377 1369.59 664.317 1374.42 662.621 1379.45C660.924 1384.49 659.387 1389.47 657.797 1394.4C654.351 1403.73 650.905 1413.43 647.195 1422.55C644.756 1428.86 642.318 1434.85 639.879 1440.89C641.098 1433.1 643.219 1417.78 643.219 1416.46C642.98 1398.61 638.161 1381.12 629.224 1365.67C629.286 1363.68 629.162 1361.7 628.853 1359.73C628.382 1355.99 627.128 1352.39 625.172 1349.16C623.217 1345.93 620.604 1343.16 617.504 1341.01C614.404 1338.86 610.886 1337.38 607.178 1336.68C603.471 1335.98 599.658 1336.07 595.987 1336.94C574.041 1342.77 560.099 1381.31 558.88 1401.56C558.88 1402.78 559.622 1415.82 560.258 1424.04C559.145 1419.27 558.137 1414.6 556.918 1409.72C554.639 1400.02 552.041 1390.37 549.285 1379.98C547.8 1375.05 546.316 1370.02 544.779 1364.98C543.242 1359.95 541.227 1354.8 539.478 1349.61C535.131 1337.73 530.148 1325.91 524.847 1314.14C533.382 1312.08 563.438 1304.44 575.525 1295.17C587.611 1285.89 600.281 1270.83 600.175 1254.83C600.276 1251.05 599.581 1247.3 598.137 1243.81C596.693 1240.32 594.531 1237.17 591.791 1234.57C589.052 1231.97 585.796 1229.98 582.236 1228.72C578.675 1227.46 574.89 1226.96 571.125 1227.26C548.543 1229.75 528.717 1265.75 524.847 1285.57C524.847 1286.84 523.257 1301.47 522.674 1309.43C519.44 1302.38 516.259 1295.33 512.761 1288.22C502.636 1267.87 491.556 1247.62 480.954 1227.37C477.668 1221.16 474.487 1214.91 471.254 1208.71C474.275 1208.02 510.216 1199.69 523.734 1189.3C535.767 1180.08 548.49 1164.97 548.384 1148.96C548.485 1145.19 547.79 1141.43 546.346 1137.94C544.902 1134.45 542.74 1131.31 540 1128.71C537.261 1126.11 534.005 1124.11 530.445 1122.85C526.884 1121.59 523.099 1121.1 519.334 1121.4C496.752 1123.89 476.926 1159.83 473.056 1179.71C472.738 1181.19 470.882 1202.19 470.617 1207.59C463.514 1193.86 456.57 1180.19 450.262 1166.35C441.688 1147.74 434.322 1128.6 428.209 1109.04C429.64 1108.73 467.172 1100.19 481.219 1089.54C493.253 1080.31 505.975 1065.26 505.869 1049.19C505.971 1045.42 505.277 1041.67 503.832 1038.18C502.387 1034.7 500.224 1031.55 497.484 1028.96C494.743 1026.36 491.487 1024.37 487.927 1023.12C484.366 1021.86 480.582 1021.38 476.82 1021.68C454.237 1024.12 434.411 1060.12 430.542 1079.99C430.542 1081.27 428.792 1097.28 428.315 1104.91H426.99C421.248 1085.1 417.274 1064.83 415.116 1044.32C413.843 1033.03 413.26 1022.16 412.942 1011.61C420.099 1010.71 452.806 1006.31 466.324 998.198C479.841 990.088 493.624 976.729 495.267 960.773C495.774 957.034 495.489 953.23 494.432 949.608C493.374 945.986 491.568 942.626 489.129 939.748C486.69 936.869 483.673 934.535 480.274 932.896C476.875 931.258 473.17 930.352 469.398 930.238C446.71 930.238 423.279 963.794 416.971 983.249C416.653 984.309 414.374 995.389 412.836 1003.45C412.836 998.675 412.836 993.745 412.836 989.133C412.836 971.958 413.949 956.267 415.01 942.325C415.699 934.426 416.441 927.27 417.236 920.59C423.809 916.084 450.102 897.53 458.16 884.277C466.218 871.025 472.526 852.471 466.642 837.734C465.381 834.163 463.38 830.9 460.769 828.157C458.159 825.414 454.999 823.253 451.495 821.817C447.992 820.38 444.224 819.7 440.44 819.821C436.655 819.943 432.939 820.862 429.534 822.52C409.338 833.122 404.037 873.569 407.376 893.607C407.376 895.357 415.275 921.862 415.646 921.65L416.017 921.332C415.116 927.747 414.268 934.638 413.419 942.166C412.041 956.108 410.61 971.852 410.239 989.133C409.569 1007.7 410.012 1026.28 411.564 1044.8C413.167 1065.56 416.608 1086.13 421.848 1106.29C421.87 1106.53 421.87 1106.78 421.848 1107.03C418.243 1101.41 407.747 1085.83 406.793 1084.92C393.54 1069.6 359.084 1047.82 337.88 1056.62C334.448 1058.19 331.386 1060.47 328.892 1063.3C326.398 1066.14 324.528 1069.47 323.403 1073.07C322.279 1076.67 321.924 1080.48 322.363 1084.23C322.803 1087.98 324.025 1091.59 325.952 1094.84C333.692 1108.89 352.458 1116.04 367.194 1118C384.105 1120.49 419.675 1110.16 422.537 1109.36C428.404 1129.68 435.612 1149.58 444.112 1168.95C448.989 1180.29 454.29 1191.58 459.75 1202.77C456.464 1198.05 453.548 1193.81 453.071 1193.28C439.818 1177.91 405.362 1156.17 384.158 1164.97C380.728 1166.54 377.666 1168.81 375.173 1171.64C372.679 1174.47 370.809 1177.8 369.684 1181.4C368.559 1185 368.204 1188.79 368.643 1192.54C369.082 1196.28 370.304 1199.9 372.23 1203.14C379.97 1217.19 398.736 1224.34 413.472 1226.36C428.209 1228.37 459.22 1220.37 467.225 1218.09C469.398 1222.38 471.466 1226.68 473.586 1230.97C484.188 1251.49 494.313 1271.89 503.855 1292.25C507.248 1299.46 510.269 1306.62 513.344 1313.83C510.481 1309.59 508.043 1306.03 507.566 1305.56C494.313 1290.18 459.856 1268.45 438.652 1277.25C435.219 1278.82 432.157 1281.1 429.663 1283.94C427.17 1286.77 425.303 1290.1 424.182 1293.71C423.062 1297.31 422.714 1301.12 423.161 1304.87C423.609 1308.62 424.841 1312.23 426.778 1315.47C434.464 1329.52 452.965 1336.67 467.967 1338.64C482.969 1340.6 510.746 1333.33 520.288 1330.79C523.257 1338.21 526.225 1345.69 528.717 1353.05C530.307 1358.09 532.215 1362.86 533.541 1368C534.866 1373.15 536.35 1378.13 537.728 1383.11C540.061 1392.87 542.552 1402.83 544.567 1412.37C546.051 1419 547.323 1425.31 548.596 1431.67C545.362 1424.51 538.63 1410.47 537.994 1409.51C527.391 1392.34 496.221 1365.46 474.381 1371.08C470.753 1372.11 467.383 1373.9 464.49 1376.32C461.598 1378.74 459.247 1381.75 457.592 1385.14C455.937 1388.53 455.014 1392.23 454.884 1396C454.753 1399.77 455.418 1403.52 456.835 1407.02C462.136 1422.13 479.576 1431.78 493.942 1436.23C509.845 1441.11 545.203 1436.65 549.603 1436.23C551.723 1446.83 553.685 1457.06 555.381 1466.76C561.265 1500.21 564.923 1528.26 567.255 1548.08H582.628V1546.76C579.872 1526.77 575.525 1498.25 568.792 1464.32C566.672 1453.72 564.234 1442.17 561.583 1430.45C572.207 1426.19 582.578 1421.32 592.647 1415.87C604.256 1428.44 634.048 1443.17 637.918 1445.08C633.889 1455.05 629.807 1464.7 625.885 1473.76C612.367 1504.88 599.91 1530.32 590.898 1547.98H607.808C616.131 1530.32 626.839 1506.84 638.289 1479.06C642.424 1468.99 646.665 1457.86 650.905 1446.88C655.199 1447.79 690.186 1454.89 706.46 1451.18C721.25 1447.84 739.168 1439.46 745.794 1424.67C747.451 1421.29 748.381 1417.6 748.522 1413.83C748.663 1410.07 748.014 1406.32 746.615 1402.82C745.216 1399.32 743.099 1396.16 740.401 1393.53C737.703 1390.9 734.484 1388.87 730.951 1387.56C709.376 1380.3 676.509 1404.79 664.476 1421.12C663.787 1422.07 657.214 1433.37 653.185 1440.58C654.934 1436.02 656.631 1431.56 658.486 1426.79C661.932 1417.41 665.112 1407.97 668.505 1397.85C669.989 1392.87 671.526 1387.83 673.011 1382.79C674.495 1377.76 675.714 1372.19 677.092 1366.89C680.008 1354.59 682.394 1341.98 684.461 1329.25C692.678 1332.22 721.992 1342.4 737.471 1341.34C752.95 1340.28 771.504 1334.77 780.304 1321.3C782.468 1318.21 783.957 1314.7 784.673 1310.99C785.39 1307.29 785.319 1303.47 784.463 1299.8C783.608 1296.12 781.989 1292.67 779.71 1289.66C777.432 1286.65 774.545 1284.16 771.239 1282.34C751.042 1271.74 714.836 1291.08 700.47 1305.4C699.569 1306.3 690.398 1317.75 685.521 1324.11C686.687 1316.42 687.96 1308.79 688.914 1301C691.723 1278.47 693.844 1255.57 696.07 1232.72C696.759 1225.72 697.501 1218.78 698.244 1211.83C701.159 1212.89 735.722 1225.77 752.738 1224.61C767.846 1223.55 786.824 1217.98 795.571 1204.52C797.735 1201.43 799.224 1197.91 799.94 1194.21C800.657 1190.5 800.585 1186.69 799.73 1183.01C798.875 1179.34 797.256 1175.88 794.977 1172.88C792.699 1169.87 789.812 1167.37 786.506 1165.55C766.309 1154.95 730.156 1174.35 715.737 1188.67C714.677 1189.73 701.53 1206.21 698.35 1210.56C699.993 1195.19 701.742 1179.92 704.075 1164.92C707.167 1144.66 711.54 1124.62 717.168 1104.91C718.547 1105.44 754.594 1119.01 771.981 1117.79C787.089 1116.73 806.066 1111.22 814.813 1097.75C816.979 1094.67 818.471 1091.16 819.192 1087.45C819.913 1083.75 819.846 1079.94 818.996 1076.26C818.146 1072.59 816.532 1069.13 814.258 1066.12C811.985 1063.11 809.104 1060.61 805.801 1058.79C785.605 1048.19 749.399 1067.54 735.033 1081.85C734.079 1082.8 724.007 1095.31 719.395 1101.41L718.229 1100.83C724.466 1081.16 732.449 1062.09 742.083 1043.84C747.384 1033.72 752.685 1024.33 758.304 1015.37C764.772 1018.55 794.404 1032.97 810.201 1033.61C825.998 1034.25 844.817 1030.75 854.995 1018.4C857.477 1015.55 859.334 1012.22 860.449 1008.62C861.563 1005.01 861.909 1001.22 861.465 997.469C861.02 993.722 859.795 990.11 857.868 986.867C855.941 983.623 853.355 980.82 850.277 978.637C831.352 966.074 793.238 981.182 777.388 993.798C776.54 994.488 768.535 1002.49 762.81 1008.32C765.355 1004.35 768.111 1000.11 770.497 996.343C779.986 982.03 789.58 969.466 798.168 958.44C803.098 952.238 807.657 946.725 812.004 941.582C819.955 941.582 852.132 940.469 866.18 933.843C880.228 927.216 895.601 915.395 898.887 899.704C899.784 896.018 899.889 892.184 899.198 888.454C898.506 884.725 897.033 881.183 894.874 878.064C892.716 874.944 889.922 872.317 886.676 870.355C883.43 868.392 879.805 867.139 876.04 866.678Z" fill="#BEEBC3"/>
<path d="M1233.97 1694.45C1252.31 1702.45 1297.31 1701.44 1297.31 1701.44C1297.31 1701.44 1287.67 1672.02 1286.71 1670.22C1276.85 1649.6 1245.63 1615.51 1220.24 1618.96C1216.04 1619.64 1212.03 1621.2 1208.47 1623.53C1204.92 1625.86 1201.89 1628.92 1199.6 1632.5C1197.3 1636.08 1195.78 1640.11 1195.15 1644.32C1194.51 1648.52 1194.77 1652.81 1195.91 1656.91C1200.04 1674.51 1218.06 1687.61 1233.97 1694.45Z" fill="#BEEBC3"/>
<path d="M1688.58 1704.31C1689.01 1704.57 1696.8 1674.46 1697.06 1672.5C1700.19 1649.81 1692.98 1604.17 1669.92 1592.98C1666.04 1591.24 1661.83 1590.34 1657.57 1590.33C1653.31 1590.32 1649.09 1591.2 1645.2 1592.93C1641.31 1594.65 1637.82 1597.18 1634.96 1600.34C1632.11 1603.5 1629.95 1607.22 1628.63 1611.27C1622.48 1628.24 1630.32 1649.12 1639.6 1663.43C1650.52 1680.45 1688.58 1704.31 1688.58 1704.31Z" fill="#BEEBC3"/>
<path d="M1822.8 1541.35C1797.36 1538.59 1767.09 1573.53 1757.76 1594.36C1756.96 1596.16 1747.63 1625.85 1748.11 1625.85H1748.64C1743.82 1631.15 1738.73 1637.25 1733.27 1643.82C1723.3 1656.07 1712.06 1670.01 1701.04 1685.96C1688.9 1702.98 1677.75 1720.68 1667.64 1738.98C1656.23 1759.5 1646.69 1781 1639.12 1803.23C1639.12 1803.49 1639.12 1803.81 1638.86 1804.02C1638.86 1796.55 1638.86 1775.55 1638.49 1773.96C1635.52 1751.27 1616.49 1709.13 1591.31 1704.47C1587.1 1703.81 1582.81 1704.05 1578.7 1705.17C1574.59 1706.28 1570.77 1708.25 1567.47 1710.94C1564.17 1713.63 1561.47 1716.98 1559.55 1720.78C1557.63 1724.58 1556.53 1728.73 1556.32 1732.99C1554.89 1751.01 1567.93 1769.09 1580.71 1780.7C1595.07 1793.52 1634.93 1805.98 1638.12 1806.94C1630.98 1829.76 1625.35 1853.03 1621.26 1876.59C1618.82 1890.32 1616.81 1904.21 1614.9 1918.15C1614.9 1911.63 1614.9 1905.85 1614.58 1905.06C1611.66 1882.37 1592.63 1840.23 1567.45 1835.56C1563.25 1834.9 1558.95 1835.14 1554.84 1836.25C1550.73 1837.36 1546.9 1839.32 1543.6 1842.01C1540.3 1844.71 1537.6 1848.06 1535.68 1851.86C1533.76 1855.66 1532.67 1859.83 1532.47 1864.08C1530.98 1882.11 1544.08 1900.18 1556.8 1911.53C1569.52 1922.87 1603.55 1934.37 1612.51 1937.24C1611.88 1942.54 1611.13 1947.84 1610.5 1953.14C1607.42 1978.85 1604.45 2004.56 1600.8 2029.64C1599.52 2038.49 1597.93 2047.13 1596.34 2055.82C1596.34 2050.04 1596.34 2045.22 1596.03 2044.43C1593.11 2021.74 1574.08 1979.65 1548.9 1974.98C1544.69 1974.33 1540.4 1974.57 1536.29 1975.68C1532.18 1976.8 1528.36 1978.77 1525.06 1981.45C1521.76 1984.14 1519.06 1987.5 1517.14 1991.29C1515.22 1995.09 1514.12 1999.25 1513.91 2003.5C1512.43 2021.52 1525.52 2039.55 1538.24 2051.21C1550.97 2062.87 1581.71 2072.95 1592.37 2076.39C1590.51 2085.24 1588.66 2094.1 1586.43 2102.53C1584.79 2108.3 1583.62 2113.92 1581.66 2119.65L1576.36 2136.45C1572.54 2147.05 1568.62 2157.98 1564.59 2168.26C1561.89 2175.42 1559.29 2182.15 1556.37 2188.93C1557.75 2180.19 1560.14 2162.91 1560.14 2161.47C1559.84 2141.32 1554.37 2121.59 1544.23 2104.17C1544.32 2101.94 1544.2 2099.7 1543.86 2097.49C1543.33 2093.26 1541.91 2089.2 1539.71 2085.55C1537.5 2081.91 1534.55 2078.77 1531.05 2076.34C1527.55 2073.91 1523.58 2072.24 1519.39 2071.45C1515.21 2070.65 1510.9 2070.75 1506.76 2071.73C1482 2078.35 1466.31 2121.82 1465.14 2144.67C1465.14 2145.99 1465.94 2160.57 1466.68 2169.96C1465.41 2164.65 1464.24 2159.35 1462.92 2154.05C1460.32 2143.08 1457.62 2132.21 1454.33 2120.55L1449.03 2103.59C1447.44 2097.91 1445.05 2092.08 1443.04 2086.3C1438.16 2072.89 1432.44 2059.8 1426.6 2046.28C1436.15 2043.95 1470.07 2035.31 1483.7 2025.08C1497.32 2014.85 1511.63 1997.67 1511.53 1979.59C1511.64 1975.34 1510.85 1971.11 1509.22 1967.17C1507.59 1963.24 1505.15 1959.7 1502.06 1956.77C1498.97 1953.84 1495.3 1951.59 1491.29 1950.17C1487.28 1948.75 1483.01 1948.19 1478.77 1948.53C1453.27 1951.28 1431.06 1991.89 1426.55 2014.26C1426.29 2015.69 1424.75 2032.13 1424.11 2041.19C1420.46 2033.19 1416.85 2025.29 1412.93 2017.28C1401.53 1994.38 1389.29 1971.54 1377.2 1948.69C1373.49 1941.69 1369.88 1934.64 1366.23 1927.48C1369.67 1926.69 1410.17 1917.3 1425.44 1905.59C1439.01 1894.99 1453.37 1878.18 1453.22 1860.11C1453.33 1855.85 1452.55 1851.62 1450.93 1847.69C1449.31 1843.76 1446.87 1840.21 1443.79 1837.28C1440.7 1834.35 1437.04 1832.1 1433.02 1830.68C1429.01 1829.27 1424.75 1828.71 1420.51 1829.04C1395.01 1831.8 1372.8 1872.4 1368.29 1894.78C1367.92 1896.47 1365.8 1920.17 1365.54 1926.21C1357.53 1910.78 1349.63 1895.31 1342.58 1879.72C1332.85 1858.76 1324.49 1837.2 1317.56 1815.15C1319.15 1814.78 1361.51 1805.19 1377.15 1793.21C1390.66 1782.6 1405.08 1765.75 1404.92 1747.67C1405.04 1743.41 1404.26 1739.18 1402.63 1735.25C1401.01 1731.31 1398.57 1727.77 1395.47 1724.84C1392.38 1721.91 1388.71 1719.67 1384.69 1718.26C1380.67 1716.85 1376.41 1716.31 1372.16 1716.66C1346.72 1719.41 1324.45 1759.97 1320 1782.39C1319.68 1783.88 1318.04 1801.9 1317.46 1810.49H1316.03C1309.56 1788.02 1305.16 1765 1302.88 1741.73C1301.45 1729.01 1300.76 1716.76 1300.39 1704.62C1308.5 1703.67 1345.34 1698.74 1360.55 1689.52C1375.77 1680.29 1391.35 1665.34 1393.21 1647.37C1393.79 1643.15 1393.48 1638.86 1392.29 1634.77C1391.1 1630.68 1389.07 1626.89 1386.32 1623.64C1383.57 1620.39 1380.16 1617.75 1376.33 1615.91C1372.49 1614.06 1368.31 1613.04 1364.05 1612.92C1338.45 1612.92 1312 1650.77 1304.95 1672.5C1304.57 1673.72 1302.03 1686.18 1300.28 1695.24C1300.28 1689.94 1300.02 1684.32 1300.02 1679.34C1300.02 1659.94 1301.29 1642.23 1302.51 1626.33C1303.25 1617.42 1304.1 1609.36 1305 1601.84C1312.42 1596.53 1342.11 1575.86 1351.17 1560.91C1360.24 1545.96 1367.34 1525.23 1360.71 1508.43C1359.28 1504.42 1357.02 1500.75 1354.09 1497.67C1351.15 1494.59 1347.59 1492.16 1343.65 1490.54C1339.71 1488.92 1335.48 1488.14 1331.22 1488.27C1326.96 1488.39 1322.78 1489.41 1318.94 1491.25C1296.2 1503.02 1290.21 1548.82 1293.97 1571.41C1294.29 1573.37 1302.88 1603.21 1303.3 1603.21L1303.73 1602.95C1302.72 1610.16 1301.77 1617.9 1300.86 1626.38C1299.27 1642.28 1297.68 1659.88 1297.21 1679.39C1296.49 1700.34 1296.98 1721.32 1298.69 1742.21C1300.52 1765.62 1304.42 1788.83 1310.35 1811.55C1310.42 1811.82 1310.51 1812.09 1310.62 1812.34C1306.59 1805.98 1294.72 1788.65 1293.65 1787.43C1278.65 1770.15 1239.58 1745.5 1215.99 1755.62C1212.13 1757.4 1208.68 1759.97 1205.87 1763.17C1203.07 1766.37 1200.96 1770.12 1199.7 1774.19C1198.43 1778.25 1198.04 1782.53 1198.53 1786.76C1199.03 1790.99 1200.41 1795.06 1202.58 1798.72C1211.28 1814.62 1232.11 1822.36 1249.02 1824.85C1268.1 1827.61 1308.23 1816 1311.41 1815.05C1318.04 1838.02 1326.19 1860.53 1335.8 1882.42C1341.1 1895.2 1347.25 1907.87 1353.4 1920.54C1349.74 1915.24 1346.4 1910.41 1345.87 1909.94C1330.92 1892.65 1291.8 1868 1268.26 1878.13C1264.39 1879.9 1260.93 1882.46 1258.11 1885.66C1255.29 1888.85 1253.18 1892.61 1251.91 1896.67C1250.64 1900.74 1250.24 1905.03 1250.74 1909.26C1251.24 1913.49 1252.62 1917.57 1254.8 1921.23C1263.49 1937.13 1284.38 1944.92 1301.29 1947.36C1318.2 1949.8 1352.87 1940.63 1361.93 1938.09L1369.09 1952.56C1380.7 1975.72 1392.41 1998.78 1403.17 2021.74C1406.99 2029.79 1410.44 2037.91 1413.78 2046.02C1410.54 2041.24 1407.73 2037.27 1407.26 2036.69C1392.25 2019.4 1353.19 1994.75 1329.6 2004.88C1325.73 2006.66 1322.28 2009.23 1319.48 2012.43C1316.67 2015.63 1314.56 2019.38 1313.3 2023.44C1312.03 2027.51 1311.64 2031.79 1312.14 2036.02C1312.63 2040.24 1314.01 2044.32 1316.18 2047.98C1324.88 2063.88 1345.71 2071.62 1362.62 2074.11C1379.53 2076.6 1410.86 2068.28 1421.67 2065.26C1424.96 2073.63 1428.3 2082.06 1431.11 2090.33C1432.97 2096.06 1435.09 2101.41 1436.41 2107.24L1441.18 2124.31C1443.78 2135.23 1446.48 2146.52 1448.87 2157.29C1450.51 2164.71 1451.94 2171.86 1453.43 2179.02C1449.72 2170.96 1442.19 2155.27 1441.39 2154C1429.2 2134.65 1394.32 2104.38 1369.46 2110.69C1365.37 2111.86 1361.57 2113.87 1358.31 2116.61C1355.04 2119.34 1352.4 2122.73 1350.53 2126.56C1348.67 2130.38 1347.63 2134.56 1347.48 2138.81C1347.34 2143.06 1348.09 2147.3 1349.69 2151.24C1355.89 2168.26 1375.29 2179.13 1391.67 2184.16C1409.64 2189.46 1449.45 2184.64 1454.44 2184.16C1456.82 2196.09 1459.05 2207.65 1460.96 2218.62C1467.58 2256.31 1471.56 2288.01 1474.31 2310.33H1491.65V2308.84C1488.52 2286.26 1483.64 2254.14 1476.01 2215.86C1473.68 2203.78 1470.71 2190.9 1467.9 2177.7C1479.89 2172.88 1491.59 2167.37 1502.94 2161.21C1516.03 2175.42 1549.64 2192.01 1553.99 2194.13C1549.43 2205.37 1544.87 2216.29 1540.42 2226.52C1525.15 2261.61 1511.1 2290.13 1500.98 2310.33H1520.22C1529.66 2290.45 1541.69 2263.94 1554.57 2232.4C1559.29 2221.01 1564.06 2208.71 1568.88 2196.09C1573.71 2197.1 1613.15 2205.1 1631.49 2200.97C1648.19 2197.2 1668.6 2187.77 1675.81 2171.28C1677.7 2167.47 1678.77 2163.3 1678.94 2159.04C1679.11 2154.79 1678.39 2150.55 1676.81 2146.59C1675.24 2142.63 1672.85 2139.05 1669.8 2136.08C1666.75 2133.11 1663.1 2130.82 1659.11 2129.35C1634.78 2121.19 1597.72 2148.8 1584.15 2167.2C1583.36 2168.31 1575.99 2181.03 1571.43 2189.15C1573.39 2183.84 1575.3 2178.97 1577.21 2173.61C1581.13 2163.01 1584.68 2152.41 1588.55 2140.96C1590.19 2135.34 1591.89 2129.72 1593.59 2124C1595.28 2118.27 1596.61 2112.17 1598.15 2106.24C1601.49 2092.4 1604.14 2078.14 1606.52 2063.83C1615.8 2067.22 1648.93 2078.72 1665.95 2077.5C1682.96 2076.29 1704.38 2070.03 1714.24 2054.87C1716.69 2051.39 1718.38 2047.43 1719.19 2043.25C1720.01 2039.07 1719.93 2034.77 1718.97 2030.62C1718.01 2026.47 1716.19 2022.58 1713.62 2019.18C1711.05 2015.79 1707.79 2012.97 1704.06 2010.92C1681.27 1999.21 1640.45 2020.84 1624.54 2037C1623.48 2037.96 1613.15 2050.89 1607.63 2058.21C1609.01 2049.57 1610.39 2040.93 1611.5 2032.13C1614.63 2006.73 1616.81 1980.92 1619.56 1955.15C1620.3 1947.31 1621.15 1939.25 1622 1931.56C1625.29 1932.84 1664.41 1947.47 1683.44 1945.98C1700.51 1944.82 1721.87 1938.51 1731.73 1923.4C1734.18 1919.92 1735.87 1915.95 1736.69 1911.77C1737.5 1907.59 1737.43 1903.28 1736.47 1899.13C1735.51 1894.98 1733.68 1891.07 1731.11 1887.68C1728.54 1884.28 1725.29 1881.46 1721.55 1879.4C1698.81 1867.69 1657.94 1889.32 1642.04 1905.48C1640.82 1906.7 1626.14 1925.26 1622.42 1930.13C1624.23 1912.85 1626.24 1895.62 1628.89 1878.71C1632.33 1855.87 1637.25 1833.27 1643.63 1811.07C1645.17 1811.65 1686.04 1826.97 1705.44 1825.6C1722.46 1824.38 1743.87 1818.12 1753.73 1802.96C1756.17 1799.48 1757.85 1795.52 1758.66 1791.34C1759.48 1787.16 1759.4 1782.86 1758.44 1778.72C1757.48 1774.57 1755.66 1770.68 1753.09 1767.28C1750.53 1763.89 1747.28 1761.07 1743.55 1759.01C1720.76 1747.25 1679.94 1768.93 1663.72 1785.04C1662.66 1786.1 1651.37 1800.26 1646.12 1807.09L1644.85 1806.41C1651.86 1784.23 1660.83 1762.73 1671.67 1742.16C1677.5 1730.76 1683.7 1720.21 1690.01 1710.03C1697.28 1713.69 1730.72 1729.91 1748.32 1730.65C1765.92 1731.39 1787.34 1727.42 1798.79 1713.48C1801.6 1710.28 1803.7 1706.52 1804.97 1702.46C1806.23 1698.39 1806.63 1694.1 1806.13 1689.87C1805.63 1685.64 1804.24 1681.57 1802.07 1677.91C1799.89 1674.25 1796.97 1671.09 1793.49 1668.63C1772.28 1654.48 1729.19 1671.49 1711.32 1685.75C1710.32 1686.55 1701.3 1695.51 1694.84 1702.13C1697.75 1697.63 1700.67 1692.86 1703.53 1688.56C1714.13 1672.66 1725.05 1658.35 1734.7 1645.89C1740.27 1638.89 1745.3 1632.64 1750.34 1626.86C1759.35 1626.86 1795.56 1625.58 1811.46 1618.16C1827.36 1610.74 1844.59 1597.33 1848.3 1579.62C1849.49 1575.42 1849.75 1571.01 1849.07 1566.69C1848.39 1562.37 1846.78 1558.26 1844.36 1554.62C1841.94 1550.98 1838.76 1547.91 1835.04 1545.62C1831.31 1543.33 1827.14 1541.87 1822.8 1541.35Z" fill="#BEEBC3"/>
<path d="M364.597 1809.85C381.295 1815.15 420.416 1810.65 420.416 1810.59C420.416 1810.54 409.496 1785.78 408.648 1784.09C398.046 1766.91 368.201 1739.82 346.361 1744.97C342.749 1745.91 339.377 1747.61 336.466 1749.94C333.555 1752.28 331.17 1755.21 329.469 1758.53C327.767 1761.85 326.787 1765.5 326.592 1769.23C326.397 1772.95 326.992 1776.68 328.338 1780.16C333.321 1795.33 350.125 1805.24 364.597 1809.85Z" fill="#BEEBC3"/>
<path d="M761.75 1780.01C762.121 1780.01 766.362 1753.5 766.468 1751.54C767.263 1731.5 757.138 1692.33 736.04 1684.59C732.51 1683.39 728.767 1682.95 725.056 1683.3C721.345 1683.64 717.749 1684.77 714.502 1686.6C711.255 1688.43 708.431 1690.92 706.214 1693.92C703.997 1696.92 702.437 1700.35 701.636 1703.99C697.713 1719.36 706.301 1736.86 715.578 1748.57C726.498 1762.35 761.75 1780.01 761.75 1780.01Z" fill="#BEEBC3"/>
<path d="M865.014 1626.59C842.59 1626.59 819.107 1659.35 812.798 1678.38C812.215 1680.03 806.596 1706.69 807.02 1706.64H807.497C803.734 1711.94 799.811 1717.24 795.623 1723.6C787.937 1735.16 779.402 1748.2 771.079 1763.1C761.903 1779 753.673 1795.42 746.43 1812.29C738.263 1831.12 731.77 1850.63 727.028 1870.6V1871.34C726.498 1864.77 724.43 1846.54 724.112 1845.16C719.659 1825.6 699.516 1790.5 677.145 1788.54C673.419 1788.31 669.686 1788.87 666.191 1790.19C662.696 1791.5 659.519 1793.54 656.866 1796.17C654.214 1798.79 652.146 1801.95 650.799 1805.43C649.452 1808.92 648.856 1812.64 649.05 1816.37C649.315 1832.28 662.249 1846.85 674.283 1855.71C687.906 1865.67 723.741 1873.15 726.604 1873.73C722.313 1894.21 719.373 1914.94 717.804 1935.81C716.797 1948 716.214 1960.24 715.79 1972.6C715.154 1966.92 714.517 1961.99 714.358 1961.2C709.905 1941.64 689.762 1906.54 667.391 1904.58C663.665 1904.35 659.932 1904.91 656.437 1906.23C652.942 1907.54 649.765 1909.58 647.112 1912.21C644.46 1914.83 642.392 1917.99 641.045 1921.47C639.698 1924.96 639.102 1928.68 639.296 1932.41C639.561 1948.32 652.495 1962.89 664.529 1971.75C676.562 1980.6 706.937 1987.65 715.313 1989.45C715.313 1994.17 714.994 1998.89 714.888 2003.61C714.358 2026.3 713.987 2048.93 712.874 2071.09C712.503 2078.94 711.867 2086.62 711.231 2094.31C710.648 2089.27 710.171 2085.03 710.012 2084.4C705.506 2064.89 685.362 2029.79 663.044 2027.83C659.318 2027.6 655.585 2028.16 652.09 2029.48C648.596 2030.79 645.418 2032.83 642.765 2035.46C640.113 2038.09 638.045 2041.24 636.698 2044.73C635.351 2048.21 634.755 2051.94 634.949 2055.66C634.949 2071.57 648.095 2086.15 660.182 2095C672.268 2103.85 699.887 2110.21 709.481 2112.33C708.58 2120.23 707.732 2128.24 706.513 2135.66C705.559 2140.96 705.029 2145.84 703.809 2150.98C702.59 2156.12 701.583 2161.1 700.47 2166.09C698.031 2175.63 695.54 2185.54 692.889 2194.76C691.087 2201.23 689.284 2207.33 687.588 2213.48C688.065 2205.74 688.648 2190.47 688.542 2189.2C686.599 2171.67 680.193 2154.93 669.936 2140.59C669.829 2138.63 669.509 2136.69 668.982 2134.81C668.169 2131.17 666.599 2127.75 664.373 2124.76C662.147 2121.77 659.316 2119.28 656.065 2117.46C652.813 2115.64 649.214 2114.53 645.503 2114.19C641.791 2113.85 638.05 2114.31 634.525 2115.51C613.321 2123.36 603.461 2162.53 604.362 2182.57C604.362 2183.74 606.429 2196.51 607.861 2204.52C606.323 2199.91 604.839 2195.45 603.196 2190.74C600.015 2181.41 596.569 2172.24 592.859 2162.27C590.95 2157.57 588.989 2152.8 586.975 2147.96C585.119 2143.13 582.522 2138.26 580.295 2133.38C574.994 2122.09 568.898 2110.95 562.59 2099.87C570.753 2097.07 599.697 2086.62 610.299 2076.39C620.901 2066.16 632.298 2049.89 630.655 2034.35C630.402 2030.63 629.366 2027.01 627.616 2023.72C625.866 2020.42 623.44 2017.54 620.499 2015.24C617.557 2012.95 614.165 2011.31 610.544 2010.42C606.923 2009.53 603.154 2009.41 599.485 2010.07C577.539 2014.63 561.689 2051.85 559.568 2071.78C559.568 2073.05 559.568 2087.68 559.568 2095.48C555.752 2088.8 551.935 2082.17 547.8 2075.6C535.979 2056.57 523.362 2037.64 510.693 2018.77C506.876 2012.99 503.165 2007.16 499.349 2001.38C502.264 2000.37 536.827 1988.76 549.125 1977.26C560.098 1967.08 571.178 1951.02 569.534 1935.22C569.281 1931.5 568.245 1927.88 566.495 1924.58C564.745 1921.29 562.32 1918.4 559.378 1916.11C556.436 1913.82 553.044 1912.18 549.423 1911.29C545.802 1910.4 542.033 1910.28 538.364 1910.94C516.365 1915.5 500.568 1952.77 498.394 1972.7C498.394 1974.19 498.394 1995.02 498.394 2000.32C490.125 1987.49 481.961 1974.72 474.434 1961.73C464.197 1944.27 455.095 1926.18 447.187 1907.55C448.512 1907.07 484.665 1895.15 497.228 1883.38C508.201 1873.15 519.281 1856.87 517.637 1841.34C517.391 1837.61 516.36 1833.98 514.613 1830.68C512.866 1827.39 510.442 1824.49 507.499 1822.2C504.557 1819.9 501.162 1818.25 497.537 1817.36C493.913 1816.46 490.14 1816.34 486.467 1817.01C464.521 1821.62 448.671 1858.83 446.55 1878.77C446.55 1880.09 446.55 1895.94 446.55 1903.47L445.278 1903.73C437.831 1884.85 432.1 1865.33 428.156 1845.42C425.823 1834.45 424.18 1823.79 422.855 1813.62C429.852 1812.08 461.552 1804.71 474.063 1795.33C486.573 1785.94 498.819 1771.63 498.925 1755.83C499.09 1752.16 498.489 1748.49 497.16 1745.06C495.831 1741.64 493.804 1738.52 491.206 1735.92C488.609 1733.32 485.498 1731.28 482.072 1729.95C478.646 1728.61 474.98 1728 471.306 1728.16C448.989 1730.33 428.898 1765.59 424.816 1785.15C424.816 1786.21 423.385 1797.29 422.643 1805.4C422.113 1800.68 421.477 1795.86 421.052 1791.4C419.462 1774.49 419.038 1758.91 418.773 1745.12C418.773 1737.28 418.773 1730.18 418.773 1723.55C424.816 1718.25 448.883 1697.73 455.562 1683.95C462.241 1670.17 466.641 1651.51 459.432 1637.35C457.853 1633.97 455.579 1630.96 452.757 1628.52C449.936 1626.08 446.63 1624.26 443.057 1623.19C439.484 1622.11 435.725 1621.8 432.024 1622.28C428.324 1622.76 424.765 1624.01 421.583 1625.96C402.764 1638.15 401.386 1678.6 406.581 1697.94C407.058 1699.64 417.183 1724.98 417.183 1724.72L417.554 1724.4C417.554 1730.81 417.077 1737.65 416.971 1745.12C416.971 1758.96 416.971 1774.55 418.296 1791.56C419.436 1809.89 421.649 1828.14 424.922 1846.22C428.427 1866.46 433.75 1886.35 440.825 1905.64C440.825 1905.91 440.825 1906.12 441.09 1906.33C437.062 1901.03 425.187 1887.04 424.233 1886.08C409.708 1872.25 373.555 1854.27 353.835 1864.88C350.605 1866.74 347.805 1869.27 345.618 1872.3C343.432 1875.32 341.909 1878.77 341.148 1882.42C340.388 1886.08 340.407 1889.85 341.205 1893.49C342.002 1897.14 343.561 1900.57 345.778 1903.57C354.684 1916.62 373.555 1921.7 388.504 1922.45C405.361 1923.24 439.341 1909.72 442.045 1908.61C449.75 1928.08 458.746 1947.01 468.974 1965.28C474.858 1975.88 481.113 1986.48 487.527 1997.09C483.923 1992.74 480.636 1988.87 480.106 1988.34C465.581 1974.56 429.428 1956.53 409.708 1967.14C406.478 1969 403.678 1971.53 401.491 1974.55C399.305 1977.58 397.782 1981.03 397.021 1984.68C396.261 1988.33 396.28 1992.11 397.078 1995.75C397.875 1999.4 399.434 2002.83 401.651 2005.83C410.556 2018.93 429.428 2023.96 444.377 2024.71C459.326 2025.45 488.747 2014.47 496.433 2011.45C498.978 2015.48 501.416 2019.51 503.961 2023.49C516.047 2042.73 528.186 2061.81 539.53 2080.9C543.506 2087.63 547.217 2094.41 550.928 2101.15C547.694 2097.28 544.937 2094.04 544.46 2093.62C529.936 2079.78 493.783 2061.81 474.063 2072.42C470.832 2074.28 468.032 2076.81 465.846 2079.83C463.66 2082.86 462.136 2086.31 461.376 2089.96C460.615 2093.61 460.634 2097.39 461.432 2101.03C462.23 2104.68 463.788 2108.11 466.005 2111.11C474.911 2124.15 493.783 2129.24 508.731 2129.93C523.68 2130.62 550.238 2120.76 559.409 2117.26C563.014 2124.31 566.619 2131.36 570.011 2138.47C572.079 2143.29 574.358 2147.8 576.161 2152.73L581.939 2166.56C585.119 2175.89 588.512 2185.49 591.427 2194.66C593.495 2201.02 595.35 2207.12 597.259 2213.27C593.336 2206.53 585.437 2193.49 584.642 2192.49C572.397 2176.58 539.371 2153.2 518.273 2160.68C514.786 2162.03 511.625 2164.11 508.997 2166.77C506.37 2169.43 504.336 2172.62 503.029 2176.13C501.722 2179.63 501.172 2183.38 501.415 2187.11C501.658 2190.84 502.688 2194.48 504.438 2197.79C511.276 2212.05 529.14 2219.89 543.824 2222.91C559.727 2226.15 594.29 2218.41 598.531 2217.61C601.605 2227.79 604.521 2237.76 607.119 2247.14C616.13 2279.42 622.386 2306.67 626.52 2325.97L641.681 2324.48L641.363 2323.21C636.751 2303.81 629.754 2276.19 620.159 2243.43C617.084 2233.09 613.586 2222.22 609.875 2210.88C619.891 2205.65 629.607 2199.86 638.978 2193.55C651.647 2204.78 682.34 2216.45 686.316 2217.93C683.294 2228.11 680.22 2238.02 677.198 2247.3C666.596 2279.11 657.054 2305.61 649.898 2323.69L666.49 2322.1C673.01 2303.97 681.28 2279.69 689.868 2251.27C692.995 2240.94 696.123 2230.07 699.25 2218.35C703.544 2218.83 738.584 2222.49 754.275 2217.35C768.482 2212.63 785.286 2202.72 790.375 2187.71C791.711 2184.23 792.295 2180.5 792.088 2176.77C791.882 2173.04 790.891 2169.4 789.18 2166.08C787.468 2162.76 785.075 2159.84 782.156 2157.52C779.238 2155.19 775.861 2153.5 772.246 2152.57C750.405 2147.53 720.401 2174.73 710.117 2191.9C709.534 2192.91 704.18 2204.68 700.894 2212.15C702.166 2207.43 703.438 2202.93 704.657 2198.1C707.149 2188.56 709.322 2178.97 711.761 2168.63C712.715 2163.65 713.722 2158.56 714.729 2153.42C715.737 2148.27 716.373 2142.81 717.221 2137.51C718.917 2125.16 720.03 2112.54 720.879 2099.82C729.254 2101.94 759.046 2109.2 773.889 2106.71C788.732 2104.22 806.755 2096.96 814.071 2082.91C815.917 2079.67 817.057 2076.07 817.416 2072.35C817.775 2068.64 817.345 2064.89 816.154 2061.35C814.962 2057.81 813.037 2054.56 810.504 2051.82C807.971 2049.08 804.887 2046.9 801.454 2045.43C780.621 2037.11 746.854 2059.43 734.078 2074.91C733.283 2075.86 725.384 2087.95 721.144 2094.68C721.621 2087.05 722.098 2079.36 722.31 2071.62C722.893 2049.2 722.787 2026.51 722.84 2003.87C722.84 1996.93 722.84 1989.98 722.84 1983.09C725.809 1983.89 761.06 1993.22 777.653 1990.46C792.389 1987.97 810.519 1980.71 817.834 1966.66C819.681 1963.41 820.821 1959.81 821.18 1956.1C821.539 1952.38 821.108 1948.63 819.917 1945.09C818.726 1941.56 816.801 1938.31 814.268 1935.57C811.735 1932.82 808.651 1930.65 805.218 1929.18C784.385 1920.86 750.617 1943.17 737.842 1958.65C736.888 1959.82 725.544 1977.26 722.84 1981.82C722.84 1966.55 723.264 1951.39 724.165 1936.44C725.228 1916.22 727.601 1896.08 731.269 1876.17C732.7 1876.54 769.383 1886.77 786.399 1883.64C801.136 1881.15 819.266 1873.89 826.581 1859.84C828.429 1856.6 829.571 1853 829.934 1849.29C830.297 1845.58 829.871 1841.83 828.685 1838.29C827.499 1834.75 825.58 1831.5 823.052 1828.76C820.525 1826.02 817.446 1823.83 814.018 1822.36C793.132 1814.04 759.417 1836.36 746.642 1851.84C745.793 1852.84 737.1 1866.1 733.124 1872.51L731.958 1872.03C736.189 1852.1 742.203 1832.58 749.928 1813.72C754.063 1803.12 758.569 1793.52 763.181 1784.14C769.807 1786.69 800.288 1798.03 816.191 1797.13C832.094 1796.23 849.959 1791.09 858.599 1777.89C860.785 1774.87 862.31 1771.42 863.074 1767.77C863.838 1764.13 863.824 1760.36 863.034 1756.72C862.243 1753.08 860.694 1749.64 858.487 1746.64C856.279 1743.64 853.464 1741.13 850.224 1739.29C830.398 1728.69 794.404 1747.19 779.985 1761.13C779.19 1761.93 772.087 1770.52 767.051 1777.04C769.171 1772.85 771.291 1768.45 773.465 1764.47C781.416 1749.52 789.368 1736.27 797.054 1724.61C801.295 1718.04 805.271 1712.15 809.035 1706.69C816.88 1705.79 848.368 1701.76 861.568 1693.97C874.767 1686.18 888.709 1673.03 890.459 1657.29C891.056 1653.56 890.851 1649.75 889.857 1646.11C888.863 1642.46 887.102 1639.08 884.693 1636.17C882.284 1633.27 879.282 1630.91 875.888 1629.26C872.494 1627.6 868.787 1626.7 865.014 1626.59Z" fill="#BEEBC3"/>
<path d="M1491.95 419.053H643.524C601.014 419.053 566.553 453.515 566.553 496.025V2298.19C566.553 2340.7 601.014 2375.16 643.524 2375.16H1491.95C1534.46 2375.16 1568.92 2340.7 1568.92 2298.19V496.025C1568.92 453.515 1534.46 419.053 1491.95 419.053Z" fill="#212121"/>
<path d="M1098.19 2311.55C1098.2 2304.81 1096.21 2298.21 1092.47 2292.6C1088.74 2286.99 1083.42 2282.61 1077.19 2280.02C1070.96 2277.43 1064.11 2276.75 1057.49 2278.06C1050.87 2279.37 1044.8 2282.61 1040.02 2287.38C1035.25 2292.14 1032 2298.21 1030.68 2304.83C1029.36 2311.44 1030.03 2318.3 1032.61 2324.53C1035.19 2330.76 1039.56 2336.09 1045.16 2339.83C1050.77 2343.58 1057.36 2345.58 1064.11 2345.58C1073.14 2345.58 1081.8 2342 1088.19 2335.62C1094.58 2329.24 1098.18 2320.58 1098.19 2311.55Z" stroke="white" stroke-linecap="round" stroke-linejoin="round"/>
<path opacity="0.3" d="M1197.48 419.053H643.524C623.11 419.053 603.532 427.163 589.097 441.598C574.662 456.033 566.553 475.611 566.553 496.025V2028.05L1197.48 419.053Z" fill="white"/>
<path d="M1524.34 551.899H611.136V2259.07H1524.34V551.899Z" fill="white" stroke="#212121" stroke-linecap="round" stroke-linejoin="round"/>
<path d="M1493.23 569.604H1417.53V611.112H1493.23V569.604Z" stroke="#212121" stroke-width="0.821067" stroke-linecap="round" stroke-linejoin="round"/>
<path d="M1476.58 569.604H1417.53V611.112H1476.58V569.604Z" fill="#212121" stroke="#212121" stroke-width="0.725073" stroke-linecap="round" stroke-linejoin="round"/>
<path d="M1503.77 581.214H1493.12V599.503H1503.77V581.214Z" fill="#212121" stroke="#212121" stroke-width="0.725073" stroke-linecap="round" stroke-linejoin="round"/>
<path d="M645.593 582.486H631.704V606.288H645.593V582.486Z" fill="#212121" stroke="#212121" stroke-width="0.883086" stroke-linecap="round" stroke-linejoin="round"/>
<path d="M667.378 574.111H653.489V606.289H667.378V574.111Z" fill="#212121" stroke="#212121" stroke-width="0.883086" stroke-linecap="round" stroke-linejoin="round"/>
<path d="M689.22 564.251H675.331V606.289H689.22V564.251Z" fill="#212121" stroke="#212121" stroke-width="0.883086" stroke-linecap="round" stroke-linejoin="round"/>
<path d="M1502.77 634.226H625.873V700.172H1502.77V634.226Z" fill="#BEEBC3"/>
<path d="M1565.64 2462.31C1565.64 2483.52 1348.88 2500.64 1081.5 2500.64C814.111 2500.64 597.617 2483.46 597.617 2462.31C597.617 2441.16 814.376 2424.04 1081.76 2424.04C1349.14 2424.04 1565.64 2441.16 1565.64 2462.31Z" fill="#6E6E6E"/>
<path d="M991.158 765.003C991.158 801.05 942.176 813.031 941.434 857.56V858.303H990.416V862.172H937.405V859.416C937.405 811.017 987.182 799.937 987.182 765.215C987.182 748.941 981.881 735.688 964.123 735.688C946.364 735.688 941.275 749.683 941.275 765.215V772.212H937.405V765.374C937.405 747.509 944.403 731.977 964.335 731.977C984.266 731.977 991.158 746.767 991.158 765.003Z" fill="#999999"/>
<path d="M1059.33 764.685V767.813C1059.52 773.621 1057.83 779.336 1054.52 784.11C1051.21 788.884 1046.44 792.464 1040.93 794.318C1053.29 797.446 1059.33 807.624 1059.33 820.188V830.154C1059.33 848.23 1052.17 862.808 1032.45 862.808C1012.73 862.808 1005.36 848.23 1005.36 830.154V824.322H1009.39V830.419C1009.39 846.322 1015.12 859.416 1032.24 859.416C1049.36 859.416 1055.3 846.269 1055.3 830.207V820.453C1055.3 806.405 1047.72 797.34 1034.1 796.598H1024.5V792.94H1034.1C1040.15 792.452 1045.78 789.597 1049.75 784.993C1053.71 780.389 1055.71 774.407 1055.3 768.343V764.685C1055.3 748.782 1049.42 735.688 1032.24 735.688C1015.07 735.688 1009.39 748.57 1009.39 764.473V768.343H1005.36V764.685C1005.36 746.555 1012.73 731.977 1032.45 731.977C1052.17 731.977 1059.33 746.555 1059.33 764.685Z" fill="#999999"/>
<path d="M1077.93 776.826V791.828H1073.91V776.826H1077.93ZM1077.93 847.224V862.174H1073.91V847.224H1077.93Z" fill="#999999"/>
<path d="M1115.73 740.671C1113.72 744.756 1110.67 748.235 1106.88 750.758C1103.09 753.281 1098.7 754.758 1094.16 755.037V751.38C1099.24 750.839 1104.05 748.765 1107.93 745.433C1111.81 742.1 1114.59 737.667 1115.89 732.72H1119.76V862.173H1115.73V740.671Z" fill="#999999"/>
<path d="M1142.45 789.865C1144.68 786.115 1147.91 783.058 1151.77 781.036C1155.64 779.014 1159.99 778.106 1164.34 778.415C1183.32 778.415 1190.32 793.205 1190.32 810.698V830.312C1190.32 848.23 1182.95 862.967 1163.44 862.967C1143.93 862.967 1136.35 848.23 1136.35 830.312V824.852H1140.59V830.418C1140.59 846.322 1146.53 859.203 1163.44 859.203C1180.35 859.203 1186.5 846.11 1186.5 830.418V811.069C1186.5 795.537 1180.62 782.443 1163.44 782.443C1158.69 782.335 1154.03 783.799 1150.2 786.608C1146.37 789.416 1143.57 793.413 1142.24 797.976V799.407H1138.37L1141.71 732.772H1188.3V736.854H1145.36L1142.45 789.865Z" fill="#999999"/>
<path d="M2090.88 2500.58C2290.28 2500.58 2451.93 2477.33 2451.93 2448.63C2451.93 2419.94 2290.28 2396.68 2090.88 2396.68C1891.47 2396.68 1729.82 2419.94 1729.82 2448.63C1729.82 2477.33 1891.47 2500.58 2090.88 2500.58Z" fill="#6E6E6E"/>
<path d="M2188.15 2339.49C2188.15 2339.49 2158.15 2383.7 2148.66 2391.59C2139.17 2399.49 2099.73 2416.83 2098.14 2423.4C2096.55 2429.97 2093.42 2434.43 2099.73 2439.3C2106.04 2444.18 2181.84 2445.61 2196.05 2445.61C2210.26 2445.61 2219.74 2431.41 2226.05 2426.64C2232.36 2421.86 2251.34 2407.71 2262.36 2399.81C2273.39 2391.91 2306.58 2372.93 2308.17 2361.91C2309.76 2350.88 2265.76 2308.21 2265.76 2308.21L2188.15 2339.49Z" fill="#BEEBC3" stroke="#212121" stroke-linecap="round" stroke-linejoin="round"/>
<path d="M2099.57 2438.99C2105.88 2443.71 2181.68 2445.3 2195.89 2445.3C2210.09 2445.3 2219.58 2431.09 2225.89 2426.32C2232.2 2421.55 2251.18 2407.39 2262.2 2399.49C2273.23 2391.6 2306.41 2372.62 2308 2361.59C2308.59 2357.61 2303.29 2349.66 2296.29 2341.02C2284.42 2352.17 2273.55 2364.34 2263.79 2377.39C2249.59 2397.9 2210.09 2423.19 2187.99 2424.73C2165.88 2426.26 2097.87 2423.19 2097.87 2423.19C2096.39 2429.5 2093.26 2434.22 2099.57 2438.99Z" fill="white" stroke="#212121" stroke-linecap="round" stroke-linejoin="round"/>
<path d="M1921.14 1714.11C1921.14 1714.11 1944.78 1791.46 1965.35 1853.06C1985.92 1914.65 2026.95 2031.54 2045.87 2063.09C2064.8 2094.63 2121.68 2192.59 2137.47 2232.08C2153.27 2271.58 2183.27 2331.59 2183.27 2331.59L2262.36 2292.09C2262.36 2292.09 2235.54 2211.57 2226.05 2170.49C2216.56 2129.4 2205.54 2083.65 2188.15 2058.37C2176.54 2041.78 2163.88 2025.95 2150.25 2010.98L2109.22 1823.05L2068.14 1658.72C2068.14 1658.72 1959.04 1657.23 1921.14 1714.11Z" fill="#212121" stroke="#212121" stroke-linecap="round" stroke-linejoin="round"/>
<path d="M2162.76 2318.92C2162.76 2318.92 2173.79 2339.48 2176.97 2345.79C2180.15 2352.1 2211.69 2353.69 2225.89 2347.38C2240.1 2341.07 2279.59 2320.51 2279.59 2311.02C2279.59 2301.53 2266.98 2277.89 2262.21 2269.99C2257.44 2262.09 2240.1 2268.4 2229.08 2273.17C2218.05 2277.94 2176.97 2298.4 2172.2 2299.99C2170.28 2300.53 2168.49 2301.46 2166.96 2302.73C2165.42 2304 2164.17 2305.58 2163.28 2307.36C2162.39 2309.14 2161.88 2311.09 2161.79 2313.08C2161.71 2315.07 2162.03 2317.06 2162.76 2318.92Z" fill="white" stroke="#212121" stroke-linecap="round" stroke-linejoin="round"/>
<path d="M1883.24 2367.9C1873.66 2377.99 1863 2386.99 1851.43 2394.72C1830.86 2408.98 1781.93 2423.19 1764.55 2426.53C1747.16 2429.87 1747.21 2439.2 1747.21 2448.63C1747.21 2458.07 1807.22 2472.33 1837.33 2477.1C1867.44 2481.87 1947.86 2480.23 1955.75 2473.92C1963.65 2467.61 1963.65 2404.42 1963.65 2398.12C1963.65 2391.81 1883.24 2367.9 1883.24 2367.9Z" fill="#BEEBC3" stroke="#212121" stroke-linecap="round" stroke-linejoin="round"/>
<path d="M1955.86 2473.71C1958.46 2471.64 1960.15 2463.48 1961.16 2453.25C1932.24 2457.72 1903.01 2459.88 1873.75 2459.71C1831.25 2459.84 1789.19 2451.14 1750.23 2434.16C1747.87 2438.6 1746.89 2443.64 1747.42 2448.64C1747.42 2458.12 1807.43 2472.33 1837.54 2477.1C1867.65 2481.87 1947.96 2480.02 1955.86 2473.71Z" fill="white" stroke="#212121" stroke-linecap="round" stroke-linejoin="round"/>
<path d="M1957.45 1715.65C1957.45 1715.65 1944.78 1832.54 1941.55 1889.37C1938.31 1946.2 1928.88 1996.77 1928.88 2021.89C1928.88 2047.02 1906.77 2205.1 1906.77 2231.92C1906.77 2258.75 1887.85 2339.33 1887.85 2339.33C1887.85 2339.33 1887.85 2342.45 1905.24 2347.22C1922.62 2352 1951.04 2358.25 1951.04 2358.25H1965.51C1965.51 2358.25 1982.84 2306.14 2003.41 2258.75C2023.98 2211.36 2041.31 2178.22 2045.82 2130.83C2050.32 2083.44 2045.82 2026.61 2052.13 2015.59C2058.43 2004.56 2129.52 1824.48 2139.01 1808.84C2148.5 1793.21 2167.42 1753.55 2167.42 1753.55C2167.42 1753.55 2189.53 1728.32 2187.94 1682.52C2186.35 1636.72 2162.71 1639.84 2118.44 1639.84C2074.18 1639.84 2019 1658.82 2000.02 1671.65C1981.04 1684.48 1957.45 1715.65 1957.45 1715.65Z" fill="#212121" stroke="#212121" stroke-linecap="round" stroke-linejoin="round"/>
<path d="M1970.07 2288.59C1965.88 2301.85 1962.96 2310.44 1962.96 2310.44" stroke="#6E6E6E" stroke-linecap="round" stroke-linejoin="round"/>
<path d="M2010.03 2000.96C2010.03 2009.97 2010.03 2016.86 2010.03 2018.72C2010.03 2024.65 2004.15 2026.61 2002.19 2040.4C2000.23 2054.18 2015.97 2075.86 2010.03 2079.84C2004.1 2083.81 1998.21 2087.68 1998.21 2097.54C2000.49 2122.46 2000.49 2147.53 1998.21 2172.45C1995.93 2198.95 1984.16 2241.73 1974.78 2272.64" stroke="#6E6E6E" stroke-linecap="round" stroke-linejoin="round"/>
<path d="M2093.58 1734.31C2068.77 1797.92 2021.96 1918.79 2016.18 1941.85C2013.24 1954.74 2011.46 1967.87 2010.88 1981.08" stroke="#6E6E6E" stroke-linecap="round" stroke-linejoin="round"/>
<path d="M2108.63 1695.45L2100.63 1715.92" stroke="#6E6E6E" stroke-linecap="round" stroke-linejoin="round"/>
<path d="M1880.06 2321.89C1880.06 2321.89 1928.98 2339.27 1941.65 2343.99C1954.32 2348.71 1976.38 2348.71 1976.38 2358.2C1976.38 2367.69 1977.97 2400.87 1970.07 2402.41C1962.17 2403.95 1916.37 2394.51 1900.57 2388.2C1884.77 2381.89 1873.75 2381.89 1870.57 2375.59C1867.39 2369.28 1872.16 2351.89 1872.16 2342.4C1873.01 2335 1875.73 2327.95 1880.06 2321.89Z" fill="white" stroke="#212121" stroke-linecap="round" stroke-linejoin="round"/>
<path d="M2024.35 1092.03C2024.35 1092.03 1944.83 1111.06 1937.52 1119.38C1930.2 1127.7 1881.59 1212.2 1878.04 1215.76C1869.85 1223.16 1861.09 1229.91 1851.85 1235.95C1845.87 1240.54 1841.33 1246.73 1838.76 1253.82C1837.59 1258.59 1834.04 1265.69 1819.73 1290.93C1805.42 1316.16 1772.02 1358.73 1781.67 1361.11C1791.32 1363.5 1822.11 1353.96 1848.3 1348.02C1874.49 1342.08 1907.78 1314.67 1907.78 1314.67C1907.78 1314.67 1901.89 1386.03 1901.89 1428.86C1901.89 1471.69 1903.06 1614.4 1903.06 1640.59C1903.06 1666.77 1900.68 1692.96 1903.06 1701.28C1905.45 1709.61 1922.09 1735.74 1922.09 1735.74L1935.19 1720.32L1945.79 1742.9C1945.79 1742.9 1960.05 1725.03 2019.52 1704.84C2079 1684.64 2105.19 1676.26 2120.67 1677.48C2136.15 1678.7 2220.59 1726.25 2225.36 1728.64C2230.13 1731.02 2220.59 1638.2 2220.59 1585.88C2220.59 1533.56 2217.04 1440.74 2217.04 1440.74C2217.04 1440.74 2257.49 1244.59 2262.21 1201.66C2266.92 1158.72 2245.56 1119.54 2237.24 1107.67C2228.92 1095.79 2127.82 1068.39 2127.82 1068.39L2024.35 1092.03Z" fill="#BEEBC3" stroke="#212121" stroke-linecap="round" stroke-linejoin="round"/>
<path d="M1907.78 1314.67C1907.78 1314.67 1911.33 1252.81 1924.42 1214.75" stroke="#212121" stroke-miterlimit="10" stroke-linecap="round"/>
<path d="M1839.98 1264.69C1839.98 1264.69 1848.3 1311.07 1847.14 1325.33C1845.97 1339.59 1853.07 1328.93 1853.07 1295.59" stroke="#212121" stroke-miterlimit="10" stroke-linecap="round"/>
<path d="M2020.27 1132.16C2020.27 1132.16 1988.46 1237.33 1977.86 1289.65" stroke="#212121" stroke-miterlimit="10" stroke-linecap="round"/>
<path d="M1950.61 1460.99L1945.84 1521.63" stroke="#212121" stroke-miterlimit="10" stroke-linecap="round"/>
<path d="M1943.46 1565.63C1943.46 1565.63 1933.97 1662 1936.35 1706" stroke="#212121" stroke-miterlimit="10" stroke-linecap="round"/>
<path d="M1816.18 1246.82C1811.64 1263.21 1803.97 1278.56 1793.59 1292.04C1775.73 1315.84 1769 1319.39 1758.29 1320.61C1747.58 1321.83 1734.12 1303.97 1730.51 1296.81C1726.91 1289.65 1723.41 1296.81 1726.96 1320.61C1730.51 1344.41 1761.47 1368.32 1778.12 1368.32C1794.76 1368.32 1820.95 1335.03 1826.88 1318.39C1832.76 1301.59 1834.79 1283.69 1832.82 1266.01C1830.44 1252.81 1830.44 1242.1 1816.18 1246.82Z" fill="#BEEBC3" stroke="#212121" stroke-linecap="round" stroke-linejoin="round"/>
<path d="M1838.76 1061.28C1838.76 1061.28 1862.56 1038.65 1867.33 1032.71C1872.1 1026.77 1876.87 999.418 1877.93 991.095C1878.99 982.772 1893.2 960.879 1893.31 956.956C1893.41 953.033 1885.09 949.428 1879.1 956.585C1874.6 962.985 1870.63 969.74 1867.23 976.782C1864.84 980.387 1857.74 979.167 1857.74 979.167C1857.74 979.167 1858.48 972.806 1859.7 965.703C1860.92 958.599 1874.06 938.561 1878.83 931.404C1883.61 924.248 1879.47 904.899 1868.6 919.318C1857.74 933.737 1836.32 960.136 1836.32 960.136C1836.32 960.136 1801.81 1002.97 1797.04 1013.68C1792.27 1024.39 1792.27 1042.25 1792.27 1052.96C1792.27 1063.67 1795.87 1058.9 1789.88 1077.93C1783.89 1096.96 1750.66 1179.02 1736.4 1214.75C1722.14 1250.48 1717.37 1276.56 1724.47 1290.87C1731.57 1305.19 1753.04 1327.98 1764.92 1325.33C1776.79 1322.68 1806.58 1282.55 1812.62 1268.24C1817.24 1255.7 1819.26 1242.35 1818.56 1229.01C1818.56 1218.41 1812.62 1149.49 1818.56 1124.31C1824.5 1099.13 1838.76 1061.28 1838.76 1061.28Z" fill="white" stroke="#212121" stroke-linecap="round" stroke-linejoin="round"/>
<path d="M1805.47 1020.84L1811.41 1016.49C1814.34 1019.81 1817.77 1022.66 1821.58 1024.92C1824.88 1026.1 1828.46 1026.27 1831.85 1025.4C1835.24 1024.53 1838.3 1022.66 1840.62 1020.04L1842.36 1017.23L1851.85 1006.63L1860.76 996.874C1861.78 995.743 1862.55 994.418 1863.05 992.979C1863.54 991.539 1863.73 990.015 1863.62 988.499C1863.44 983.381 1861.94 978.397 1859.28 974.027C1856.68 970.581 1847.14 948.369 1841.15 947.15C1835.16 945.931 1828.11 960.244 1828.11 960.244C1822.22 963.671 1816.98 968.102 1812.63 973.337C1810.71 976.343 1809.11 979.541 1807.86 982.879C1807.86 982.879 1792.38 991.202 1791.21 1001.91C1791.06 1015.42 1791.87 1028.92 1793.65 1042.3" fill="white"/>
<path d="M1805.47 1020.84L1811.41 1016.49C1814.34 1019.81 1817.77 1022.66 1821.58 1024.92C1824.88 1026.1 1828.46 1026.27 1831.85 1025.4C1835.24 1024.53 1838.3 1022.66 1840.62 1020.04L1842.36 1017.23L1851.85 1006.63L1860.76 996.874C1861.78 995.743 1862.55 994.418 1863.05 992.979C1863.54 991.539 1863.73 990.015 1863.62 988.499C1863.44 983.381 1861.94 978.397 1859.28 974.027C1856.68 970.581 1847.14 948.369 1841.15 947.15C1835.16 945.931 1828.11 960.244 1828.11 960.244C1822.22 963.671 1816.98 968.102 1812.63 973.337C1810.71 976.343 1809.11 979.541 1807.86 982.879C1807.86 982.879 1792.38 991.202 1791.21 1001.91C1791.06 1015.42 1791.87 1028.92 1793.65 1042.3" stroke="#212121" stroke-linecap="round" stroke-linejoin="round"/>
<path d="M1830.92 961.939C1830.92 961.939 1853.92 991.625 1855.72 1002.28" stroke="#212121" stroke-linecap="round" stroke-linejoin="round"/>
<path d="M1810.08 982.348C1810.08 982.348 1834.78 998.517 1842.36 1017.23" stroke="#212121" stroke-linecap="round" stroke-linejoin="round"/>
<path d="M2038.55 1078.41L2019.2 1091.29L2011.68 1140.75L2020.26 1132.16L2037.44 1089.17L2038.55 1078.41Z" fill="#BEEBC3" stroke="#212121" stroke-linecap="round" stroke-linejoin="round"/>
<path d="M1907.2 924.672C1907.2 924.672 1906.08 951.549 1911.49 962.31C1916.9 973.071 1928.66 995.654 1928.66 1006.36C1929.49 1021.65 1935.05 1036.3 1944.57 1048.29C1956.39 1064.2 1983.27 1091.29 1996.2 1091.29C2009.13 1091.29 2033.78 1068.76 2033.78 1068.76L2037.02 1089.17L2023.08 1131.1C2023.08 1131.1 2070.36 1095.63 2084.36 1082.7C2098.35 1069.76 2114.41 1037.53 2114.41 1037.53L2086.9 980.705C2093.94 970.547 2098.03 958.64 2098.72 946.3C2099.78 925.838 2097.66 931.245 2095.49 918.364C2093.31 905.482 2069.72 873.198 2038.55 854.75C2007.38 836.302 1951.46 845.102 1929.94 856.924C1908.41 868.745 1907.2 924.672 1907.2 924.672Z" fill="white" stroke="#212121" stroke-linecap="round" stroke-linejoin="round"/>
<path d="M2054.3 1107.56L2045.92 1102.26L2055.41 1056.25L2034.21 1068.7L2037.44 1089.11L2023.5 1131.04C2023.5 1131.04 2038.61 1119.75 2054.3 1107.56Z" fill="#212121" stroke="#212121" stroke-linecap="round" stroke-linejoin="round"/>
<path d="M1942.87 964.483L1952.52 980.386C1952.52 980.386 1955.75 1014.79 1957.82 1021.2C1959.89 1027.62 1972.87 1027.67 1979.29 1023.38" stroke="#212121" stroke-linecap="round" stroke-linejoin="round"/>
<path d="M1969.75 1041.88C1969.75 1041.88 2001.98 1050.47 2010.57 1012.83" stroke="#212121" stroke-linecap="round" stroke-linejoin="round"/>
<path d="M1936.4 961.25C1936.4 961.25 1924.58 962.31 1921.35 969.838" stroke="#212121" stroke-linecap="round" stroke-linejoin="round"/>
<path d="M1964.34 952.609C1969.55 949.173 1975.58 947.169 1981.81 946.797C1988.05 946.425 1994.27 947.698 1999.86 950.488" stroke="#212121" stroke-linecap="round" stroke-linejoin="round"/>
<path d="M1992.01 974.608C1993.07 978.902 1992.01 982.931 1989.26 983.567C1986.5 984.203 1983.69 981.235 1982.63 976.888C1981.57 972.541 1982.63 968.565 1985.39 967.929C1988.14 967.293 1991.11 970.102 1992.01 974.608Z" fill="#212121"/>
<path d="M1942.71 987.491C1943.77 991.785 1942.71 995.814 1939.96 996.45C1937.2 997.086 1934.39 994.117 1933.33 989.823C1932.27 985.529 1933.33 981.448 1936.09 980.811C1938.84 980.175 1941.65 983.144 1942.71 987.491Z" fill="#212121"/>
<path d="M1931.05 821.672C1931.05 821.672 1919.23 836.727 1908.47 835.666C1897.71 834.606 1874.06 821.672 1859.01 842.134C1843.95 862.596 1849.36 886.186 1867.6 891.593C1885.83 897 1884.83 906.595 1898.77 914.123C1912.71 921.65 1933.17 928.118 1950.4 905.535C1957.49 896.253 1967.42 889.549 1978.68 886.447C1989.93 883.345 2001.9 884.017 2012.74 888.359C2028.64 895.887 2021.33 906.595 2026.73 917.357C2030.65 924.531 2036.08 930.771 2042.64 935.645C2042.64 935.645 2044.76 948.527 2047.94 950.701C2051.12 952.874 2057.64 956.002 2058.54 948.527C2059.44 941.052 2057.48 936.706 2061.77 929.178C2063.16 926.35 2065.3 923.956 2067.96 922.255C2070.61 920.555 2073.68 919.612 2076.83 919.53C2083.24 918.47 2096.18 925.944 2096.18 925.944C2099.57 910.407 2101.34 894.561 2101.48 878.658C2101.48 853.955 2089.66 827.079 2059.55 807.73C2029.44 788.381 1978.92 798.029 1963.86 802.428C1948.81 806.828 1931.05 821.672 1931.05 821.672Z" fill="#8A8A8A" stroke="#212121" stroke-linecap="round" stroke-linejoin="round"/>
<path d="M2018.09 876.325C2003.13 874.475 1988.02 874.102 1972.98 875.212C1952.52 877.385 1944.99 882.74 1942.87 885.814C1940.75 888.889 1943.93 924.512 1955.75 934.213C1962.72 939.277 1971.03 942.178 1979.63 942.555C1988.24 942.933 1996.77 940.769 2004.15 936.334C2016.53 926.491 2024.62 912.245 2026.73 896.575C2027.79 885.973 2024.56 876.325 2018.09 876.325Z" fill="#212121" stroke="#212121" stroke-linecap="round" stroke-linejoin="round"/>
<path d="M2022.39 877.386L2072.91 920.378" stroke="#212121" stroke-linecap="round" stroke-linejoin="round"/>
<path d="M1942.87 885.973L1925.64 890.267" stroke="#212121" stroke-linecap="round" stroke-linejoin="round"/>
<path d="M1933.17 906.49C1933.17 906.49 1931.05 889.314 1914.94 889.314C1898.82 889.314 1870.83 906.49 1868.71 919.424C1866.59 932.359 1878.36 950.595 1893.41 957.062C1908.47 963.529 1926.76 947.361 1929.94 940.894C1934.42 930.005 1935.55 918.024 1933.17 906.49Z" fill="#212121" stroke="#212121" stroke-linecap="round" stroke-linejoin="round"/>
<path d="M2117.01 1028.94L2038.55 1106.34L2056.79 1135.39L2135.3 1065.52L2117.01 1028.94Z" fill="#BEEBC3" stroke="#212121" stroke-linecap="round" stroke-linejoin="round"/>
<path d="M1611.45 1295.27L1669.23 1388.2L1711.96 1389.47L1656.67 1290.24L1611.45 1295.27Z" fill="#212121" stroke="#212121" stroke-linecap="round" stroke-linejoin="round"/>
<path d="M2032.3 1357.08C2032.3 1357.08 1887.85 1387.25 1847.67 1388.47C1807.48 1389.69 1779.81 1391.01 1779.81 1391.01C1779.81 1391.01 1759.67 1368.38 1745.89 1354.54C1732.1 1340.7 1705.65 1345.79 1705.65 1345.79C1705.65 1345.79 1674.27 1347.01 1665.47 1347.01C1656.67 1347.01 1634.04 1353.32 1634.04 1358.3C1634.04 1363.29 1639.07 1365.88 1646.6 1365.88H1671.73L1689.32 1370.92C1677.47 1372.71 1665.73 1375.23 1654.18 1378.45C1649.14 1380.94 1654.18 1392.23 1654.18 1392.23L1659.16 1397.27L1664.46 1407.34L1670.77 1412.37C1670.77 1412.37 1670.77 1418.63 1683.33 1423.67C1695.9 1428.7 1739.84 1431.19 1747.42 1431.19H1767.52C1767.52 1431.19 1884.14 1445.03 1910.64 1448.79C1937.15 1452.56 2032.57 1455.05 2053.77 1451.28C2074.97 1447.52 2085.21 1450.07 2090.24 1441.27C2095.28 1432.47 2067.61 1373.41 2060.08 1364.61C2052.55 1355.81 2032.3 1357.08 2032.3 1357.08Z" fill="white" stroke="#212121" stroke-linecap="round" stroke-linejoin="round"/>
<path d="M1659.16 1397L1698.12 1394.51" stroke="#212121" stroke-linecap="round" stroke-linejoin="round"/>
<path d="M1670.5 1412.11L1708.2 1414.6" stroke="#212121" stroke-linecap="round" stroke-linejoin="round"/>
<path d="M2144.15 1157.02C2144.15 1157.02 2112.72 1223.65 2103.92 1251.27C2095.12 1278.89 2090.13 1286.47 2092.63 1296.49C2093.39 1299.31 2093.45 1302.28 2092.79 1305.13C2092.13 1307.98 2090.78 1310.62 2088.86 1312.82C2088.86 1312.82 2078.79 1322.89 2078.79 1326.66C2078.79 1330.42 2066.23 1327.93 2077.57 1351.78C2088.91 1375.64 2110.22 1422.13 2116.48 1432.2C2119.5 1437.17 2124.37 1440.75 2130.01 1442.16C2135.66 1443.57 2141.64 1442.7 2146.64 1439.73C2157.93 1433.47 2188.1 1418.52 2191.86 1397C2195.62 1375.48 2195.62 1354.27 2200.66 1345.53C2205.7 1336.78 2242.11 1270.09 2252.19 1233.67C2262.26 1197.26 2267.24 1174.62 2258.44 1150.76C2249.64 1126.91 2233.31 1123.15 2233.31 1123.15" fill="#BEEBC3"/>
<path d="M2144.15 1157.02C2144.15 1157.02 2112.72 1223.65 2103.92 1251.27C2095.12 1278.89 2090.13 1286.47 2092.63 1296.49C2093.39 1299.31 2093.45 1302.28 2092.79 1305.13C2092.13 1307.98 2090.78 1310.62 2088.86 1312.82C2088.86 1312.82 2078.79 1322.89 2078.79 1326.66C2078.79 1330.42 2066.23 1327.93 2077.57 1351.78C2088.91 1375.64 2110.22 1422.13 2116.48 1432.2C2119.5 1437.17 2124.37 1440.75 2130.01 1442.16C2135.66 1443.57 2141.64 1442.7 2146.64 1439.73C2157.93 1433.47 2188.1 1418.52 2191.86 1397C2195.62 1375.48 2195.62 1354.27 2200.66 1345.53C2205.7 1336.78 2242.11 1270.09 2252.19 1233.67C2262.26 1197.26 2267.24 1174.62 2258.44 1150.76C2249.64 1126.91 2233.31 1123.15 2233.31 1123.15" stroke="#212121" stroke-linecap="round" stroke-linejoin="round"/>
<path d="M2078.79 1326.66C2078.79 1326.66 2134.08 1409.56 2137.84 1420.7C2141.61 1431.83 2140.39 1439.52 2135.35 1444.55C2130.32 1449.59 2093.9 1463.37 2083.83 1463.37C2073.75 1463.37 2069.99 1447.04 2069.99 1439.52C2069.99 1431.99 2021.01 1355.33 2021.01 1355.33C2023.15 1349.1 2026.11 1343.18 2029.81 1337.73C2033.57 1334.18 2078.79 1326.66 2078.79 1326.66Z" fill="#BEEBC3" stroke="#212121" stroke-linecap="round" stroke-linejoin="round"/>
<path d="M2142.4 1371.08C2147.48 1374.9 2151.53 1379.93 2154.17 1385.71" stroke="#212121" stroke-linecap="round" stroke-linejoin="round"/>
<path d="M2088.86 1332.91C2088.86 1332.91 2112.4 1347.38 2131.27 1361.96" stroke="#212121" stroke-linecap="round" stroke-linejoin="round"/>
<path d="M2098.94 1327.93C2098.94 1327.93 2147.92 1335.46 2152.95 1346.75" stroke="#212121" stroke-linecap="round" stroke-linejoin="round"/>
</g>
<defs>
<clipPath id="clip0_85_1498">
<rect width="2496" height="2500" fill="white"/>
</clipPath>
</defs>
</svg>
