<svg width="696" height="527" viewBox="0 0 696 527" fill="none" xmlns="http://www.w3.org/2000/svg">
<g clip-path="url(#clip0_99_758)">
<path d="M547.457 50.3348C547.457 50.3348 506.98 -5.28775 437.153 0.579559C367.326 6.44686 352.313 80.9752 305.455 115.269C280.949 133.227 224.205 116.376 197.093 128.43C110.446 167.004 94.5478 292.026 141.997 350.588C183.052 401.315 244.431 418.831 331.989 406.629C419.546 394.427 481.503 389.113 550.359 315.261C619.214 241.41 596.074 124.494 547.457 50.3348Z" fill="#BEEBC3"/>
<path opacity="0.8" d="M547.457 50.3348C547.457 50.3348 506.98 -5.28775 437.153 0.579559C367.326 6.44686 352.313 80.9752 305.455 115.269C280.949 133.227 224.205 116.376 197.093 128.43C110.446 167.004 94.5478 292.026 141.997 350.588C183.052 401.315 244.431 418.831 331.989 406.629C419.546 394.427 481.503 389.113 550.359 315.261C619.214 241.41 596.074 124.494 547.457 50.3348Z" fill="white"/>
<path d="M660.614 331.707C660.195 316.343 661.388 290.143 647.924 279.356C636.096 269.885 626.899 282.738 623.579 293.108C615.538 318.262 619.313 346 619.337 371.966C619.337 372.359 619.337 372.753 619.337 373.196C618.71 392.311 616.411 412.988 618.501 432.066C618.501 432.066 616.448 412.951 601.447 421.143C586.446 429.335 608.947 472.325 608.947 472.325C608.947 472.325 591.217 459.36 583.028 470.283C574.839 481.206 593.258 493.482 593.258 493.482C593.258 493.482 576.204 488.709 576.204 493.482C576.204 498.254 581.663 502.35 597.353 504.405H681.922C681.922 504.405 695.57 496.889 692.84 488.709C690.111 480.529 675.774 485.24 675.774 485.24C675.774 485.24 697.611 458.622 696.246 447.023C694.881 435.424 666.909 449.077 666.909 449.077C666.909 449.077 688.734 393.799 684.639 369.235C681.418 349.887 666.405 363.085 658.228 370.564C660.153 357.705 660.951 344.704 660.614 331.707Z" fill="#BEEBC3" stroke="white" stroke-linecap="round" stroke-linejoin="round"/>
<path opacity="0.5" d="M660.614 331.707C660.195 316.343 661.388 290.143 647.924 279.356C636.096 269.885 626.899 282.738 623.579 293.108C615.538 318.262 619.313 346 619.337 371.966C619.337 372.359 619.337 372.753 619.337 373.196C618.71 392.311 616.411 412.988 618.501 432.066C618.501 432.066 616.448 412.951 601.447 421.143C586.446 429.335 608.947 472.325 608.947 472.325C608.947 472.325 591.217 459.36 583.028 470.283C574.839 481.206 593.258 493.482 593.258 493.482C593.258 493.482 576.204 488.709 576.204 493.482C576.204 498.254 581.663 502.35 597.353 504.405H681.922C681.922 504.405 695.57 496.889 692.84 488.709C690.111 480.529 675.774 485.24 675.774 485.24C675.774 485.24 697.611 458.622 696.246 447.023C694.881 435.424 666.909 449.077 666.909 449.077C666.909 449.077 688.734 393.799 684.639 369.235C681.418 349.887 666.405 363.085 658.228 370.564C660.153 357.705 660.951 344.704 660.614 331.707Z" fill="white"/>
<path d="M633.476 503.667L639.623 315.999" stroke="white" stroke-linecap="round" stroke-linejoin="round"/>
<path d="M636.895 425.19L668.949 395.165" stroke="white" stroke-linecap="round" stroke-linejoin="round"/>
<path d="M651.896 411.536L658.72 392.434" stroke="white" stroke-linecap="round" stroke-linejoin="round"/>
<path d="M610.287 448.388L634.842 475.006" stroke="white" stroke-linecap="round" stroke-linejoin="round"/>
<path d="M675.773 463.407L634.841 484.564" stroke="white" stroke-linecap="round" stroke-linejoin="round"/>
<path d="M653.949 475.683L668.95 475.007" stroke="white" stroke-linecap="round" stroke-linejoin="round"/>
<path d="M633.476 503.667L639.623 315.999" stroke="#BEEBC3" stroke-linecap="round" stroke-linejoin="round"/>
<path d="M636.895 425.19L668.949 395.165" stroke="#BEEBC3" stroke-linecap="round" stroke-linejoin="round"/>
<path d="M651.896 411.536L658.72 392.434" stroke="#BEEBC3" stroke-linecap="round" stroke-linejoin="round"/>
<path d="M610.287 448.388L634.842 475.006" stroke="#BEEBC3" stroke-linecap="round" stroke-linejoin="round"/>
<path d="M675.773 463.407L634.841 484.564" stroke="#BEEBC3" stroke-linecap="round" stroke-linejoin="round"/>
<path d="M653.949 475.683L668.95 475.007" stroke="#BEEBC3" stroke-linecap="round" stroke-linejoin="round"/>
<g opacity="0.8">
<path d="M633.477 503.667L639.624 315.999" stroke="white" stroke-linecap="round" stroke-linejoin="round"/>
<path d="M636.896 425.19L668.95 395.165" stroke="white" stroke-linecap="round" stroke-linejoin="round"/>
<path d="M651.896 411.537L658.72 392.434" stroke="white" stroke-linecap="round" stroke-linejoin="round"/>
<path d="M610.287 448.389L634.842 475.007" stroke="white" stroke-linecap="round" stroke-linejoin="round"/>
<path d="M675.774 463.407L634.842 484.564" stroke="white" stroke-linecap="round" stroke-linejoin="round"/>
<path d="M653.949 475.683L668.95 475.007" stroke="white" stroke-linecap="round" stroke-linejoin="round"/>
</g>
<path d="M516.299 465.744C516.299 484.822 531.41 500.296 531.41 500.296C531.41 500.296 546.521 484.822 546.521 465.744C546.521 446.666 531.41 431.192 531.41 431.192C531.41 431.192 516.299 446.654 516.299 465.744Z" fill="#BEEBC3"/>
<path d="M505.823 495.179C513.201 503.457 525.668 504.355 525.668 504.355C525.668 504.355 526.271 491.821 518.943 483.543C511.615 475.265 499.098 474.367 499.098 474.367C499.098 474.367 498.483 486.901 505.823 495.179Z" fill="#BEEBC3"/>
<path d="M544.333 483.26C536.624 491.194 536.673 503.74 536.673 503.74C536.673 503.74 549.202 503.408 556.899 495.462C564.596 487.516 564.572 474.982 564.572 474.982C564.572 474.982 552.03 475.314 544.333 483.26Z" fill="#BEEBC3"/>
<g opacity="0.5">
<path d="M516.3 465.744C516.3 484.822 531.411 500.296 531.411 500.296C531.411 500.296 546.522 484.822 546.522 465.744C546.522 446.666 531.411 431.192 531.411 431.192C531.411 431.192 516.3 446.654 516.3 465.744Z" fill="white"/>
<path d="M531.41 500.296V431.192" stroke="white" stroke-linecap="round" stroke-linejoin="round"/>
<path d="M531.411 455.756L522.951 448.364" stroke="white" stroke-linecap="round" stroke-linejoin="round"/>
<path d="M531.546 467.171L542.022 451.992" stroke="white" stroke-linecap="round" stroke-linejoin="round"/>
<path d="M531.41 473.752L518.918 462.608" stroke="white" stroke-linecap="round" stroke-linejoin="round"/>
<path d="M531.546 482.621L543.903 471.612" stroke="white" stroke-linecap="round" stroke-linejoin="round"/>
<path d="M531.546 490.283L521.869 482.62" stroke="white" stroke-linecap="round" stroke-linejoin="round"/>
<path d="M505.823 495.179C513.201 503.457 525.668 504.355 525.668 504.355C525.668 504.355 526.271 491.821 518.943 483.543C511.615 475.265 499.098 474.367 499.098 474.367C499.098 474.367 498.483 486.901 505.823 495.179Z" fill="white"/>
<path d="M525.668 504.355L499.097 474.367" stroke="white" stroke-linecap="round" stroke-linejoin="round"/>
<path d="M508.541 485.031L502.024 485.08" stroke="white" stroke-linecap="round" stroke-linejoin="round"/>
<path d="M512.991 489.927L511.7 479.312" stroke="white" stroke-linecap="round" stroke-linejoin="round"/>
<path d="M515.463 492.842L505.762 492.805" stroke="white" stroke-linecap="round" stroke-linejoin="round"/>
<path d="M518.931 496.63L520.05 487.098" stroke="white" stroke-linecap="round" stroke-linejoin="round"/>
<path d="M521.881 499.952L514.737 500.358" stroke="white" stroke-linecap="round" stroke-linejoin="round"/>
<path d="M544.333 483.26C536.624 491.194 536.673 503.74 536.673 503.74C536.673 503.74 549.202 503.408 556.899 495.462C564.596 487.516 564.572 474.982 564.572 474.982C564.572 474.982 552.03 475.314 544.333 483.26Z" fill="white"/>
<path d="M536.673 503.74L564.572 474.982" stroke="white" stroke-linecap="round" stroke-linejoin="round"/>
<path d="M554.65 485.204L554.121 478.709" stroke="white" stroke-linecap="round" stroke-linejoin="round"/>
<path d="M550.1 490.013L560.588 487.922" stroke="white" stroke-linecap="round" stroke-linejoin="round"/>
<path d="M547.383 492.695L546.694 483.014" stroke="white" stroke-linecap="round" stroke-linejoin="round"/>
<path d="M543.854 496.434L553.445 496.852" stroke="white" stroke-linecap="round" stroke-linejoin="round"/>
<path d="M540.767 499.62L539.833 492.535" stroke="white" stroke-linecap="round" stroke-linejoin="round"/>
</g>
<path d="M531.41 500.296V431.192" stroke="#BEEBC3" stroke-linecap="round" stroke-linejoin="round"/>
<path d="M531.411 455.756L522.951 448.364" stroke="#BEEBC3" stroke-linecap="round" stroke-linejoin="round"/>
<path d="M531.546 467.171L542.022 451.992" stroke="#BEEBC3" stroke-linecap="round" stroke-linejoin="round"/>
<path d="M531.41 473.752L518.918 462.608" stroke="#BEEBC3" stroke-linecap="round" stroke-linejoin="round"/>
<path d="M531.546 482.621L543.903 471.612" stroke="#BEEBC3" stroke-linecap="round" stroke-linejoin="round"/>
<path d="M531.546 490.284L521.869 482.621" stroke="#BEEBC3" stroke-linecap="round" stroke-linejoin="round"/>
<g opacity="0.7">
<path d="M531.41 500.296V431.192" stroke="white" stroke-linecap="round" stroke-linejoin="round"/>
<path d="M531.411 455.756L522.951 448.364" stroke="white" stroke-linecap="round" stroke-linejoin="round"/>
<path d="M531.546 467.171L542.022 451.992" stroke="white" stroke-linecap="round" stroke-linejoin="round"/>
<path d="M531.41 473.752L518.918 462.608" stroke="white" stroke-linecap="round" stroke-linejoin="round"/>
<path d="M531.546 482.621L543.903 471.612" stroke="white" stroke-linecap="round" stroke-linejoin="round"/>
<path d="M531.546 490.284L521.869 482.621" stroke="white" stroke-linecap="round" stroke-linejoin="round"/>
</g>
<path d="M525.669 504.355L499.098 474.367" stroke="#BEEBC3" stroke-linecap="round" stroke-linejoin="round"/>
<path d="M508.541 485.031L502.024 485.08" stroke="#BEEBC3" stroke-linecap="round" stroke-linejoin="round"/>
<path d="M512.991 489.927L511.7 479.312" stroke="#BEEBC3" stroke-linecap="round" stroke-linejoin="round"/>
<path d="M515.463 492.842L505.762 492.805" stroke="#BEEBC3" stroke-linecap="round" stroke-linejoin="round"/>
<path d="M518.931 496.63L520.05 487.098" stroke="#BEEBC3" stroke-linecap="round" stroke-linejoin="round"/>
<path d="M521.881 499.952L514.737 500.358" stroke="#BEEBC3" stroke-linecap="round" stroke-linejoin="round"/>
<g opacity="0.7">
<path d="M525.669 504.355L499.098 474.367" stroke="white" stroke-linecap="round" stroke-linejoin="round"/>
<path d="M508.54 485.031L502.023 485.08" stroke="white" stroke-linecap="round" stroke-linejoin="round"/>
<path d="M512.992 489.927L511.701 479.312" stroke="white" stroke-linecap="round" stroke-linejoin="round"/>
<path d="M515.464 492.842L505.763 492.805" stroke="white" stroke-linecap="round" stroke-linejoin="round"/>
<path d="M518.931 496.631L520.05 487.098" stroke="white" stroke-linecap="round" stroke-linejoin="round"/>
<path d="M521.882 499.952L514.738 500.358" stroke="white" stroke-linecap="round" stroke-linejoin="round"/>
</g>
<path d="M536.673 503.74L564.572 474.982" stroke="#BEEBC3" stroke-linecap="round" stroke-linejoin="round"/>
<path d="M554.649 485.204L554.12 478.709" stroke="#BEEBC3" stroke-linecap="round" stroke-linejoin="round"/>
<path d="M550.101 490.013L560.589 487.922" stroke="#BEEBC3" stroke-linecap="round" stroke-linejoin="round"/>
<path d="M547.383 492.695L546.694 483.014" stroke="#BEEBC3" stroke-linecap="round" stroke-linejoin="round"/>
<path d="M543.854 496.434L553.445 496.852" stroke="#BEEBC3" stroke-linecap="round" stroke-linejoin="round"/>
<path d="M540.767 499.619L539.833 492.534" stroke="#BEEBC3" stroke-linecap="round" stroke-linejoin="round"/>
<g opacity="0.7">
<path d="M536.673 503.74L564.572 474.982" stroke="white" stroke-linecap="round" stroke-linejoin="round"/>
<path d="M554.649 485.204L554.12 478.709" stroke="white" stroke-linecap="round" stroke-linejoin="round"/>
<path d="M550.1 490.013L560.588 487.922" stroke="white" stroke-linecap="round" stroke-linejoin="round"/>
<path d="M547.383 492.695L546.694 483.014" stroke="white" stroke-linecap="round" stroke-linejoin="round"/>
<path d="M543.854 496.434L553.444 496.852" stroke="white" stroke-linecap="round" stroke-linejoin="round"/>
<path d="M540.767 499.62L539.833 492.535" stroke="white" stroke-linecap="round" stroke-linejoin="round"/>
</g>
<path d="M35.4051 331.707C35.8109 316.343 34.6305 290.143 48.0942 279.356C59.9226 269.885 69.1197 282.738 72.4272 293.108C80.4809 318.262 76.6938 346 76.6815 371.966C76.6815 372.359 76.6815 372.753 76.6815 373.196C77.3209 392.311 79.6079 412.988 77.5299 432.066C77.5299 432.066 79.571 412.951 94.5839 421.143C109.597 429.335 87.0713 472.325 87.0713 472.325C87.0713 472.325 104.814 459.36 113.003 470.283C121.192 481.206 102.797 493.433 102.797 493.433C102.797 493.433 119.851 488.66 119.851 493.433C119.851 498.205 114.392 502.301 98.703 504.355H14.0968C14.0968 504.355 0.448646 496.84 3.17827 488.66C5.9079 480.48 20.2323 485.24 20.2323 485.24C20.2323 485.24 -1.59243 458.622 -0.227619 447.023C1.1372 435.424 29.1097 449.077 29.1097 449.077C29.1097 449.077 7.27271 393.799 11.3672 369.272C14.5886 349.923 29.6139 363.122 37.7782 370.6C35.8554 357.73 35.0613 344.716 35.4051 331.707Z" fill="#BEEBC3" stroke="white" stroke-linecap="round" stroke-linejoin="round"/>
<path opacity="0.5" d="M35.4051 331.707C35.8109 316.343 34.6305 290.143 48.0942 279.356C59.9226 269.885 69.1197 282.738 72.4272 293.108C80.4809 318.262 76.6938 346 76.6815 371.966C76.6815 372.359 76.6815 372.753 76.6815 373.196C77.3209 392.311 79.6079 412.988 77.5299 432.066C77.5299 432.066 79.571 412.951 94.5839 421.143C109.597 429.335 87.0713 472.325 87.0713 472.325C87.0713 472.325 104.814 459.36 113.003 470.283C121.192 481.206 102.797 493.433 102.797 493.433C102.797 493.433 119.851 488.66 119.851 493.433C119.851 498.205 114.392 502.301 98.703 504.355H14.0968C14.0968 504.355 0.448646 496.84 3.17827 488.66C5.9079 480.48 20.2323 485.24 20.2323 485.24C20.2323 485.24 -1.59243 458.622 -0.227619 447.023C1.1372 435.424 29.1097 449.077 29.1097 449.077C29.1097 449.077 7.27271 393.799 11.3672 369.272C14.5886 349.923 29.6139 363.122 37.7782 370.6C35.8554 357.73 35.0613 344.716 35.4051 331.707Z" fill="white"/>
<path d="M62.5291 503.667L56.3936 315.999" stroke="white" stroke-linecap="round" stroke-linejoin="round"/>
<path d="M59.1227 425.19L27.0557 395.165" stroke="white" stroke-linecap="round" stroke-linejoin="round"/>
<path d="M44.1102 411.536L37.2861 392.434" stroke="white" stroke-linecap="round" stroke-linejoin="round"/>
<path d="M85.7194 448.388L61.165 475.006" stroke="white" stroke-linecap="round" stroke-linejoin="round"/>
<path d="M20.2324 463.407L61.1646 484.564" stroke="white" stroke-linecap="round" stroke-linejoin="round"/>
<path d="M42.0686 475.683L27.0557 475.007" stroke="white" stroke-linecap="round" stroke-linejoin="round"/>
<path d="M62.5291 503.667L56.3936 315.999" stroke="#BEEBC3" stroke-linecap="round" stroke-linejoin="round"/>
<path d="M59.1227 425.19L27.0557 395.165" stroke="#BEEBC3" stroke-linecap="round" stroke-linejoin="round"/>
<path d="M44.1102 411.536L37.2861 392.434" stroke="#BEEBC3" stroke-linecap="round" stroke-linejoin="round"/>
<path d="M85.7194 448.388L61.165 475.006" stroke="#BEEBC3" stroke-linecap="round" stroke-linejoin="round"/>
<path d="M20.2324 463.407L61.1646 484.564" stroke="#BEEBC3" stroke-linecap="round" stroke-linejoin="round"/>
<path d="M42.0686 475.683L27.0557 475.007" stroke="#BEEBC3" stroke-linecap="round" stroke-linejoin="round"/>
<g opacity="0.8">
<path d="M62.5291 503.667L56.3936 315.999" stroke="white" stroke-linecap="round" stroke-linejoin="round"/>
<path d="M59.1236 425.19L27.0566 395.165" stroke="white" stroke-linecap="round" stroke-linejoin="round"/>
<path d="M44.1102 411.537L37.2861 392.434" stroke="white" stroke-linecap="round" stroke-linejoin="round"/>
<path d="M85.7194 448.389L61.165 475.007" stroke="white" stroke-linecap="round" stroke-linejoin="round"/>
<path d="M20.2324 463.407L61.1646 484.564" stroke="white" stroke-linecap="round" stroke-linejoin="round"/>
<path d="M42.0696 475.683L27.0566 475.007" stroke="white" stroke-linecap="round" stroke-linejoin="round"/>
</g>
<path d="M182.178 465.744C182.178 484.822 167.066 500.296 167.066 500.296C167.066 500.296 151.979 484.822 151.979 465.744C151.979 446.666 167.091 431.192 167.091 431.192C167.091 431.192 182.178 446.654 182.178 465.744Z" fill="#BEEBC3"/>
<path d="M192.641 495.179C185.264 503.457 172.796 504.355 172.796 504.355C172.796 504.355 172.194 491.821 179.534 483.543C186.875 475.265 199.379 474.367 199.379 474.367C199.379 474.367 199.933 486.901 192.641 495.179Z" fill="#BEEBC3"/>
<path d="M154.144 483.26C161.841 491.194 161.804 503.74 161.804 503.74C161.804 503.74 149.275 503.408 141.565 495.462C133.856 487.516 133.905 474.982 133.905 474.982C133.905 474.982 146.435 475.314 154.144 483.26Z" fill="#BEEBC3"/>
<g opacity="0.5">
<path d="M182.179 465.744C182.179 484.822 167.067 500.296 167.067 500.296C167.067 500.296 151.98 484.822 151.98 465.744C151.98 446.666 167.092 431.192 167.092 431.192C167.092 431.192 182.179 446.654 182.179 465.744Z" fill="white"/>
<path d="M167.066 500.296V431.192" stroke="white" stroke-linecap="round" stroke-linejoin="round"/>
<path d="M167.066 455.756L175.526 448.364" stroke="white" stroke-linecap="round" stroke-linejoin="round"/>
<path d="M166.931 467.171L156.455 451.993" stroke="white" stroke-linecap="round" stroke-linejoin="round"/>
<path d="M167.066 473.752L179.559 462.608" stroke="white" stroke-linecap="round" stroke-linejoin="round"/>
<path d="M166.931 482.621L154.574 471.612" stroke="white" stroke-linecap="round" stroke-linejoin="round"/>
<path d="M166.932 490.284L176.596 482.621" stroke="white" stroke-linecap="round" stroke-linejoin="round"/>
<path d="M192.641 495.179C185.264 503.457 172.796 504.355 172.796 504.355C172.796 504.355 172.194 491.821 179.534 483.543C186.875 475.265 199.379 474.367 199.379 474.367C199.379 474.367 199.933 486.901 192.641 495.179Z" fill="white"/>
<path d="M172.796 504.355L199.379 474.367" stroke="white" stroke-linecap="round" stroke-linejoin="round"/>
<path d="M189.936 485.032L196.44 485.081" stroke="white" stroke-linecap="round" stroke-linejoin="round"/>
<path d="M185.485 489.927L186.776 479.312" stroke="white" stroke-linecap="round" stroke-linejoin="round"/>
<path d="M183.001 492.842L192.715 492.805" stroke="white" stroke-linecap="round" stroke-linejoin="round"/>
<path d="M179.534 496.63L178.415 487.098" stroke="white" stroke-linecap="round" stroke-linejoin="round"/>
<path d="M176.596 499.952L183.739 500.358" stroke="white" stroke-linecap="round" stroke-linejoin="round"/>
<path d="M154.144 483.26C161.841 491.194 161.804 503.74 161.804 503.74C161.804 503.74 149.275 503.408 141.565 495.462C133.856 487.516 133.905 474.982 133.905 474.982C133.905 474.982 146.435 475.314 154.144 483.26Z" fill="white"/>
<path d="M161.804 503.74L133.905 474.982" stroke="white" stroke-linecap="round" stroke-linejoin="round"/>
<path d="M143.815 485.204L144.356 478.709" stroke="white" stroke-linecap="round" stroke-linejoin="round"/>
<path d="M148.377 490.013L137.889 487.922" stroke="white" stroke-linecap="round" stroke-linejoin="round"/>
<path d="M151.082 492.695L151.783 483.014" stroke="white" stroke-linecap="round" stroke-linejoin="round"/>
<path d="M154.611 496.434L145.021 496.852" stroke="white" stroke-linecap="round" stroke-linejoin="round"/>
<path d="M157.71 499.62L158.632 492.535" stroke="white" stroke-linecap="round" stroke-linejoin="round"/>
</g>
<path d="M167.067 500.296V431.192" stroke="#BEEBC3" stroke-linecap="round" stroke-linejoin="round"/>
<path d="M167.067 455.756L175.527 448.364" stroke="#BEEBC3" stroke-linecap="round" stroke-linejoin="round"/>
<path d="M166.931 467.171L156.455 451.992" stroke="#BEEBC3" stroke-linecap="round" stroke-linejoin="round"/>
<path d="M167.067 473.752L179.56 462.607" stroke="#BEEBC3" stroke-linecap="round" stroke-linejoin="round"/>
<path d="M166.931 482.621L154.574 471.612" stroke="#BEEBC3" stroke-linecap="round" stroke-linejoin="round"/>
<path d="M166.932 490.284L176.596 482.621" stroke="#BEEBC3" stroke-linecap="round" stroke-linejoin="round"/>
<g opacity="0.7">
<path d="M167.066 500.296V431.192" stroke="white" stroke-linecap="round" stroke-linejoin="round"/>
<path d="M167.066 455.756L175.526 448.364" stroke="white" stroke-linecap="round" stroke-linejoin="round"/>
<path d="M166.932 467.171L156.456 451.993" stroke="white" stroke-linecap="round" stroke-linejoin="round"/>
<path d="M167.066 473.752L179.559 462.608" stroke="white" stroke-linecap="round" stroke-linejoin="round"/>
<path d="M166.931 482.621L154.574 471.612" stroke="white" stroke-linecap="round" stroke-linejoin="round"/>
<path d="M166.931 490.283L176.595 482.62" stroke="white" stroke-linecap="round" stroke-linejoin="round"/>
</g>
<path d="M172.797 504.355L199.38 474.367" stroke="#BEEBC3" stroke-linecap="round" stroke-linejoin="round"/>
<path d="M189.937 485.031L196.441 485.08" stroke="#BEEBC3" stroke-linecap="round" stroke-linejoin="round"/>
<path d="M185.486 489.927L186.777 479.312" stroke="#BEEBC3" stroke-linecap="round" stroke-linejoin="round"/>
<path d="M183.002 492.842L192.716 492.805" stroke="#BEEBC3" stroke-linecap="round" stroke-linejoin="round"/>
<path d="M179.535 496.631L178.416 487.098" stroke="#BEEBC3" stroke-linecap="round" stroke-linejoin="round"/>
<path d="M176.596 499.952L183.739 500.358" stroke="#BEEBC3" stroke-linecap="round" stroke-linejoin="round"/>
<g opacity="0.7">
<path d="M172.797 504.355L199.38 474.367" stroke="white" stroke-linecap="round" stroke-linejoin="round"/>
<path d="M189.937 485.031L196.441 485.08" stroke="white" stroke-linecap="round" stroke-linejoin="round"/>
<path d="M185.486 489.927L186.777 479.312" stroke="white" stroke-linecap="round" stroke-linejoin="round"/>
<path d="M183.002 492.842L192.716 492.805" stroke="white" stroke-linecap="round" stroke-linejoin="round"/>
<path d="M179.535 496.63L178.416 487.098" stroke="white" stroke-linecap="round" stroke-linejoin="round"/>
<path d="M176.597 499.952L183.74 500.358" stroke="white" stroke-linecap="round" stroke-linejoin="round"/>
</g>
<path d="M161.804 503.74L133.905 474.982" stroke="#BEEBC3" stroke-linecap="round" stroke-linejoin="round"/>
<path d="M143.815 485.204L144.356 478.709" stroke="#BEEBC3" stroke-linecap="round" stroke-linejoin="round"/>
<path d="M148.377 490.013L137.889 487.922" stroke="#BEEBC3" stroke-linecap="round" stroke-linejoin="round"/>
<path d="M151.082 492.695L151.783 483.014" stroke="#BEEBC3" stroke-linecap="round" stroke-linejoin="round"/>
<path d="M154.611 496.434L145.021 496.852" stroke="#BEEBC3" stroke-linecap="round" stroke-linejoin="round"/>
<path d="M157.71 499.619L158.632 492.534" stroke="#BEEBC3" stroke-linecap="round" stroke-linejoin="round"/>
<g opacity="0.7">
<path d="M161.804 503.74L133.905 474.982" stroke="white" stroke-linecap="round" stroke-linejoin="round"/>
<path d="M143.815 485.204L144.356 478.709" stroke="white" stroke-linecap="round" stroke-linejoin="round"/>
<path d="M148.377 490.013L137.889 487.922" stroke="white" stroke-linecap="round" stroke-linejoin="round"/>
<path d="M151.082 492.695L151.783 483.014" stroke="white" stroke-linecap="round" stroke-linejoin="round"/>
<path d="M154.611 496.434L145.021 496.852" stroke="white" stroke-linecap="round" stroke-linejoin="round"/>
<path d="M157.71 499.62L158.632 492.535" stroke="white" stroke-linecap="round" stroke-linejoin="round"/>
</g>
<path d="M522.546 138.787H190.159C190.059 138.789 189.96 138.77 189.868 138.733C189.776 138.696 189.691 138.641 189.62 138.572C189.55 138.502 189.493 138.418 189.455 138.327C189.416 138.235 189.396 138.136 189.396 138.037C189.396 137.834 189.477 137.64 189.62 137.497C189.763 137.354 189.957 137.274 190.159 137.274H522.546C522.646 137.274 522.745 137.294 522.836 137.332C522.928 137.371 523.011 137.427 523.081 137.498C523.151 137.569 523.206 137.653 523.243 137.746C523.28 137.838 523.298 137.937 523.296 138.037C523.296 138.236 523.217 138.426 523.077 138.567C522.936 138.708 522.745 138.787 522.546 138.787Z" fill="#BEEBC3"/>
<g opacity="0.3">
<path d="M522.546 138.787H190.159C190.059 138.789 189.96 138.77 189.868 138.733C189.776 138.696 189.691 138.641 189.62 138.572C189.55 138.502 189.493 138.418 189.455 138.327C189.416 138.235 189.396 138.136 189.396 138.037C189.396 137.834 189.477 137.64 189.62 137.497C189.763 137.354 189.957 137.274 190.159 137.274H522.546C522.646 137.274 522.745 137.294 522.836 137.332C522.928 137.371 523.011 137.427 523.081 137.498C523.151 137.569 523.206 137.653 523.243 137.746C523.28 137.838 523.298 137.937 523.296 138.037C523.296 138.236 523.217 138.426 523.077 138.567C522.936 138.708 522.745 138.787 522.546 138.787Z" fill="white"/>
</g>
<path d="M521.882 270.672H189.495C189.395 270.674 189.296 270.656 189.204 270.619C189.112 270.582 189.027 270.527 188.956 270.457C188.885 270.387 188.829 270.304 188.791 270.212C188.752 270.12 188.732 270.021 188.732 269.922C188.732 269.72 188.813 269.526 188.956 269.383C189.099 269.24 189.293 269.159 189.495 269.159H521.882C521.982 269.159 522.08 269.179 522.172 269.217C522.264 269.256 522.347 269.312 522.417 269.383C522.487 269.454 522.542 269.538 522.579 269.631C522.616 269.723 522.634 269.822 522.632 269.922C522.632 270.02 522.613 270.118 522.575 270.209C522.538 270.3 522.482 270.383 522.413 270.452C522.343 270.522 522.26 270.577 522.169 270.615C522.078 270.653 521.981 270.672 521.882 270.672Z" fill="#BEEBC3"/>
<g opacity="0.3">
<path d="M521.882 270.672H189.495C189.395 270.674 189.296 270.656 189.204 270.619C189.112 270.582 189.027 270.527 188.956 270.457C188.885 270.387 188.829 270.304 188.791 270.212C188.752 270.12 188.732 270.021 188.732 269.922C188.732 269.72 188.813 269.526 188.956 269.383C189.099 269.24 189.293 269.159 189.495 269.159H521.882C521.982 269.159 522.08 269.179 522.172 269.217C522.264 269.256 522.347 269.312 522.417 269.383C522.487 269.454 522.542 269.538 522.579 269.631C522.616 269.723 522.634 269.822 522.632 269.922C522.632 270.02 522.613 270.118 522.575 270.209C522.538 270.3 522.482 270.383 522.413 270.452C522.343 270.522 522.26 270.577 522.169 270.615C522.078 270.653 521.981 270.672 521.882 270.672Z" fill="white"/>
</g>
<path d="M521.882 378.485H189.495C189.293 378.485 189.099 378.405 188.956 378.262C188.813 378.119 188.732 377.925 188.732 377.723C188.732 377.623 188.752 377.524 188.791 377.433C188.829 377.341 188.885 377.257 188.956 377.188C189.027 377.118 189.112 377.063 189.204 377.026C189.296 376.989 189.395 376.971 189.495 376.972H521.882C521.981 376.972 522.078 376.992 522.169 377.029C522.26 377.067 522.343 377.122 522.413 377.192C522.482 377.262 522.538 377.344 522.575 377.435C522.613 377.526 522.632 377.624 522.632 377.723C522.634 377.822 522.616 377.921 522.579 378.013C522.542 378.106 522.487 378.19 522.417 378.261C522.347 378.332 522.264 378.388 522.172 378.427C522.08 378.465 521.982 378.485 521.882 378.485Z" fill="#BEEBC3"/>
<g opacity="0.3">
<path d="M521.882 378.485H189.495C189.293 378.485 189.099 378.405 188.956 378.262C188.813 378.119 188.732 377.925 188.732 377.723C188.732 377.623 188.752 377.524 188.791 377.433C188.829 377.341 188.885 377.257 188.956 377.188C189.027 377.118 189.112 377.063 189.204 377.026C189.296 376.989 189.395 376.971 189.495 376.972H521.882C521.981 376.972 522.078 376.992 522.169 377.029C522.26 377.067 522.343 377.122 522.413 377.192C522.482 377.262 522.538 377.344 522.575 377.435C522.613 377.526 522.632 377.624 522.632 377.723C522.634 377.822 522.616 377.921 522.579 378.013C522.542 378.106 522.487 378.19 522.417 378.261C522.347 378.332 522.264 378.388 522.172 378.427C522.08 378.465 521.982 378.485 521.882 378.485Z" fill="white"/>
</g>
<path d="M260.157 396.727V508.931" stroke="#212121" stroke-width="0.265171" stroke-miterlimit="10"/>
<path d="M276.179 396.727V508.931" stroke="#212121" stroke-width="0.265171" stroke-miterlimit="10"/>
<path d="M292.199 396.727V508.931" stroke="#212121" stroke-width="0.265171" stroke-miterlimit="10"/>
<path d="M308.221 396.727V508.931" stroke="#212121" stroke-width="0.265171" stroke-miterlimit="10"/>
<path d="M324.242 396.727V508.931" stroke="#212121" stroke-width="0.265171" stroke-miterlimit="10"/>
<path d="M340.264 396.727V508.931" stroke="#212121" stroke-width="0.265171" stroke-miterlimit="10"/>
<path d="M356.284 396.727V508.931" stroke="#212121" stroke-width="0.265171" stroke-miterlimit="10"/>
<path d="M372.306 396.727V508.931" stroke="#212121" stroke-width="0.265171" stroke-miterlimit="10"/>
<path d="M388.327 396.727V508.931" stroke="#212121" stroke-width="0.265171" stroke-miterlimit="10"/>
<path d="M404.348 396.727V508.931" stroke="#212121" stroke-width="0.265171" stroke-miterlimit="10"/>
<path d="M420.369 396.727V508.931" stroke="#212121" stroke-width="0.265171" stroke-miterlimit="10"/>
<path d="M436.391 396.727V508.931" stroke="#212121" stroke-width="0.265171" stroke-miterlimit="10"/>
<path d="M260.957 407.145H435.592" stroke="#212121" stroke-width="0.265171" stroke-miterlimit="10"/>
<path d="M260.957 422.373H435.592" stroke="#212121" stroke-width="0.265171" stroke-miterlimit="10"/>
<path d="M260.957 437.601H435.592" stroke="#212121" stroke-width="0.265171" stroke-miterlimit="10"/>
<path d="M260.957 452.829H435.592" stroke="#212121" stroke-width="0.265171" stroke-miterlimit="10"/>
<path d="M260.957 468.057H435.592" stroke="#212121" stroke-width="0.265171" stroke-miterlimit="10"/>
<path d="M260.957 483.285H435.592" stroke="#212121" stroke-width="0.265171" stroke-miterlimit="10"/>
<path d="M260.957 498.512H435.592" stroke="#212121" stroke-width="0.265171" stroke-miterlimit="10"/>
<path d="M297.647 436.088L274.212 508.365H323.296L299.848 436.088C299.773 435.855 299.627 435.651 299.429 435.507C299.231 435.363 298.993 435.285 298.748 435.285C298.503 435.285 298.265 435.363 298.067 435.507C297.869 435.651 297.722 435.855 297.647 436.088Z" fill="#BEEBC3" stroke="#212121" stroke-width="1.06068" stroke-miterlimit="10"/>
<path d="M342.329 412.151L311.135 508.365H375.761L344.53 412.151C344.455 411.918 344.308 411.715 344.11 411.571C343.912 411.426 343.674 411.349 343.429 411.349C343.184 411.349 342.946 411.426 342.748 411.571C342.55 411.715 342.404 411.918 342.329 412.151Z" fill="#212121" stroke="#212121" stroke-width="1.06068" stroke-miterlimit="10"/>
<path d="M383.446 452.619L365.359 508.365H403.722L385.598 452.619C385.513 452.403 385.365 452.217 385.173 452.087C384.981 451.956 384.754 451.886 384.522 451.886C384.29 451.886 384.063 451.956 383.871 452.087C383.679 452.217 383.531 452.403 383.446 452.619Z" fill="#BEEBC3" stroke="#212121" stroke-width="1.06068" stroke-miterlimit="10"/>
<path d="M408.221 471.759L396.355 508.365H422.287L410.422 471.759C410.347 471.526 410.2 471.323 410.002 471.179C409.804 471.034 409.566 470.957 409.321 470.957C409.076 470.957 408.838 471.034 408.64 471.179C408.442 471.323 408.296 471.526 408.221 471.759Z" fill="#212121" stroke="#212121" stroke-width="1.06068" stroke-miterlimit="10"/>
<path d="M258.043 361.265C251.012 361.265 244.14 359.179 238.294 355.272C232.448 351.364 227.892 345.81 225.202 339.313C222.511 332.815 221.808 325.665 223.179 318.767C224.551 311.869 227.936 305.532 232.907 300.559C237.879 295.586 244.213 292.199 251.108 290.827C258.003 289.455 265.151 290.159 271.646 292.85C278.141 295.542 283.693 300.1 287.599 305.948C291.505 311.796 293.589 318.671 293.589 325.704C293.58 335.132 289.831 344.172 283.167 350.838C276.503 357.505 267.467 361.255 258.043 361.265ZM258.043 300.587C253.077 300.589 248.224 302.064 244.097 304.826C239.97 307.587 236.754 311.511 234.855 316.101C232.957 320.69 232.461 325.74 233.431 330.612C234.402 335.483 236.794 339.958 240.306 343.469C243.817 346.981 248.291 349.372 253.161 350.34C258.031 351.308 263.079 350.81 267.666 348.908C272.253 347.007 276.174 343.788 278.932 339.657C281.69 335.527 283.163 330.671 283.163 325.704C283.156 319.042 280.507 312.656 275.797 307.946C271.087 303.237 264.702 300.59 258.043 300.587Z" fill="#212121" stroke="#212121" stroke-width="1.06068" stroke-miterlimit="10"/>
<path d="M258.043 361.265C253.245 361.279 248.495 360.315 244.083 358.431C239.671 356.546 235.689 353.781 232.382 350.305L239.919 343.085C242.254 345.541 245.066 347.494 248.183 348.824C251.299 350.154 254.654 350.834 258.043 350.822C261.34 350.822 264.605 350.172 267.651 348.91C270.697 347.647 273.465 345.797 275.797 343.465C278.128 341.132 279.977 338.364 281.239 335.316C282.501 332.269 283.15 329.003 283.15 325.704C283.15 322.406 282.501 319.139 281.239 316.092C279.977 313.045 278.128 310.276 275.797 307.943C273.465 305.611 270.697 303.761 267.651 302.499C264.605 301.236 261.34 300.587 258.043 300.587V290.144C262.711 290.144 267.333 291.063 271.646 292.85C275.959 294.637 279.877 297.257 283.178 300.559C286.479 303.861 289.097 307.781 290.884 312.096C292.67 316.41 293.589 321.034 293.589 325.704C293.589 330.374 292.67 334.998 290.884 339.312C289.097 343.627 286.479 347.547 283.178 350.849C279.877 354.151 275.959 356.771 271.646 358.558C267.333 360.345 262.711 361.265 258.043 361.265Z" fill="#BEEBC3" stroke="#212121" stroke-width="1.06068" stroke-miterlimit="10"/>
<path d="M345.71 361.265C338.679 361.267 331.806 359.184 325.958 355.278C320.111 351.372 315.553 345.819 312.861 339.321C310.168 332.823 309.463 325.673 310.833 318.774C312.203 311.875 315.588 305.538 320.558 300.563C325.529 295.589 331.863 292.201 338.759 290.828C345.654 289.455 352.802 290.158 359.298 292.849C365.794 295.54 371.347 300.098 375.253 305.946C379.16 311.795 381.245 318.67 381.245 325.704C381.235 335.13 377.488 344.168 370.827 350.834C364.165 357.501 355.133 361.252 345.71 361.265ZM345.71 300.587C340.746 300.592 335.894 302.069 331.768 304.832C327.642 307.595 324.428 311.519 322.531 316.109C320.635 320.699 320.141 325.749 321.113 330.619C322.084 335.49 324.477 339.963 327.99 343.474C331.502 346.984 335.976 349.374 340.846 350.341C345.715 351.308 350.763 350.809 355.349 348.907C359.935 347.005 363.855 343.786 366.613 339.656C369.371 335.526 370.843 330.671 370.843 325.704C370.833 319.041 368.181 312.654 363.469 307.945C358.757 303.236 352.371 300.59 345.71 300.587Z" fill="#212121" stroke="#212121" stroke-width="1.06068" stroke-miterlimit="10"/>
<path d="M359.543 358.46L355.485 348.853C360.817 346.592 365.205 342.558 367.905 337.432C370.605 332.306 371.451 326.405 370.301 320.726C369.151 315.048 366.075 309.942 361.594 306.271C357.113 302.601 351.501 300.593 345.71 300.587V290.144C353.912 290.144 361.861 292.983 368.21 298.177C374.559 303.372 378.917 310.603 380.545 318.644C382.174 326.686 380.972 335.044 377.144 342.301C373.316 349.557 367.098 355.266 359.543 358.46Z" fill="#BEEBC3" stroke="#212121" stroke-width="1.06068" stroke-miterlimit="10"/>
<path d="M433.366 361.265C426.336 361.265 419.463 359.179 413.617 355.272C407.772 351.364 403.216 345.81 400.525 339.313C397.835 332.815 397.131 325.665 398.502 318.767C399.874 311.869 403.259 305.532 408.231 300.559C413.202 295.586 419.536 292.199 426.431 290.827C433.327 289.455 440.474 290.159 446.969 292.85C453.464 295.542 459.016 300.1 462.922 305.948C466.828 311.796 468.913 318.671 468.913 325.704C468.903 335.132 465.155 344.172 458.491 350.838C451.826 357.505 442.791 361.255 433.366 361.265ZM433.366 300.587C428.4 300.587 423.546 302.06 419.417 304.82C415.288 307.58 412.07 311.502 410.17 316.092C408.269 320.682 407.772 325.732 408.741 330.604C409.71 335.477 412.101 339.952 415.612 343.465C419.124 346.978 423.597 349.37 428.468 350.339C433.338 351.308 438.386 350.811 442.974 348.91C447.562 347.009 451.483 343.789 454.242 339.659C457.001 335.528 458.474 330.672 458.474 325.704C458.467 319.045 455.82 312.66 451.113 307.951C446.405 303.242 440.023 300.593 433.366 300.587Z" fill="#212121" stroke="#212121" stroke-width="1.06068" stroke-miterlimit="10"/>
<path d="M457.982 320.698C456.815 315.03 453.734 309.937 449.256 306.274C444.777 302.612 439.175 300.603 433.391 300.587V290.144C441.583 290.164 449.519 293.007 455.862 298.193C462.206 303.379 466.572 310.592 468.224 318.619L457.982 320.698Z" fill="#BEEBC3" stroke="#212121" stroke-width="1.06068" stroke-miterlimit="10"/>
<path d="M272.22 250.77H439.157" stroke="#212121" stroke-width="1.06068" stroke-miterlimit="10"/>
<path d="M272.22 250.77V247.215" stroke="#212121" stroke-width="1.06068" stroke-miterlimit="10"/>
<path d="M305.603 250.77V247.215" stroke="#212121" stroke-width="1.06068" stroke-miterlimit="10"/>
<path d="M338.998 250.77V247.215" stroke="#212121" stroke-width="1.06068" stroke-miterlimit="10"/>
<path d="M372.38 250.77V247.215" stroke="#212121" stroke-width="1.06068" stroke-miterlimit="10"/>
<path d="M405.763 250.77V247.215" stroke="#212121" stroke-width="1.06068" stroke-miterlimit="10"/>
<path d="M439.157 250.77V247.215" stroke="#212121" stroke-width="1.06068" stroke-miterlimit="10"/>
<path d="M300.93 203.303H276.892V231.778H300.93V203.303Z" fill="#BEEBC3" stroke="#212121" stroke-width="1.06068" stroke-miterlimit="10"/>
<path d="M334.312 170.079H310.274V236.526H334.312V170.079Z" fill="#BEEBC3" stroke="#212121" stroke-width="1.06068" stroke-miterlimit="10"/>
<path d="M367.708 123.571H343.67V197.62H367.708V123.571Z" fill="#BEEBC3" stroke="#212121" stroke-width="1.06068" stroke-miterlimit="10"/>
<path d="M401.09 192.872H377.052V207.116H401.09V192.872Z" fill="#BEEBC3" stroke="#212121" stroke-width="1.06068" stroke-miterlimit="10"/>
<path d="M434.473 184.323H410.436V221.347H434.473V184.323Z" fill="#BEEBC3" stroke="#212121" stroke-width="1.06068" stroke-miterlimit="10"/>
<path d="M300.93 231.79H276.892V250.782H300.93V231.79Z" fill="#212121" stroke="#212121" stroke-width="1.06068" stroke-miterlimit="10"/>
<path d="M334.312 236.539H310.274V250.782H334.312V236.539Z" fill="#212121" stroke="#212121" stroke-width="1.06068" stroke-miterlimit="10"/>
<path d="M367.708 197.607H343.67V250.77H367.708V197.607Z" fill="#212121" stroke="#212121" stroke-width="1.06068" stroke-miterlimit="10"/>
<path d="M401.09 207.104H377.052V250.77H401.09V207.104Z" fill="#212121" stroke="#212121" stroke-width="1.06068" stroke-miterlimit="10"/>
<path d="M434.473 221.347H410.436V250.77H434.473V221.347Z" fill="#212121" stroke="#212121" stroke-width="1.06068" stroke-miterlimit="10"/>
<path d="M483.642 110.127C483.353 110.129 483.068 110.059 482.813 109.924C482.558 109.789 482.34 109.592 482.179 109.352L430.464 33.9013L377.998 89.8682L324.426 54.935L272.6 66.9648L219.963 109.733C219.597 110.03 219.129 110.17 218.661 110.121C218.193 110.073 217.763 109.84 217.467 109.475C217.17 109.11 217.03 108.641 217.079 108.173C217.127 107.705 217.36 107.275 217.725 106.978L271.002 63.6929L325.102 51.1342L377.457 85.2802L430.906 28.2554L485.105 107.347C485.289 107.613 485.397 107.923 485.417 108.245C485.437 108.568 485.369 108.889 485.219 109.176C485.07 109.462 484.845 109.702 484.57 109.869C484.294 110.037 483.977 110.126 483.655 110.127H483.642Z" fill="#212121"/>
<path d="M223.295 108.356C223.295 109.225 223.037 110.074 222.555 110.796C222.073 111.518 221.387 112.081 220.585 112.413C219.783 112.745 218.9 112.832 218.049 112.663C217.197 112.494 216.415 112.075 215.801 111.461C215.187 110.847 214.769 110.065 214.6 109.213C214.431 108.361 214.518 107.478 214.85 106.676C215.182 105.873 215.745 105.187 216.466 104.705C217.188 104.222 218.037 103.965 218.905 103.965C220.069 103.965 221.186 104.427 222.009 105.251C222.832 106.075 223.295 107.191 223.295 108.356Z" fill="#BEEBC3"/>
<path d="M271.801 69.7205C274.225 69.7205 276.19 67.7545 276.19 65.3292C276.19 62.904 274.225 60.938 271.801 60.938C269.376 60.938 267.411 62.904 267.411 65.3292C267.411 67.7545 269.376 69.7205 271.801 69.7205Z" fill="#BEEBC3"/>
<path d="M324.759 57.4197C327.183 57.4197 329.148 55.4537 329.148 53.0285C329.148 50.6032 327.183 48.6372 324.759 48.6372C322.334 48.6372 320.369 50.6032 320.369 53.0285C320.369 55.4537 322.334 57.4197 324.759 57.4197Z" fill="#BEEBC3"/>
<path d="M377.716 91.9593C380.14 91.9593 382.105 89.9932 382.105 87.568C382.105 85.1428 380.14 83.1768 377.716 83.1768C375.291 83.1768 373.326 85.1428 373.326 87.568C373.326 89.9932 375.291 91.9593 377.716 91.9593Z" fill="#BEEBC3"/>
<path d="M435.062 31.0846C435.062 31.9531 434.805 32.8021 434.323 33.5243C433.84 34.2464 433.155 34.8092 432.353 35.1416C431.55 35.474 430.668 35.5609 429.816 35.3915C428.965 35.2221 428.183 34.8038 427.569 34.1897C426.955 33.5756 426.537 32.7931 426.368 31.9413C426.198 31.0895 426.285 30.2065 426.617 29.4042C426.95 28.6018 427.512 27.9159 428.234 27.4334C428.956 26.9509 429.805 26.6934 430.673 26.6934C431.837 26.6934 432.953 27.156 433.777 27.9795C434.6 28.8031 435.062 29.92 435.062 31.0846Z" fill="#BEEBC3"/>
<path d="M488.019 108.356C488.019 109.224 487.762 110.073 487.28 110.795C486.797 111.517 486.112 112.08 485.31 112.413C484.507 112.745 483.625 112.832 482.773 112.662C481.922 112.493 481.14 112.075 480.526 111.461C479.912 110.847 479.494 110.064 479.325 109.212C479.155 108.36 479.242 107.478 479.574 106.675C479.907 105.873 480.469 105.187 481.191 104.704C481.913 104.222 482.762 103.964 483.63 103.964C484.794 103.964 485.91 104.427 486.734 105.251C487.557 106.074 488.019 107.191 488.019 108.356Z" fill="#BEEBC3"/>
<path d="M578.295 526.89C625.164 526.89 663.159 521.785 663.159 515.487C663.159 509.19 625.164 504.085 578.295 504.085C531.426 504.085 493.431 509.19 493.431 515.487C493.431 521.785 531.426 526.89 578.295 526.89Z" fill="#BEEBC3"/>
<path opacity="0.7" d="M578.295 526.89C625.164 526.89 663.159 521.785 663.159 515.487C663.159 509.19 625.164 504.085 578.295 504.085C531.426 504.085 493.431 509.19 493.431 515.487C493.431 521.785 531.426 526.89 578.295 526.89Z" fill="white"/>
<path d="M113.348 526.89C156.598 526.89 191.659 521.785 191.659 515.487C191.659 509.19 156.598 504.085 113.348 504.085C70.0981 504.085 35.0371 509.19 35.0371 515.487C35.0371 521.785 70.0981 526.89 113.348 526.89Z" fill="#BEEBC3"/>
<path opacity="0.7" d="M113.348 526.89C156.598 526.89 191.659 521.785 191.659 515.487C191.659 509.19 156.598 504.085 113.348 504.085C70.0981 504.085 35.0371 509.19 35.0371 515.487C35.0371 521.785 70.0981 526.89 113.348 526.89Z" fill="white"/>
<path d="M554.343 113.793C554.343 113.793 586.582 110.668 588.427 116.043C590.271 121.419 589.656 133.695 589.656 133.695C591.28 134.117 592.864 134.681 594.39 135.38C594.82 135.798 599.591 138.922 595.14 144.052C593.977 145.352 592.569 146.41 590.996 147.164C589.033 148.033 587.167 149.105 585.426 150.362L578.959 157.705L580.188 167.164C580.188 167.164 583.078 169.255 586.607 176.549C586.607 176.549 594.943 181.469 599.837 184.262C603.861 186.377 608.047 188.17 612.354 189.625C612.354 189.625 614.592 190.35 614.432 191.962C614.272 193.573 603.292 230.093 603.292 230.093L597.513 248.544C597.403 250.811 597.107 253.066 596.628 255.284C595.804 259.257 592.705 261.865 589.496 261.053L589.816 274.584C589.816 274.584 574.741 282.124 549.88 280.845C549.88 280.845 538.174 279.713 529.518 273.304L529.358 241.692L489.471 233.968C489.471 233.968 484.418 232.898 487.012 228.346C489.607 223.795 498.324 212.503 498.324 212.503L526.346 178.21C526.346 178.21 528.276 175.934 528.989 175.209C529.703 174.483 531.449 173.978 538.371 173.4C545.293 172.822 553.052 171.482 553.052 171.482C553.052 171.482 557.257 167.865 557.86 167.865C558.462 167.865 558.585 162.453 558.585 162.453C556.458 160.918 554.69 158.94 553.402 156.655C552.113 154.37 551.335 151.832 551.122 149.218C550.519 140.435 554.368 119.857 554.368 119.857L554.343 113.793Z" fill="white"/>
<path d="M530.009 273.181C530.009 273.181 526.615 323.613 526.615 347.746C526.615 371.88 528.128 391.425 528.878 408.375C529.628 425.325 526.615 436.998 529.246 449.422C531.878 461.845 537.915 498.008 537.915 498.008L545.01 502.289C545.01 502.289 546.239 473.518 548.821 463.358C551.403 453.198 552.215 410.257 553.739 397.071C555.264 383.885 560.145 337.193 560.145 337.193C560.145 337.193 578.97 386.148 583.507 405.362C588.044 424.575 603.463 467.872 606.869 478.414C610.275 488.955 615.525 504.577 615.525 504.577C617.12 505.043 618.796 505.169 620.443 504.946C621.155 504.889 621.84 504.651 622.434 504.255C623.027 503.859 623.51 503.318 623.837 502.683C623.837 502.683 618.832 471.144 616.632 455.818C613.914 436.863 609.488 408.375 606.795 397.834C604.102 387.292 600.02 370.711 600.02 362.802C600.02 354.893 589.864 275.469 589.864 275.469C589.864 275.469 554.477 290.881 530.009 273.181Z" fill="#212121"/>
<path d="M560.122 337.192L545.022 319.578" stroke="white" stroke-width="0.530341" stroke-miterlimit="10" stroke-linecap="round"/>
<path d="M541.162 320.87L553.593 332.445" stroke="white" stroke-width="0.530341" stroke-miterlimit="10" stroke-linecap="round"/>
<path d="M567.732 322.161C570.916 314.105 576.831 307.425 584.442 303.292" stroke="white" stroke-width="0.530341" stroke-miterlimit="10" stroke-linecap="round"/>
<path d="M585.291 279.725C585.291 279.725 583.582 286.146 585.721 290.008C587.861 293.871 590.013 293.871 590.013 293.871C590.013 293.871 593.861 314.867 593.861 326.873C593.861 338.878 591.291 340.157 593.861 353.442C596.431 366.726 598.152 371.019 598.152 378.731C598.152 386.444 601.57 391.598 604.571 396.309C607.571 401.02 608.431 414.759 608.431 420.307C608.431 425.854 610.141 431.881 611.862 437.453C611.862 437.453 612.268 449.951 614.432 452.878C616.596 455.806 617.001 465.744 617.001 465.744" stroke="white" stroke-width="0.530341" stroke-miterlimit="10" stroke-linecap="round"/>
<path d="M557.023 335.446C557.023 335.446 557.871 345.286 554.871 362.445C551.871 379.604 549.732 384.303 549.301 404.021C548.871 423.738 550.592 427.17 549.732 437.453C548.871 447.736 543.731 463.985 543.731 471.366C543.731 478.746 544.518 502.338 544.518 502.338" stroke="white" stroke-width="0.530341" stroke-miterlimit="10" stroke-linecap="round"/>
<path d="M547.592 282.296L548.453 285.728L554.022 287.007L553.162 282.726" stroke="white" stroke-width="0.530341" stroke-miterlimit="10" stroke-linecap="round"/>
<path d="M554.048 287.007C554.048 287.007 564.327 286.577 569.467 284.867L568.237 281.435" stroke="white" stroke-width="0.530341" stroke-miterlimit="10" stroke-linecap="round"/>
<path d="M572.872 280.574L574.102 284.867C574.102 284.867 582.327 284.399 583.557 283.169" stroke="white" stroke-width="0.530341" stroke-miterlimit="10" stroke-linecap="round"/>
<path d="M548.454 285.728C545.612 285.638 542.828 284.902 540.314 283.575L536.453 281.435L537.683 278.434" stroke="white" stroke-width="0.530341" stroke-miterlimit="10" stroke-linecap="round"/>
<path d="M537.915 498.008C537.915 498.008 519.472 510.05 516.828 515.696C514.185 521.342 524.734 519.091 532.259 516.078C539.784 513.064 544.555 502.289 544.555 502.289L537.915 498.008Z" fill="white" stroke="#212121" stroke-width="1.06068" stroke-miterlimit="10" stroke-linecap="round"/>
<path d="M616.116 504.737C617.046 509.896 618.878 514.851 621.526 519.374C625.584 525.684 633.244 531.096 633.244 521.17C633.244 511.243 623.789 502.719 623.789 502.719C623.789 502.719 619.092 505.265 616.116 504.737Z" fill="white" stroke="#212121" stroke-width="1.06068" stroke-miterlimit="10" stroke-linecap="round"/>
<path d="M554.232 120.607C554.232 120.607 550.236 145.405 551.588 151.555C554.674 165.319 565.507 164.729 572.282 162.096C578.614 159.636 584.934 150.94 585.745 149.796C585.803 149.715 585.885 149.655 585.979 149.624C586.987 149.341 593.246 147.348 596 142.514C599.012 137.237 593.369 134.986 593.369 134.986" fill="white"/>
<mask id="mask0_99_758" style="mask-type:luminance" maskUnits="userSpaceOnUse" x="551" y="120" width="46" height="44">
<path d="M554.232 120.607C554.232 120.607 550.236 145.405 551.588 151.555C554.674 165.319 565.507 164.729 572.282 162.096C578.614 159.636 584.934 150.94 585.745 149.796C585.803 149.715 585.885 149.655 585.979 149.624C586.987 149.341 593.246 147.348 596 142.514C599.012 137.237 593.369 134.986 593.369 134.986" fill="white"/>
</mask>
<g mask="url(#mask0_99_758)">
<g style="mix-blend-mode:multiply" opacity="0.5">
<path d="M579.868 156.18L585.844 149.612C585.844 149.612 592.914 147.435 596 142.453C597.807 139.538 596.811 136.992 595.717 136.303C594.218 135.491 592.669 134.772 591.082 134.15L589.077 138.566L587.368 138.861C587.368 138.861 588.081 134.31 586.016 131.616C583.95 128.922 583.483 121.124 583.483 121.124C583.483 121.124 580.593 136.672 580.237 143.179C580.145 146.8 579.014 150.318 576.979 153.314C576.979 153.314 577.347 157.287 578.061 161.26C578.147 161.728 578.233 162.429 578.319 163.302L579.302 161.728L579.843 163.228C579.229 160.645 578.946 157.902 579.868 156.18Z" fill="#BEEBC3"/>
</g>
</g>
<path d="M554.232 120.607C554.232 120.607 550.236 145.405 551.588 151.555C554.674 165.319 565.507 164.729 572.282 162.096C578.614 159.636 584.934 150.94 585.745 149.796C585.803 149.715 585.885 149.655 585.979 149.624C586.987 149.341 593.246 147.348 596 142.514C599.012 137.237 593.369 134.986 593.369 134.986" stroke="#212121" stroke-width="1.06068" stroke-miterlimit="10" stroke-linecap="round"/>
<path d="M569.527 133.215C569.294 134.199 569.527 135.084 569.982 135.195C570.437 135.306 571.052 134.617 571.286 133.645C571.519 132.674 571.286 131.788 570.831 131.665C570.376 131.542 569.761 132.243 569.527 133.215Z" fill="#212121"/>
<path d="M558.966 130.644C558.732 131.628 558.966 132.514 559.421 132.625C559.876 132.735 560.491 132.046 560.724 131.075C560.958 130.103 560.724 129.205 560.269 129.094C559.814 128.984 559.187 129.66 558.966 130.644Z" fill="#212121"/>
<path d="M576.081 128.91C575.5 127.887 574.672 127.026 573.674 126.405C572.675 125.784 571.537 125.423 570.363 125.355" stroke="#212121" stroke-width="1.06068" stroke-miterlimit="10" stroke-linecap="round"/>
<path d="M562.273 125.539C561.306 125.116 560.232 124.997 559.195 125.2C558.158 125.402 557.208 125.915 556.47 126.671" stroke="#212121" stroke-width="1.06068" stroke-miterlimit="10" stroke-linecap="round"/>
<path d="M562.987 130.017C563.01 131.664 562.886 133.311 562.618 134.937C562.212 136.991 560.614 137.397 561.02 138.984C561.425 140.57 563.479 140.73 563.479 140.73" stroke="#212121" stroke-width="1.06068" stroke-miterlimit="10" stroke-linecap="round"/>
<path d="M565.617 147.139C566.487 147.416 567.407 147.501 568.314 147.389C569.22 147.276 570.091 146.969 570.867 146.487" stroke="#212121" stroke-width="1.06068" stroke-miterlimit="10" stroke-linecap="round"/>
<path d="M585.094 103.288C585.094 103.288 576.819 96.1289 568.913 96.1289C561.007 96.1289 554.601 100.655 549.707 101.049C544.814 101.443 541.432 96.9038 538.42 102.931C535.408 108.958 546.707 119.131 554.232 120.631C561.757 122.132 572.294 119.881 575.307 119.5C578.193 119.302 581.089 119.302 583.975 119.5C583.975 119.5 581.713 126.659 583.975 128.922C586.238 131.185 586.606 132.686 586.606 134.186C586.736 135.843 586.986 137.487 587.357 139.107L589.619 139.869L590.75 135.724C593.802 132.468 595.889 128.426 596.775 124.051C597.894 117.273 592.25 110.52 592.25 110.52L585.094 103.288Z" fill="#212121"/>
<path d="M553.396 117.544C553.396 117.544 566.269 120.004 576.351 115.809C586.434 111.615 577.741 103.288 577.741 103.288" stroke="white" stroke-width="0.530341" stroke-miterlimit="10" stroke-linecap="round"/>
<path d="M579.868 102.587C580.913 102.587 589.606 109.192 587.86 114.063C586.114 118.934 582.647 119.291 582.647 119.291" stroke="white" stroke-width="0.530341" stroke-miterlimit="10" stroke-linecap="round"/>
<path d="M578.441 252L567.572 246.268C564.778 246.113 562 245.751 559.26 245.186C556.727 244.46 530.734 241.975 530.734 241.975L530.341 248.125C530.341 248.125 559.986 252.111 566.121 252.836C572.257 253.562 577.691 256.453 578.773 258.261C579.855 260.069 582.032 261.877 580.95 266.871C579.868 271.865 572.638 279.172 572.638 279.172C572.293 278.655 590.024 277.376 589.852 275.481C589.47 271.718 587.466 260.721 587.466 260.721L578.441 252Z" fill="#BEEBC3"/>
<path opacity="0.5" d="M578.441 252L567.572 246.268C564.778 246.113 562 245.751 559.26 245.186C556.727 244.46 530.734 241.975 530.734 241.975L530.341 248.125C530.341 248.125 559.986 252.111 566.121 252.836C572.257 253.562 577.691 256.453 578.773 258.261C579.855 260.069 582.032 261.877 580.95 266.871C579.868 271.865 572.638 279.172 572.638 279.172C572.355 278.618 590.061 277.363 589.852 275.481C589.274 270.684 587.466 260.721 587.466 260.721L578.441 252Z" fill="white"/>
<path d="M614.296 191.826C613.337 187.324 606.181 187.927 601.865 185.43C597.549 182.933 587.11 177.152 587.11 177.152L582.057 169.55C581.145 167.501 580.408 165.378 579.856 163.203L579.315 161.703L578.331 163.277C578.958 170.018 579.561 187.275 579.561 187.275L581.725 198.124C581.725 198.124 590.049 233.918 592.213 241.877C594.377 249.835 594.377 255.247 592.938 257.781C591.5 260.315 591.979 261.471 591.979 261.471C591.979 261.471 597.623 257.105 597.279 252.775C596.824 247.683 614.972 194.877 614.296 191.826Z" fill="#BEEBC3"/>
<path opacity="0.5" d="M614.296 191.826C613.804 187.251 606.181 187.927 601.865 185.43C597.549 182.933 587.11 177.152 587.11 177.152L582.057 169.55C581.145 167.501 580.408 165.378 579.856 163.203L579.315 161.703L578.331 163.277C578.958 170.018 579.561 187.275 579.561 187.275L581.725 198.124C581.725 198.124 590.049 233.918 592.213 241.877C594.377 249.835 594.377 255.247 592.938 257.781C591.5 260.315 591.979 261.471 591.979 261.471C591.979 261.471 597.783 257.092 597.279 252.775C596.701 248.138 614.738 195.627 614.296 191.826Z" fill="white"/>
<path d="M582.709 187.312C582.709 187.312 580.447 166.979 579.315 161.702C578.184 156.426 578.946 153.424 574.053 153.424C569.159 153.424 563.134 152.662 564.216 155.306C565.298 157.951 572.823 155.675 574.053 156.807C575.282 157.939 574.422 160.571 574.422 160.571C574.422 160.571 564.585 161.333 564.585 163.966C564.585 166.598 564.966 173.806 566.848 174.507C568.729 175.208 569.479 171.125 569.479 171.125C569.479 171.125 569.86 179.735 571.741 182.798C572.939 184.689 574.328 186.453 575.885 188.062L582.709 187.312Z" fill="white" stroke="#212121" stroke-width="1.06068" stroke-miterlimit="10" stroke-linecap="round"/>
<path d="M575.933 192.958C575.933 192.958 574.802 239.699 576.683 247.19C578.564 254.681 588.733 264.891 593.995 259.995C599.258 255.1 596.639 244.558 596.639 239.663C596.639 234.767 584.589 198.616 584.589 195.971C584.41 193.775 583.9 191.619 583.077 189.575" stroke="#212121" stroke-width="1.06068" stroke-miterlimit="10" stroke-linecap="round"/>
<path d="M576.684 198.616L584.209 197.854" stroke="#212121" stroke-width="1.06068" stroke-miterlimit="10" stroke-linecap="round"/>
<path d="M528.559 221.987L530.01 180.399C530.01 180.399 528.203 179.317 527.477 183.29C526.752 187.263 526.395 195.234 526.395 195.234C526.395 195.234 517.715 189.809 519.891 193.056C522.067 196.304 525.67 203.549 525.67 203.549L512.243 216.919L518.391 219.453L528.559 221.987Z" fill="#BEEBC3"/>
<path opacity="0.5" d="M528.559 221.987L530.01 180.399C530.01 180.399 528.203 179.317 527.477 183.29C526.752 187.263 526.395 195.234 526.395 195.234C526.395 195.234 517.715 189.809 519.891 193.056C522.067 196.304 525.67 203.549 525.67 203.549L512.243 216.919L518.391 219.453L528.559 221.987Z" fill="white"/>
<path d="M546.559 189.686C546.559 189.686 545.871 192.146 548.76 192.146C551.649 192.146 556.728 190.092 556.728 190.092L556.359 186.008C556.359 186.008 549.412 189.391 546.559 189.686Z" fill="#BEEBC3"/>
<path opacity="0.5" d="M546.559 189.686C546.559 189.686 545.871 192.146 548.76 192.146C551.649 192.146 556.728 190.092 556.728 190.092L556.359 186.008C556.359 186.008 549.412 189.391 546.559 189.686Z" fill="white"/>
<path d="M558.966 162.183C558.966 162.183 555.204 184.323 557.466 189.244C559.729 194.164 563.11 193.007 565.741 190.757C568.372 188.506 571.766 182.847 571.766 182.847" stroke="#212121" stroke-width="1.06068" stroke-miterlimit="10" stroke-linecap="round"/>
<path d="M529.247 242.295L530.009 273.181C530.009 273.181 538.616 281.459 555.228 281.459C571.839 281.459 589.865 275.432 589.865 275.432V264.509" stroke="#212121" stroke-width="1.06068" stroke-miterlimit="10" stroke-linecap="round"/>
<path d="M580.077 166.598C580.077 166.598 586.852 173.376 586.852 179.784C586.852 186.193 585.721 187.693 585.721 187.693" stroke="#212121" stroke-width="1.06068" stroke-miterlimit="10" stroke-linecap="round"/>
<path d="M586.09 176.02C586.09 176.02 596.258 182.035 601.902 185.43C607.546 188.825 614.333 188.812 614.333 191.826C614.333 194.84 598.521 246.059 598.521 246.059" stroke="#212121" stroke-width="1.06068" stroke-miterlimit="10" stroke-linecap="round"/>
<path d="M592.496 192.958L588.733 208.026" stroke="#212121" stroke-width="1.06068" stroke-miterlimit="10" stroke-linecap="round"/>
<path d="M529.345 201.802L523.259 189.034" stroke="#212121" stroke-width="0.530341" stroke-miterlimit="10" stroke-linecap="round"/>
<path d="M529.345 205.455L520.222 199.981" stroke="#212121" stroke-width="0.530341" stroke-miterlimit="10" stroke-linecap="round"/>
<path d="M559.114 234.017L557.294 243.144" stroke="#212121" stroke-width="0.530341" stroke-miterlimit="10" stroke-linecap="round"/>
<path d="M608.333 191.47C608.333 191.47 599.221 193.29 590.713 203.623" stroke="#212121" stroke-width="0.530341" stroke-miterlimit="10" stroke-linecap="round"/>
<path d="M602.259 190.916C602.259 190.916 599.8 190.301 591.328 197.595" stroke="#212121" stroke-width="0.530341" stroke-miterlimit="10" stroke-linecap="round"/>
<path d="M559.113 193.905L555.474 222.466L558.511 223.081L560.945 213.967" stroke="#212121" stroke-width="0.530341" stroke-miterlimit="10" stroke-linecap="round"/>
<path d="M561.547 268.667C550.604 277.794 535.419 277.179 535.419 277.179" stroke="#212121" stroke-width="0.530341" stroke-miterlimit="10" stroke-linecap="round"/>
<path d="M515.304 219.059C515.304 219.059 507.865 212.245 497.328 220.917" stroke="#212121" stroke-width="0.530341" stroke-miterlimit="10" stroke-linecap="round"/>
<path d="M558.24 167.729C558.24 167.729 555.228 168.48 551.834 173.757C548.441 179.034 544.31 188.062 547.322 188.812C550.334 189.563 555.929 186.18 555.929 186.18" stroke="#212121" stroke-width="1.06068" stroke-miterlimit="10" stroke-linecap="round"/>
<path d="M569.908 187.693L573.671 191.076" stroke="#212121" stroke-width="1.06068" stroke-miterlimit="10" stroke-linecap="round"/>
<path d="M552.965 171.494C552.965 171.494 539.035 173.376 533.391 173.757C527.747 174.138 528.841 176.217 526.997 177.521C524.022 179.6 489.889 222.885 487.651 227.03C485.413 231.175 485.77 233.057 489.532 234.189C493.295 235.321 530.772 241.914 530.772 241.914L563.884 245.309L566.515 237.018C566.515 237.018 574.212 238.039 575.565 238.039" stroke="#212121" stroke-width="1.06068" stroke-miterlimit="10" stroke-linecap="round"/>
<path d="M562.752 233.968C555.444 231.847 548.38 228.961 541.678 225.357" stroke="#212121" stroke-width="1.06068" stroke-miterlimit="10" stroke-linecap="round"/>
<path d="M538.665 224.595C538.665 224.595 527.599 220.486 521.611 219.736C515.623 218.986 506.45 218.74 506.45 218.74" stroke="#212121" stroke-width="1.06068" stroke-miterlimit="10" stroke-linecap="round"/>
<path d="M528.497 219.699L529.628 189.944" stroke="#212121" stroke-width="1.06068" stroke-miterlimit="10" stroke-linecap="round"/>
<path d="M563.884 245.309C566.467 246.608 569.173 247.646 571.962 248.408" stroke="#212121" stroke-width="1.06068" stroke-miterlimit="10" stroke-linecap="round"/>
<path d="M71.2356 221.335L75.6744 197.067L103.77 185.996C103.77 185.996 105.135 178.456 106.512 178.124C107.889 177.792 109.241 174.692 109.241 174.692L108.565 168.48C108.565 168.48 111.135 158.64 124.058 166.303C124.058 166.303 120.148 168.911 120.824 169.993C121.5 171.076 120.074 174.52 121.783 174.52C123.492 174.52 126.947 176.697 128.693 178.456C129.915 179.769 130.995 181.208 131.915 182.749L146.46 183.585C147.951 183.598 149.435 183.8 150.874 184.188C151.12 177.078 150.247 171.654 148.526 167.435C142.267 152.207 130.857 146.77 129.222 139.144C127.586 131.518 128.41 130.718 128.41 130.718C130.073 129.027 131.291 126.949 131.954 124.672C132.617 122.394 132.705 119.987 132.21 117.667C130.587 109.512 124.328 103.792 101.766 102.71C79.2032 101.628 82.4738 117.114 82.4738 117.114L82.7443 118.196C82.7443 118.196 68.3339 123.116 71.0635 141.309C73.7931 159.501 81.6623 167.41 81.3918 173.118C81.1213 178.825 72.6865 181.002 60.7229 194.028C48.7592 207.055 46.3247 226.649 51.2184 239.429C53.6775 245.715 58.4851 250.955 64.5222 254.866L71.2356 221.335Z" fill="#212121"/>
<path d="M90.0726 223.734V229.22L79.6582 261.41C86.1659 263.133 92.9906 263.276 99.5648 261.828C103.276 260.861 106.823 259.348 110.09 257.339L90.0726 223.734Z" fill="#212121"/>
<path d="M120.012 169.797L121.242 175.332C121.242 175.332 124.93 171.642 132.136 182.848C132.136 182.848 147.112 182.491 151.194 184.533C151.194 184.533 152.042 184.779 154.809 187.718C157.575 190.658 167.977 200.019 167.977 200.019C167.977 200.019 181.33 212.418 182.658 213.377C183.986 214.337 188.966 219.097 192.692 220.757L202.676 198.014L207.127 186.759L209.586 177.497H210.373L210.545 170.03L209.942 161.125C210.04 160.672 210.247 160.25 210.545 159.895C211.576 158.466 212.369 156.879 212.893 155.196C212.893 154.36 212.045 149.415 212.045 149.415C212.045 149.415 211.627 148.185 212.537 148.037C213.447 147.89 216.803 149.058 217.221 151.408L218.451 150.989C219.469 148.556 220.738 146.235 222.238 144.064C224.23 141.481 226.271 139.858 227.537 140.694C227.885 140.934 228.135 141.29 228.244 141.698C228.352 142.106 228.311 142.54 228.128 142.92L224.168 150.202C224.168 150.202 222.422 152.552 224.586 153.388C224.586 153.388 229.271 156.402 229.578 159.046C229.886 161.691 228.189 163.966 226.689 165.91C225.189 167.853 222.545 172.06 222.545 172.06L219.471 174.778L218.242 179.465L219.693 181.273L217.529 190.658L215.967 197.694L215.18 201.962L210.262 218.814L205.344 233.501C205.344 233.501 202.811 241.914 196.675 241.68C190.54 241.447 183.814 238.126 181.638 237.043C179.461 235.961 161.522 226.588 161.522 226.588L157.833 224.841C158.326 226.521 158.538 228.271 158.461 230.02C158.399 233.267 154.907 240.426 153.887 242.049L153.284 254.744C153.046 256.946 153.087 259.169 153.407 261.361C153.948 264.67 156.715 283.391 157.317 285.728C157.317 285.728 151.341 291.141 133.537 293.711C115.733 296.282 107.397 292.112 107.397 292.112L99.4661 287.45L109.241 268.126C109.241 268.126 111.7 262.382 111.454 260.869C111.208 259.356 107.003 252.837 107.003 252.837L91.5723 225.358L90.8469 225.604L88.4493 233.624L79.7808 260.82L68.3705 294.769C68.3705 294.769 65.2474 303.379 63.9564 305.926L60.3538 316.91C60.5539 318.872 61.0385 320.795 61.7923 322.617L52.7305 316.75L54.3412 308.14L56.3454 295.298L58.8045 281.337L60.9685 269.787L64.4236 254.387L65.6532 250.131L68.1123 238.101L72.4404 216.28L76.129 197.596L101.95 187.325L103.561 186.095C103.919 183.717 104.792 181.446 106.118 179.44C107.039 178.121 108.135 176.933 109.376 175.91C109.376 175.91 109.253 174.299 109.167 172.773C109.081 171.248 108.688 168.444 108.688 168.444C108.688 168.444 116.668 171.876 120.012 169.797Z" fill="white"/>
<path d="M85.4248 120.361C85.4248 120.361 90.2078 109.771 99.7738 109.771C109.34 109.771 129.148 128.566 129.148 128.566" stroke="white" stroke-width="0.530341" stroke-miterlimit="10" stroke-linecap="round"/>
<path d="M89.5195 122.034C89.5195 122.034 95.3231 115.884 102.504 118.27C109.684 120.656 110.705 129.205 110.705 129.205" stroke="white" stroke-width="0.530341" stroke-miterlimit="10" stroke-linecap="round"/>
<path d="M84.7361 123.092C84.7361 123.092 76.203 127.877 75.5144 136.77C74.8259 145.663 87.4658 156.241 89.1749 168.21C90.8839 180.178 82.0065 182.896 67.6575 192.811C53.3085 202.725 55.7062 224.927 58.7801 229.712" stroke="white" stroke-width="0.530341" stroke-miterlimit="10" stroke-linecap="round"/>
<path d="M60.4883 232.455C60.4883 232.455 62.5294 236.895 65.6033 238.26" stroke="white" stroke-width="0.530341" stroke-miterlimit="10" stroke-linecap="round"/>
<path d="M85.7684 146.327C85.3643 147.195 85.1831 148.15 85.241 149.106C85.299 150.062 85.5944 150.988 86.1004 151.801C87.8095 154.876 100.855 170.251 99.7731 177.435C98.6911 184.618 91.9162 189.047 91.9162 189.047" stroke="white" stroke-width="0.530341" stroke-miterlimit="10" stroke-linecap="round"/>
<path d="M92.2492 123.092C92.2492 123.092 84.3923 126.511 84.7366 134.371C85.0809 142.231 86.7899 144.285 86.7899 144.285" stroke="white" stroke-width="0.530341" stroke-miterlimit="10" stroke-linecap="round"/>
<path d="M129.148 149.095C131.59 154.624 134.939 159.704 139.059 164.126C145.207 170.276 145.883 179.169 145.883 179.169" stroke="white" stroke-width="0.530341" stroke-miterlimit="10" stroke-linecap="round"/>
<path d="M136.316 168.542C136.316 168.542 139.39 175.725 139.39 180.166" stroke="white" stroke-width="0.530341" stroke-miterlimit="10" stroke-linecap="round"/>
<path d="M119.312 170.449L109.66 179.145C109.66 179.145 108.627 181.777 106.685 185.996C104.742 190.215 105.062 198.297 105.062 198.297L111.013 210.142C111.013 210.142 99.5654 197.005 98.9138 195.382C98.2621 193.758 86.2862 196.685 84.0238 197.657C81.7614 198.629 78.835 200.572 79.4867 203.487C80.1383 206.403 83.0524 210.277 81.7491 210.929C80.4457 211.581 76.8923 209.958 76.8923 211.901C76.8923 213.844 81.1097 221.299 79.167 223.882C77.2243 226.465 64.9164 268.262 64.9164 268.262C64.9164 268.262 72.6872 261.779 70.7445 264.375C68.8018 266.97 59.4202 288.016 59.4202 288.016L55.8545 300.316L64.277 256.601L71.3962 219.699L75.675 197.067C79.8064 195.689 103.771 185.996 103.771 185.996C103.771 185.996 105.664 178.026 109.242 174.692L108.566 168.48C108.566 168.48 115.095 170.768 119.312 170.449Z" fill="#BEEBC3"/>
<path opacity="0.5" d="M119.312 170.449L109.66 179.145C109.66 179.145 108.627 181.777 106.685 185.996C104.742 190.215 105.062 198.297 105.062 198.297L111.013 210.142C111.013 210.142 99.5654 197.005 98.9138 195.382C98.2621 193.758 86.2862 196.685 84.0238 197.657C81.7614 198.629 78.835 200.572 79.4867 203.487C80.1383 206.403 83.0524 210.277 81.7491 210.929C80.4457 211.581 76.8923 209.958 76.8923 211.901C76.8923 213.844 81.1097 221.299 79.167 223.882C77.2243 226.465 64.9164 268.262 64.9164 268.262C64.9164 268.262 72.6872 261.779 70.7445 264.375C68.8018 266.97 59.4202 288.016 59.4202 288.016L55.8545 300.316L64.277 256.601L71.3962 219.699L75.675 197.067C79.8064 195.689 103.771 185.996 103.771 185.996C103.771 185.996 104.287 178.616 109.254 176.033L108.566 168.48C108.566 168.48 115.095 170.768 119.312 170.449Z" fill="white"/>
<path d="M155.239 214.164C155.239 214.164 161.067 204.459 161.719 206.722C162.371 208.985 160.096 216.747 160.096 216.747C160.096 216.747 166.244 214.484 165.604 216.427C164.965 218.371 163.662 219.342 163.981 220.314C164.301 221.286 185.351 232.295 187.946 233.586C190.54 234.878 196.688 227.436 199.602 229.699C202.516 231.963 199.602 239.724 193.774 239.736C187.946 239.749 171.113 232.356 171.113 232.356L157.858 224.644" fill="#BEEBC3"/>
<path opacity="0.5" d="M155.239 214.164C155.239 214.164 161.067 204.459 161.719 206.722C162.371 208.985 160.096 216.747 160.096 216.747C160.096 216.747 166.244 214.484 165.604 216.427C164.965 218.371 163.662 219.342 163.981 220.314C164.301 221.286 185.351 232.295 187.946 233.586C190.54 234.878 196.688 227.436 199.602 229.699C202.516 231.963 199.602 239.724 193.774 239.736C187.946 239.749 171.113 232.356 171.113 232.356L157.907 224.668" fill="white"/>
<path d="M120.282 253.353C120.282 253.353 158.128 233.279 151.98 240.721C145.833 248.163 125.459 256.601 120.282 253.353Z" fill="#BEEBC3"/>
<path opacity="0.5" d="M120.282 253.353C120.282 253.353 158.128 233.279 151.98 240.721C145.833 248.163 125.459 256.601 120.282 253.353Z" fill="white"/>
<path d="M108.564 168.542C108.564 168.542 108.835 173.708 109.659 179.145C110.483 184.582 110.2 184.582 115.364 191.101C120.528 197.62 125.963 203.069 126.774 201.987" stroke="#212121" stroke-width="1.06068" stroke-miterlimit="10" stroke-linecap="round"/>
<path d="M127.046 200.081C127.046 200.081 127.587 190.56 125.693 184.311C123.8 178.063 121.07 175.873 121.07 174.471C120.978 173.01 120.798 171.556 120.529 170.117" stroke="#212121" stroke-width="1.06068" stroke-miterlimit="10" stroke-linecap="round"/>
<path d="M108.566 176.426C106.394 178.383 104.874 180.959 104.213 183.807C103.401 188.149 102.59 193.315 102.59 193.315L111.012 210.179C111.746 207.242 112.84 204.408 114.271 201.741C114.979 200.424 115.897 199.232 116.988 198.21" stroke="#212121" stroke-width="1.06068" stroke-miterlimit="10" stroke-linecap="round"/>
<path d="M128.951 195.455C129.545 195.306 130.164 195.277 130.77 195.37C131.376 195.463 131.957 195.676 132.48 195.996C134.656 197.091 139.009 202.798 139.009 202.798C139.009 202.798 136.021 188.653 130.857 181.322C125.693 173.991 122.151 174.52 122.151 174.52" stroke="#212121" stroke-width="1.06068" stroke-miterlimit="10" stroke-linecap="round"/>
<path d="M101.766 187.029L75.6752 197.066C75.6752 197.066 66.1707 248.999 62.6295 262.861C59.0884 276.724 53.125 315.889 53.125 315.889L60.1827 317.242L62.6418 310.181" stroke="#212121" stroke-linecap="round" stroke-linejoin="round"/>
<path d="M63.9941 306.122C63.9941 306.122 65.6172 303.662 69.9698 290.132C74.3225 276.601 85.9541 243.39 87.9091 236.834C89.8641 230.278 91.438 225.96 91.438 225.96" stroke="#212121" stroke-width="1.06068" stroke-miterlimit="10" stroke-linecap="round"/>
<path d="M86.8135 217.977C86.8135 217.977 108.823 257.338 110.728 259.036C112.634 260.733 109.917 265.285 109.364 267.732" stroke="#212121" stroke-width="1.06068" stroke-miterlimit="10" stroke-linecap="round"/>
<path d="M106.93 272.677L99.8721 287.364C99.8721 287.364 104.495 294.437 124.058 294.437C135.699 294.472 147.174 291.669 157.489 286.269C157.489 286.269 152.866 261.804 153.137 257.449C153.407 253.095 153.961 241.68 153.961 241.68C153.961 241.68 158.879 234.3 158.301 228.629C157.723 222.959 155.313 216.39 155.313 215.308C155.313 214.226 154.772 202.528 154.772 202.528" stroke="#212121" stroke-width="1.06068" stroke-miterlimit="10" stroke-linecap="round"/>
<path d="M124.021 248.507L143.497 236.551" stroke="#212121" stroke-width="0.530341" stroke-miterlimit="10" stroke-linecap="round"/>
<path d="M134.275 244.755L144.862 238.605" stroke="#212121" stroke-width="0.530341" stroke-miterlimit="10" stroke-linecap="round"/>
<path d="M192.556 221.016L188.585 230.745" stroke="#212121" stroke-width="0.530341" stroke-miterlimit="10" stroke-linecap="round"/>
<path d="M190.971 225.271L187.221 229.035" stroke="#212121" stroke-width="0.530341" stroke-miterlimit="10" stroke-linecap="round"/>
<path d="M79.9533 259.799C79.9533 259.799 73.4612 267.314 69.0225 270.389" stroke="#212121" stroke-width="0.530341" stroke-miterlimit="10" stroke-linecap="round"/>
<path d="M76.2029 261.841C76.2029 261.841 64.9279 270.722 62.1982 272.776" stroke="#212121" stroke-width="0.530341" stroke-miterlimit="10" stroke-linecap="round"/>
<path d="M78.207 198.616C81.6059 203.424 84.6864 208.449 87.4287 213.66" stroke="#212121" stroke-width="0.530341" stroke-miterlimit="10" stroke-linecap="round"/>
<path d="M88.499 216.046L90.8844 220.142" stroke="#212121" stroke-width="0.530341" stroke-miterlimit="10" stroke-linecap="round"/>
<path d="M155.313 215.308L158.301 200.08" stroke="#212121" stroke-width="0.530341" stroke-miterlimit="10" stroke-linecap="round"/>
<path d="M156.407 216.39L161.018 209.871" stroke="#212121" stroke-width="0.530341" stroke-miterlimit="10" stroke-linecap="round"/>
<path d="M91.4373 225.911L78.3916 218.838" stroke="#212121" stroke-width="0.530341" stroke-miterlimit="10" stroke-linecap="round"/>
<path d="M126.505 203.34C126.505 203.34 131.423 213.18 133.034 220.204" stroke="#212121" stroke-width="0.530341" stroke-miterlimit="10" stroke-linecap="round"/>
<path d="M207.226 186.205C208.526 186.109 209.833 186.278 211.067 186.701C212.301 187.123 213.437 187.792 214.406 188.665" stroke="#212121" stroke-width="0.530341" stroke-miterlimit="10" stroke-linecap="round"/>
<path d="M57.8457 309.136L61.2147 310.39" stroke="#212121" stroke-width="0.530341" stroke-miterlimit="10" stroke-linecap="round"/>
<path d="M53.0377 316.381C53.08 321.058 52.8336 325.732 52.3 330.379C51.4885 336.098 51.759 349.149 52.841 353.221C53.923 357.292 54.4763 358.141 55.5583 355.681C56.6403 353.221 59.911 338.829 59.911 338.829C59.911 338.829 60.452 348.337 62.8988 347.526C65.3456 346.714 63.9931 342.089 63.9931 338.005C63.9931 333.921 64.2636 332.568 63.9931 329.309C63.7226 326.049 60.0954 317.992 60.0954 317.992" fill="white"/>
<path d="M53.0377 316.381C53.08 321.058 52.8336 325.732 52.3 330.379C51.4885 336.098 51.759 349.149 52.841 353.221C53.923 357.292 54.4763 358.141 55.5583 355.681C56.6403 353.221 59.911 338.829 59.911 338.829C59.911 338.829 60.452 348.337 62.8988 347.526C65.3456 346.714 63.9931 342.089 63.9931 338.005C63.9931 333.921 64.2636 332.568 63.9931 329.309C63.7226 326.049 60.0954 317.992 60.0954 317.992" stroke="#212121" stroke-miterlimit="10" stroke-linecap="round"/>
<path d="M210.398 177.288C210.274 174.883 210.274 172.473 210.398 170.067C210.619 167.804 209.721 164.422 209.943 161.457C210.164 158.493 213.103 157.398 212.648 153.56C212.193 149.723 211.295 149.267 211.971 148.37C212.648 147.472 216.89 148.812 217.16 151.297C217.401 153.854 217.401 156.428 217.16 158.985C216.939 159.661 218.513 163.905 217.615 165.75C217.101 166.749 216.721 167.812 216.484 168.911" stroke="#212121" stroke-width="0.880843" stroke-miterlimit="10" stroke-linecap="round"/>
<path d="M218.07 151.1C218.07 151.1 223.259 140.718 226.198 140.484C229.136 140.251 228.226 142.945 227.317 144.322C226.407 145.7 223.48 150.645 223.259 152.687C223.038 154.728 220.32 161.481 220.32 161.481" stroke="#212121" stroke-width="0.880843" stroke-miterlimit="10" stroke-linecap="round"/>
<path d="M223.296 152.687C223.296 152.687 231.202 157.422 229.444 161.297C227.685 165.171 226.726 166.721 225.374 166.217C224.175 165.604 223.102 164.769 222.214 163.757" stroke="#212121" stroke-width="0.880843" stroke-miterlimit="10" stroke-linecap="round"/>
<path d="M226.197 166.229C226.197 166.229 224.156 169.612 222.582 171.653C221.677 172.833 220.604 173.873 219.398 174.741L218.438 178.074" stroke="#212121" stroke-width="0.880843" stroke-miterlimit="10" stroke-linecap="round"/>
<path d="M131.397 182.675C131.397 182.675 150.148 182.404 152.595 185.393C155.042 188.382 184.674 215.579 188.252 218.026C191.83 220.474 192.605 221.016 192.605 221.016C192.605 221.016 207.274 187.804 207.274 186.205C207.274 184.606 209.733 177.238 209.733 177.238C209.733 177.238 214.356 177.78 215.45 177.78C216.545 177.78 219.52 181.322 219.52 181.322C219.52 181.322 215.45 197.903 215.45 199.773C215.45 201.642 207.839 227.51 204.298 235.444C200.757 243.378 195.876 242.234 187.994 239.786C180.113 237.338 158.645 225.112 158.645 225.112" stroke="#212121" stroke-width="1.06068" stroke-miterlimit="10" stroke-linecap="round"/>
<path d="M99.8714 287.364C99.8714 287.364 88.9898 314.597 86.0512 333.134C83.1125 351.671 84.3667 395.017 83.5183 399.655C82.6699 404.292 70.8907 426.174 70.8907 436.704C70.8907 447.233 64.583 501.539 64.583 501.539L68.7881 504.061C68.7881 504.061 83.5429 458.549 88.9898 446.802C94.4368 435.055 102.035 407.232 104.138 401.758C106.241 396.284 120.983 352.495 121.819 347.021C122.655 341.547 127.709 328.079 127.709 328.079C127.709 328.079 138.652 395.017 140.754 408.917C142.857 422.816 157.587 498.169 157.587 498.169C158.555 498.406 159.543 498.546 160.538 498.587C161.768 498.587 162.223 496.484 162.223 496.484C162.223 496.484 168.112 443.014 166.428 428.696C164.743 414.378 159.702 396.715 159.702 391.647C159.702 386.579 167.276 342.814 167.276 327.685C167.276 312.555 157.44 286.294 157.44 286.294C157.44 286.294 122.532 303.908 99.8714 287.364Z" fill="#212121"/>
<path d="M159.543 394.427C159.543 394.427 155.793 410.491 150.666 419.028" stroke="white" stroke-width="0.530341" stroke-miterlimit="10" stroke-linecap="round"/>
<path d="M158.522 410.836C158.522 410.836 155.449 422.448 149.301 427.921" stroke="white" stroke-width="0.530341" stroke-miterlimit="10" stroke-linecap="round"/>
<path d="M85.7695 405.707C85.7695 405.707 88.1549 419.717 90.8845 425.523" stroke="white" stroke-width="0.530341" stroke-miterlimit="10" stroke-linecap="round"/>
<path d="M85.0811 413.911C85.0811 413.911 87.1344 423.825 90.8846 429.631" stroke="white" stroke-width="0.530341" stroke-miterlimit="10" stroke-linecap="round"/>
<path d="M128.804 328.14L142.464 316.86" stroke="white" stroke-width="0.530341" stroke-miterlimit="10" stroke-linecap="round"/>
<path d="M135.296 323.355L151.354 316.171" stroke="white" stroke-width="0.530341" stroke-miterlimit="10" stroke-linecap="round"/>
<path d="M100.105 304.215C100.105 304.215 110.704 311.042 116.852 316.86" stroke="white" stroke-width="0.530341" stroke-miterlimit="10" stroke-linecap="round"/>
<path d="M65.0263 501.502C65.0263 501.502 49.042 515.032 49.042 521.748C49.042 528.464 55.3496 528.059 62.0877 521.748C68.8257 515.438 69.1699 502.437 69.1699 502.437L65.0263 501.502Z" fill="white" stroke="#212121" stroke-width="1.06068" stroke-miterlimit="10" stroke-linecap="round"/>
<path d="M157.588 498.169C157.588 498.169 163.059 511.638 168.961 517.542C174.863 523.446 178.22 525.537 178.22 519.215C178.22 512.892 174.433 505.746 162.236 496.483C162.223 496.483 165.592 499.005 157.588 498.169Z" fill="white" stroke="#212121" stroke-width="1.06068" stroke-miterlimit="10" stroke-linecap="round"/>
<path d="M101.126 125.355C100.031 124.949 98.9986 124.457 97.9289 124.002C96.8592 123.547 94.9042 123.301 94.1664 126.659C93.0721 131.579 100.683 135.638 98.2363 139.71C96.7141 142.187 94.4263 144.1 91.7196 145.159C91.279 145.31 90.8199 145.401 90.3548 145.429C88.1785 145.7 84.6496 145.429 85.7316 149.23C86.8137 153.031 90.3548 156.303 92.5311 156.303H94.7074C94.7074 156.303 97.1666 163.683 106.388 167.718C115.61 171.752 121.881 171.531 124.057 166.365C126.233 161.199 127.869 156.844 127.869 150.042C127.869 143.24 125.41 131.825 125.41 131.825C125.41 131.825 123.233 134.826 114.811 131.013C109.241 128.492 104.028 126.45 101.126 125.355Z" fill="white"/>
<mask id="mask1_99_758" style="mask-type:luminance" maskUnits="userSpaceOnUse" x="85" y="123" width="43" height="48">
<path d="M101.126 125.355C100.031 124.949 98.9986 124.457 97.9289 124.002C96.8592 123.547 94.9042 123.301 94.1664 126.659C93.0721 131.579 100.683 135.638 98.2363 139.71C96.7141 142.187 94.4263 144.1 91.7196 145.159C91.279 145.31 90.8199 145.401 90.3548 145.429C88.1785 145.7 84.6496 145.429 85.7316 149.23C86.8137 153.031 90.3548 156.303 92.5311 156.303H94.7074C94.7074 156.303 97.1666 163.683 106.388 167.718C115.61 171.752 121.881 171.531 124.057 166.365C126.233 161.199 127.869 156.844 127.869 150.042C127.869 143.24 125.41 131.825 125.41 131.825C125.41 131.825 123.233 134.826 114.811 131.013C109.241 128.492 104.028 126.45 101.126 125.355Z" fill="white"/>
</mask>
<g mask="url(#mask1_99_758)">
<g style="mix-blend-mode:multiply" opacity="0.5">
<path d="M114.823 131.013C114.823 131.013 101.827 130.287 99.8839 130.607C97.9412 130.927 100.204 136.758 99.5643 142.588C98.9249 148.418 99.2323 157.816 101.827 160.731C104.888 163.737 108.132 166.551 111.54 169.157C111.54 169.157 101.568 167.545 97.9412 163.326C94.314 159.107 93.7361 156.844 93.7361 156.844C93.7361 156.844 85.3136 151.924 84.662 148.098C84.0103 144.273 89.5802 146.303 92.2484 144.408C93.7484 143.375 99.9577 141.432 98.3962 136.253C96.8346 131.075 94.314 130.103 94.2157 126.634C94.1419 124.174 96.3059 123.461 97.6338 123.239C98.2325 123.139 98.8477 123.229 99.3921 123.498L114.823 131.013Z" fill="#BEEBC3"/>
</g>
</g>
<path d="M101.126 125.355C100.031 124.949 98.9986 124.457 97.9289 124.002C96.8592 123.547 94.9042 123.301 94.1664 126.659C93.0721 131.579 100.683 135.638 98.2363 139.71C96.7141 142.187 94.4263 144.1 91.7196 145.159C91.279 145.31 90.8199 145.401 90.3548 145.429C88.1785 145.7 84.6496 145.429 85.7316 149.23C86.8137 153.031 90.3548 156.303 92.5311 156.303H94.7074C94.7074 156.303 97.1666 163.683 106.388 167.718C115.61 171.752 121.881 171.531 124.057 166.365C126.233 161.199 127.869 156.844 127.869 150.042C127.869 143.24 125.41 131.825 125.41 131.825C125.41 131.825 123.233 134.826 114.811 131.013C109.241 128.492 104.028 126.45 101.126 125.355Z" stroke="#212121" stroke-width="1.06068" stroke-miterlimit="10" stroke-linecap="round"/>
<path d="M110.73 141.469C110.902 142.502 110.619 143.412 110.091 143.498C109.562 143.584 109.021 142.809 108.861 141.776C108.701 140.743 108.984 139.82 109.5 139.734C110.017 139.648 110.558 140.484 110.73 141.469Z" fill="#212121"/>
<path d="M121.979 139.587C122.139 140.62 121.856 141.53 121.34 141.616C120.823 141.702 120.27 140.927 120.11 139.894C119.95 138.861 120.221 137.951 120.737 137.864C121.254 137.778 121.807 138.553 121.979 139.587Z" fill="#212121"/>
<path d="M104.213 136.45C104.901 135.427 105.834 134.592 106.927 134.023C108.021 133.454 109.239 133.167 110.471 133.19" stroke="#212121" stroke-width="1.06068" stroke-miterlimit="10" stroke-linecap="round"/>
<path d="M118.894 134.002C119.938 133.637 121.069 133.598 122.136 133.89C123.203 134.182 124.156 134.792 124.869 135.638" stroke="#212121" stroke-width="1.06068" stroke-miterlimit="10" stroke-linecap="round"/>
<path d="M117.811 138.627C117.661 140.346 117.661 142.075 117.811 143.794C118.082 145.971 119.705 146.512 119.164 148.148C118.623 149.784 116.446 149.772 116.446 149.772" stroke="#212121" stroke-width="1.06068" stroke-miterlimit="10" stroke-linecap="round"/>
<path d="M113.73 156.303C112.798 156.523 111.831 156.539 110.893 156.35C109.955 156.161 109.068 155.772 108.295 155.208" stroke="#212121" stroke-width="1.06068" stroke-miterlimit="10" stroke-linecap="round"/>
</g>
<defs>
<clipPath id="clip0_99_758">
<rect width="696" height="527" fill="white"/>
</clipPath>
</defs>
</svg>
