<svg width="183" height="184" viewBox="0 0 183 184" fill="none" xmlns="http://www.w3.org/2000/svg">
<g clip-path="url(#clip0_85_2823)">
<path d="M118.522 13.6978C118.522 13.6978 89.4834 2.28953 61.7113 18.3899C33.9392 34.4902 20.5985 67.6169 9.08784 94.1299C-2.42286 120.643 5.35464 148.155 27.2341 161.21C49.1136 174.266 63.2741 156.313 93.4801 156.262C123.686 156.211 131.932 160.921 156.538 143.906C181.144 126.891 184.556 85.1812 163.939 53.6723C143.322 22.1633 118.522 13.6978 118.522 13.6978Z" fill="#BEEBC3"/>
<path opacity="0.7" d="M118.522 13.6978C118.522 13.6978 89.4834 2.28953 61.7113 18.3899C33.9392 34.4902 20.5985 67.6169 9.08784 94.1299C-2.42286 120.643 5.35464 148.155 27.2341 161.21C49.1136 174.266 63.2741 156.313 93.4801 156.262C123.686 156.211 131.932 160.921 156.538 143.906C181.144 126.891 184.556 85.1812 163.939 53.6723C143.322 22.1633 118.522 13.6978 118.522 13.6978Z" fill="white"/>
<path d="M44.286 173.41V160.38C44.1423 160.428 43.9956 160.466 43.8468 160.493C43.5687 160.559 43.2539 160.625 42.9025 160.691L41.9692 160.863C41.6984 160.918 41.5557 160.944 41.541 160.944V159.366C41.7606 159.315 42.0205 159.242 42.3096 159.154C42.614 159.058 42.9133 158.947 43.2063 158.821C43.5148 158.691 43.8082 158.528 44.0811 158.334C44.3528 158.147 44.5926 157.917 44.7911 157.653H46.3649V173.41H44.286Z" fill="#263238"/>
<path d="M84.8428 173.41V171.946L88.8468 165.702C89.1469 165.237 89.4214 164.801 89.674 164.399C89.9271 163.998 90.1357 163.571 90.2962 163.125C90.4684 162.629 90.5514 162.106 90.5414 161.581C90.5668 160.988 90.4408 160.398 90.1754 159.868C90.0506 159.659 89.8693 159.489 89.6523 159.379C89.4353 159.269 89.1916 159.223 88.9493 159.245C88.7405 159.232 88.5313 159.262 88.3343 159.333C88.1374 159.403 87.9568 159.513 87.8037 159.655C87.5168 159.95 87.3211 160.321 87.2401 160.724C87.1317 161.19 87.0789 161.666 87.0827 162.144V162.638H85.0002V162.093C84.9777 161.264 85.1016 160.438 85.3662 159.652C85.5944 159.006 86.0242 158.45 86.5923 158.067C87.2699 157.663 88.0514 157.467 88.8395 157.503C90.1095 157.503 91.0575 157.869 91.6797 158.583C92.3019 159.297 92.613 160.3 92.613 161.57C92.624 162.169 92.5413 162.767 92.3677 163.341C92.2114 163.836 92.0002 164.313 91.7382 164.761C91.4796 165.2 91.1941 165.654 90.8818 166.123L87.262 171.646H92.2433V173.395L84.8428 173.41Z" fill="#263238"/>
<path d="M130.113 173.585C129.37 173.612 128.631 173.444 127.972 173.098C127.408 172.78 126.959 172.29 126.691 171.7C126.392 171.02 126.246 170.283 126.263 169.541V169.014H128.324V169.38C128.333 169.805 128.388 170.229 128.488 170.642C128.568 170.988 128.752 171.301 129.015 171.539C129.329 171.779 129.72 171.896 130.113 171.868C130.529 171.896 130.939 171.765 131.263 171.502C131.539 171.224 131.721 170.868 131.786 170.481C131.882 169.981 131.928 169.472 131.921 168.962C131.952 168.257 131.794 167.556 131.464 166.931C131.294 166.661 131.057 166.439 130.776 166.287C130.495 166.135 130.18 166.058 129.861 166.064C129.812 166.057 129.763 166.057 129.714 166.064H129.564V163.955H129.839C130.13 163.972 130.422 163.928 130.697 163.828C130.971 163.728 131.222 163.574 131.435 163.374C131.757 163.01 131.918 162.407 131.918 161.565C131.944 160.973 131.818 160.383 131.552 159.853C131.31 159.424 130.82 159.212 130.121 159.212C129.422 159.212 128.935 159.446 128.701 159.922C128.445 160.498 128.313 161.122 128.313 161.752V162.085H126.27V161.54C126.25 160.797 126.396 160.059 126.699 159.38C126.974 158.796 127.426 158.314 127.991 158.001C128.663 157.68 129.399 157.514 130.145 157.514C130.89 157.514 131.626 157.68 132.298 158.001C132.862 158.318 133.312 158.804 133.583 159.391C133.885 160.074 134.031 160.816 134.011 161.562C134.05 162.366 133.837 163.162 133.4 163.838C132.999 164.401 132.418 164.812 131.753 165.002C132.217 165.134 132.638 165.387 132.972 165.734C133.321 166.118 133.583 166.572 133.74 167.066C133.931 167.674 134.022 168.308 134.011 168.944C134.029 169.774 133.897 170.601 133.623 171.385C133.392 172.043 132.956 172.608 132.379 172.999C131.699 173.417 130.91 173.621 130.113 173.585Z" fill="#263238"/>
<g opacity="0.3">
<path d="M140.01 100.338H113.46C113.412 100.338 113.365 100.318 113.331 100.284C113.297 100.25 113.277 100.203 113.277 100.155V78.2494C113.277 78.2009 113.297 78.1543 113.331 78.12C113.365 78.0857 113.412 78.0664 113.46 78.0664H122.358C122.406 78.0664 122.453 78.0857 122.487 78.12C122.522 78.1543 122.541 78.2009 122.541 78.2494V79.1351C122.541 79.3438 122.624 79.544 122.771 79.6916C122.919 79.8391 123.119 79.922 123.328 79.922C123.536 79.922 123.737 79.8391 123.884 79.6916C124.032 79.544 124.115 79.3438 124.115 79.1351V78.2494C124.115 78.2009 124.134 78.1543 124.168 78.12C124.203 78.0857 124.249 78.0664 124.298 78.0664H129.169C129.218 78.0664 129.264 78.0857 129.298 78.12C129.333 78.1543 129.352 78.2009 129.352 78.2494V79.1351C129.345 79.2427 129.36 79.3507 129.396 79.4523C129.432 79.554 129.488 79.6471 129.562 79.7259C129.636 79.8047 129.725 79.8676 129.824 79.9105C129.923 79.9535 130.029 79.9757 130.137 79.9757C130.245 79.9757 130.352 79.9535 130.451 79.9105C130.55 79.8676 130.639 79.8047 130.712 79.7259C130.786 79.6471 130.842 79.554 130.879 79.4523C130.915 79.3507 130.93 79.2427 130.922 79.1351V78.2494C130.922 78.2009 130.941 78.1543 130.976 78.12C131.01 78.0857 131.057 78.0664 131.105 78.0664H140.006C140.055 78.0664 140.101 78.0857 140.136 78.12C140.17 78.1543 140.189 78.2009 140.189 78.2494V100.155C140.189 100.202 140.171 100.248 140.137 100.283C140.103 100.317 140.058 100.337 140.01 100.338ZM113.658 99.9715H139.812V78.4324H131.292V79.1351C131.301 79.2918 131.277 79.4485 131.224 79.5959C131.17 79.7432 131.086 79.878 130.979 79.992C130.871 80.106 130.741 80.1968 130.597 80.2589C130.453 80.3209 130.298 80.353 130.141 80.353C129.984 80.353 129.829 80.3209 129.685 80.2589C129.541 80.1968 129.411 80.106 129.303 79.992C129.195 79.878 129.112 79.7432 129.058 79.5959C129.004 79.4485 128.981 79.2918 128.99 79.1351V78.4324H124.484V79.1351C124.484 79.4409 124.363 79.7341 124.147 79.9504C123.93 80.1666 123.637 80.288 123.331 80.288C123.026 80.288 122.732 80.1666 122.516 79.9504C122.3 79.7341 122.178 79.4409 122.178 79.1351V78.4324H113.647L113.658 99.9715Z" fill="black"/>
<path d="M118.401 87.931H115.067C115.018 87.931 114.972 87.9117 114.937 87.8774C114.903 87.8431 114.884 87.7965 114.884 87.748V84.4174C114.884 84.3688 114.903 84.3223 114.937 84.288C114.972 84.2537 115.018 84.2344 115.067 84.2344H118.401C118.45 84.2344 118.496 84.2537 118.53 84.288C118.565 84.3223 118.584 84.3688 118.584 84.4174V87.748C118.584 87.7965 118.565 87.8431 118.53 87.8774C118.496 87.9117 118.45 87.931 118.401 87.931ZM115.25 87.565H118.218V84.6004H115.25V87.565Z" fill="black"/>
<path d="M123.405 87.931H120.071C120.022 87.931 119.976 87.9117 119.941 87.8774C119.907 87.8431 119.888 87.7965 119.888 87.748V84.4174C119.888 84.3688 119.907 84.3223 119.941 84.288C119.976 84.2537 120.022 84.2344 120.071 84.2344H123.405C123.453 84.2344 123.5 84.2537 123.534 84.288C123.569 84.3223 123.588 84.3688 123.588 84.4174V87.748C123.588 87.7965 123.569 87.8431 123.534 87.8774C123.5 87.9117 123.453 87.931 123.405 87.931ZM120.254 87.565H123.222V84.6004H120.254V87.565Z" fill="black"/>
<path d="M128.404 87.931H125.07C125.021 87.931 124.975 87.9117 124.94 87.8774C124.906 87.8431 124.887 87.7965 124.887 87.748V84.4174C124.887 84.3688 124.906 84.3223 124.94 84.288C124.975 84.2537 125.021 84.2344 125.07 84.2344H128.404C128.453 84.2344 128.499 84.2537 128.533 84.288C128.568 84.3223 128.587 84.3688 128.587 84.4174V87.748C128.587 87.7965 128.568 87.8431 128.533 87.8774C128.499 87.9117 128.453 87.931 128.404 87.931ZM125.253 87.565H128.221V84.6004H125.253V87.565Z" fill="black"/>
<path d="M133.404 87.931H130.07C130.021 87.931 129.975 87.9117 129.94 87.8774C129.906 87.8431 129.887 87.7965 129.887 87.748V84.4174C129.887 84.3688 129.906 84.3223 129.94 84.288C129.975 84.2537 130.021 84.2344 130.07 84.2344H133.404C133.453 84.2344 133.499 84.2537 133.533 84.288C133.568 84.3223 133.587 84.3688 133.587 84.4174V87.748C133.587 87.7965 133.568 87.8431 133.533 87.8774C133.499 87.9117 133.453 87.931 133.404 87.931ZM130.253 87.565H133.225V84.6004H130.256L130.253 87.565Z" fill="black"/>
<path d="M138.407 87.931H135.073C135.024 87.931 134.978 87.9117 134.943 87.8774C134.909 87.8431 134.89 87.7965 134.89 87.748V84.4174C134.89 84.3688 134.909 84.3223 134.943 84.288C134.978 84.2537 135.024 84.2344 135.073 84.2344H138.407C138.455 84.2344 138.502 84.2537 138.536 84.288C138.571 84.3223 138.59 84.3688 138.59 84.4174V87.748C138.59 87.7965 138.571 87.8431 138.536 87.8774C138.502 87.9117 138.455 87.931 138.407 87.931ZM135.256 87.565H138.224V84.6004H135.256V87.565Z" fill="black"/>
<path d="M118.401 93.0733H115.067C115.019 93.0724 114.973 93.0528 114.938 93.0187C114.904 92.9845 114.885 92.9385 114.884 92.8903V89.556C114.884 89.5075 114.903 89.461 114.937 89.4266C114.972 89.3923 115.018 89.373 115.067 89.373H118.401C118.45 89.373 118.496 89.3923 118.53 89.4266C118.565 89.461 118.584 89.5075 118.584 89.556V92.8903C118.584 92.9388 118.565 92.9854 118.53 93.0197C118.496 93.054 118.45 93.0733 118.401 93.0733ZM115.25 92.7073H118.218V89.739H115.25V92.7073Z" fill="black"/>
<path d="M123.405 93.0733H120.071C120.022 93.0733 119.976 93.054 119.941 93.0197C119.907 92.9854 119.888 92.9388 119.888 92.8903V89.556C119.888 89.5075 119.907 89.461 119.941 89.4266C119.976 89.3923 120.022 89.373 120.071 89.373H123.405C123.453 89.373 123.5 89.3923 123.534 89.4266C123.569 89.461 123.588 89.5075 123.588 89.556V92.8903C123.587 92.9385 123.567 92.9845 123.533 93.0187C123.499 93.0528 123.453 93.0724 123.405 93.0733ZM120.254 92.7073H123.222V89.739H120.254V92.7073Z" fill="black"/>
<path d="M128.404 93.0733H125.07C125.021 93.0724 124.975 93.0528 124.941 93.0187C124.907 92.9845 124.888 92.9385 124.887 92.8903V89.556C124.887 89.5075 124.906 89.461 124.94 89.4266C124.975 89.3923 125.021 89.373 125.07 89.373H128.404C128.453 89.373 128.499 89.3923 128.533 89.4266C128.568 89.461 128.587 89.5075 128.587 89.556V92.8903C128.587 92.9388 128.568 92.9854 128.533 93.0197C128.499 93.054 128.453 93.0733 128.404 93.0733ZM125.253 92.7073H128.221V89.739H125.253V92.7073Z" fill="black"/>
<path d="M133.404 93.0733H130.07C130.021 93.0724 129.975 93.0528 129.941 93.0187C129.907 92.9845 129.888 92.9385 129.887 92.8903V89.556C129.887 89.5075 129.906 89.461 129.94 89.4266C129.975 89.3923 130.021 89.373 130.07 89.373H133.404C133.453 89.373 133.499 89.3923 133.533 89.4266C133.568 89.461 133.587 89.5075 133.587 89.556V92.8903C133.587 92.9388 133.568 92.9854 133.533 93.0197C133.499 93.054 133.453 93.0733 133.404 93.0733ZM130.253 92.7073H133.225V89.739H130.256L130.253 92.7073Z" fill="black"/>
<path d="M138.407 93.0733H135.073C135.024 93.0733 134.978 93.054 134.943 93.0197C134.909 92.9854 134.89 92.9388 134.89 92.8903V89.556C134.89 89.5075 134.909 89.461 134.943 89.4266C134.978 89.3923 135.024 89.373 135.073 89.373H138.407C138.455 89.373 138.502 89.3923 138.536 89.4266C138.571 89.461 138.59 89.5075 138.59 89.556V92.8903C138.589 92.9385 138.569 92.9845 138.535 93.0187C138.501 93.0528 138.455 93.0724 138.407 93.0733ZM135.256 92.7073H138.224V89.739H135.256V92.7073Z" fill="black"/>
<path d="M118.401 98.2227H115.067C115.018 98.2227 114.972 98.2034 114.937 98.1691C114.903 98.1348 114.884 98.0883 114.884 98.0397V94.7055C114.885 94.6572 114.904 94.6112 114.938 94.5771C114.973 94.543 115.019 94.5234 115.067 94.5225H118.401C118.45 94.5225 118.496 94.5417 118.53 94.5761C118.565 94.6104 118.584 94.6569 118.584 94.7055V98.0397C118.584 98.0883 118.565 98.1348 118.53 98.1691C118.496 98.2034 118.45 98.2227 118.401 98.2227ZM115.25 97.8567H118.218V94.8885H115.25V97.8567Z" fill="black"/>
<path d="M123.405 98.2227H120.071C120.022 98.2227 119.976 98.2034 119.941 98.1691C119.907 98.1348 119.888 98.0883 119.888 98.0397V94.7055C119.888 94.6569 119.907 94.6104 119.941 94.5761C119.976 94.5417 120.022 94.5225 120.071 94.5225H123.405C123.453 94.5234 123.499 94.543 123.533 94.5771C123.567 94.6112 123.587 94.6572 123.588 94.7055V98.0397C123.588 98.0883 123.569 98.1348 123.534 98.1691C123.5 98.2034 123.453 98.2227 123.405 98.2227ZM120.254 97.8567H123.222V94.8885H120.254V97.8567Z" fill="black"/>
<path d="M128.404 98.2227H125.07C125.021 98.2227 124.975 98.2034 124.94 98.1691C124.906 98.1348 124.887 98.0883 124.887 98.0397V94.7055C124.888 94.6572 124.907 94.6112 124.941 94.5771C124.975 94.543 125.021 94.5234 125.07 94.5225H128.404C128.453 94.5225 128.499 94.5417 128.533 94.5761C128.568 94.6104 128.587 94.6569 128.587 94.7055V98.0397C128.587 98.0883 128.568 98.1348 128.533 98.1691C128.499 98.2034 128.453 98.2227 128.404 98.2227ZM125.253 97.8567H128.221V94.8885H125.253V97.8567Z" fill="black"/>
<path d="M133.404 98.2227H130.07C130.021 98.2227 129.975 98.2034 129.94 98.1691C129.906 98.1348 129.887 98.0883 129.887 98.0397V94.7055C129.888 94.6572 129.907 94.6112 129.941 94.5771C129.975 94.543 130.021 94.5234 130.07 94.5225H133.404C133.453 94.5225 133.499 94.5417 133.533 94.5761C133.568 94.6104 133.587 94.6569 133.587 94.7055V98.0397C133.587 98.0883 133.568 98.1348 133.533 98.1691C133.499 98.2034 133.453 98.2227 133.404 98.2227ZM130.253 97.8567H133.225V94.8885H130.256L130.253 97.8567Z" fill="black"/>
<path d="M138.407 98.2227H135.073C135.024 98.2227 134.978 98.2034 134.943 98.1691C134.909 98.1348 134.89 98.0883 134.89 98.0397V94.7055C134.89 94.6569 134.909 94.6104 134.943 94.5761C134.978 94.5417 135.024 94.5225 135.073 94.5225H138.407C138.455 94.5234 138.501 94.543 138.535 94.5771C138.569 94.6112 138.589 94.6572 138.59 94.7055V98.0397C138.59 98.0883 138.571 98.1348 138.536 98.1691C138.502 98.2034 138.455 98.2227 138.407 98.2227ZM135.256 97.8567H138.224V94.8885H135.256V97.8567Z" fill="black"/>
<path d="M123.342 80.2885C123.037 80.2875 122.744 80.1658 122.528 79.9498C122.312 79.7338 122.19 79.4411 122.189 79.1356V75.8013C122.189 75.4956 122.311 75.2023 122.527 74.9861C122.743 74.7699 123.037 74.6484 123.342 74.6484C123.648 74.6484 123.941 74.7699 124.158 74.9861C124.374 75.2023 124.495 75.4956 124.495 75.8013V79.1356C124.495 79.287 124.465 79.4369 124.407 79.5768C124.35 79.7167 124.265 79.8438 124.158 79.9508C124.051 80.0579 123.923 80.1428 123.784 80.2007C123.644 80.2587 123.494 80.2885 123.342 80.2885ZM123.342 75.0181C123.134 75.0181 122.935 75.1005 122.787 75.2473C122.64 75.3941 122.556 75.5933 122.555 75.8013V79.1356C122.555 79.3443 122.638 79.5445 122.786 79.692C122.933 79.8396 123.134 79.9225 123.342 79.9225C123.551 79.9225 123.751 79.8396 123.899 79.692C124.046 79.5445 124.129 79.3443 124.129 79.1356V75.8013C124.129 75.6982 124.109 75.596 124.069 75.5008C124.03 75.4055 123.972 75.319 123.899 75.2462C123.825 75.1734 123.739 75.1158 123.643 75.0767C123.548 75.0375 123.446 75.0176 123.342 75.0181Z" fill="black"/>
<path d="M130.142 80.288C129.837 80.2871 129.544 80.1653 129.328 79.9493C129.112 79.7333 128.99 79.4406 128.989 79.1351V75.8009C129.006 75.5068 129.134 75.2302 129.348 75.0279C129.562 74.8256 129.846 74.7129 130.14 74.7129C130.435 74.7129 130.718 74.8256 130.932 75.0279C131.146 75.2302 131.275 75.5068 131.291 75.8009V79.1351C131.291 79.4403 131.17 79.7329 130.955 79.949C130.74 80.1652 130.447 80.2871 130.142 80.288ZM130.142 75.0176C129.934 75.0176 129.734 75.1 129.587 75.2468C129.44 75.3936 129.356 75.5928 129.355 75.8009V79.1351C129.348 79.2427 129.363 79.3507 129.399 79.4523C129.435 79.5539 129.492 79.6471 129.565 79.7259C129.639 79.8047 129.728 79.8675 129.827 79.9105C129.926 79.9535 130.032 79.9757 130.14 79.9757C130.248 79.9757 130.355 79.9535 130.454 79.9105C130.553 79.8675 130.642 79.8047 130.715 79.7259C130.789 79.6471 130.846 79.5539 130.882 79.4523C130.918 79.3507 130.933 79.2427 130.925 79.1351V75.8009C130.925 75.5931 130.843 75.3939 130.696 75.247C130.549 75.1001 130.35 75.0176 130.142 75.0176Z" fill="black"/>
</g>
<g opacity="0.3">
<path d="M17.9342 67.4006H14.018C13.9694 67.4006 13.9229 67.3813 13.8886 67.347C13.8542 67.3127 13.835 67.2661 13.835 67.2176V58.1664C13.835 58.1179 13.8542 58.0713 13.8886 58.037C13.9229 58.0027 13.9694 57.9834 14.018 57.9834H17.9342C17.9827 57.9834 18.0292 58.0027 18.0636 58.037C18.0979 58.0713 18.1172 58.1179 18.1172 58.1664V67.2176C18.1172 67.2661 18.0979 67.3127 18.0636 67.347C18.0292 67.3813 17.9827 67.4006 17.9342 67.4006ZM14.2119 67.0346H17.7512V58.3494H14.201L14.2119 67.0346Z" fill="black"/>
<path d="M23.1536 67.4008H19.2484C19.1999 67.4008 19.1533 67.3816 19.119 67.3472C19.0847 67.3129 19.0654 67.2664 19.0654 67.2178V53.5404C19.0654 53.4919 19.0847 53.4453 19.119 53.411C19.1533 53.3767 19.1999 53.3574 19.2484 53.3574H23.1536C23.2022 53.3574 23.2487 53.3767 23.283 53.411C23.3174 53.4453 23.3366 53.4919 23.3366 53.5404V67.2178C23.3366 67.2664 23.3174 67.3129 23.283 67.3472C23.2487 67.3816 23.2022 67.4008 23.1536 67.4008ZM19.4314 67.0348H22.9706V53.7234H19.4314V67.0348Z" fill="black"/>
<path d="M28.3839 67.4014H24.475C24.4265 67.4014 24.3799 67.3821 24.3456 67.3478C24.3113 67.3135 24.292 67.2669 24.292 67.2184V47.7142C24.292 47.6657 24.3113 47.6192 24.3456 47.5849C24.3799 47.5505 24.4265 47.5312 24.475 47.5312H28.3839C28.4324 47.5312 28.479 47.5505 28.5133 47.5849C28.5476 47.6192 28.5669 47.6657 28.5669 47.7142V67.2257C28.565 67.273 28.5449 67.3177 28.5108 67.3504C28.4766 67.3832 28.4312 67.4014 28.3839 67.4014ZM24.658 67.0354H28.2009V47.8899H24.658V67.0354Z" fill="black"/>
<path d="M33.6134 67.401H29.7045C29.6559 67.401 29.6094 67.3817 29.5751 67.3474C29.5408 67.3131 29.5215 67.2666 29.5215 67.218V43.6879C29.5215 43.6393 29.5408 43.5928 29.5751 43.5585C29.6094 43.5242 29.6559 43.5049 29.7045 43.5049H33.6134C33.6619 43.5049 33.7084 43.5242 33.7428 43.5585C33.7771 43.5928 33.7964 43.6393 33.7964 43.6879V67.2217C33.7954 67.2696 33.7757 67.3152 33.7415 67.3487C33.7073 67.3823 33.6613 67.401 33.6134 67.401ZM29.8875 67.035H33.4304V43.8672H29.8875V67.035Z" fill="black"/>
</g>
<path d="M174.778 62.8836C182.369 55.2925 182.369 42.9849 174.778 35.3937C167.187 27.8026 154.879 27.8026 147.288 35.3937C139.697 42.9849 139.697 55.2925 147.288 62.8836C154.879 70.4747 167.187 70.4747 174.778 62.8836Z" fill="#BEEBC3"/>
<path d="M161.04 68.7591C157.159 68.7591 153.366 67.6084 150.139 65.4524C146.913 63.2963 144.398 60.2319 142.913 56.6466C141.427 53.0613 141.039 49.1161 141.796 45.31C142.553 41.5038 144.422 38.0076 147.166 35.2635C149.91 32.5195 153.406 30.6507 157.212 29.8936C161.018 29.1365 164.964 29.5251 168.549 31.0102C172.134 32.4953 175.199 35.0102 177.355 38.2369C179.511 41.4636 180.661 45.2572 180.661 49.1379C180.656 54.34 178.587 59.3273 174.908 63.0058C171.23 66.6842 166.242 68.7533 161.04 68.7591ZM161.04 29.8826C157.232 29.8826 153.509 31.0119 150.343 33.1277C147.176 35.2435 144.708 38.2508 143.251 41.7692C141.793 45.2876 141.412 49.1592 142.155 52.8944C142.898 56.6295 144.732 60.0605 147.425 62.7534C150.118 65.4463 153.549 67.2802 157.284 68.0232C161.019 68.7661 164.89 68.3848 168.409 66.9274C171.927 65.47 174.935 63.002 177.05 59.8355C179.166 56.669 180.295 52.9462 180.295 49.1379C180.29 44.0328 178.259 39.1386 174.649 35.5288C171.04 31.919 166.145 29.8884 161.04 29.8826Z" fill="#263238"/>
<path d="M172.04 60.1465C178.119 54.0676 178.119 44.2117 172.04 38.1328C165.961 32.0539 156.105 32.0539 150.026 38.1328C143.947 44.2117 143.947 54.0676 150.026 60.1465C156.105 66.2254 165.961 66.2254 172.04 60.1465Z" fill="white"/>
<path d="M161.041 64.8862C157.928 64.8862 154.885 63.9631 152.297 62.2338C149.709 60.5045 147.692 58.0466 146.501 55.1708C145.31 52.2951 144.998 49.1307 145.605 46.0778C146.212 43.025 147.711 40.2207 149.912 38.0197C152.113 35.8187 154.918 34.3198 157.97 33.7126C161.023 33.1053 164.188 33.417 167.063 34.6081C169.939 35.7993 172.397 37.8165 174.126 40.4046C175.856 42.9927 176.779 46.0355 176.779 49.1482C176.771 53.3198 175.11 57.3183 172.161 60.2681C169.211 63.2178 165.212 64.8784 161.041 64.8862ZM161.041 33.7542C158 33.7542 155.028 34.6558 152.501 36.3449C149.973 38.034 148.002 40.4347 146.839 43.2436C145.675 46.0525 145.371 49.1433 145.964 52.1251C146.557 55.107 148.021 57.846 150.171 59.9959C152.321 62.1457 155.06 63.6097 158.042 64.2028C161.024 64.796 164.114 64.4915 166.923 63.3281C169.732 62.1646 172.133 60.1943 173.822 57.6664C175.511 55.1385 176.413 52.1665 176.413 49.1262C176.405 45.0517 174.783 41.1462 171.902 38.2651C169.021 35.384 165.115 33.7619 161.041 33.7542Z" fill="#263238"/>
<path d="M168.08 56.1858C171.972 52.2938 171.972 45.9836 168.08 42.0915C164.188 38.1995 157.878 38.1995 153.986 42.0915C150.094 45.9836 150.094 52.2938 153.986 56.1858C157.878 60.0779 164.188 60.0779 168.08 56.1858Z" fill="#BEEBC3"/>
<path d="M161.041 59.2866C159.033 59.2866 157.071 58.6914 155.402 57.5762C153.733 56.461 152.432 54.8759 151.664 53.0214C150.896 51.1669 150.695 49.1262 151.087 47.1575C151.478 45.1887 152.445 43.3803 153.864 41.9609C155.284 40.5415 157.092 39.5749 159.061 39.1833C161.03 38.7917 163.07 38.9927 164.925 39.7608C166.779 40.529 168.364 41.8299 169.48 43.4989C170.595 45.1679 171.19 47.1301 171.19 49.1375C171.187 51.8283 170.117 54.4081 168.214 56.3108C166.311 58.2135 163.732 59.2837 161.041 59.2866ZM161.041 39.3543C159.106 39.3543 157.214 39.9281 155.606 41.003C153.997 42.078 152.743 43.606 152.002 45.3936C151.262 47.1812 151.068 49.1483 151.446 51.0461C151.823 52.9438 152.755 54.687 154.123 56.0552C155.491 57.4234 157.234 58.3552 159.132 58.7327C161.03 59.1101 162.997 58.9164 164.785 58.1759C166.572 57.4355 168.1 56.1815 169.175 54.5727C170.25 52.9639 170.824 51.0724 170.824 49.1375C170.821 46.5437 169.789 44.057 167.955 42.2229C166.121 40.3888 163.635 39.3572 161.041 39.3543Z" fill="#263238"/>
<path d="M165.016 53.1226C167.216 50.9229 167.216 47.3564 165.016 45.1567C162.817 42.957 159.25 42.957 157.05 45.1567C154.851 47.3564 154.851 50.9229 157.05 53.1226C159.25 55.3223 162.817 55.3223 165.016 53.1226Z" fill="white"/>
<path d="M161.04 54.9537C159.89 54.9537 158.766 54.6127 157.809 53.9736C156.853 53.3346 156.107 52.4263 155.667 51.3636C155.227 50.3009 155.112 49.1316 155.336 48.0034C155.561 46.8753 156.115 45.839 156.928 45.0257C157.741 44.2123 158.778 43.6584 159.906 43.434C161.034 43.2096 162.203 43.3248 163.266 43.765C164.329 44.2051 165.237 44.9506 165.876 45.907C166.515 46.8634 166.856 47.9878 166.856 49.138C166.854 50.6798 166.241 52.158 165.151 53.2482C164.06 54.3385 162.582 54.9518 161.04 54.9537ZM161.04 43.6883C159.962 43.6883 158.909 44.0079 158.013 44.6067C157.116 45.2055 156.418 46.0567 156.005 47.0525C155.593 48.0483 155.485 49.1441 155.695 50.2012C155.906 51.2583 156.425 52.2294 157.187 52.9916C157.949 53.7537 158.92 54.2728 159.977 54.483C161.034 54.6933 162.13 54.5854 163.126 54.1729C164.122 53.7604 164.973 53.0619 165.572 52.1657C166.17 51.2695 166.49 50.2159 166.49 49.138C166.488 47.6932 165.913 46.3082 164.892 45.2866C163.87 44.265 162.485 43.6902 161.04 43.6883Z" fill="#263238"/>
<path d="M163.412 49.1378C163.412 48.6673 163.273 48.2073 163.011 47.8161C162.75 47.4249 162.378 47.1199 161.944 46.9399C161.509 46.7598 161.031 46.7127 160.569 46.8045C160.108 46.8963 159.684 47.1229 159.351 47.4556C159.018 47.7883 158.792 48.2122 158.7 48.6737C158.608 49.1352 158.655 49.6135 158.835 50.0482C159.015 50.4829 159.32 50.8545 159.712 51.1159C160.103 51.3773 160.563 51.5168 161.033 51.5168C161.664 51.5168 162.269 51.2661 162.716 50.82C163.162 50.3738 163.412 49.7687 163.412 49.1378Z" fill="#263238"/>
<path d="M161.041 51.6992C160.534 51.6992 160.038 51.5489 159.617 51.2674C159.196 50.9859 158.867 50.5858 158.674 50.1176C158.48 49.6495 158.429 49.1344 158.528 48.6374C158.627 48.1404 158.871 47.6839 159.229 47.3256C159.587 46.9673 160.044 46.7233 160.541 46.6244C161.038 46.5256 161.553 46.5763 162.021 46.7702C162.489 46.9641 162.889 47.2925 163.171 47.7138C163.452 48.1351 163.603 48.6305 163.603 49.1372C163.603 49.8167 163.333 50.4683 162.852 50.9488C162.372 51.4293 161.72 51.6992 161.041 51.6992ZM161.041 46.9412C160.606 46.9412 160.182 47.07 159.82 47.3113C159.459 47.5526 159.178 47.8956 159.012 48.2968C158.845 48.6981 158.802 49.1396 158.887 49.5656C158.971 49.9916 159.181 50.3829 159.488 50.69C159.795 50.9971 160.186 51.2063 160.612 51.291C161.038 51.3757 161.48 51.3322 161.881 51.166C162.282 50.9998 162.625 50.7184 162.866 50.3572C163.108 49.9961 163.237 49.5715 163.237 49.1372C163.237 48.5548 163.005 47.9962 162.593 47.5844C162.181 47.1726 161.623 46.9412 161.041 46.9412Z" fill="#263238"/>
<path d="M160.561 49.6103H134.421V48.666H160.561C160.686 48.666 160.806 48.7158 160.894 48.8043C160.983 48.8928 161.033 49.0129 161.033 49.1382C161.033 49.2002 161.021 49.2616 160.997 49.3188C160.973 49.3761 160.938 49.4282 160.894 49.472C160.851 49.5158 160.799 49.5506 160.741 49.5744C160.684 49.5981 160.623 49.6103 160.561 49.6103Z" fill="#263238"/>
<path d="M160.561 49.7927H134.421C134.373 49.7927 134.326 49.7734 134.292 49.7391C134.258 49.7048 134.238 49.6582 134.238 49.6097V48.6654C134.238 48.6169 134.258 48.5703 134.292 48.536C134.326 48.5017 134.373 48.4824 134.421 48.4824H160.561C160.647 48.4824 160.732 48.4994 160.812 48.5323C160.891 48.5652 160.963 48.6135 161.024 48.6743C161.085 48.7351 161.133 48.8074 161.166 48.8869C161.199 48.9663 161.216 49.0515 161.216 49.1376C161.216 49.2236 161.199 49.3088 161.166 49.3883C161.133 49.4678 161.085 49.54 161.024 49.6008C160.963 49.6616 160.891 49.7099 160.812 49.7428C160.732 49.7758 160.647 49.7927 160.561 49.7927ZM134.604 49.4267H160.561C160.638 49.4267 160.711 49.3962 160.765 49.342C160.82 49.2878 160.85 49.2142 160.85 49.1376C160.85 49.0609 160.82 48.9873 160.765 48.9331C160.711 48.8789 160.638 48.8484 160.561 48.8484H134.604V49.4267Z" fill="#263238"/>
<path d="M132.097 45.7852L132.244 45.9535L134.974 48.6619H126.801L123.877 45.7852H132.097Z" fill="#263238"/>
<path d="M134.974 48.8443H126.801C126.753 48.8446 126.707 48.8262 126.673 48.7931L123.745 45.9163C123.719 45.8908 123.701 45.8581 123.693 45.8223C123.685 45.7865 123.688 45.7492 123.701 45.7151C123.715 45.6811 123.739 45.652 123.77 45.6318C123.8 45.6116 123.836 45.601 123.873 45.6016H132.093C132.12 45.6011 132.146 45.6064 132.17 45.6172C132.194 45.6279 132.215 45.6439 132.233 45.6638L132.379 45.8322L135.102 48.5333C135.127 48.5589 135.144 48.5911 135.151 48.6262C135.158 48.6612 135.155 48.6976 135.142 48.7309C135.129 48.7643 135.105 48.7929 135.075 48.8131C135.045 48.8333 135.01 48.8442 134.974 48.8443ZM126.874 48.4783H134.531L132.013 45.9676H124.327L126.874 48.4783Z" fill="#263238"/>
<path d="M123.877 52.3802L126.805 49.5986H134.978C133.909 50.4124 132.936 51.3456 132.079 52.3802H123.877Z" fill="#263238"/>
<path d="M132.075 52.5636H123.876C123.839 52.5634 123.803 52.5521 123.772 52.5313C123.742 52.5104 123.718 52.4809 123.704 52.4465C123.691 52.413 123.688 52.3762 123.696 52.3409C123.704 52.3056 123.722 52.2735 123.748 52.2489L126.676 49.4673C126.711 49.4348 126.757 49.4165 126.804 49.416H134.977C135.016 49.4158 135.054 49.4281 135.086 49.4512C135.118 49.4742 135.141 49.5068 135.153 49.5441C135.166 49.5802 135.166 49.6196 135.154 49.6561C135.143 49.6926 135.119 49.724 135.087 49.7454C134.029 50.5513 133.067 51.4747 132.217 52.4977C132.2 52.5181 132.178 52.5344 132.153 52.5458C132.128 52.5571 132.102 52.5632 132.075 52.5636ZM124.334 52.1976H131.987C132.727 51.3164 133.549 50.5076 134.443 49.782H126.874L124.334 52.1976Z" fill="#263238"/>
<path opacity="0.3" d="M15.2699 48.728L15.0613 48.4279L47.617 26.0287L47.7158 26.0799L80.3228 42.9159C80.7082 43.1151 81.1311 43.2313 81.5641 43.2572C81.9972 43.283 82.4308 43.2179 82.8372 43.066L102.898 35.5813L101.909 41.3824L117.852 26.6729L96.1889 26.0067L100.724 29.7363L81.9515 36.7342L81.8819 36.6976L48.8138 19.6457C48.3136 19.3884 47.753 19.2716 47.1916 19.3077C46.6302 19.3438 46.0892 19.5314 45.626 19.8506L11.5367 43.3222L11.3281 43.0184L45.4174 19.5322C45.9355 19.1755 46.5406 18.9659 47.1684 18.926C47.7962 18.886 48.4231 19.0171 48.9822 19.3053L81.9844 36.3426L100.006 29.6192L95.1238 25.5932L118.753 26.3252L101.382 42.3633L102.447 36.1413L82.9653 43.3954C82.5115 43.5644 82.0273 43.6367 81.5439 43.6077C81.0605 43.5787 80.5885 43.4491 80.1581 43.227L47.6426 26.4569L15.2699 48.728Z" fill="black"/>
<path opacity="0.3" d="M36.5568 92.5017L36.4323 92.1576L101.405 68.6055L100.329 74.392L116.477 59.935L94.824 58.9504L99.3111 62.7459L99.0147 62.8557L34.3461 86.2943L34.2217 85.9503L98.5938 62.6178L93.7699 58.5332L117.388 59.6092L99.7723 75.3802L100.925 69.1692L36.5568 92.5017Z" fill="black"/>
<path opacity="0.3" d="M6.01379 141.864L5.88935 141.52L86.5192 112.789L85.4431 118.572L101.591 104.115L79.9385 103.13L84.4293 106.929L84.1292 107.035L3.79949 135.657L3.67871 135.313L83.7083 106.797L78.8844 102.713L102.502 103.793L84.8868 119.56L86.0434 113.345L6.01379 141.864Z" fill="black"/>
<path d="M23.7572 175.536C23.7087 175.536 23.6621 175.516 23.6278 175.482C23.5935 175.448 23.5742 175.401 23.5742 175.353V154.996C23.5742 154.947 23.5935 154.901 23.6278 154.866C23.6621 154.832 23.7087 154.813 23.7572 154.813H44.9047V146.596C44.9047 146.548 44.924 146.501 44.9583 146.467C44.9926 146.432 45.0392 146.413 45.0877 146.413H66.2462V138.196C66.2462 138.148 66.2654 138.101 66.2998 138.067C66.3341 138.033 66.3806 138.013 66.4292 138.013H87.5693V129.8C87.5693 129.752 87.5886 129.705 87.6229 129.671C87.6572 129.637 87.7038 129.617 87.7523 129.617H108.896V121.401C108.896 121.352 108.915 121.306 108.95 121.271C108.984 121.237 109.031 121.218 109.079 121.218H130.223V113.005C130.223 112.956 130.242 112.909 130.277 112.875C130.311 112.841 130.357 112.822 130.406 112.822H151.524V104.605C151.524 104.556 151.543 104.51 151.578 104.475C151.612 104.441 151.659 104.422 151.707 104.422H173.045C173.093 104.422 173.14 104.441 173.174 104.475C173.209 104.51 173.228 104.556 173.228 104.605C173.227 104.653 173.207 104.699 173.173 104.733C173.139 104.767 173.093 104.787 173.045 104.788H151.89V113.005C151.89 113.053 151.871 113.1 151.837 113.134C151.802 113.168 151.756 113.188 151.707 113.188H130.574V121.401C130.574 121.449 130.555 121.496 130.521 121.53C130.486 121.564 130.44 121.584 130.391 121.584H109.247V129.8C109.247 129.849 109.228 129.895 109.194 129.93C109.16 129.964 109.113 129.983 109.064 129.983H87.9207V138.196C87.9207 138.245 87.9014 138.291 87.8671 138.326C87.8328 138.36 87.7862 138.379 87.7377 138.379H66.6122V146.596C66.6122 146.645 66.5929 146.691 66.5586 146.725C66.5242 146.76 66.4777 146.779 66.4292 146.779H45.2707V154.996C45.2698 155.044 45.2502 155.09 45.2161 155.124C45.1819 155.158 45.1359 155.178 45.0877 155.179H23.9402V175.353C23.9402 175.377 23.9355 175.4 23.9263 175.423C23.9171 175.445 23.9036 175.465 23.8866 175.482C23.8696 175.499 23.8495 175.513 23.8272 175.522C23.805 175.531 23.7813 175.536 23.7572 175.536Z" fill="#263238"/>
<path d="M66.4144 175.858C66.3659 175.858 66.3194 175.839 66.285 175.804C66.2507 175.77 66.2314 175.723 66.2314 175.675V149.224C66.2314 149.175 66.2507 149.129 66.285 149.095C66.3194 149.06 66.3659 149.041 66.4144 149.041C66.463 149.041 66.5095 149.06 66.5438 149.095C66.5782 149.129 66.5974 149.175 66.5974 149.224V175.675C66.5974 175.723 66.5782 175.77 66.5438 175.804C66.5095 175.839 66.463 175.858 66.4144 175.858Z" fill="#263238"/>
<path d="M109.229 175.858C109.18 175.858 109.134 175.839 109.1 175.804C109.065 175.77 109.046 175.724 109.046 175.675V133.406C109.047 133.357 109.066 133.311 109.101 133.277C109.135 133.243 109.181 133.224 109.229 133.223C109.277 133.223 109.324 133.242 109.358 133.276C109.393 133.311 109.412 133.357 109.412 133.406V175.675C109.412 175.724 109.393 175.77 109.358 175.804C109.324 175.839 109.277 175.858 109.229 175.858Z" fill="#263238"/>
<path d="M152.044 175.857C151.996 175.857 151.949 175.838 151.915 175.804C151.881 175.769 151.861 175.723 151.861 175.674V119.226C151.861 119.177 151.881 119.131 151.915 119.097C151.949 119.062 151.996 119.043 152.044 119.043C152.093 119.043 152.139 119.062 152.174 119.097C152.208 119.131 152.227 119.177 152.227 119.226V175.674C152.227 175.723 152.208 175.769 152.174 175.804C152.139 175.838 152.093 175.857 152.044 175.857Z" fill="#263238"/>
<path d="M25.5543 142.169L25.4006 143.936L26.5352 146.33C26.5352 146.33 27.6808 147.516 27.4831 147.929C27.4174 148.096 27.3015 148.239 27.1514 148.337C27.0012 148.436 26.8243 148.485 26.645 148.478C26.3376 148.457 22.5458 146.692 21.5686 146.22C20.5914 145.748 20.2986 143.578 20.1046 142.926C19.9106 142.275 18.0952 140.496 18.5381 139.31C18.981 138.124 21.1916 136.968 21.1916 136.968L25.5543 142.169Z" fill="white"/>
<path d="M26.7179 148.661H26.652C26.2384 148.632 21.5536 146.41 21.506 146.384C20.624 145.96 20.2726 144.382 20.064 143.456C20.0201 143.259 19.9871 143.09 19.9505 142.977C19.8016 142.667 19.6161 142.376 19.3979 142.109C18.8196 141.275 18.0217 140.137 18.3584 139.236C18.8232 137.999 21.0083 136.843 21.0998 136.795C21.1369 136.775 21.1797 136.769 21.221 136.777C21.2624 136.785 21.2997 136.807 21.3267 136.839L25.6931 142.051C25.7089 142.069 25.721 142.09 25.7286 142.112C25.7361 142.135 25.739 142.159 25.737 142.183L25.5869 143.903L26.6849 146.223C27.0509 146.619 27.8671 147.541 27.6438 148.006C27.5676 148.192 27.4401 148.352 27.2761 148.468C27.1121 148.584 26.9185 148.651 26.7179 148.661ZM21.1547 137.19C20.6862 137.454 19.0721 138.417 18.7171 139.364C18.4463 140.096 19.1783 141.132 19.7126 141.901C19.9474 142.198 20.1407 142.525 20.2872 142.874C20.3202 142.995 20.3604 143.171 20.4044 143.372C20.5837 144.192 20.9241 145.718 21.6451 146.066C22.9847 146.71 26.3555 148.262 26.663 148.306C26.8051 148.309 26.9447 148.268 27.0622 148.188C27.1797 148.108 27.2692 147.993 27.3181 147.859C27.3913 147.702 26.9521 147.04 26.4031 146.465L26.3702 146.417L25.2539 144.016C25.2449 143.985 25.2449 143.952 25.2539 143.921L25.4003 142.227L21.1547 137.19Z" fill="#263238"/>
<path d="M37.6986 107.783L38.6246 121.018L21.8508 135.874L20.1855 137.612C20.1855 137.612 22.2278 141.016 23.0879 141.763C23.7543 142.276 24.5174 142.649 25.3315 142.861C25.7531 142.422 26.0796 141.901 26.2904 141.331C26.6345 140.39 27.0224 138.912 27.0224 138.912C27.0224 138.912 46.2887 126.442 46.7279 125.992C47.1671 125.542 49.0703 111.074 49.0703 111.074L37.6986 107.783Z" fill="#263238"/>
<path d="M25.3311 143.025H25.2872C24.4448 142.813 23.655 142.431 22.9667 141.901C22.0956 141.147 20.1119 137.85 20.0387 137.71C20.0193 137.675 20.0113 137.635 20.0159 137.595C20.0205 137.555 20.0374 137.517 20.0643 137.487L21.7296 135.749L38.4302 120.94L37.5079 107.797C37.5053 107.768 37.5099 107.738 37.5214 107.71C37.5329 107.683 37.5509 107.659 37.5738 107.64C37.5969 107.622 37.6238 107.61 37.6523 107.604C37.6809 107.599 37.7103 107.599 37.7385 107.607L49.1174 110.879C49.159 110.891 49.1949 110.918 49.2185 110.954C49.242 110.99 49.2516 111.034 49.2455 111.077C48.799 114.484 47.3021 125.64 46.8519 126.101C46.4017 126.562 29.4156 137.56 27.1757 139.01C27.0952 139.314 26.7658 140.551 26.4657 141.374C26.2473 141.972 25.9056 142.517 25.4628 142.974C25.4271 143.007 25.38 143.025 25.3311 143.025ZM20.4157 137.637C20.7817 138.245 22.469 140.983 23.2046 141.623C23.8211 142.095 24.5253 142.44 25.2762 142.637C25.6423 142.232 25.928 141.761 26.118 141.25C26.4547 140.327 26.85 138.863 26.85 138.849C26.862 138.804 26.8892 138.765 26.9268 138.739C32.2595 135.291 46.1821 126.251 46.603 125.845C46.9141 125.354 48.1256 116.867 48.8759 111.186L37.8959 108.032L38.7962 121.003C38.7983 121.03 38.7941 121.058 38.784 121.084C38.7738 121.11 38.758 121.134 38.7377 121.153L21.9602 136.009L20.4157 137.637Z" fill="#263238"/>
<path d="M32.7943 128.689C32.7458 128.689 32.6992 128.67 32.6649 128.635C32.6306 128.601 32.6113 128.554 32.6113 128.506C32.6113 128.457 32.6306 128.411 32.6649 128.377C32.6992 128.342 32.7458 128.323 32.7943 128.323C34.8512 128.118 44.1879 125.819 44.2831 125.794C44.3301 125.783 44.3796 125.791 44.4208 125.816C44.4619 125.842 44.4914 125.882 44.5027 125.929C44.5087 125.952 44.51 125.976 44.5066 126C44.5032 126.024 44.4952 126.046 44.4829 126.067C44.4706 126.087 44.4544 126.105 44.4352 126.119C44.4159 126.133 44.3941 126.143 44.3709 126.149C43.983 126.244 34.9135 128.48 32.8309 128.689H32.7943Z" fill="white"/>
<path d="M32.999 127.572C32.9505 127.576 32.9024 127.56 32.8653 127.528C32.8283 127.497 32.8052 127.452 32.8014 127.403C32.7975 127.355 32.813 127.307 32.8446 127.27C32.8762 127.233 32.9212 127.21 32.9697 127.206L36.5748 126.616C36.5986 126.613 36.6229 126.614 36.6463 126.62C36.6696 126.625 36.6917 126.636 36.711 126.65C36.7304 126.664 36.7468 126.682 36.7592 126.703C36.7716 126.723 36.7799 126.746 36.7834 126.77C36.7876 126.794 36.787 126.818 36.7817 126.841C36.7764 126.865 36.7664 126.887 36.7524 126.906C36.7385 126.926 36.7207 126.942 36.7003 126.954C36.6798 126.967 36.6571 126.975 36.6334 126.979L33.0283 127.568L32.999 127.572Z" fill="white"/>
<path d="M54.4871 140.92L57.8506 143.31C57.8506 143.31 60.1272 144.598 60.4675 144.639C60.6494 144.645 60.8214 144.723 60.9466 144.855C61.0719 144.987 61.1403 145.163 61.1373 145.345C61.0934 145.744 60.3358 146.351 58.9999 146.443C57.664 146.534 53.8759 145.821 53.6014 145.788C53.3269 145.755 49.6303 144.196 48.6238 143.91C47.6173 143.625 47.416 142.336 47.6209 141.553C47.8259 140.77 49.1801 138.903 49.1801 138.903L54.4871 140.92Z" fill="white"/>
<path d="M58.762 146.622C57.5433 146.622 55.1277 146.216 54.0553 146.037C53.8027 145.993 53.6344 145.963 53.5795 145.96C53.4404 145.941 52.8951 145.729 51.5921 145.228C50.4282 144.763 49.1106 144.24 48.5763 144.089C47.4307 143.767 47.2221 142.358 47.4417 141.527C47.6613 140.697 48.9752 138.892 49.0338 138.815C49.0575 138.783 49.0911 138.76 49.1294 138.749C49.1678 138.737 49.2087 138.739 49.246 138.753L54.553 140.781L54.5933 140.803L57.9568 143.193C58.7693 143.684 59.6157 144.117 60.4896 144.488C60.707 144.514 60.9108 144.607 61.0715 144.756C61.1611 144.836 61.2303 144.936 61.2736 145.048C61.3169 145.16 61.3329 145.28 61.3204 145.4C61.2618 145.934 60.3615 146.567 59.0109 146.648C58.9267 146.622 58.8535 146.622 58.762 146.622ZM49.246 139.112C48.9532 139.525 47.9614 140.942 47.782 141.586C47.5917 142.318 47.782 143.478 48.6604 143.723C49.2131 143.881 50.5417 144.408 51.7129 144.873C52.54 145.202 53.477 145.572 53.6088 145.605L54.1029 145.685C55.2411 145.879 57.9129 146.326 58.9743 146.264C60.226 146.183 60.9105 145.627 60.9434 145.338C60.9485 145.275 60.9389 145.212 60.9154 145.153C60.8919 145.095 60.8551 145.043 60.808 145.001C60.7055 144.909 60.5782 144.849 60.442 144.829C60.076 144.792 58.1398 143.698 57.7519 143.478L54.392 141.096L49.246 139.112Z" fill="#263238"/>
<path d="M34.77 95.5322C34.77 95.5322 33.4487 101.044 33.5109 103.032C33.5731 105.019 36.2925 107.94 36.8671 108.5C37.4418 109.06 40.3149 109.942 40.5271 110.106C40.7394 110.271 56.5543 116.768 56.5543 116.768C56.5543 116.768 55.4892 119.33 54.7243 121.094C53.9593 122.858 49.9663 137.26 49.9663 137.26L49.0879 138.153L48.5865 140.148L55.5807 141.674C55.5807 141.674 56.2102 140.287 56.3127 139.877C56.4152 139.467 56.2176 137.531 56.2578 137.183C56.2981 136.835 64.8844 118.118 65.309 116.822C65.7336 115.527 67.139 113.133 66.6522 112.372C66.1654 111.611 51.2802 102.457 51.2802 102.457L51.4888 99.2984C51.4888 99.2984 40.0147 98.5883 34.77 95.5322Z" fill="#263238"/>
<path d="M55.5558 141.857H55.5155L48.5213 140.312C48.4733 140.301 48.4318 140.271 48.4057 140.229C48.3797 140.188 48.3712 140.137 48.3822 140.089L48.8873 138.094C48.895 138.062 48.9114 138.033 48.9349 138.01L49.7767 137.15C50.0695 136.103 53.8027 122.719 54.5347 121.006C55.1715 119.542 56.0353 117.456 56.2841 116.852C51.4273 114.861 40.5718 110.392 40.3814 110.231C40.3156 110.187 39.9056 110.037 39.5067 109.89C38.5075 109.524 37.135 109.012 36.7288 108.617C36.6958 108.584 33.3908 105.304 33.3176 103.024C33.2554 101.033 34.5254 95.7042 34.5803 95.4737C34.5872 95.4461 34.6003 95.4205 34.6187 95.3989C34.6372 95.3773 34.6604 95.3603 34.6865 95.3492C34.7121 95.3366 34.7403 95.3301 34.7688 95.3301C34.7974 95.3301 34.8256 95.3366 34.8512 95.3492C40.0045 98.3504 51.3578 99.0824 51.4712 99.0897C51.4958 99.0904 51.5199 99.0962 51.542 99.107C51.5641 99.1177 51.5837 99.1331 51.5993 99.152C51.6152 99.1698 51.6273 99.1907 51.6349 99.2133C51.6424 99.236 51.6453 99.2599 51.6433 99.2837L51.442 102.333C53.3561 103.511 66.3089 111.483 66.7883 112.247C67.18 112.866 66.5907 114.206 66.0197 115.501C65.8001 116.003 65.5879 116.478 65.4671 116.852C65.2328 117.558 62.7331 123.096 60.3175 128.45C58.4362 132.615 56.4928 136.92 56.4196 137.19C56.4196 137.296 56.4196 137.71 56.4562 138.105C56.5222 138.701 56.5222 139.303 56.4562 139.899C56.3354 140.32 55.7242 141.667 55.6985 141.729C55.6893 141.761 55.671 141.791 55.6457 141.813C55.6205 141.836 55.5893 141.851 55.5558 141.857ZM48.7848 140.009L55.4497 141.473C55.607 141.107 56.0353 140.159 56.1268 139.837C56.1661 139.279 56.1575 138.72 56.1011 138.164C56.0706 137.834 56.0584 137.503 56.0645 137.172C56.0645 137.007 57.0125 134.928 59.9881 128.337C62.2902 123.238 64.8998 117.459 65.1121 116.775C65.2402 116.383 65.4524 115.9 65.6794 115.388C66.1588 114.29 66.7591 112.936 66.4736 112.482C66.1076 111.929 57.1076 106.285 51.1492 102.625C51.1208 102.608 51.0977 102.583 51.0822 102.553C51.0668 102.524 51.0596 102.49 51.0613 102.457L51.259 99.4777C49.795 99.3716 39.8141 98.559 34.8731 95.8177C34.6243 96.8937 33.6214 101.308 33.6763 103.035C33.7312 104.829 36.1395 107.559 36.9703 108.375C37.3363 108.719 38.7601 109.25 39.6202 109.568C39.9603 109.669 40.289 109.806 40.601 109.975C40.967 110.18 52.2581 114.831 56.5806 116.607C56.6251 116.625 56.6605 116.661 56.6794 116.705C56.6977 116.75 56.6977 116.8 56.6794 116.844C56.6794 116.87 55.607 119.436 54.8494 121.174C54.0918 122.913 50.1317 137.172 50.0914 137.315C50.0851 137.345 50.0698 137.373 50.0475 137.395L49.2057 138.252L48.7848 140.009Z" fill="#263238"/>
<path d="M50.2813 101.883C50.2495 101.883 50.2181 101.875 50.1898 101.861C49.2346 101.33 47.7047 100.514 47.4192 100.433C47.1923 100.367 45.7832 100.682 44.5534 101.023C44.5294 101.029 44.5043 101.031 44.4796 101.028C44.4549 101.024 44.4311 101.016 44.4095 101.004C44.388 100.992 44.369 100.975 44.3538 100.955C44.3387 100.936 44.3275 100.913 44.321 100.889C44.3145 100.865 44.3128 100.84 44.316 100.815C44.3192 100.791 44.3273 100.767 44.3397 100.745C44.3521 100.724 44.3686 100.705 44.3883 100.689C44.408 100.674 44.4306 100.663 44.4546 100.657C44.8901 100.536 47.0825 99.9246 47.518 100.067C47.9536 100.21 50.1203 101.389 50.3692 101.531C50.4033 101.552 50.4299 101.582 50.445 101.619C50.4602 101.656 50.463 101.696 50.4531 101.735C50.4432 101.773 50.4211 101.807 50.3901 101.832C50.3591 101.857 50.3209 101.871 50.2813 101.872V101.883Z" fill="white"/>
<path d="M42.0249 102.321C42.0026 102.322 41.9804 102.318 41.9597 102.31C41.939 102.301 41.9201 102.289 41.9041 102.274C41.8866 102.257 41.8726 102.237 41.8631 102.215C41.8536 102.193 41.8486 102.17 41.8486 102.146C41.8486 102.122 41.8536 102.098 41.8631 102.076C41.8726 102.054 41.8866 102.034 41.9041 102.017C42.3614 101.54 42.9023 101.151 43.4998 100.868C43.5219 100.858 43.5457 100.852 43.57 100.852C43.5943 100.851 43.6184 100.855 43.641 100.864C43.6636 100.873 43.6841 100.886 43.7014 100.903C43.7187 100.92 43.7323 100.941 43.7414 100.963C43.7602 101.008 43.7612 101.058 43.7442 101.103C43.7271 101.148 43.6934 101.184 43.6499 101.205C43.102 101.466 42.606 101.824 42.1859 102.263C42.1665 102.286 42.1415 102.303 42.1132 102.313C42.0849 102.324 42.0545 102.326 42.0249 102.321Z" fill="white"/>
<path d="M40.4248 101.436C40.3986 101.436 40.3727 101.43 40.3488 101.42C40.3249 101.409 40.3034 101.393 40.2858 101.374C40.2548 101.336 40.2397 101.288 40.2438 101.24C40.2479 101.191 40.2709 101.146 40.3077 101.114C41.7461 99.8991 44.4765 99.8406 44.5936 99.8369C44.6416 99.8378 44.6875 99.8567 44.7221 99.89C44.7567 99.9232 44.7775 99.9683 44.7802 100.016C44.7807 100.04 44.7765 100.064 44.7677 100.087C44.759 100.109 44.7459 100.129 44.7292 100.147C44.7126 100.164 44.6927 100.178 44.6707 100.188C44.6486 100.197 44.6249 100.202 44.6009 100.203C44.5716 100.203 41.8815 100.261 40.5456 101.396C40.5113 101.423 40.4686 101.437 40.4248 101.436Z" fill="white"/>
<path d="M57.4626 116.98C57.4264 116.98 57.3909 116.97 57.3609 116.949C57.3308 116.929 57.3076 116.9 57.2943 116.867C57.2854 116.844 57.2809 116.82 57.2813 116.796C57.2816 116.772 57.2867 116.748 57.2962 116.726C57.3057 116.704 57.3195 116.684 57.3367 116.668C57.354 116.651 57.3744 116.638 57.3968 116.629C58.9157 116.036 62.5208 113.843 62.5647 113.821C62.6064 113.796 62.6565 113.789 62.7038 113.8C62.7512 113.812 62.792 113.842 62.8172 113.884C62.8425 113.925 62.8501 113.975 62.8384 114.023C62.8267 114.07 62.7967 114.111 62.755 114.136C62.6049 114.228 59.095 116.365 57.5285 116.969L57.4626 116.98Z" fill="white"/>
<path d="M63.9697 91.4808L65.7705 91.4515L67.7725 91.1514C67.7725 91.1514 71.2714 92.0042 71.2897 92.3519C71.3047 92.6036 71.2569 92.8551 71.1507 93.0839C71.0665 93.3071 70.0527 96.1509 69.7891 96.4693C69.7158 96.5906 69.6033 96.6831 69.4701 96.7317C69.337 96.7803 69.1913 96.782 69.0571 96.7365C68.7131 96.6963 67.132 96.3486 67.132 96.3486C67.132 96.3486 65.2105 95.902 64.764 95.7373C64.3092 95.5271 63.8711 95.2824 63.4537 95.0053L62.7217 94.7492L63.9697 91.4808Z" fill="white"/>
<path d="M69.3061 96.9414C69.2192 96.94 69.1324 96.9339 69.0462 96.9231C68.6802 96.8865 67.165 96.5571 67.0991 96.5315C67.0332 96.5058 65.1593 96.0813 64.7091 95.9166C64.2482 95.7068 63.8041 95.4621 63.3805 95.1846L62.6742 94.9357C62.6515 94.9277 62.6307 94.9151 62.613 94.8988C62.5954 94.8824 62.5813 94.8626 62.5717 94.8405C62.5618 94.8187 62.5566 94.795 62.5566 94.771C62.5566 94.747 62.5618 94.7233 62.5717 94.7015L63.8051 91.4075C63.8185 91.3732 63.8415 91.3436 63.8714 91.3221C63.9013 91.3007 63.9367 91.2884 63.9734 91.2867L65.7742 91.2574L67.7542 90.9609H67.8238C71.4545 91.8467 71.4838 92.198 71.4838 92.3334C71.5043 92.593 71.459 92.8536 71.352 93.0911L71.2825 93.2887C70.3126 95.9605 70.0527 96.4473 69.9429 96.5827C69.8775 96.693 69.7842 96.7843 69.6725 96.8472C69.5607 96.9102 69.4343 96.9426 69.3061 96.9414ZM62.9743 94.6539L63.5233 94.8479L63.5599 94.8662C63.9675 95.1309 64.3931 95.367 64.8336 95.5725C65.2654 95.7299 67.1613 96.1728 67.1796 96.1764C67.1979 96.1801 68.7571 96.5241 69.0865 96.5424C69.4159 96.5607 69.4525 96.5827 69.6501 96.3375C69.716 96.2606 69.9722 95.7921 70.9238 93.1569L71.0007 92.952C71.0813 92.7741 71.1189 92.5798 71.1105 92.3847C70.8726 92.1724 69.2219 91.6746 67.7652 91.3196L65.7961 91.6124L64.0979 91.6454L62.9743 94.6539Z" fill="#263238"/>
<path d="M64.9795 92.2901C64.9795 92.2901 66.6485 90.7895 66.8973 90.6431C67.1462 90.4967 68.548 90.7273 68.9433 90.8261C69.3386 90.9249 69.9132 91.3238 69.7741 91.5581C69.635 91.7923 69.2434 94.1201 69.0421 94.325C68.9216 94.4475 68.7639 94.5265 68.5937 94.5497C68.4234 94.5729 68.2503 94.5389 68.1015 94.4531C67.7757 94.2409 67.9624 92.1839 67.9624 92.1839C67.9624 92.1839 67.6879 94.0139 67.0767 94.2811C66.4655 94.5483 65.3455 94.2043 65.3455 94.2043" fill="white"/>
<path d="M68.4753 94.7238C68.3081 94.7255 68.144 94.6784 68.0031 94.5883C67.8384 94.4785 67.7616 94.1235 67.7359 93.6916C67.6335 93.9951 67.4292 94.2537 67.1577 94.4236C66.4879 94.7311 65.3277 94.3724 65.2947 94.3578C65.2485 94.3426 65.2101 94.3101 65.1875 94.267C65.165 94.2239 65.1601 94.1738 65.1739 94.1272C65.1891 94.081 65.2217 94.0425 65.2647 94.02C65.3078 93.9974 65.3579 93.9925 65.4045 94.0064C65.6973 94.1016 66.5574 94.2955 67.0039 94.0906C67.3699 93.9186 67.6847 92.7986 67.7872 92.1325C67.793 92.0839 67.8179 92.0397 67.8563 92.0095C67.8948 91.9793 67.9436 91.9656 67.9921 91.9714C68.0407 91.9773 68.0849 92.0021 68.1151 92.0406C68.1453 92.079 68.159 92.1279 68.1532 92.1764C68.0617 93.1829 68.091 94.1455 68.2154 94.2809C68.3274 94.3417 68.456 94.3645 68.582 94.3461C68.708 94.3276 68.8247 94.2688 68.9145 94.1784C69.0829 93.6802 69.2138 93.17 69.3061 92.6522C69.3677 92.2368 69.4745 91.8293 69.6245 91.4371C69.4259 91.2265 69.1724 91.0756 68.8925 91.0015C68.3801 90.8698 67.165 90.7087 66.9856 90.7966C66.8063 90.8844 65.7412 91.847 65.1007 92.4216C65.0833 92.4394 65.0624 92.4535 65.0393 92.4629C65.0162 92.4723 64.9914 92.4769 64.9664 92.4764C64.9415 92.4759 64.9169 92.4703 64.8942 92.46C64.8715 92.4497 64.8512 92.4348 64.8345 92.4163C64.8177 92.3978 64.8049 92.3761 64.7969 92.3525C64.7888 92.3289 64.7857 92.3039 64.7877 92.279C64.7897 92.2541 64.7967 92.2299 64.8084 92.2079C64.82 92.1858 64.8361 92.1664 64.8555 92.1508C65.0275 91.9971 66.5464 90.6319 66.8026 90.4818C67.1686 90.2659 68.8083 90.6026 68.9986 90.6465C69.395 90.7416 69.7396 90.9853 69.9612 91.3273C69.9823 91.3766 69.9913 91.4302 69.9875 91.4837C69.9837 91.5371 69.9671 91.5889 69.9393 91.6347C69.8278 91.9949 69.7386 92.3616 69.6721 92.7327C69.4378 93.8051 69.3061 94.2919 69.189 94.431C69.0956 94.525 68.9843 94.5993 68.8618 94.6496C68.7392 94.6999 68.6078 94.7251 68.4753 94.7238Z" fill="#263238"/>
<path d="M67.7688 93.8154L67.2783 95.6161L67.7797 95.7882" fill="white"/>
<path d="M67.7796 95.9715C67.7603 95.975 67.7404 95.975 67.7211 95.9715L67.2197 95.7995C67.1755 95.7852 67.1386 95.7543 67.1168 95.7133C67.095 95.6724 67.0898 95.6246 67.1025 95.5799L67.5893 93.7792C67.6019 93.7307 67.6333 93.6891 67.6766 93.6637C67.7198 93.6383 67.7714 93.6312 67.8199 93.6438C67.8684 93.6564 67.91 93.6878 67.9354 93.731C67.9608 93.7743 67.9679 93.8258 67.9553 93.8744L67.5088 95.5104L67.8492 95.6275C67.8977 95.6353 67.9412 95.662 67.97 95.7018C67.9988 95.7416 68.0107 95.7912 68.0029 95.8398C67.9951 95.8883 67.9684 95.9318 67.9286 95.9606C67.8888 95.9894 67.8392 96.0013 67.7906 95.9935L67.7796 95.9715Z" fill="#263238"/>
<path d="M64.4931 91.4811L62.9778 95.1961L52.0674 93.754L54.0657 86.7305L64.4931 91.4811Z" fill="white"/>
<path d="M62.9778 95.3788H62.9522L52.0454 93.9367C52.0196 93.933 51.9949 93.9239 51.9728 93.91C51.9508 93.8962 51.9319 93.8778 51.9173 93.8562C51.9026 93.8337 51.8928 93.8085 51.8884 93.782C51.884 93.7556 51.8851 93.7285 51.8917 93.7025L53.89 86.6826C53.8972 86.6571 53.9097 86.6335 53.9269 86.6133C53.944 86.5932 53.9653 86.5769 53.9893 86.5658C54.0133 86.5547 54.0395 86.5489 54.0659 86.5488C54.0924 86.5488 54.1185 86.5545 54.1426 86.5655L64.5663 91.3235C64.6099 91.342 64.6443 91.3771 64.6621 91.421C64.68 91.4649 64.6797 91.514 64.6614 91.5577L63.1462 95.2726C63.1317 95.305 63.108 95.3323 63.0781 95.3512C63.0481 95.3701 63.0132 95.3797 62.9778 95.3788ZM52.3016 93.6L62.8607 94.9981L64.2552 91.576L54.1682 86.9864L52.3016 93.6Z" fill="#263238"/>
<path d="M60.9798 95.1006H60.9249C60.8789 95.0855 60.8406 95.0527 60.8187 95.0095C60.7967 94.9663 60.7928 94.9161 60.8078 94.87L62.1547 90.5365C62.1619 90.5125 62.1738 90.4901 62.1896 90.4707C62.2055 90.4513 62.225 90.4351 62.2471 90.4232C62.2692 90.4113 62.2934 90.4039 62.3184 90.4014C62.3433 90.3988 62.3686 90.4012 62.3926 90.4084C62.4166 90.4157 62.439 90.4275 62.4584 90.4434C62.4779 90.4592 62.494 90.4788 62.5059 90.5009C62.5178 90.523 62.5252 90.5472 62.5278 90.5721C62.5303 90.5971 62.5279 90.6223 62.5207 90.6463L61.1738 94.9578C61.1642 95.0011 61.1393 95.0394 61.1036 95.0656C61.0679 95.0919 61.024 95.1043 60.9798 95.1006Z" fill="#263238"/>
<path d="M48.0448 63.9102C48.0448 63.9102 40.4978 69.6747 39.7768 72.9357C39.0558 76.1968 36.922 83.3374 36.922 83.3374C36.922 83.3374 33.994 95.2251 34.0416 95.7814C34.0892 96.3377 35.8716 97.0149 36.6512 97.3589C37.4307 97.7029 42.7597 99.4305 46.0171 99.7928C47.8395 100.015 49.6813 100.03 51.5071 99.8367C51.5071 99.8367 52.4185 99.0608 52.466 98.6033C52.5136 98.1458 52.9492 94.2772 52.9638 94.1235C52.9784 93.9697 55.3098 79.4835 55.1012 75.8235C54.8926 72.1635 55.2037 70.7324 55.2037 70.7324L57.0337 68.7194L54.3985 67.3945L48.0448 63.9102Z" fill="white"/>
<path d="M49.0996 100.163C48.0626 100.161 47.0265 100.103 45.9959 99.9872C42.7824 99.6212 37.4608 97.9302 36.5787 97.5423L36.2127 97.3849C34.9537 96.8542 33.9069 96.3711 33.8667 95.8111C33.8264 95.2511 36.4506 84.5127 36.7508 83.2939C36.7727 83.2134 38.8918 76.124 39.6055 72.8995C40.3375 69.6055 47.6319 64.002 47.9394 63.7495C47.9696 63.7307 48.0044 63.7207 48.04 63.7207C48.0756 63.7207 48.1105 63.7307 48.1407 63.7495L54.5017 67.2375L57.1333 68.5587C57.1582 68.5716 57.1798 68.5901 57.1964 68.6126C57.213 68.6352 57.2242 68.6613 57.2292 68.6889C57.2341 68.7164 57.2327 68.7448 57.2249 68.7717C57.2172 68.7987 57.2034 68.8235 57.1845 68.8442L55.3984 70.8206C55.3509 71.0915 55.1239 72.5664 55.3106 75.8165C55.479 78.7445 54.0772 88.363 53.2244 93.8237C53.1951 94.025 53.1768 94.1421 53.1732 94.1604L52.6754 98.6366C52.6168 99.1527 51.7494 99.9066 51.6506 99.9908C51.6248 100.013 51.5929 100.027 51.5591 100.031C50.743 100.128 49.9214 100.172 49.0996 100.163ZM48.0601 64.1301C47.1927 64.8036 40.6267 70.0044 39.9569 72.969C39.2249 76.2081 37.1167 83.3122 37.0948 83.3817C35.9346 88.1141 34.2107 95.3316 34.2254 95.7782C34.251 96.1442 35.7223 96.7773 36.3481 97.0409L36.7141 97.2019C37.3986 97.502 42.7056 99.2478 46.0252 99.6175C47.8211 99.8322 49.6351 99.8494 51.4347 99.6687C51.7677 99.3796 52.2655 98.8599 52.2948 98.5707L52.7925 94.0946C52.7925 94.0946 52.7925 93.9591 52.8438 93.7286C54.3078 84.4578 55.0398 77.921 54.9263 75.7946C54.7177 72.1346 55.0178 70.7145 55.0324 70.6706C55.0404 70.6395 55.0555 70.6107 55.0764 70.5864L56.7343 68.7564L54.3151 67.5413L48.0601 64.1301Z" fill="#263238"/>
<path d="M57.0414 68.7227L56.3643 71.5848L55.5225 70.355L57.0414 68.7227Z" fill="white"/>
<path d="M56.3639 71.7679C56.3342 71.768 56.3049 71.7607 56.2787 71.7466C56.2525 71.7325 56.2302 71.7122 56.2138 71.6874L55.3684 70.4613C55.3451 70.4264 55.3342 70.3847 55.3375 70.3428C55.3408 70.301 55.3581 70.2615 55.3867 70.2307L56.9092 68.5984C56.9368 68.5696 56.9729 68.5507 57.0122 68.5443C57.0515 68.538 57.0918 68.5446 57.1269 68.5633C57.1621 68.5819 57.1903 68.6115 57.2071 68.6475C57.224 68.6836 57.2286 68.7241 57.2203 68.763L56.5396 71.6252C56.5313 71.6595 56.5136 71.6907 56.4883 71.7154C56.463 71.74 56.4313 71.7569 56.3968 71.7643L56.3639 71.7679ZM55.7563 70.3735L56.2797 71.1384L56.7043 69.3523L55.7563 70.3735Z" fill="#263238"/>
<path d="M59.5416 52.253C60.2537 53.2954 60.6537 54.5194 60.6945 55.7812C60.7677 57.904 61.1776 58.4127 61.6168 58.614C62.056 58.8153 62.261 59.3058 61.8364 59.8767C61.5304 60.2744 61.1965 60.6499 60.8373 61.0004C60.8373 61.0004 60.3066 64.3968 59.9735 65.0813C59.6404 65.7657 58.8755 65.3192 57.7995 65.1471C57.285 65.0867 56.7799 64.9638 56.2952 64.7811L54.9886 67.7091L48.7227 63.3574L49.7694 60.4294C49.7694 60.4294 49.0118 59.3643 49.4473 55.9093C49.8829 52.4543 56.3647 51.1769 59.5416 52.253Z" fill="white"/>
<path d="M54.9882 67.903C54.9514 67.9033 54.9155 67.8918 54.8858 67.8701L48.6198 63.5184C48.5859 63.4961 48.5606 63.4629 48.548 63.4244C48.5353 63.3858 48.5362 63.3441 48.5503 63.3061L49.5678 60.4623C49.3957 60.1402 48.887 58.8958 49.264 55.9019C49.3958 54.8405 50.0875 53.8926 51.2587 53.1606C53.4547 51.7881 57.2684 51.2903 59.5998 52.0809C59.6336 52.0926 59.6629 52.1143 59.684 52.1431C60.4253 53.2121 60.8399 54.4735 60.8772 55.7738C60.9504 57.8344 61.331 58.2809 61.6933 58.4493C61.8213 58.5052 61.9351 58.5892 62.0264 58.695C62.1176 58.8007 62.1839 58.9257 62.2204 59.0605C62.2532 59.2236 62.2485 59.3921 62.2067 59.5531C62.1648 59.7142 62.0869 59.8636 61.9788 59.9901C61.6779 60.3774 61.3514 60.7443 61.0016 61.0881C60.9247 61.5603 60.4489 64.4992 60.1269 65.158C59.8048 65.8168 59.1753 65.6448 58.4982 65.4801C58.2676 65.4252 58.026 65.3667 57.7662 65.3264C57.2993 65.2576 56.839 65.1498 56.39 65.0043L55.1529 67.7932C55.1415 67.8171 55.1252 67.8382 55.105 67.8552C55.0848 67.8723 55.0612 67.8848 55.0358 67.8921C55.0208 67.8988 55.0047 67.9026 54.9882 67.903ZM48.9419 63.2951L54.9004 67.4455L56.1155 64.7005C56.1361 64.6567 56.1728 64.6226 56.218 64.6054C56.2405 64.5954 56.2648 64.5902 56.2894 64.5902C56.3139 64.5902 56.3383 64.5954 56.3607 64.6054C56.8335 64.7818 57.3246 64.9046 57.8247 64.9714C58.1029 65.0153 58.3591 65.0775 58.5897 65.1324C59.351 65.3154 59.6328 65.352 59.8048 65.0043C60.0683 64.4626 60.5039 61.9153 60.6503 60.9783C60.6572 60.9381 60.6763 60.9011 60.7051 60.8722C61.0588 60.5309 61.3867 60.1639 61.686 59.7742C61.7623 59.6915 61.8185 59.5924 61.8502 59.4845C61.8819 59.3766 61.8884 59.2628 61.869 59.152C61.8448 59.0698 61.8022 58.9941 61.7445 58.9308C61.6868 58.8674 61.6155 58.8179 61.536 58.786C61.0492 58.5591 60.588 58.054 60.5075 55.7921C60.4584 54.5855 60.0785 53.4156 59.4095 52.4103C57.1623 51.6783 53.5279 52.1614 51.4344 53.4717C50.3583 54.1488 49.7288 55.0052 49.6044 55.9495C49.1871 59.2435 49.8899 60.3415 49.8972 60.3415C49.9134 60.366 49.9237 60.394 49.9275 60.4231C49.9314 60.4523 49.9285 60.482 49.9191 60.5098L48.9419 63.2951Z" fill="#263238"/>
<path d="M60.0828 59.4269C59.9071 59.4269 59.6619 59.3244 59.4752 58.8303C59.2218 58.035 59.2218 57.1807 59.4752 56.3854C59.6619 55.8876 59.9071 55.7852 60.0791 55.7852C60.2511 55.7852 60.4964 55.8876 60.683 56.3817C60.8179 56.775 60.8847 57.1884 60.8807 57.6042C60.8885 58.0196 60.8241 58.4332 60.6904 58.8266C60.5074 59.3207 60.2621 59.4269 60.0865 59.4269H60.0828ZM60.0828 56.1512C60.0389 56.1512 59.9254 56.2244 59.8193 56.5172C59.5933 57.2317 59.5933 57.9986 59.8193 58.7132C59.9254 58.9986 60.0389 59.0792 60.0828 59.0792C60.1267 59.0792 60.2402 59.0023 60.3463 58.7132C60.4629 58.3591 60.5186 57.9878 60.511 57.6152C60.5163 57.2421 60.4581 56.8708 60.339 56.5172C60.2292 56.239 60.1194 56.1658 60.0755 56.1658L60.0828 56.1512Z" fill="#263238"/>
<path d="M59.4639 57.8045L53.1504 57.5483C53.1264 57.5473 53.1028 57.5416 53.0809 57.5316C53.0591 57.5215 53.0395 57.5072 53.0231 57.4895C53.0068 57.4718 52.9941 57.4511 52.9858 57.4285C52.9775 57.406 52.9738 57.382 52.9748 57.3579C52.9747 57.3336 52.9797 57.3095 52.9894 57.2871C52.9991 57.2648 53.0134 57.2448 53.0313 57.2282C53.0492 57.2117 53.0703 57.1991 53.0933 57.1912C53.1164 57.1833 53.1408 57.1802 53.1651 57.1823L59.4786 57.4385C59.5271 57.4385 59.5737 57.4577 59.608 57.4921C59.6423 57.5264 59.6616 57.5729 59.6616 57.6215C59.6616 57.67 59.6423 57.7165 59.608 57.7509C59.5737 57.7852 59.5271 57.8045 59.4786 57.8045H59.4639Z" fill="#263238"/>
<path d="M60.3022 55.7672C60.2744 55.7664 60.2471 55.7601 60.2216 55.7489C59.8183 55.5949 59.4 55.4833 58.9736 55.4159C58.9259 55.4069 58.8835 55.3798 58.8555 55.3401C58.8275 55.3005 58.816 55.2515 58.8235 55.2036C58.8271 55.1799 58.8353 55.1572 58.8478 55.1367C58.8603 55.1163 58.8767 55.0985 58.8962 55.0845C58.9156 55.0705 58.9377 55.0606 58.961 55.0553C58.9844 55.0499 59.0086 55.0494 59.0321 55.0535C59.4955 55.1261 59.9495 55.2489 60.3863 55.4195C60.408 55.43 60.4274 55.4448 60.4433 55.4629C60.4591 55.481 60.4712 55.5022 60.4787 55.525C60.4862 55.5479 60.489 55.5721 60.487 55.5961C60.485 55.6201 60.4781 55.6434 60.4669 55.6647C60.4518 55.6955 60.4283 55.7215 60.3992 55.7396C60.3701 55.7577 60.3365 55.7673 60.3022 55.7672Z" fill="#263238"/>
<path d="M60.2146 62.146H60.1927L59.5339 62.0728C59.5098 62.0705 59.4864 62.0634 59.4651 62.0521C59.4437 62.0407 59.4248 62.0252 59.4095 62.0065C59.3942 61.9877 59.3828 61.9662 59.3758 61.943C59.3689 61.9198 59.3666 61.8955 59.3692 61.8715C59.3756 61.8229 59.4005 61.7787 59.4386 61.748C59.4768 61.7173 59.5253 61.7026 59.5741 61.7068L60.2329 61.78C60.2819 61.7855 60.3266 61.8101 60.3575 61.8485C60.3883 61.8869 60.4028 61.9359 60.3976 61.9849C60.3915 62.0292 60.3696 62.0699 60.336 62.0994C60.3025 62.129 60.2594 62.1455 60.2146 62.146Z" fill="#263238"/>
<path d="M53.1504 57.3656C53.1504 57.3656 54.7462 57.3875 54.5924 56.9081C54.4387 56.4286 53.9117 56.059 54.2264 55.682C54.5412 55.305 55.8112 54.8768 55.8405 54.1594C55.8698 53.4421 55.4745 53.142 55.6136 52.948C55.7527 52.754 57.9304 53.4128 58.3769 53.1017C58.8234 52.7906 58.4903 52.5454 58.4903 52.5454C58.4903 52.5454 61.0999 53.6617 61.5391 52.937C61.9783 52.2123 61.6965 50.1188 58.655 48.75C55.6136 47.3811 49.7576 47.1981 48.2643 48.5779C46.771 49.9577 45.4937 52.1867 45.5559 54.4083C45.6181 56.6299 47.2651 59.4408 47.7739 60.4253C48.2826 61.4099 49.3257 62.2553 50.2919 61.8893C51.2582 61.5233 52.1219 59.6934 52.3122 58.5588C52.5026 57.4242 53.1504 57.3656 53.1504 57.3656Z" fill="#263238"/>
<path d="M49.8053 62.1569C48.9122 62.1569 48.0594 61.403 47.6093 60.5099L47.4006 60.1183C46.7601 58.9215 45.4279 56.4327 45.3693 54.4123C45.3035 51.9601 46.7565 49.7202 48.1363 48.4429C49.7613 46.9423 55.7418 47.2424 58.7283 48.5856C60.8841 49.5555 61.5575 50.8256 61.7661 51.5136C61.8583 51.7609 61.8993 52.0243 61.8868 52.2879C61.8742 52.5515 61.8082 52.8098 61.6929 53.0472C61.2757 53.7279 59.5958 53.1899 58.7649 52.8788C58.7169 53.0411 58.6098 53.1795 58.4648 53.2668C58.1684 53.4717 57.4876 53.3766 56.5543 53.2192C56.2835 53.1753 55.9321 53.1131 55.7637 53.1094C55.7637 53.146 55.7967 53.1972 55.815 53.2375C55.9505 53.5333 56.0156 53.8565 56.0053 54.1818C55.9797 54.7491 55.3685 55.1297 54.8744 55.4335C54.6844 55.5316 54.5083 55.6547 54.351 55.7995C54.2485 55.9312 54.3107 56.052 54.4974 56.3448C54.6073 56.5033 54.696 56.6756 54.7609 56.8572C54.7797 56.9128 54.7848 56.972 54.7759 57.03C54.767 57.088 54.7443 57.1429 54.7097 57.1903C54.4498 57.5563 53.4799 57.5563 53.1615 57.5563C53.0846 57.5563 52.6125 57.7063 52.4734 58.5957C52.2867 59.7852 51.3754 61.6848 50.336 62.0691C50.1656 62.1292 49.9859 62.159 49.8053 62.1569ZM52.4844 47.8097C50.6544 47.8097 49.033 48.1062 48.3742 48.7137C47.1115 49.8813 45.6585 52.0699 45.7244 54.405C45.7793 56.3338 47.0859 58.7751 47.7117 59.9463L47.924 60.3415C48.3925 61.2456 49.3551 62.0361 50.2152 61.7177C51.0753 61.3993 51.95 59.5839 52.1147 58.5298C52.3087 57.2928 53.0956 57.1866 53.1285 57.183H53.1505C53.7507 57.183 54.362 57.0841 54.4205 56.967C54.3632 56.8153 54.287 56.6714 54.1936 56.5388C54.0143 56.2606 53.7947 55.9166 54.0692 55.5689C54.2484 55.3835 54.4559 55.2279 54.684 55.1077C55.1049 54.8479 55.6283 54.5258 55.643 54.1525C55.6515 53.88 55.5963 53.6093 55.4819 53.3619C55.4087 53.1826 55.3392 52.9959 55.4453 52.8495C55.5515 52.7031 55.8113 52.7104 56.6202 52.8495C57.1619 52.9374 58.0622 53.0911 58.2599 52.9557C58.3733 52.8752 58.4136 52.8129 58.4136 52.7763C58.4081 52.7446 58.3912 52.7159 58.366 52.6958C58.3316 52.6678 58.3083 52.6285 58.3003 52.5849C58.2922 52.5413 58.3 52.4963 58.3221 52.4579C58.3444 52.42 58.3795 52.3913 58.4212 52.3772C58.4629 52.3631 58.5083 52.3644 58.549 52.381C59.5409 52.8056 61.111 53.2485 61.3709 52.8459C61.4591 52.6524 61.5074 52.4432 61.5131 52.2307C61.5187 52.0181 61.4816 51.8067 61.4038 51.6088C61.2135 50.9976 60.5949 49.8337 58.5673 48.9223C56.9349 48.1867 54.5633 47.8097 52.4844 47.8097Z" fill="#263238"/>
<path d="M53.3891 58.01C53.3891 58.01 53.3086 56.4032 52.4668 56.1031C51.625 55.803 50.7429 56.7875 51.065 58.0612C51.1056 58.2873 51.1937 58.5021 51.3235 58.6916C51.4533 58.881 51.6219 59.0407 51.8181 59.1601C52.0143 59.2795 52.2337 59.3558 52.4616 59.3841C52.6895 59.4123 52.9208 59.3918 53.1402 59.3239" fill="white"/>
<path d="M52.7042 59.5953C52.4357 59.5923 52.171 59.5311 51.9283 59.416C51.6712 59.287 51.4459 59.1026 51.2686 58.876C51.0914 58.6494 50.9667 58.3863 50.9035 58.1057C50.8027 57.7743 50.7933 57.4217 50.8764 57.0854C50.9595 56.7491 51.132 56.4415 51.3757 56.1952C51.5267 56.0461 51.7165 55.9424 51.9235 55.8958C52.1306 55.8493 52.3465 55.8617 52.5469 55.9317C53.4911 56.2684 53.5863 57.93 53.59 58.0032C53.5909 58.0273 53.5872 58.0513 53.5789 58.0738C53.5706 58.0964 53.5579 58.1171 53.5416 58.1348C53.5253 58.1525 53.5056 58.1668 53.4838 58.1769C53.4619 58.1869 53.4383 58.1926 53.4143 58.1935C53.3904 58.195 53.3665 58.1917 53.344 58.1838C53.3214 58.1759 53.3006 58.1636 53.2829 58.1476C53.2652 58.1316 53.2508 58.1122 53.2407 58.0905C53.2306 58.0689 53.2249 58.0454 53.224 58.0215C53.202 57.6079 53.019 56.488 52.4224 56.2794C52.2847 56.2322 52.1366 56.2247 51.9949 56.2577C51.8531 56.2907 51.7235 56.3629 51.6209 56.466C51.454 56.659 51.3323 56.8868 51.2647 57.1328C51.1971 57.3789 51.1853 57.6369 51.2302 57.888C51.2751 58.1392 51.3756 58.3771 51.5242 58.5845C51.6728 58.7919 51.8659 58.9634 52.0894 59.0866C52.2412 59.1653 52.4075 59.2121 52.5781 59.2241C52.7487 59.236 52.9199 59.2129 53.0812 59.1561C53.1254 59.1363 53.1756 59.1348 53.2209 59.152C53.2662 59.1691 53.3028 59.2035 53.3228 59.2476C53.3332 59.2692 53.3392 59.2926 53.3404 59.3166C53.3416 59.3405 53.338 59.3644 53.3298 59.3869C53.3217 59.4095 53.309 59.4301 53.2927 59.4477C53.2764 59.4652 53.2568 59.4793 53.2349 59.4892C53.0675 59.5615 52.8866 59.5977 52.7042 59.5953Z" fill="#263238"/>
<path d="M56.2947 64.7739C55.7321 64.6054 55.2041 64.3377 54.7356 63.9834C54.4035 63.7343 54.1068 63.4412 53.8535 63.1123L55.2882 66.8784L56.2947 64.7739Z" fill="#263238"/>
<path d="M55.2881 67.0609C55.2523 67.0593 55.2177 67.0474 55.1885 67.0266C55.1593 67.0058 55.1367 66.9771 55.1234 66.9438L53.6887 63.1777C53.6728 63.1358 53.6728 63.0896 53.6887 63.0477C53.7046 63.0058 53.7353 62.9713 53.775 62.9505C53.8147 62.9298 53.8606 62.9243 53.904 62.9351C53.9475 62.946 53.9855 62.9724 54.0108 63.0093C54.2558 63.3214 54.5399 63.6006 54.8562 63.8401C55.308 64.1768 55.8144 64.4331 56.3532 64.5978C56.379 64.6052 56.4029 64.6182 56.4232 64.6359C56.4434 64.6536 56.4595 64.6756 56.4703 64.7002C56.4819 64.7242 56.488 64.7505 56.488 64.7771C56.488 64.8037 56.4819 64.83 56.4703 64.854L55.4638 66.9585C55.4479 66.991 55.4228 67.0181 55.3915 67.0363C55.3602 67.0546 55.3242 67.0631 55.2881 67.0609ZM54.3475 63.895L55.3064 66.4131L56.0384 64.8832C55.5269 64.7098 55.0472 64.4539 54.6183 64.1256L54.3475 63.895Z" fill="#263238"/>
<path d="M48.3121 82.1553C48.2641 82.1553 48.2181 82.1365 48.1839 82.103C48.1497 82.0694 48.13 82.0238 48.1291 81.9759C48.1281 81.9518 48.132 81.9277 48.1405 81.905C48.1491 81.8824 48.1622 81.8618 48.1789 81.8444C48.1957 81.8269 48.2158 81.813 48.238 81.8036C48.2603 81.7941 48.2842 81.7892 48.3084 81.7893C48.6842 81.7867 49.0594 81.7611 49.432 81.7124C49.4561 81.7093 49.4805 81.7111 49.5039 81.7176C49.5273 81.724 49.5491 81.7351 49.5682 81.75C49.5873 81.765 49.6032 81.7837 49.615 81.8048C49.6268 81.826 49.6343 81.8493 49.637 81.8734C49.64 81.897 49.6384 81.921 49.6321 81.9439C49.6258 81.9668 49.6151 81.9883 49.6004 82.007C49.5858 82.0258 49.5676 82.0414 49.5468 82.053C49.5261 82.0646 49.5032 82.072 49.4796 82.0747C49.0934 82.1227 48.7048 82.1496 48.3157 82.1553H48.3121Z" fill="#263238"/>
<path d="M47.2837 82.1187C45.8425 82.0122 44.4188 81.7371 43.0418 81.2989C42.9963 81.283 42.959 81.25 42.9377 81.2068C42.9165 81.1637 42.9131 81.1139 42.9283 81.0683C42.9361 81.0454 42.9484 81.0242 42.9644 81.0061C42.9805 80.988 42.9999 80.9732 43.0217 80.9626C43.0435 80.9521 43.0672 80.946 43.0914 80.9446C43.1155 80.9433 43.1397 80.9467 43.1625 80.9548C44.5058 81.3793 45.8936 81.6471 47.2983 81.7527C47.3463 81.7564 47.3908 81.7789 47.4223 81.8152C47.4538 81.8515 47.4697 81.8987 47.4667 81.9467C47.4648 81.9936 47.4446 82.0379 47.4103 82.0701C47.3761 82.1022 47.3307 82.1197 47.2837 82.1187Z" fill="#263238"/>
<path d="M48.7917 85.1998H48.7441C48.3288 85.0819 47.9207 84.9401 47.5217 84.7752C47.4766 84.7573 47.4404 84.7221 47.4212 84.6775C47.402 84.6329 47.4013 84.5825 47.4192 84.5373C47.4372 84.4922 47.4723 84.456 47.517 84.4368C47.5616 84.4176 47.612 84.4169 47.6571 84.4348C48.0429 84.5954 48.4376 84.7335 48.8393 84.8484C48.8628 84.8539 48.885 84.8641 48.9044 84.8785C48.9238 84.8929 48.94 84.9112 48.952 84.9321C48.964 84.9531 48.9716 84.9763 48.9743 85.0003C48.9769 85.0243 48.9746 85.0486 48.9674 85.0717C48.9557 85.109 48.9323 85.1416 48.9007 85.1647C48.869 85.1877 48.8309 85.2 48.7917 85.1998Z" fill="#263238"/>
<path d="M46.7639 84.421C46.7386 84.4262 46.7124 84.4262 46.687 84.421C45.4654 83.8448 44.2743 83.2059 43.1185 82.5068C43.0773 82.4811 43.0479 82.44 43.037 82.3927C43.026 82.3453 43.0343 82.2955 43.06 82.2543C43.0857 82.213 43.1268 82.1837 43.1741 82.1727C43.2215 82.1617 43.2713 82.17 43.3125 82.1957C44.4541 82.8888 45.6319 83.5204 46.8408 84.088C46.8778 84.1059 46.9078 84.1358 46.9257 84.1729C46.9437 84.2099 46.9486 84.252 46.9397 84.2922C46.9308 84.3324 46.9087 84.3684 46.8767 84.3945C46.8448 84.4205 46.8051 84.435 46.7639 84.4357V84.421Z" fill="#263238"/>
<path d="M43.7155 89.6325C43.6875 89.6339 43.6596 89.6276 43.635 89.6142C43.1877 89.3793 42.7801 89.0754 42.4272 88.7139C42.41 88.6969 42.3964 88.6766 42.3871 88.6543C42.3778 88.632 42.373 88.6081 42.373 88.5839C42.373 88.5598 42.3778 88.5359 42.3871 88.5136C42.3964 88.4913 42.41 88.471 42.4272 88.454C42.462 88.4202 42.5086 88.4014 42.5571 88.4014C42.6056 88.4014 42.6522 88.4202 42.687 88.454C43.0087 88.7862 43.3789 89.0676 43.785 89.2885C43.807 89.2986 43.8268 89.3131 43.843 89.3311C43.8592 89.3491 43.8717 89.3702 43.8795 89.3931C43.8874 89.416 43.8905 89.4403 43.8888 89.4645C43.887 89.4886 43.8803 89.5122 43.8692 89.5337C43.8551 89.5627 43.8333 89.5872 43.8062 89.6047C43.7791 89.6221 43.7477 89.6317 43.7155 89.6325Z" fill="#263238"/>
<path d="M41.6184 87.7405C41.5912 87.7405 41.5644 87.7347 41.5397 87.7233C41.5151 87.7119 41.4932 87.6953 41.4756 87.6746C40.5136 86.4567 39.6461 85.1671 38.8807 83.817C38.8689 83.7958 38.8614 83.7726 38.8586 83.7485C38.8559 83.7245 38.8578 83.7001 38.8645 83.6768C38.8711 83.6535 38.8822 83.6318 38.8973 83.6128C38.9123 83.5939 38.9309 83.578 38.9521 83.5663C38.9732 83.5545 38.9965 83.547 39.0205 83.5442C39.0446 83.5414 39.0689 83.5434 39.0922 83.55C39.1155 83.5566 39.1372 83.5678 39.1562 83.5828C39.1752 83.5979 39.191 83.6165 39.2028 83.6376C39.9577 84.9692 40.8142 86.2406 41.7648 87.4404C41.7945 87.4788 41.8083 87.5271 41.8036 87.5754C41.7988 87.6237 41.7758 87.6683 41.7392 87.7002C41.7044 87.7266 41.662 87.7408 41.6184 87.7405Z" fill="#263238"/>
<path d="M53.3672 69.3445L54.5091 72.5104L55.0288 77.5685C55.0288 77.5685 55.8157 75.1309 56.0134 74.2745C56.1032 73.6764 55.9898 73.0656 55.6913 72.5396L55.2228 70.7353L54.9886 71.8955L53.8906 69.2969L53.3672 69.3445Z" fill="#BEEBC3"/>
<path d="M55.0288 77.7522C54.9875 77.7482 54.9488 77.7299 54.9194 77.7005C54.8901 77.6712 54.8718 77.6325 54.8678 77.5912L54.348 72.555L53.2134 69.4111C53.2009 69.3861 53.1943 69.3585 53.1943 69.3306C53.1943 69.3026 53.2009 69.275 53.2134 69.25C53.2278 69.2263 53.2475 69.2063 53.271 69.1917C53.2946 69.1771 53.3212 69.1682 53.3488 69.1659L53.8722 69.1219C53.9105 69.1182 53.9489 69.1269 53.9818 69.1466C54.0148 69.1664 54.0405 69.1962 54.0552 69.2317L54.9263 71.2813L55.0434 70.7031C55.051 70.6626 55.0722 70.626 55.1035 70.5994C55.1348 70.5727 55.1743 70.5576 55.2155 70.5567C55.2563 70.5571 55.296 70.5704 55.3289 70.5947C55.3618 70.619 55.3861 70.6531 55.3985 70.6921L55.8633 72.4745C56.1775 73.0361 56.2935 73.6872 56.1927 74.3228C55.995 75.1719 55.2374 77.529 55.2045 77.6168C55.1941 77.6555 55.1712 77.6897 55.1395 77.7142C55.1078 77.7386 55.0689 77.752 55.0288 77.7522ZM53.6197 69.5062L54.6811 72.4342V72.4782L55.1093 76.6579C55.3582 75.871 55.7022 74.74 55.8413 74.2203C55.9205 73.6675 55.815 73.104 55.5412 72.6172C55.5391 72.6014 55.5391 72.5854 55.5412 72.5697L55.2703 71.5375L55.1935 71.9035C55.1859 71.941 55.1665 71.975 55.1382 72.0007C55.1099 72.0264 55.0741 72.0424 55.0361 72.0463C54.9969 72.0504 54.9573 72.0421 54.9231 72.0223C54.8889 72.0026 54.8618 71.9725 54.8458 71.9365L53.7954 69.4623L53.6197 69.5062Z" fill="#263238"/>
<path d="M48.4189 62.4062L47.416 63.9947L53.1183 70.6559L55.9511 67.4168L48.4189 62.4062Z" fill="white"/>
<path d="M53.1178 70.8386C53.0915 70.8391 53.0654 70.8337 53.0413 70.823C53.0173 70.8122 52.9959 70.7963 52.9787 70.7764L47.2765 64.1152C47.2536 64.0838 47.2412 64.046 47.2412 64.0072C47.2412 63.9684 47.2536 63.9306 47.2765 63.8992L48.2756 62.3071C48.3028 62.2662 48.3448 62.2373 48.3928 62.2266C48.4407 62.2166 48.4906 62.2258 48.5318 62.2522L56.0678 67.2628C56.0894 67.277 56.1075 67.2959 56.1208 67.3181C56.1341 67.3402 56.1423 67.3651 56.1446 67.3909C56.1486 67.4167 56.147 67.4431 56.1401 67.4684C56.1331 67.4936 56.121 67.5171 56.1044 67.5373L53.2569 70.7727C53.2396 70.7928 53.2183 70.809 53.1943 70.8203C53.1704 70.8317 53.1443 70.8379 53.1178 70.8386ZM47.6278 63.9798L53.1178 70.3774L55.6798 67.4494L48.4769 62.6585L47.6278 63.9798Z" fill="#263238"/>
<path d="M55.0284 77.5693C55.0284 77.5693 50.5083 88.2968 49.6628 90.1707C48.8174 92.0446 46.6543 94.9909 46.6543 94.9909L46.8519 98.7717L50.8304 96.3927C50.8304 96.3927 53.5497 89.0727 54.3183 84.4648C55.0869 79.8568 55.0284 77.5693 55.0284 77.5693Z" fill="#BEEBC3"/>
<path d="M46.8485 98.9542C46.819 98.9544 46.7899 98.9468 46.7643 98.9323C46.7361 98.9182 46.7121 98.8968 46.6947 98.8705C46.6774 98.8442 46.6673 98.8137 46.6655 98.7822L46.4825 94.9905C46.4817 94.9485 46.4945 94.9074 46.5191 94.8733C46.541 94.844 48.7151 91.916 49.5056 90.0897C50.2962 88.2634 54.8273 77.6018 54.8712 77.4956C54.8879 77.4569 54.9172 77.4249 54.9545 77.4049C54.9917 77.385 55.0346 77.3783 55.0761 77.3858C55.1169 77.3942 55.1535 77.4161 55.1802 77.448C55.2068 77.4799 55.2217 77.52 55.2225 77.5615C55.2225 77.5871 55.2701 79.9076 54.5088 84.4753C53.7476 89.0429 51.0392 96.3629 51.0099 96.4361C50.9974 96.4766 50.9699 96.5106 50.933 96.5313L46.9583 98.9213C46.9264 98.9442 46.8877 98.9558 46.8485 98.9542ZM46.8485 95.0453L47.0278 98.4601L50.6878 96.2641C50.9477 95.5541 53.4255 88.7428 54.1428 84.4277C54.4864 82.4797 54.7161 80.5134 54.8309 78.5387C53.7329 81.1483 50.5158 88.7209 49.8387 90.2507C49.0445 92.0002 47.1486 94.6171 46.8485 95.038V95.0453Z" fill="#263238"/>
<path d="M49.4911 69.067C49.4911 69.067 47.9649 68.0861 46.79 68.2765C45.6152 68.4668 42.8812 69.9601 41.666 71.3655C40.4509 72.7709 30.7775 77.9535 30.4006 78.6855C30.0236 79.4175 23.9297 94.6138 23.9297 94.6138L27.6885 96.3523L31.1838 90.9721L36.015 82.2979L47.8075 78.2719" fill="white"/>
<path d="M27.6916 96.5428C27.6662 96.548 27.64 96.548 27.6147 96.5428L23.8559 94.8006C23.8136 94.7806 23.7805 94.7452 23.7635 94.7017C23.7465 94.6581 23.7468 94.6097 23.7644 94.5664C24.0133 93.9478 29.8656 79.3664 30.2389 78.6234C30.4292 78.2574 32.1202 77.2289 35.0884 75.4575C37.8151 73.8324 40.9042 71.9915 41.53 71.2631C42.7195 69.8796 45.4865 68.3132 46.7602 68.1082C48.0338 67.9032 49.5271 68.8841 49.5893 68.9244C49.6098 68.9371 49.6275 68.9537 49.6416 68.9733C49.6556 68.9929 49.6656 69.015 49.671 69.0385C49.6765 69.062 49.6772 69.0863 49.6733 69.11C49.6693 69.1338 49.6607 69.1565 49.6479 69.1769C49.6215 69.2185 49.5798 69.248 49.5318 69.2589C49.4839 69.2699 49.4335 69.2615 49.3917 69.2355C49.3917 69.2355 47.9277 68.2949 46.8297 68.4706C45.7317 68.6462 43.0233 70.1029 41.8192 71.501C41.153 72.277 38.1592 74.063 35.2861 75.7723C33.1559 77.0423 30.744 78.4806 30.5793 78.7881C30.2133 79.4762 24.8331 92.9084 24.178 94.5444L27.6367 96.1438L31.0441 90.8954L35.868 82.2175C35.8898 82.1785 35.9249 82.1487 35.9668 82.1333L47.763 78.1073C47.8086 78.0921 47.8584 78.0955 47.9016 78.1168C47.9447 78.138 47.9778 78.1754 47.9936 78.2208C48.0089 78.2669 48.0056 78.3172 47.9844 78.3609C47.9632 78.4047 47.9258 78.4384 47.8801 78.455L36.1681 82.4554L31.3735 91.0637L27.8709 96.4586C27.8522 96.4883 27.8254 96.5121 27.7936 96.527C27.7618 96.542 27.7264 96.5474 27.6916 96.5428Z" fill="#263238"/>
<path d="M28.4967 95.0719C28.4726 95.0774 28.4476 95.0774 28.4235 95.0719L24.3975 93.3078C24.3563 93.2861 24.3249 93.2495 24.3098 93.2054C24.2946 93.1614 24.2968 93.1132 24.316 93.0707C24.3351 93.0282 24.3697 92.9947 24.4127 92.9768C24.4558 92.959 24.504 92.9582 24.5476 92.9747L28.5736 94.7352C28.6177 94.7552 28.6522 94.7916 28.67 94.8367C28.6878 94.8818 28.6873 94.932 28.6687 94.9767C28.6521 95.0073 28.627 95.0325 28.5966 95.0494C28.5661 95.0662 28.5314 95.0741 28.4967 95.0719Z" fill="#263238"/>
<path d="M27.6917 96.3596L28.0577 99.6536L27.4501 101.151C27.5315 101.577 27.584 102.009 27.6075 102.443C27.5819 102.735 27.7136 102.893 27.2744 102.765C26.8352 102.636 26.3484 101.667 26.3484 101.667L25.675 102.959C25.675 102.959 25.4591 103.072 24.8369 102.772C24.6347 102.647 24.4597 102.483 24.322 102.289C24.1844 102.096 24.0869 101.877 24.0353 101.645C24.0353 101.645 22.1285 100.419 21.9601 99.8366C21.8597 99.2873 21.8597 98.7243 21.9601 98.175L23.9402 94.6211L27.6917 96.3596Z" fill="white"/>
<path d="M25.536 103.157C25.2626 103.139 24.9965 103.062 24.7564 102.93C24.5387 102.802 24.3485 102.633 24.197 102.431C24.0455 102.229 23.9359 102 23.8744 101.755C23.5084 101.513 21.9529 100.485 21.7699 99.8919C21.66 99.314 21.66 98.7204 21.7699 98.1425C21.7733 98.1217 21.7808 98.1018 21.7919 98.0839L23.7683 94.5337C23.7908 94.4931 23.8279 94.4626 23.872 94.4483C23.9162 94.434 23.9641 94.4371 24.0061 94.4568L27.765 96.1953C27.794 96.2082 27.8192 96.2285 27.8378 96.2542C27.8565 96.2799 27.868 96.3101 27.8711 96.3417L28.2371 99.6357C28.2461 99.6643 28.2461 99.695 28.2371 99.7236L27.6479 101.162C27.732 101.588 27.7809 102.02 27.7943 102.454C27.7943 102.509 27.7943 102.56 27.7943 102.604C27.8063 102.662 27.8032 102.722 27.7853 102.778C27.7673 102.835 27.7351 102.886 27.6918 102.926C27.5856 103.014 27.4392 102.996 27.2306 102.926C26.8902 102.824 26.5535 102.355 26.3595 102.029L25.8435 103.021C25.8259 103.052 25.8006 103.077 25.7703 103.094C25.6992 103.136 25.6183 103.157 25.536 103.157ZM22.1286 98.223C22.0337 98.7335 22.0337 99.257 22.1286 99.7675C22.2493 100.152 23.4279 101.016 24.1452 101.469C24.1862 101.497 24.215 101.539 24.2258 101.587C24.2658 101.795 24.3473 101.994 24.4655 102.171C24.5837 102.347 24.7362 102.498 24.9138 102.615C25.1085 102.726 25.3267 102.79 25.5507 102.802L26.1875 101.59C26.2022 101.56 26.2251 101.535 26.2536 101.517C26.2821 101.5 26.3151 101.491 26.3485 101.491C26.3828 101.492 26.4162 101.501 26.4453 101.52C26.4743 101.538 26.4978 101.563 26.5133 101.594C26.6999 101.96 27.0769 102.531 27.3258 102.604L27.4209 102.63C27.4174 102.567 27.4174 102.505 27.4209 102.443C27.3995 102.024 27.3481 101.607 27.2672 101.195C27.2582 101.161 27.2582 101.126 27.2672 101.092L27.8638 99.6504L27.4978 96.4991L23.9842 94.8741L22.1286 98.223Z" fill="#263238"/>
<path d="M21.9606 98.1748C21.9606 98.1748 20.7382 98.2919 20.5149 98.6433C20.2917 98.9946 19.2998 100.964 19.2998 100.964L20.083 101.549C20.083 101.549 20.5991 100.393 20.9541 99.7816C21.0382 99.6138 21.1717 99.4758 21.3366 99.3861C21.5015 99.2965 21.6899 99.2595 21.8764 99.2801L21.9606 98.1748Z" fill="#263238"/>
<path d="M20.0752 101.732C20.0354 101.734 19.9964 101.721 19.9654 101.696L19.1822 101.11C19.148 101.085 19.1241 101.048 19.1148 101.006C19.1054 100.965 19.1111 100.921 19.1309 100.883C19.1712 100.803 20.1301 98.8996 20.3534 98.5445C20.5766 98.1895 21.7185 98.0138 21.9345 97.9919C21.9611 97.9897 21.9879 97.9931 22.0131 98.0019C22.0384 98.0107 22.0614 98.0248 22.0809 98.0431C22.1005 98.0618 22.1156 98.0847 22.1251 98.11C22.1346 98.1354 22.1383 98.1625 22.1358 98.1895L22.0516 99.2875C22.0485 99.3126 22.0403 99.3368 22.0277 99.3587C22.0151 99.3806 21.9983 99.3998 21.9782 99.4152C21.9581 99.4305 21.9351 99.4417 21.9106 99.448C21.8862 99.4544 21.8607 99.4558 21.8357 99.4522C21.6855 99.4379 21.5346 99.4703 21.4036 99.545C21.2726 99.6196 21.1678 99.733 21.1037 99.8694C20.7377 100.462 20.2436 101.608 20.2362 101.619C20.2253 101.644 20.2087 101.666 20.1878 101.684C20.1668 101.702 20.1421 101.715 20.1155 101.721L20.0752 101.732ZM19.5262 100.913L20.002 101.279C20.1667 100.913 20.5217 100.162 20.7889 99.7011C20.8758 99.531 21.0056 99.3865 21.1654 99.2818C21.3252 99.1772 21.5096 99.1161 21.7002 99.1045L21.7551 98.3945C21.2647 98.4603 20.756 98.6031 20.6571 98.7605C20.4961 99.0276 19.7641 100.459 19.5262 100.913Z" fill="#263238"/>
<path d="M26.8971 100.148L26.4616 101.203C26.4616 101.203 27.1387 101.594 26.9557 102.019C26.7727 102.443 25.8906 104.445 25.8906 104.445L26.7763 104.881C26.7763 104.881 27.9988 103.161 27.9805 102.205C27.9749 101.801 27.8738 101.404 27.6855 101.047C27.4973 100.689 27.2271 100.382 26.8971 100.148Z" fill="#263238"/>
<path d="M26.7773 105.06C26.7482 105.061 26.7192 105.054 26.6931 105.041L25.8111 104.606C25.7692 104.584 25.7368 104.548 25.7205 104.504C25.7043 104.46 25.7052 104.411 25.7232 104.368C25.7232 104.368 26.6089 102.366 26.7883 101.945C26.8871 101.722 26.5101 101.444 26.371 101.363C26.3322 101.341 26.303 101.305 26.2888 101.262C26.2746 101.22 26.2766 101.174 26.2942 101.132L26.7187 100.075C26.7295 100.05 26.7456 100.028 26.7659 100.01C26.7861 99.9926 26.81 99.9796 26.8359 99.9722C26.8615 99.9641 26.8886 99.9619 26.9152 99.9657C26.9418 99.9695 26.9672 99.9792 26.9896 99.9942C27.3422 100.243 27.6313 100.572 27.8335 100.953C28.0357 101.335 28.1453 101.758 28.1535 102.19C28.1754 103.197 26.964 104.906 26.9127 104.975C26.8984 104.999 26.8786 105.019 26.8551 105.034C26.8316 105.048 26.8049 105.057 26.7773 105.06ZM26.1295 104.353L26.7151 104.642C26.9896 104.236 27.8131 102.948 27.8131 102.205C27.8054 101.866 27.7272 101.532 27.5835 101.224C27.4399 100.917 27.2339 100.642 26.9786 100.419L26.6895 101.151C26.9749 101.356 27.2934 101.718 27.125 102.106C26.9566 102.494 26.3527 103.87 26.1295 104.353Z" fill="#263238"/>
<path d="M15.7746 98.5667L31.0441 107.581C31.0441 107.581 32.0323 108.54 31.6737 109.258C31.315 109.975 25.6603 122.434 25.4224 122.726C25.1845 123.019 24.9283 123.4 23.9254 123.257C22.9226 123.114 7.96052 113.291 7.79582 113.093C7.63112 112.896 6.97232 112.332 7.35296 111.549C7.7336 110.765 13.9959 99.5366 14.1569 98.9876C14.3179 98.4386 15.3208 98.5887 15.7746 98.5667Z" fill="#878787"/>
<path d="M24.3283 123.477C24.1849 123.478 24.0417 123.467 23.9001 123.444C22.6923 123.268 7.73019 113.302 7.65699 113.229L7.59111 113.156C7.35321 112.9 6.79689 112.296 7.18851 111.483C7.33491 111.179 8.28651 109.43 9.51627 107.216C11.2548 104.053 13.8863 99.2807 13.9815 98.9513C14.1535 98.3657 14.955 98.384 15.4894 98.395H15.7676C15.8018 98.3945 15.8356 98.402 15.8664 98.4169L31.1396 107.435L31.1725 107.461C31.2164 107.505 32.2705 108.526 31.8386 109.349C31.7105 109.602 30.9236 111.318 29.9244 113.496C27.1465 119.557 25.7081 122.668 25.569 122.847C25.4371 123.053 25.2525 123.22 25.0343 123.331C24.8162 123.442 24.5724 123.492 24.3283 123.477ZM15.2369 98.7427C14.8489 98.7427 14.4097 98.7793 14.3328 99.0391C14.2377 99.3722 12.3271 102.857 9.83835 107.377C8.66715 109.499 7.66065 111.333 7.51791 111.626C7.23243 112.215 7.64235 112.658 7.86195 112.892L7.93515 112.976C8.03031 113.057 22.9778 122.935 23.9513 123.074C24.8187 123.202 25.0493 122.913 25.2579 122.639C25.4666 122.364 27.948 116.922 29.595 113.331C30.5906 111.154 31.3811 109.434 31.5092 109.174C31.7508 108.698 31.1871 107.984 30.9309 107.728L15.7383 98.75H15.2369V98.7427Z" fill="#263238"/>
<path d="M26.5095 114.344C26.476 114.345 26.443 114.336 26.4144 114.319L11.3022 105.275C11.2812 105.263 11.2628 105.247 11.2482 105.228C11.2336 105.209 11.223 105.187 11.2172 105.164C11.2113 105.141 11.2103 105.116 11.2143 105.093C11.2182 105.069 11.227 105.046 11.24 105.026C11.2518 105.005 11.2676 104.987 11.2866 104.972C11.3056 104.957 11.3273 104.947 11.3505 104.941C11.3737 104.934 11.3979 104.933 11.4217 104.936C11.4455 104.94 11.4683 104.948 11.4889 104.96L26.601 114.008C26.6365 114.027 26.6643 114.058 26.6802 114.095C26.696 114.132 26.6989 114.173 26.6883 114.212C26.6777 114.251 26.6543 114.285 26.6219 114.309C26.5894 114.333 26.5499 114.346 26.5095 114.344Z" fill="#263238"/>
<path d="M23.9954 122.939H23.9442C23.2122 122.723 23.1207 122.243 23.1719 121.877C23.2598 121.262 29.0279 109.342 29.6025 108.591C29.6856 108.464 29.7933 108.355 29.9191 108.27C30.0449 108.185 30.1864 108.126 30.3354 108.096C30.4843 108.067 30.6377 108.067 30.7865 108.097C30.9353 108.128 31.0765 108.187 31.202 108.273C31.222 108.286 31.2392 108.304 31.2525 108.324C31.2658 108.344 31.2749 108.367 31.2793 108.391C31.2838 108.415 31.2834 108.439 31.2783 108.463C31.2732 108.487 31.2634 108.509 31.2495 108.529C31.2209 108.568 31.1785 108.595 31.1309 108.604C31.0833 108.612 31.0341 108.603 30.9933 108.577C30.9068 108.517 30.8088 108.475 30.7054 108.454C30.6021 108.434 30.4956 108.435 30.3927 108.457C30.2897 108.479 30.1924 108.523 30.1069 108.584C30.0213 108.646 29.9493 108.724 29.8953 108.815C29.2256 109.689 23.6258 121.496 23.5343 121.932C23.4867 122.269 23.6404 122.466 24.0467 122.587C24.0952 122.594 24.139 122.62 24.1686 122.659C24.1981 122.698 24.2108 122.747 24.204 122.796C24.1972 122.844 24.1715 122.888 24.1323 122.918C24.0932 122.947 24.044 122.96 23.9954 122.953V122.939Z" fill="#263238"/>
</g>
<defs>
<clipPath id="clip0_85_2823">
<rect width="183" height="183" fill="white" transform="translate(0 0.5)"/>
</clipPath>
</defs>
</svg>
