<svg width="734" height="500" viewBox="0 0 734 500" fill="none" xmlns="http://www.w3.org/2000/svg">
<path d="M660 431.43C696.22 402.43 717.07 358.31 717.71 311.9C718.12 282.64 716.02 245.9 706.19 214.44C673.77 110.71 582.19 54.4402 515.19 42.4402C448.19 30.4402 379.19 52.4402 327.19 87.4402C275.19 122.44 280.19 116.44 191.19 103.44C102.19 90.4402 29.1901 128.44 5.19007 198.44C-18.8099 268.44 54.1901 308.11 62.1901 344.78C70.1901 381.45 56.1901 446.44 195.19 462.44C334.19 478.44 376.19 400.44 445.19 422.44C500.71 440.15 583.43 492.82 660 431.43Z" fill="#BEEBC3"/>
<path opacity="0.7" d="M660 431.43C696.22 402.43 717.07 358.31 717.71 311.9C718.12 282.64 716.02 245.9 706.19 214.44C673.77 110.71 582.19 54.4402 515.19 42.4402C448.19 30.4402 379.19 52.4402 327.19 87.4402C275.19 122.44 280.19 116.44 191.19 103.44C102.19 90.4402 29.1901 128.44 5.19007 198.44C-18.8099 268.44 54.1901 308.11 62.1901 344.78C70.1901 381.45 56.1901 446.44 195.19 462.44C334.19 478.44 376.19 400.44 445.19 422.44C500.71 440.15 583.43 492.82 660 431.43Z" fill="white"/>
<path d="M104.14 78.0595C102.73 76.5995 100.28 75.2495 96.0301 75.1395C86.4801 74.9095 89.0301 81.6695 86.4801 83.2995C83.9301 84.9295 83.2201 82.3695 80.6501 83.9995C78.0801 85.6295 79.2501 88.8895 77.1601 89.3595C75.0701 89.8295 72.2701 87.2595 69.7001 88.8895C67.1301 90.5195 67.1401 91.8895 65.9701 91.8895C64.8001 91.8895 62.4801 90.9595 61.0801 91.8895C59.6801 92.8195 58.0801 93.9895 58.0801 93.9895H83.0801" stroke="#212121" stroke-linecap="round" stroke-linejoin="round"/>
<path d="M106.77 82.2295L106.05 81.8995C105.938 81.0285 105.645 80.1906 105.19 79.4395" stroke="#212121" stroke-linecap="round" stroke-linejoin="round"/>
<path d="M86.2705 93.9991H117.001C117.001 93.9991 117.701 91.8991 115.141 90.4991C112.581 89.0991 111.411 90.2691 110.481 89.0991C109.551 87.9291 112.331 85.5491 107.991 82.8691" stroke="#212121" stroke-linecap="round" stroke-linejoin="round"/>
<path d="M392.65 153.109C391.23 151.639 388.78 150.289 384.53 150.189C374.98 149.959 377.53 156.709 374.98 158.339C372.43 159.969 371.72 157.409 369.16 159.039C366.6 160.669 367.76 163.939 365.66 164.399C363.56 164.859 360.77 162.299 358.21 163.939C355.65 165.579 355.64 166.939 354.48 166.939C353.32 166.939 350.98 166.009 349.59 166.939C348.2 167.869 346.59 169.039 346.59 169.039H371.59" stroke="#212121" stroke-linecap="round" stroke-linejoin="round"/>
<path d="M395.28 157.28L394.55 156.95C394.44 156.079 394.147 155.241 393.69 154.49" stroke="#212121" stroke-linecap="round" stroke-linejoin="round"/>
<path d="M374.78 169.059H405.5C405.5 169.059 406.2 166.959 403.64 165.569C401.08 164.179 399.91 165.329 398.98 164.169C398.05 163.009 400.83 160.619 396.49 157.939" stroke="#212121" stroke-linecap="round" stroke-linejoin="round"/>
<path d="M596.26 49.4503C593.72 46.8103 589.26 44.3802 581.64 44.1902C564.42 43.7702 569 56.0002 564.42 58.8902C559.84 61.7802 558.54 57.2103 553.92 60.1503C549.3 63.0903 551.4 68.9702 547.63 69.8102C543.86 70.6502 538.81 66.0002 534.19 69.0002C529.57 72.0002 529.57 74.4602 527.47 74.4602C525.37 74.4602 521.17 72.7802 518.65 74.4602C516.13 76.1402 513.19 78.2402 513.19 78.2402H558.28" stroke="#212121" stroke-linecap="round" stroke-linejoin="round"/>
<path d="M601 56.9997C600.59 56.7997 600.16 56.5997 599.7 56.3997C599.497 54.8315 598.969 53.3228 598.15 51.9697" stroke="#212121" stroke-linecap="round" stroke-linejoin="round"/>
<path d="M564.05 78.2102H619.43C619.43 78.2102 620.69 74.4302 616.07 71.9102C611.45 69.3902 609.36 71.4902 607.68 69.3902C606.18 67.5202 611.01 62.9902 603.19 58.1602" stroke="#212121" stroke-linecap="round" stroke-linejoin="round"/>
<path d="M262.13 94.0598H323.05C323.05 94.0598 325.13 87.8298 317.51 83.6798C309.89 79.5298 306.44 82.9898 303.67 79.5298C300.9 76.0698 311.29 67.0698 290.53 58.0798C290.53 58.0798 289.14 38.6998 260.77 38.0098C248.53 37.7098 242.99 41.2798 240.03 45.8198" stroke="#212121" stroke-linecap="round" stroke-linejoin="round"/>
<path d="M243.54 94.0596H253.68" stroke="#212121" stroke-linecap="round" stroke-linejoin="round"/>
<path d="M236.34 55.3799C235.47 58.3299 234.53 60.8799 232.4 62.2299C224.79 67.0699 222.72 59.4599 215.1 64.3099C207.48 69.1599 211 78.8399 204.73 80.2199C198.46 81.5999 190.19 73.9999 182.58 78.8399C174.97 83.6799 174.97 87.8399 171.51 87.8399C168.05 87.8399 161.13 85.0799 156.98 87.8399C152.83 90.5999 147.98 94.0699 147.98 94.0699H225.79" stroke="#212121" stroke-linecap="round" stroke-linejoin="round"/>
<path d="M642.359 266.989L678.03 194.949L688.74 200.249L686.19 160.439L652.99 182.549L663.7 187.849L628.02 259.889" stroke="#212121" stroke-linecap="round" stroke-linejoin="round"/>
<path d="M624.96 157.589L647.44 112.189L654.19 115.529L652.59 90.4395L631.66 104.369L638.41 107.709L615.93 153.119" stroke="#212121" stroke-linecap="round" stroke-linejoin="round"/>
<path d="M394.83 79.4992C399.654 68.4259 408.647 59.6997 419.861 55.2117C431.075 50.7238 443.605 50.8356 454.737 55.5231C465.869 60.2106 474.705 69.096 479.33 80.2536C483.955 91.4112 483.998 103.942 479.447 115.131C474.897 126.319 466.121 135.264 455.021 140.026C443.921 144.788 431.391 144.984 420.148 140.572C408.904 136.159 399.853 127.493 394.954 116.453C390.056 105.412 389.706 92.8861 393.98 81.5892" stroke="#212121" stroke-miterlimit="10"/>
<path d="M394.31 79.3093C399.188 68.1034 408.286 59.2713 419.632 54.7277C430.977 50.1841 443.656 50.2951 454.921 55.0365C466.185 59.7779 475.127 68.7678 479.808 80.0574C484.489 91.347 484.532 104.027 479.928 115.348C475.324 126.669 466.443 135.719 455.211 140.537C443.979 145.355 431.301 145.552 419.925 141.085C408.549 136.619 399.391 127.849 394.437 116.676C389.483 105.504 389.132 92.8289 393.46 81.3993" stroke="#212121" stroke-width="0.5" stroke-miterlimit="10"/>
<path d="M406.45 83.8897C410.146 75.7222 416.905 69.3346 425.267 66.1041C433.63 62.8737 442.927 63.0591 451.154 66.6206C459.382 70.182 465.88 76.834 469.248 85.1424C472.615 93.4508 472.583 102.75 469.158 111.035C465.732 119.319 459.188 125.926 450.936 129.43C442.684 132.934 433.386 133.055 425.046 129.767C416.706 126.478 409.992 120.044 406.353 111.851C402.713 103.658 402.439 94.3627 405.59 85.9697" stroke="#212121" stroke-miterlimit="10"/>
<path d="M405.931 83.6892C409.441 75.9624 415.685 69.8065 423.461 66.4058C431.237 63.0052 439.996 62.6 448.052 65.2681C456.109 67.9362 462.894 73.4893 467.103 80.859C471.312 88.2287 472.648 96.8946 470.852 105.189C469.057 113.484 464.258 120.822 457.378 125.792C450.498 130.762 442.024 133.012 433.585 132.11C425.146 131.207 417.339 127.216 411.665 120.905C405.991 114.593 402.852 106.406 402.851 97.9192C402.843 93.7677 403.595 89.6497 405.071 85.7692" stroke="#212121" stroke-width="0.5" stroke-miterlimit="10"/>
<path d="M421.271 89.5297C423.447 85.4413 427.128 82.3599 431.535 80.9377C435.943 79.5155 440.731 79.8641 444.886 81.9096C449.041 83.9552 452.237 87.5373 453.798 91.8977C455.358 96.2582 455.161 101.055 453.248 105.272C451.335 109.49 447.855 112.798 443.546 114.495C439.237 116.193 434.437 116.147 430.161 114.368C425.885 112.589 422.469 109.216 420.636 104.962C418.803 100.709 418.698 95.9097 420.341 91.5797V91.4897" stroke="#212121" stroke-miterlimit="10"/>
<path d="M420.551 89.7092L420.761 89.2892C422.873 85.2643 426.386 82.1522 430.636 80.5405C434.886 78.9288 439.579 78.9292 443.829 80.5416C448.079 82.1539 451.591 85.2666 453.702 89.2918C455.814 93.317 456.378 97.9761 455.289 102.389C454.2 106.802 451.532 110.663 447.791 113.244C444.049 115.824 439.492 116.945 434.98 116.395C430.468 115.845 426.313 113.662 423.301 110.258C420.289 106.854 418.628 102.465 418.631 97.9192C418.627 95.6743 419.034 93.4477 419.831 91.3492" stroke="#212121" stroke-width="0.5" stroke-miterlimit="10"/>
<path d="M421.57 89.5889H421.42L421.29 89.5389L420.77 89.3389L406.46 83.9389L405.94 83.7389L394.84 79.549L394.32 79.3589L376.44 72.6089L377.32 66.009C377.337 65.8881 377.314 65.765 377.254 65.6585C377.195 65.552 377.102 65.4679 376.99 65.4189L362.84 58.9989C362.74 58.9549 362.628 58.9409 362.52 58.9587C362.411 58.9765 362.31 59.0254 362.229 59.0994C362.147 59.1734 362.089 59.2694 362.061 59.3758C362.033 59.4822 362.036 59.5944 362.07 59.6989L364.94 68.1989L362.83 67.3989C362.69 67.3367 362.538 67.3036 362.385 67.3019C362.231 67.3003 362.079 67.3299 361.937 67.3891C361.795 67.4483 361.667 67.5357 361.56 67.6462C361.453 67.7566 361.37 67.8876 361.316 68.0313C361.261 68.1749 361.237 68.3282 361.243 68.4817C361.25 68.6352 361.288 68.7856 361.355 68.924C361.422 69.0623 361.516 69.1855 361.632 69.286C361.749 69.3866 361.884 69.4625 362.03 69.509L364.23 70.3389L357.63 75.409C357.542 75.4764 357.476 75.5685 357.441 75.6736C357.405 75.7786 357.402 75.8919 357.43 75.9989C357.457 76.1054 357.516 76.2013 357.598 76.2744C357.68 76.3475 357.782 76.3943 357.89 76.409L373.74 78.8489H373.82C373.935 78.849 374.046 78.8147 374.141 78.7505C374.235 78.6863 374.308 78.5952 374.35 78.4889L375.84 74.7089L393.46 81.3589L393.98 81.549L405.07 85.729L405.59 85.9289L419.84 91.3089L420.36 91.4989L420.78 91.659" stroke="#212121" stroke-miterlimit="10"/>
<path d="M421.27 89.529H421.42H421.57L431.76 93.379L432.88 90.019C432.954 89.7956 433.096 89.6011 433.286 89.4629C433.476 89.3247 433.705 89.2498 433.94 89.249C434.179 89.2534 434.41 89.3332 434.6 89.4769C434.791 89.6206 434.931 89.8209 435 90.049L437 96.669C437.077 96.9238 437.061 97.1972 436.957 97.4419C436.853 97.6866 436.667 97.8872 436.43 98.009L431.33 100.549C431.175 100.628 431.004 100.669 430.83 100.669C430.559 100.671 430.297 100.575 430.09 100.399C429.924 100.251 429.805 100.058 429.746 99.843C429.687 99.6282 429.692 99.401 429.76 99.189L431 95.579L420.78 91.699C420.636 91.646 420.506 91.5604 420.4 91.449" stroke="#212121" stroke-miterlimit="10"/>
<path d="M136.38 208.459L145.38 210.459L147.46 201.339L138.83 199.339C138.83 199.089 138.83 198.829 138.83 198.569C138.835 195.799 138.277 193.057 137.19 190.509L144.19 184.929L138.36 177.619L131.7 182.999C129.351 180.962 126.572 179.485 123.57 178.679V169.999H114.22V178.379C111.134 178.979 108.229 180.283 105.73 182.189L98.9597 176.789L93.1297 184.099L99.7397 189.369C98.3388 192.14 97.5865 195.194 97.5397 198.299L88.9297 200.299L91.0097 209.419L99.4997 207.479C100.787 210.217 102.658 212.64 104.98 214.579L100.98 222.789L109.41 226.849L113.3 218.769C116.173 219.477 119.166 219.549 122.07 218.979L126.07 227.349L134.5 223.289L130.58 215.149C132.972 213.363 134.951 211.081 136.38 208.459ZM109 198.649C109 196.833 109.538 195.059 110.547 193.549C111.556 192.039 112.989 190.863 114.667 190.168C116.344 189.473 118.19 189.291 119.971 189.645C121.751 190 123.387 190.874 124.671 192.158C125.955 193.442 126.829 195.077 127.183 196.858C127.538 198.639 127.356 200.485 126.661 202.162C125.966 203.839 124.789 205.273 123.28 206.282C121.77 207.291 119.995 207.829 118.18 207.829C116.974 207.829 115.78 207.592 114.667 207.13C113.553 206.669 112.541 205.993 111.688 205.14C110.836 204.288 110.16 203.276 109.698 202.162C109.237 201.048 109 199.855 109 198.649Z" stroke="#212121" stroke-linecap="round" stroke-linejoin="round"/>
<path d="M682.13 301.599L688.22 302.989L689.63 296.809L683.78 295.469C683.78 295.299 683.78 295.119 683.78 294.949C683.784 293.071 683.41 291.21 682.68 289.479L687.42 285.699L683.42 280.699L679 284.359C677.41 282.979 675.525 281.98 673.49 281.439V275.529H667.1V281.199C665.011 281.612 663.043 282.498 661.35 283.789L656.76 280.129L652.76 285.129L657.24 288.699C656.296 290.561 655.786 292.612 655.75 294.699L650 295.999L651.41 302.179L657.17 300.869C658.043 302.723 659.309 304.364 660.88 305.679L658.2 311.239L663.91 313.989L666.55 308.509C667.623 308.778 668.724 308.916 669.83 308.919C670.723 308.914 671.613 308.827 672.49 308.659L675.22 314.329L680.94 311.579L678.28 306.069C679.862 304.865 681.174 303.343 682.13 301.599ZM663.57 294.999C663.57 293.769 663.935 292.567 664.618 291.544C665.302 290.521 666.273 289.724 667.41 289.253C668.546 288.782 669.797 288.659 671.003 288.899C672.21 289.139 673.318 289.731 674.188 290.601C675.058 291.471 675.651 292.579 675.891 293.786C676.131 294.992 676.007 296.243 675.537 297.38C675.066 298.516 674.269 299.488 673.246 300.171C672.223 300.855 671.02 301.219 669.79 301.219C668.14 301.219 666.558 300.564 665.392 299.397C664.225 298.231 663.57 296.649 663.57 294.999Z" stroke="#212121" stroke-linecap="round" stroke-linejoin="round"/>
<path d="M153.61 163.639L160.99 165.319L162.69 157.839L155.61 156.229C155.61 156.019 155.61 155.809 155.61 155.599C155.623 153.333 155.178 151.088 154.3 148.999L160.05 144.419L155.27 138.419L149.77 142.799C147.842 141.132 145.561 139.922 143.1 139.259V132.109H135.43V138.999C132.886 139.49 130.491 140.561 128.43 142.129L122.87 137.699L118.09 143.699L123.51 148.019C122.364 150.292 121.748 152.795 121.71 155.339L114.64 156.959L116.35 164.439L123.35 162.849C124.404 165.094 125.936 167.08 127.84 168.669L124.59 175.399L131.51 178.729L134.7 172.099C136.009 172.423 137.351 172.587 138.7 172.589C139.78 172.588 140.858 172.484 141.92 172.279L145.22 179.139L152.14 175.809L148.92 169.139C150.863 167.668 152.464 165.791 153.61 163.639ZM131.16 155.639C131.158 154.15 131.598 152.693 132.424 151.453C133.25 150.214 134.425 149.247 135.801 148.675C137.177 148.104 138.691 147.953 140.153 148.243C141.614 148.532 142.957 149.249 144.011 150.301C145.065 151.354 145.783 152.696 146.074 154.157C146.366 155.618 146.217 157.132 145.647 158.509C145.078 159.885 144.113 161.062 142.874 161.89C141.636 162.717 140.179 163.159 138.69 163.159C137.698 163.159 136.717 162.964 135.801 162.583C134.886 162.203 134.054 161.646 133.355 160.943C132.655 160.241 132.101 159.407 131.724 158.49C131.348 157.573 131.156 156.591 131.16 155.599V155.639Z" stroke="#212121" stroke-linecap="round" stroke-linejoin="round"/>
<path d="M553.75 419.55C553.75 419.55 547.54 423.55 546.3 424.55C545.06 425.55 539.35 426.79 540.1 428.55C540.85 430.31 548.04 431.28 550.03 431.28C552.02 431.28 559.7 427.28 561.69 426.82C563.68 426.36 563.69 424.09 562.93 422.35C562.11 420.824 561.102 419.406 559.93 418.13L554.72 419.62L553.75 419.55Z" fill="white" stroke="#212121" stroke-linecap="round" stroke-linejoin="round"/>
<path d="M624.23 418.87C624.23 418.87 619.511 424.58 618.771 425.82C618.031 427.06 613.771 429.04 613.771 431.03C613.771 433.02 620.971 432.03 623.201 431.77C624.542 431.561 625.82 431.052 626.937 430.279C628.054 429.507 628.982 428.492 629.651 427.31C630.901 424.82 631.891 419.61 630.401 417.63C628.911 415.65 624.23 418.87 624.23 418.87Z" fill="white" stroke="#212121" stroke-linecap="round" stroke-linejoin="round"/>
<path d="M564.67 308.93L564.47 310.43L562.93 322.33C562.93 322.33 549.13 341.82 544.08 351.97C541.5 357.15 537.9 363.3 538.4 365.03L553.75 419.55C554.914 420.121 556.177 420.461 557.47 420.55C558.662 420.509 559.836 420.258 560.94 419.81L560.24 369.35L581.54 345.92L584.27 349.39C584.27 349.39 591.34 374.47 594.32 378.44C597.3 382.41 623 419.61 623 419.61C624.324 420.228 625.76 420.568 627.22 420.61C629.46 420.61 630.45 417.61 630.45 417.61C630.45 417.61 611.96 371.96 611.45 370.47C610.94 368.98 611.32 332.47 611.32 332.47L608.32 314.85L604.85 303.68C604.85 303.68 598.4 305.42 587.48 304.92C576.56 304.42 566.14 303.68 566.14 303.68L564.67 308.93Z" fill="#212121" stroke="#212121" stroke-linecap="round" stroke-linejoin="round"/>
<path d="M535.38 189.32C535.38 189.32 531.91 194.53 531.38 197.76C531.173 199.908 531.796 202.055 533.12 203.76L531.12 207.98C531.12 207.98 537.82 221.63 541.79 227.83C545.76 234.03 552.21 244.46 556.18 246.45C560.15 248.44 567.84 256.62 567.84 256.62L572.31 246.94C572.31 246.94 559.21 230.51 551 219.1C546.037 212.173 541.479 204.964 537.35 197.51C537.342 195.35 537.509 193.193 537.85 191.06C538.175 189.174 538.339 187.263 538.34 185.35L535.38 189.32Z" fill="#212121" stroke="#212121" stroke-linecap="round" stroke-linejoin="round"/>
<path d="M575.59 243.169C575.59 243.169 565.41 255.329 563.43 263.269C561.45 271.209 563.92 295.779 563.92 299.269C563.92 302.759 561.92 306.469 564.67 308.949C567.42 311.429 575.59 310.189 578.56 309.949C581.53 309.709 595.69 309.949 599.91 308.699C604.13 307.449 606.11 305.699 606.11 302.749C606.11 299.799 600.9 276.199 600.11 272.229C599.32 268.259 602.11 254.609 598.38 248.149C594.65 241.689 582.78 240.689 575.59 243.169Z" fill="white" stroke="#212121" stroke-linecap="round" stroke-linejoin="round"/>
<path d="M573.85 244.91C573.85 244.91 561.44 257.56 559.7 264.26C557.96 270.96 551.76 283.87 549.78 289.58C548.055 294.084 546.051 298.476 543.78 302.73L546.01 311.66L551.72 305.46C551.72 305.46 557.43 285.85 560.41 277.66C563.39 269.47 563.88 261.78 564.41 259.55C564.94 257.32 573.85 244.91 573.85 244.91Z" fill="#212121" stroke="#212121" stroke-linecap="round" stroke-linejoin="round"/>
<path d="M575.59 244.16C575.59 244.16 568.14 264.51 568.39 266C568.64 267.49 572.11 322.58 572.11 322.58C572.11 322.58 575.59 331.02 591.22 329.78C606.85 328.54 619 326.3 619 326.3C619 326.3 614.29 307.69 610.07 299.25C605.85 290.81 603.62 285.85 603.62 281.88C603.62 277.91 601.88 251.36 600.89 247.14C600.458 244.973 599.703 242.883 598.65 240.94L597.17 239.7L575.59 244.16Z" fill="#BEEBC3" stroke="#212121" stroke-linecap="round" stroke-linejoin="round"/>
<path d="M569.63 286.35L581.79 316.13C581.79 316.13 576.79 318.13 575.09 319.85C574.137 320.81 573.135 321.721 572.09 322.58L569.63 286.35Z" fill="#BEEBC3" stroke="#212121" stroke-linecap="round" stroke-linejoin="round"/>
<path d="M585.76 204.21C585.76 204.21 578.07 210.41 578.07 212.15C578.07 213.89 576.07 216.37 576.07 216.37C576.07 216.37 572.07 216.87 571.85 218.37C571.63 219.87 573.09 222.84 573.09 222.84C573.09 222.84 570.61 231.28 571.61 233.26C572.61 235.24 579.79 235.5 579.79 235.5L580.04 240.96L597.17 238.23L596.92 234.01C596.92 234.01 606.1 224.08 610.57 219.86C615.04 215.64 609.33 208.2 603.87 202.49C598.41 196.78 585.5 196.78 584.51 199.76C584.203 200.536 584.16 201.392 584.385 202.195C584.611 202.999 585.094 203.706 585.76 204.21Z" fill="white" stroke="#212121" stroke-linecap="round" stroke-linejoin="round"/>
<path d="M579.311 213.139C579.858 212.867 580.469 212.746 581.08 212.79C581.69 212.834 582.277 213.041 582.781 213.389" stroke="#212121" stroke-linecap="round" stroke-linejoin="round"/>
<path d="M579.57 216.719C579.38 217.519 579.5 218.239 579.83 218.309C580.16 218.379 580.59 217.809 580.78 217.009C580.97 216.209 580.85 215.499 580.52 215.419C580.19 215.339 579.76 215.919 579.57 216.719Z" fill="#212121"/>
<path d="M603.88 202.47C598.42 196.76 585.51 196.76 584.52 199.74C584.208 200.518 584.16 201.377 584.384 202.185C584.608 202.993 585.092 203.704 585.76 204.21C585.76 204.21 594.2 205.21 592.96 207.44C591.72 209.67 587.5 209.67 588.49 211.16C589.48 212.65 592.96 215.87 591.72 216.62C590.48 217.37 589.72 218.85 590.48 219.35C591.24 219.85 592.48 218.6 595.48 219.1C598.48 219.6 597.71 226.54 594.98 227.54C592.25 228.54 590.98 227.29 595.98 231.76C596.568 232.275 597.246 232.675 597.98 232.94C600.46 230.27 607.07 223.23 610.65 219.84C615 215.62 609.34 208.18 603.88 202.47Z" fill="#212121" stroke="#212121" stroke-linecap="round" stroke-linejoin="round"/>
<path d="M592.96 228.28L588.49 227.29L585.51 229.52" stroke="#212121" stroke-linecap="round" stroke-linejoin="round"/>
<path d="M598.17 235.23L575.34 241.43L573.85 246.15L600.9 241.19L598.17 235.23Z" fill="#BEEBC3" stroke="#212121" stroke-linecap="round" stroke-linejoin="round"/>
<path d="M540.6 196.76L539.85 191.55C539.85 191.55 542.08 184.36 542.08 182.62C542.08 180.88 540.35 176.91 540.35 175.92C540.35 174.93 538.86 173.44 538.35 175.42C537.84 177.4 536.86 184.85 536.86 184.85C536.86 184.85 533.64 190.31 533.86 193.04C534.08 195.77 536.58 201.48 536.58 201.48L541.05 198.75L540.6 196.76Z" fill="white" stroke="#212121" stroke-linecap="round" stroke-linejoin="round"/>
<path d="M543.821 200.74L540.601 196.76L534.641 201.48L538.111 207.44L543.821 200.74Z" fill="white" stroke="#212121" stroke-linecap="round" stroke-linejoin="round"/>
<path d="M597.92 251.86C596.273 247.698 593.191 244.264 589.23 242.18C585.011 240.11 580.608 238.436 576.08 237.18L542.33 198.72L535.63 205.42C535.63 205.42 549.78 234.95 552.51 239.91C555.24 244.87 586.75 278.91 586.75 278.91" fill="#BEEBC3"/>
<path d="M597.92 251.86C596.273 247.698 593.191 244.264 589.23 242.18C585.011 240.11 580.608 238.436 576.08 237.18L542.33 198.72L535.63 205.42C535.63 205.42 549.78 234.95 552.51 239.91C555.24 244.87 586.75 278.91 586.75 278.91" stroke="#212121" stroke-linecap="round" stroke-linejoin="round"/>
<path d="M303.69 414.44C303.69 414.44 298.94 421.19 297.94 424.94C296.94 428.69 297.19 433.69 299.69 433.19C302.19 432.69 307.94 426.44 308.44 424.69C308.94 422.94 310.69 414.94 310.69 414.94L304.69 414.44H303.69Z" fill="white" stroke="#212121" stroke-linecap="round" stroke-linejoin="round"/>
<path d="M389.44 418.69C389.44 418.69 389.44 425.69 390.94 426.69C392.44 427.69 402.69 431.94 405.69 432.19C408.69 432.44 409.69 431.94 407.94 428.44C406.19 424.94 396.19 418.19 396.19 418.19L389.44 418.69Z" fill="white" stroke="#212121" stroke-linecap="round" stroke-linejoin="round"/>
<path d="M327.94 300.44L322.19 324.69L319.19 370.19C319.19 370.19 308.19 389.19 307.19 396.19C306.19 403.19 302.94 417.44 302.94 417.44C302.94 417.44 307.44 419.44 308.19 419.44C308.94 419.44 317.94 406.44 322.94 401.44C327.94 396.44 339.19 374.94 339.69 373.94C340.19 372.94 348.19 341.19 348.69 340.19C349.19 339.19 352.19 337.94 352.19 337.94C352.19 337.94 367.25 359.59 369.07 361.41C371.98 364.32 376.69 371.69 376.69 371.69C376.69 371.69 386.94 412.44 387.69 414.44C388.233 416.315 388.569 418.243 388.69 420.19L397.94 422.19C397.94 422.19 398.69 394.94 398.19 388.44C397.69 381.94 395.69 367.94 395.69 367.94C395.69 367.94 380.44 326.19 379.69 325.19C378.94 324.19 374.44 314.19 374.44 314.19L372.94 304.69C364.146 307.154 354.893 307.497 345.94 305.69C330.94 302.69 327.94 300.44 327.94 300.44Z" fill="#212121" stroke="#212121" stroke-linecap="round" stroke-linejoin="round"/>
<path d="M342.07 232.65C336.639 236.24 331.003 239.509 325.19 242.44C317.52 246.11 315.69 249.78 315.69 251.61C315.69 253.44 309.02 283.78 309.52 285.44C310.02 287.1 314.52 289.61 317.36 290.28C320.2 290.95 324.19 290.11 325.02 289.44C325.85 288.77 328.52 277.44 328.52 277.44C328.52 277.44 327.02 297.94 326.36 300.61C325.7 303.28 331.86 310.11 337.86 311.28C343.86 312.45 360.02 312.44 364.19 311.11C368.36 309.78 371.19 309.44 372.52 306.94C373.85 304.44 374.69 286.61 374.86 285.44C375.03 284.27 376.36 273.61 376.36 273.61L380.69 288.28L382.36 291.28C382.36 291.28 383.19 289.44 388.36 286.44C393.53 283.44 395.19 283.11 395.19 283.11C395.19 283.11 392.19 273.28 390.36 267.61C388.53 261.94 386.69 251.61 384.36 247.44C382.03 243.27 377.86 241.44 372.19 237.94C366.52 234.44 358.19 232.44 357.19 231.94C356.19 231.44 347.28 230.7 342.07 232.65Z" fill="white" stroke="#212121" stroke-linecap="round" stroke-linejoin="round"/>
<path d="M328.521 277.44L332.041 265.25" stroke="#212121" stroke-linecap="round" stroke-linejoin="round"/>
<path d="M378.801 262.231L379.401 259.471" stroke="#212121" stroke-linecap="round" stroke-linejoin="round"/>
<path d="M376.36 273.61L378.27 264.73" stroke="#212121" stroke-linecap="round" stroke-linejoin="round"/>
<path d="M346.44 251.94L349.94 256.94L351.94 261.44L346.94 302.94L353.94 309.44L359.44 302.19L354.44 261.94L357.44 256.19L361.43 249.66L354.19 245.44L346.44 251.94Z" fill="#BEEBC3" stroke="#212121" stroke-linecap="round" stroke-linejoin="round"/>
<path d="M344.001 230.86C344.001 230.86 340.531 231.77 339.771 233.86C339.011 235.95 340.071 248.67 341.131 251.39C341.994 253.433 342.996 255.414 344.131 257.32C344.131 257.32 353.411 251.39 355.071 251.09C356.731 250.79 366.261 255.78 366.261 255.78C366.261 255.78 366.561 249.88 363.261 241.57C359.961 233.26 352.261 228.57 348.901 228.26C347.921 228.178 346.938 228.38 346.069 228.841C345.2 229.302 344.482 230.003 344.001 230.86Z" fill="white" stroke="#212121" stroke-linecap="round" stroke-linejoin="round"/>
<path d="M342.62 229.81C342.62 229.81 343.08 235.1 343.53 238.72C343.98 242.34 349.58 254.3 351.53 255.96C353.48 257.62 357.53 252.18 358.94 249.76C359.534 248.659 360.202 247.6 360.94 246.59C360.94 246.59 351.27 241.9 348.25 236.46C345.23 231.02 345.52 228.46 344.16 228.29C342.8 228.12 342.62 229.81 342.62 229.81Z" fill="white" stroke="#212121" stroke-linecap="round" stroke-linejoin="round"/>
<path d="M347.5 242.811L354.93 254.811C354.93 254.811 358.35 251.651 358.93 249.811C359.51 247.971 347.5 242.811 347.5 242.811Z" fill="#212121" stroke="#212121" stroke-linecap="round" stroke-linejoin="round"/>
<path d="M339.71 221.32C339.065 223.053 338.822 224.909 339 226.75C339.23 230.06 341.12 232.42 342.07 232.65C342.927 232.812 343.798 232.892 344.67 232.89C344.67 232.89 344.9 238.79 347.5 242.81C350.1 246.83 358.84 252.49 361.43 249.66C364.02 246.83 367.34 235.49 368.52 230.06C369.262 226.549 369.813 223 370.17 219.43L352.7 215.43L344.43 213.55L339.71 221.32Z" fill="white" stroke="#212121" stroke-linecap="round" stroke-linejoin="round"/>
<path d="M349.86 219C349.86 219 350.81 222.07 348.92 224C347.03 225.93 346.32 225.89 346.32 225.89C346.32 225.89 346.79 228.96 346.08 228.96C345.768 228.965 345.458 228.908 345.168 228.79C344.879 228.673 344.616 228.499 344.396 228.277C344.175 228.056 344.002 227.793 343.886 227.503C343.77 227.213 343.713 226.902 343.72 226.59C343.659 225.324 343.251 224.099 342.54 223.05L339.71 221.4C339.024 217.962 339.103 214.415 339.94 211.01C341.36 205.58 351.51 203.45 360.02 203.69C368.53 203.93 370.64 214.79 370.64 214.79C372.44 215.605 374.178 216.551 375.84 217.62C376.55 218.33 377.26 219.98 373.24 222.11C369.22 224.24 362.14 224.94 357.89 223.29C355.075 222.136 352.384 220.699 349.86 219Z" fill="#212121" stroke="#212121" stroke-linecap="round" stroke-linejoin="round"/>
<path d="M355.591 231.56C355.311 232.44 354.741 233.04 354.301 232.91C353.861 232.78 353.731 231.91 354.001 231.07C354.271 230.23 354.851 229.59 355.281 229.73C355.711 229.87 355.861 230.69 355.591 231.56Z" fill="#212121"/>
<path d="M365.411 232.32C365.141 233.2 364.561 233.8 364.131 233.66C363.701 233.52 363.551 232.66 363.821 231.83C364.091 231 364.671 230.35 365.111 230.48C365.551 230.61 365.681 231.44 365.411 232.32Z" fill="#212121"/>
<path d="M352 228.601C352 228.601 353.52 226.331 357 227.241" stroke="#212121" stroke-linecap="round" stroke-linejoin="round"/>
<path d="M362.73 228.29C363.04 227.996 363.407 227.769 363.809 227.624C364.21 227.479 364.638 227.419 365.064 227.449C365.49 227.478 365.905 227.595 366.283 227.793C366.661 227.992 366.994 228.266 367.26 228.6" stroke="#212121" stroke-linecap="round" stroke-linejoin="round"/>
<path d="M358 239.18C356.561 239.225 355.137 239.478 353.77 239.93C351.5 240.69 348.18 239.78 349.69 241.75C351.2 243.72 354.07 244.32 357.09 244.32C360.11 244.32 362.84 244.17 363.75 242.81C364.66 241.45 366.01 240.09 364.96 239.93C363.91 239.77 359.82 239.48 359.36 239.48C358.897 239.43 358.441 239.329 358 239.18Z" fill="#212121" stroke="#212121" stroke-linecap="round" stroke-linejoin="round"/>
<path d="M362.001 230.41C362.001 230.41 361.701 238.72 361.401 240.24C361.352 240.643 361.182 241.022 360.914 241.326C360.645 241.63 360.29 241.845 359.896 241.943C359.502 242.04 359.088 242.016 358.708 241.873C358.329 241.729 358.002 241.474 357.771 241.14C356.81 239.877 355.998 238.508 355.351 237.06" fill="white"/>
<path d="M362.001 230.41C362.001 230.41 361.701 238.72 361.401 240.24C361.352 240.643 361.182 241.022 360.914 241.326C360.645 241.63 360.29 241.845 359.896 241.943C359.502 242.04 359.088 242.016 358.708 241.873C358.329 241.729 358.002 241.474 357.771 241.14C356.81 239.877 355.998 238.508 355.351 237.06" stroke="#212121" stroke-linecap="round" stroke-linejoin="round"/>
<path d="M394.19 279.44C394.19 279.44 386.99 280.62 383.99 282.62C380.99 284.62 379.94 286.36 380.69 288.28C381.332 290.166 382.17 291.979 383.19 293.69C384.44 295.69 386.69 294.19 386.69 294.19C386.481 293.966 386.32 293.702 386.218 293.412C386.117 293.123 386.076 292.816 386.1 292.51C386.123 292.205 386.21 291.907 386.355 291.637C386.499 291.367 386.699 291.129 386.94 290.94C388.69 289.19 395.19 286.69 395.19 286.69H397.44C398.44 286.69 397.44 283.94 396.69 282.69C395.94 281.44 395.94 278.94 394.19 279.44Z" fill="white" stroke="#212121" stroke-linecap="round" stroke-linejoin="round"/>
<path d="M309.44 291.44C309.44 291.44 309.44 298.69 309.94 305.94C310.44 313.19 316.44 333.44 316.44 333.44L322.44 331.94C322.44 331.94 322.19 312.94 322.19 306.94C322.19 300.94 321.94 293.69 321.94 293.69L309.44 291.44Z" fill="white" stroke="#212121" stroke-linecap="round" stroke-linejoin="round"/>
<path d="M308.351 286.39C308.388 286.077 308.507 285.779 308.695 285.526C308.883 285.272 309.134 285.073 309.423 284.946C309.712 284.82 310.029 284.771 310.342 284.805C310.656 284.839 310.955 284.955 311.211 285.14C312.857 286.233 314.731 286.934 316.691 287.19C319.084 287.615 321.525 287.692 323.941 287.42C324.183 287.388 324.429 287.417 324.657 287.504C324.885 287.592 325.087 287.735 325.245 287.921C325.404 288.107 325.513 288.33 325.562 288.569C325.612 288.808 325.601 289.056 325.531 289.29C324.901 291.36 323.951 294.18 323.191 294.94C321.941 296.19 315.941 296.19 312.941 295.19C309.941 294.19 309.191 293.44 308.441 290.94C308.143 289.44 308.113 287.9 308.351 286.39Z" fill="white" stroke="#212121" stroke-linecap="round" stroke-linejoin="round"/>
<path d="M424.94 310.94C425.51 309.122 426.544 307.485 427.94 306.19C430.19 304.19 431.19 303.69 428.94 303.44C426.69 303.19 423.94 306.69 423.94 306.69L424.94 310.94Z" fill="white" stroke="#212121" stroke-linecap="round" stroke-linejoin="round"/>
<path d="M386.69 294.19C388.217 295.727 389.992 296.994 391.94 297.94C395.69 299.94 414.44 310.19 414.44 310.19L421.19 306.19C421.19 306.19 410.69 301.44 405.94 296.44C401.19 291.44 397.44 286.69 397.44 286.69C397.44 286.69 384.94 287.44 386.69 294.19Z" fill="white" stroke="#212121" stroke-linecap="round" stroke-linejoin="round"/>
<path d="M411.19 307.44C411.19 307.44 412.19 312.69 413.94 312.94C415.69 313.19 424.19 312.44 424.94 310.94C425.69 309.44 426.19 304.19 424.94 303.94C423.69 303.69 411.19 307.44 411.19 307.44Z" fill="white" stroke="#212121" stroke-linecap="round" stroke-linejoin="round"/>
<path d="M317.2 339.52C316.023 338.02 314.476 336.852 312.71 336.13C309.9 335.06 308.79 334.94 310.81 333.91C312.83 332.88 316.63 335.19 316.63 335.19L317.2 339.52Z" fill="white" stroke="#212121" stroke-linecap="round" stroke-linejoin="round"/>
<path d="M328.82 331.391C328.82 331.391 329.74 336.651 328.19 337.501C326.64 338.351 318.43 340.651 317.19 339.501C315.95 338.351 313.63 333.621 314.72 332.951C315.81 332.281 328.82 331.391 328.82 331.391Z" fill="white" stroke="#212121" stroke-linecap="round" stroke-linejoin="round"/>
<path d="M75.9999 370.901C75.9999 370.901 76.8699 367.751 76.8899 367.551C77.2299 365.161 76.4699 360.361 74.0399 359.181C73.6303 358.997 73.1867 358.902 72.7379 358.901C72.2891 358.901 71.8452 358.994 71.4349 359.176C71.0247 359.358 70.6573 359.625 70.3567 359.958C70.0561 360.291 69.8289 360.684 69.6899 361.111C69.0399 362.901 69.8699 365.111 70.8399 366.601C71.9999 368.381 75.9999 370.901 75.9999 370.901Z" fill="#212121"/>
<path d="M28.14 369.86C30.08 370.71 34.81 370.6 34.82 370.6C34.83 370.6 33.82 367.5 33.71 367.31C32.71 365.14 29.38 361.55 26.71 361.91C26.2678 361.982 25.8458 362.147 25.4715 362.393C25.0971 362.639 24.7788 362.961 24.5373 363.339C24.2958 363.716 24.1365 364.14 24.0698 364.583C24.003 365.026 24.0304 365.478 24.15 365.91C24.59 367.76 26.49 369.14 28.14 369.86Z" fill="#212121"/>
<path d="M29.7803 383.58C31.7803 383.87 36.0103 382.65 36.3503 382.58C37.0417 384.999 37.8971 387.368 38.9103 389.67C39.4903 391.02 40.1203 392.35 40.7603 393.67C40.3803 393.1 40.0303 392.6 39.9703 392.53C38.4003 390.71 34.2803 388.12 31.8003 389.17C31.3925 389.357 31.0286 389.627 30.7321 389.964C30.4356 390.301 30.2132 390.696 30.0793 391.124C29.9454 391.552 29.903 392.003 29.9549 392.449C30.0067 392.895 30.1516 393.324 30.3803 393.71C31.3003 395.38 33.5003 396.2 35.2803 396.46C37.0603 396.72 40.7103 395.75 41.6603 395.46C41.9203 395.97 42.1603 396.46 42.4203 396.99C43.6403 399.43 44.8803 401.86 46.0103 404.27C46.4103 405.12 46.7703 405.98 47.1403 406.83C46.8003 406.33 46.5003 405.91 46.4503 405.83C44.8803 404.01 40.7603 401.41 38.2803 402.47C37.8739 402.657 37.5112 402.927 37.2157 403.263C36.9202 403.599 36.6984 403.993 36.5646 404.42C36.4308 404.847 36.388 405.297 36.4389 405.741C36.4898 406.186 36.6334 406.615 36.8603 407C37.7803 408.66 39.9803 409.49 41.7603 409.75C43.5403 410.01 46.8303 409.13 47.9703 408.82C48.3203 409.7 48.6703 410.59 48.9703 411.46C49.1603 412.06 49.3803 412.63 49.5403 413.24C49.7003 413.85 49.8803 414.44 50.0403 415.03C50.3203 416.19 50.6103 417.37 50.8503 418.51C51.0303 419.29 51.1803 420.04 51.3303 420.8C50.9403 419.95 50.1503 418.3 50.0703 418.17C48.7803 416.17 45.0703 412.94 42.4903 413.6C42.0593 413.723 41.6591 413.935 41.3157 414.223C40.9723 414.511 40.6934 414.868 40.4972 415.271C40.3009 415.674 40.1918 416.113 40.1768 416.561C40.1618 417.009 40.2414 417.455 40.4103 417.87C41.0603 419.66 43.1103 420.81 44.8303 421.34C46.7203 421.92 50.9203 421.39 51.4403 421.34C51.6903 422.59 51.9203 423.81 52.1303 424.97C52.5503 427.38 52.8803 429.56 53.1303 431.42H54.8903C54.5903 429.49 54.2003 427.21 53.7003 424.67C53.4503 423.4 53.1502 422.04 52.8403 420.67C54.1036 420.164 55.3358 419.583 56.5303 418.93C57.9103 420.43 61.4503 422.18 61.9103 422.4C61.4303 423.58 60.9103 424.73 60.4803 425.81C59.5603 427.92 58.6803 429.81 57.9003 431.43H59.8003C60.4703 429.95 61.2002 428.27 61.9502 426.43C62.4403 425.23 62.9502 423.93 63.4502 422.6C63.9602 422.71 68.1103 423.55 70.0503 423.11C71.8003 422.72 73.9303 421.73 74.7203 419.99C74.9182 419.592 75.0307 419.156 75.0503 418.712C75.07 418.267 74.9965 417.824 74.8345 417.409C74.6725 416.995 74.4257 416.619 74.1098 416.306C73.7939 415.992 73.4159 415.749 73.0003 415.59C70.4503 414.73 66.5403 417.59 65.1103 419.59C65.0303 419.71 64.2502 421.05 63.7702 421.9C63.9802 421.36 64.1802 420.83 64.3802 420.27C64.7902 419.15 65.1702 418.03 65.5703 416.83L66.1103 415.04C66.3003 414.45 66.4202 413.8 66.5902 413.17C66.9402 411.71 67.2203 410.17 67.4703 408.7C68.4703 409.05 71.9203 410.27 73.7303 410.14C75.5403 410.01 77.7302 409.35 78.8102 407.76C79.0683 407.393 79.2461 406.976 79.3321 406.536C79.4182 406.096 79.4104 405.643 79.3095 405.206C79.2085 404.769 79.0166 404.359 78.7462 404.001C78.4758 403.643 78.133 403.346 77.7402 403.13C75.3402 401.89 71.0402 404.13 69.3402 405.87C69.2302 405.98 68.1403 407.33 67.5602 408.09C67.7002 407.18 67.8503 406.27 67.9603 405.34C68.2903 402.67 68.5503 399.95 68.8102 397.24C68.8903 396.41 68.9803 395.58 69.0703 394.76C69.4103 394.89 73.5203 396.41 75.5403 396.27C77.3403 396.15 79.5902 395.49 80.6302 393.89C80.8879 393.523 81.0652 393.105 81.1504 392.665C81.2357 392.224 81.2271 391.771 81.1252 391.334C81.0233 390.897 80.8303 390.486 80.5589 390.129C80.2875 389.772 79.9438 389.476 79.5503 389.26C77.1603 388.02 72.8603 390.26 71.1503 392C71.0203 392.13 69.4603 394.09 69.0803 394.6C69.2803 392.78 69.4903 390.97 69.7603 389.19C70.1132 386.764 70.6175 384.363 71.2702 382C71.4302 382.06 75.7103 383.68 77.7803 383.53C79.5703 383.41 81.7803 382.75 82.8603 381.15C83.1183 380.783 83.2961 380.366 83.3821 379.926C83.4682 379.486 83.4604 379.033 83.3595 378.596C83.2585 378.159 83.0666 377.749 82.7962 377.391C82.5258 377.033 82.183 376.736 81.7903 376.52C79.3903 375.28 75.1003 377.52 73.3903 379.26C73.2803 379.38 72.0802 380.86 71.5303 381.58L71.4003 381.51C72.1371 379.176 73.0843 376.913 74.2303 374.75C74.8403 373.55 75.4903 372.43 76.1503 371.36C76.9203 371.75 80.4403 373.46 82.3203 373.53C84.2003 373.6 86.4202 373.2 87.6302 371.72C87.9268 371.384 88.1491 370.988 88.2826 370.56C88.4161 370.132 88.4578 369.68 88.4049 369.235C88.3521 368.79 88.2059 368.36 87.9759 367.975C87.7459 367.59 87.4373 367.258 87.0703 367C84.8302 365.51 80.3003 367.31 78.4202 368.81C78.3203 368.89 77.4203 369.81 76.6903 370.53C76.9903 370.05 77.3003 369.53 77.6003 369.1C78.7303 367.4 79.8703 365.92 80.8903 364.61C81.4703 363.87 82.0103 363.21 82.5303 362.61C83.5303 362.61 87.3003 362.48 88.9603 361.7C90.6203 360.92 92.4603 359.5 92.8503 357.64C92.9583 357.205 92.9734 356.752 92.8945 356.311C92.8157 355.869 92.6448 355.45 92.3929 355.079C92.1409 354.708 91.8137 354.395 91.4324 354.159C91.0512 353.923 90.6245 353.77 90.1803 353.71C87.5003 353.42 84.3103 357.1 83.3303 359.3C83.2403 359.49 82.2603 362.62 82.3303 362.62H82.3903C81.8803 363.2 81.3402 363.82 80.7702 364.52C79.7702 365.81 78.5502 367.27 77.3802 368.96C76.0927 370.753 74.9171 372.623 73.8603 374.56C72.6641 376.725 71.6602 378.99 70.8603 381.33C70.8603 381.33 70.8603 381.33 70.8603 381.41C70.8603 380.62 70.8603 378.41 70.8603 378.24C70.5603 375.85 68.5503 371.42 65.8603 370.93C65.4175 370.859 64.9648 370.883 64.5318 370.999C64.0989 371.115 63.6954 371.322 63.3479 371.605C63.0003 371.889 62.7167 372.242 62.5154 372.643C62.3142 373.044 62.2 373.482 62.1803 373.93C62.0203 375.83 63.4002 377.73 64.7402 378.93C66.2502 380.28 70.4502 381.59 70.7402 381.69C69.9996 384.086 69.4184 386.528 69.0003 389C68.7503 390.44 68.5302 391.91 68.3402 393.37C68.3402 392.69 68.3402 392.08 68.3402 391.99C68.0302 389.61 66.0302 385.17 63.3402 384.68C62.8978 384.611 62.4457 384.635 62.0133 384.752C61.581 384.869 61.1782 385.076 60.831 385.359C60.4839 385.642 60.2002 385.995 59.9985 386.395C59.7968 386.795 59.6815 387.233 59.6603 387.68C59.5103 389.58 60.8803 391.48 62.2203 392.68C63.5603 393.88 67.1502 395.08 68.0902 395.39L67.8802 397.08C67.5602 399.79 67.2502 402.49 66.8802 405.13C66.7402 406.06 66.5703 406.97 66.4103 407.89C66.4103 407.28 66.4103 406.77 66.4103 406.69C66.1003 404.3 64.1003 399.87 61.4103 399.38C60.9675 399.309 60.5148 399.333 60.0818 399.449C59.6489 399.565 59.2454 399.772 58.8979 400.055C58.5503 400.339 58.2667 400.692 58.0654 401.093C57.8642 401.494 57.75 401.932 57.7303 402.38C57.5703 404.28 58.9503 406.18 60.2903 407.38C61.6303 408.58 64.8703 409.66 65.9902 410.03C65.7902 410.96 65.6003 411.89 65.3703 412.78C65.1903 413.39 65.0703 413.98 64.8603 414.58L64.2903 416.36C63.8803 417.47 63.4703 418.62 63.0503 419.7C62.7603 420.45 62.4703 421.16 62.1803 421.88C62.3303 420.95 62.5803 419.13 62.5803 418.98C62.5475 416.871 61.976 414.806 60.9202 412.98C60.9401 412.744 60.9401 412.506 60.9202 412.27C60.8649 411.826 60.7165 411.398 60.4847 411.014C60.2529 410.631 59.943 410.3 59.575 410.045C59.2071 409.789 58.7894 409.614 58.3493 409.53C57.9091 409.447 57.4562 409.457 57.0202 409.56C54.4102 410.26 52.7603 414.84 52.6303 417.24C52.6303 417.38 52.7203 418.93 52.8003 419.91C52.6603 419.34 52.5403 418.79 52.4003 418.21C52.1303 417.05 51.8203 415.91 51.5003 414.68L50.9603 412.9C50.7903 412.3 50.5303 411.68 50.3303 411.07C49.8103 409.66 49.2202 408.26 48.5903 406.86C49.5903 406.62 53.1702 405.71 54.5903 404.6C56.0103 403.49 57.5303 401.72 57.5103 399.81C57.5225 399.357 57.4381 398.907 57.2625 398.489C57.087 398.071 56.8244 397.695 56.4923 397.387C56.1602 397.078 55.7662 396.844 55.3364 396.7C54.9067 396.555 54.4512 396.504 54.0003 396.55C51.3103 396.84 49.0003 401.12 48.5003 403.48C48.5003 403.62 48.3103 405.36 48.2403 406.31C47.8603 405.47 47.4803 404.63 47.0603 403.8C45.8603 401.38 44.5803 398.97 43.3003 396.57C42.9103 395.83 42.5303 395.09 42.1503 394.35C42.5103 394.27 46.7703 393.28 48.3803 392.05C49.8103 390.95 51.3203 389.16 51.3103 387.26C51.3222 386.809 51.2382 386.36 51.0639 385.944C50.8895 385.527 50.6288 385.153 50.2989 384.845C49.969 384.537 49.5775 384.302 49.1502 384.156C48.723 384.011 48.2696 383.958 47.8203 384C45.1403 384.29 42.8203 388.56 42.3203 390.92C42.3203 391.1 42.0603 393.59 42.0403 394.23C41.1903 392.6 40.3603 390.97 39.6103 389.34C38.5956 387.125 37.7238 384.847 37.0003 382.52C37.1703 382.52 41.6303 381.52 43.2703 380.21C44.7003 379.11 46.2103 377.32 46.2003 375.42C46.213 374.972 46.1311 374.526 45.9597 374.111C45.7884 373.697 45.5316 373.323 45.206 373.014C44.8804 372.706 44.4934 372.469 44.0703 372.32C43.6471 372.171 43.1973 372.113 42.7503 372.15C40.0703 372.44 37.7503 376.71 37.2603 379.07C37.2603 379.23 37.0503 381.13 36.9903 382.07H36.8403C36.1656 379.713 35.7037 377.3 35.4603 374.86C35.3103 373.52 35.2403 372.23 35.2103 370.98C36.0603 370.87 39.9303 370.36 41.5403 369.39C43.1503 368.42 44.7803 366.84 44.9803 364.94C45.0408 364.497 45.0073 364.045 44.8819 363.615C44.7565 363.186 44.542 362.787 44.2525 362.446C43.9629 362.104 43.6047 361.827 43.2011 361.634C42.7976 361.44 42.3578 361.333 41.9103 361.32C39.2103 361.32 36.4303 365.32 35.6803 367.59C35.6803 367.72 35.3703 369.03 35.1903 369.99C35.1903 369.42 35.1903 368.84 35.1903 368.29C35.1903 366.29 35.3303 364.39 35.4503 362.73C35.5303 361.79 35.6303 360.94 35.7203 360.15C36.5003 359.62 39.6203 357.41 40.5803 355.84C41.5403 354.27 42.2803 352.08 41.5803 350.31C41.431 349.888 41.1943 349.502 40.8854 349.177C40.5766 348.853 40.2027 348.597 39.7883 348.427C39.3738 348.257 38.9281 348.177 38.4804 348.191C38.0327 348.205 37.593 348.314 37.1903 348.51C34.7903 349.75 34.1903 354.57 34.5603 356.95C34.5603 357.15 35.5003 360.3 35.5603 360.28C35.4503 361.04 35.3503 361.86 35.2503 362.76C35.0903 364.41 34.9203 366.28 34.8703 368.33C34.787 370.535 34.8404 372.742 35.0303 374.94C35.2138 377.409 35.6222 379.856 36.2503 382.25V382.33C35.8203 381.66 34.5703 379.84 34.4603 379.71C32.8903 377.89 28.7703 375.29 26.2903 376.35C25.8828 376.536 25.519 376.805 25.2226 377.141C24.9262 377.477 24.7038 377.871 24.5699 378.298C24.4359 378.726 24.3935 379.176 24.4452 379.621C24.497 380.066 24.6418 380.495 24.8703 380.88C25.8003 382.49 28.0003 383.32 29.7803 383.58Z" fill="#212121"/>
<path opacity="0.3" d="M28.14 369.86C30.08 370.71 34.81 370.6 34.82 370.6C34.83 370.6 33.82 367.5 33.71 367.31C32.71 365.14 29.38 361.55 26.71 361.91C26.2678 361.982 25.8458 362.147 25.4715 362.393C25.0971 362.639 24.7788 362.961 24.5373 363.339C24.2958 363.716 24.1365 364.14 24.0698 364.583C24.003 365.026 24.0304 365.478 24.15 365.91C24.59 367.76 26.49 369.14 28.14 369.86Z" fill="#212121"/>
<path opacity="0.3" d="M75.9999 370.901C75.9999 370.901 76.8699 367.751 76.8899 367.551C77.2299 365.161 76.4699 360.361 74.0399 359.181C73.6303 358.997 73.1867 358.902 72.7379 358.901C72.2891 358.901 71.8452 358.994 71.4349 359.176C71.0247 359.358 70.6573 359.625 70.3567 359.958C70.0561 360.291 69.8289 360.684 69.6899 361.111C69.0399 362.901 69.8699 365.111 70.8399 366.601C71.9999 368.381 75.9999 370.901 75.9999 370.901Z" fill="#212121"/>
<path opacity="0.3" d="M29.7803 383.58C31.7803 383.87 36.0103 382.65 36.3503 382.58C37.0417 384.999 37.8971 387.368 38.9103 389.67C39.4903 391.02 40.1203 392.35 40.7603 393.67C40.3803 393.1 40.0303 392.6 39.9703 392.53C38.4003 390.71 34.2803 388.12 31.8003 389.17C31.3925 389.357 31.0286 389.627 30.7321 389.964C30.4356 390.301 30.2132 390.696 30.0793 391.124C29.9454 391.552 29.903 392.003 29.9549 392.449C30.0067 392.895 30.1516 393.324 30.3803 393.71C31.3003 395.38 33.5003 396.2 35.2803 396.46C37.0603 396.72 40.7103 395.75 41.6603 395.46C41.9203 395.97 42.1603 396.46 42.4203 396.99C43.6403 399.43 44.8803 401.86 46.0103 404.27C46.4103 405.12 46.7703 405.98 47.1403 406.83C46.8003 406.33 46.5003 405.91 46.4503 405.83C44.8803 404.01 40.7603 401.41 38.2803 402.47C37.8739 402.657 37.5112 402.927 37.2157 403.263C36.9202 403.599 36.6984 403.993 36.5646 404.42C36.4308 404.847 36.388 405.297 36.4389 405.741C36.4898 406.186 36.6334 406.615 36.8603 407C37.7803 408.66 39.9803 409.49 41.7603 409.75C43.5403 410.01 46.8303 409.13 47.9703 408.82C48.3203 409.7 48.6703 410.59 48.9703 411.46C49.1603 412.06 49.3803 412.63 49.5403 413.24C49.7003 413.85 49.8803 414.44 50.0403 415.03C50.3203 416.19 50.6103 417.37 50.8503 418.51C51.0303 419.29 51.1803 420.04 51.3303 420.8C50.9403 419.95 50.1503 418.3 50.0703 418.17C48.7803 416.17 45.0703 412.94 42.4903 413.6C42.0593 413.723 41.6591 413.935 41.3157 414.223C40.9723 414.511 40.6934 414.868 40.4972 415.271C40.3009 415.674 40.1918 416.113 40.1768 416.561C40.1618 417.009 40.2414 417.455 40.4103 417.87C41.0603 419.66 43.1103 420.81 44.8303 421.34C46.7203 421.92 50.9203 421.39 51.4403 421.34C51.6903 422.59 51.9203 423.81 52.1303 424.97C52.5503 427.38 52.8803 429.56 53.1303 431.42H54.8903C54.5903 429.49 54.2003 427.21 53.7003 424.67C53.4503 423.4 53.1502 422.04 52.8403 420.67C54.1036 420.164 55.3358 419.583 56.5303 418.93C57.9103 420.43 61.4503 422.18 61.9103 422.4C61.4303 423.58 60.9103 424.73 60.4803 425.81C59.5603 427.92 58.6803 429.81 57.9003 431.43H59.8003C60.4703 429.95 61.2002 428.27 61.9502 426.43C62.4403 425.23 62.9502 423.93 63.4502 422.6C63.9602 422.71 68.1103 423.55 70.0503 423.11C71.8003 422.72 73.9303 421.73 74.7203 419.99C74.9182 419.592 75.0307 419.156 75.0503 418.712C75.07 418.267 74.9965 417.824 74.8345 417.409C74.6725 416.995 74.4257 416.619 74.1098 416.306C73.7939 415.992 73.4159 415.749 73.0003 415.59C70.4503 414.73 66.5403 417.59 65.1103 419.59C65.0303 419.71 64.2502 421.05 63.7702 421.9C63.9802 421.36 64.1802 420.83 64.3802 420.27C64.7902 419.15 65.1702 418.03 65.5703 416.83L66.1103 415.04C66.3003 414.45 66.4202 413.8 66.5902 413.17C66.9402 411.71 67.2203 410.17 67.4703 408.7C68.4703 409.05 71.9203 410.27 73.7303 410.14C75.5403 410.01 77.7302 409.35 78.8102 407.76C79.0683 407.393 79.2461 406.976 79.3321 406.536C79.4182 406.096 79.4104 405.643 79.3095 405.206C79.2085 404.769 79.0166 404.359 78.7462 404.001C78.4758 403.643 78.133 403.346 77.7402 403.13C75.3402 401.89 71.0402 404.13 69.3402 405.87C69.2302 405.98 68.1403 407.33 67.5602 408.09C67.7002 407.18 67.8503 406.27 67.9603 405.34C68.2903 402.67 68.5503 399.95 68.8102 397.24C68.8903 396.41 68.9803 395.58 69.0703 394.76C69.4103 394.89 73.5203 396.41 75.5403 396.27C77.3403 396.15 79.5902 395.49 80.6302 393.89C80.8879 393.523 81.0652 393.105 81.1504 392.665C81.2357 392.224 81.2271 391.771 81.1252 391.334C81.0233 390.897 80.8303 390.486 80.5589 390.129C80.2875 389.772 79.9438 389.476 79.5503 389.26C77.1603 388.02 72.8603 390.26 71.1503 392C71.0203 392.13 69.4603 394.09 69.0803 394.6C69.2803 392.78 69.4903 390.97 69.7603 389.19C70.1132 386.764 70.6175 384.363 71.2702 382C71.4302 382.06 75.7103 383.68 77.7803 383.53C79.5703 383.41 81.7803 382.75 82.8603 381.15C83.1183 380.783 83.2961 380.366 83.3821 379.926C83.4682 379.486 83.4604 379.033 83.3595 378.596C83.2585 378.159 83.0666 377.749 82.7962 377.391C82.5258 377.033 82.183 376.736 81.7903 376.52C79.3903 375.28 75.1003 377.52 73.3903 379.26C73.2803 379.38 72.0802 380.86 71.5303 381.58L71.4003 381.51C72.1371 379.176 73.0843 376.913 74.2303 374.75C74.8403 373.55 75.4903 372.43 76.1503 371.36C76.9203 371.75 80.4403 373.46 82.3203 373.53C84.2003 373.6 86.4202 373.2 87.6302 371.72C87.9268 371.384 88.1491 370.988 88.2826 370.56C88.4161 370.132 88.4578 369.68 88.4049 369.235C88.3521 368.79 88.2059 368.36 87.9759 367.975C87.7459 367.59 87.4373 367.258 87.0703 367C84.8302 365.51 80.3003 367.31 78.4202 368.81C78.3203 368.89 77.4203 369.81 76.6903 370.53C76.9903 370.05 77.3003 369.53 77.6003 369.1C78.7303 367.4 79.8703 365.92 80.8903 364.61C81.4703 363.87 82.0103 363.21 82.5303 362.61C83.5303 362.61 87.3003 362.48 88.9603 361.7C90.6203 360.92 92.4603 359.5 92.8503 357.64C92.9583 357.205 92.9734 356.752 92.8945 356.311C92.8157 355.869 92.6448 355.45 92.3929 355.079C92.1409 354.708 91.8137 354.395 91.4324 354.159C91.0512 353.923 90.6245 353.77 90.1803 353.71C87.5003 353.42 84.3103 357.1 83.3303 359.3C83.2403 359.49 82.2603 362.62 82.3303 362.62H82.3903C81.8803 363.2 81.3402 363.82 80.7702 364.52C79.7702 365.81 78.5502 367.27 77.3802 368.96C76.0927 370.753 74.9171 372.623 73.8603 374.56C72.6641 376.725 71.6602 378.99 70.8603 381.33C70.8603 381.33 70.8603 381.33 70.8603 381.41C70.8603 380.62 70.8603 378.41 70.8603 378.24C70.5603 375.85 68.5503 371.42 65.8603 370.93C65.4175 370.859 64.9648 370.883 64.5318 370.999C64.0989 371.115 63.6954 371.322 63.3479 371.605C63.0003 371.889 62.7167 372.242 62.5154 372.643C62.3142 373.044 62.2 373.482 62.1803 373.93C62.0203 375.83 63.4002 377.73 64.7402 378.93C66.2502 380.28 70.4502 381.59 70.7402 381.69C69.9996 384.086 69.4184 386.528 69.0003 389C68.7503 390.44 68.5302 391.91 68.3402 393.37C68.3402 392.69 68.3402 392.08 68.3402 391.99C68.0302 389.61 66.0302 385.17 63.3402 384.68C62.8978 384.611 62.4457 384.635 62.0133 384.752C61.581 384.869 61.1782 385.076 60.831 385.359C60.4839 385.642 60.2002 385.995 59.9985 386.395C59.7968 386.795 59.6815 387.233 59.6603 387.68C59.5103 389.58 60.8803 391.48 62.2203 392.68C63.5603 393.88 67.1502 395.08 68.0902 395.39L67.8802 397.08C67.5602 399.79 67.2502 402.49 66.8802 405.13C66.7402 406.06 66.5703 406.97 66.4103 407.89C66.4103 407.28 66.4103 406.77 66.4103 406.69C66.1003 404.3 64.1003 399.87 61.4103 399.38C60.9675 399.309 60.5148 399.333 60.0818 399.449C59.6489 399.565 59.2454 399.772 58.8979 400.055C58.5503 400.339 58.2667 400.692 58.0654 401.093C57.8642 401.494 57.75 401.932 57.7303 402.38C57.5703 404.28 58.9503 406.18 60.2903 407.38C61.6303 408.58 64.8703 409.66 65.9902 410.03C65.7902 410.96 65.6003 411.89 65.3703 412.78C65.1903 413.39 65.0703 413.98 64.8603 414.58L64.2903 416.36C63.8803 417.47 63.4703 418.62 63.0503 419.7C62.7603 420.45 62.4703 421.16 62.1803 421.88C62.3303 420.95 62.5803 419.13 62.5803 418.98C62.5475 416.871 61.976 414.806 60.9202 412.98C60.9401 412.744 60.9401 412.506 60.9202 412.27C60.8649 411.826 60.7165 411.398 60.4847 411.014C60.2529 410.631 59.943 410.3 59.575 410.045C59.2071 409.789 58.7894 409.614 58.3493 409.53C57.9091 409.447 57.4562 409.457 57.0202 409.56C54.4102 410.26 52.7603 414.84 52.6303 417.24C52.6303 417.38 52.7203 418.93 52.8003 419.91C52.6603 419.34 52.5403 418.79 52.4003 418.21C52.1303 417.05 51.8203 415.91 51.5003 414.68L50.9603 412.9C50.7903 412.3 50.5303 411.68 50.3303 411.07C49.8103 409.66 49.2202 408.26 48.5903 406.86C49.5903 406.62 53.1702 405.71 54.5903 404.6C56.0103 403.49 57.5303 401.72 57.5103 399.81C57.5225 399.357 57.4381 398.907 57.2625 398.489C57.087 398.071 56.8244 397.695 56.4923 397.387C56.1602 397.078 55.7662 396.844 55.3364 396.7C54.9067 396.555 54.4512 396.504 54.0003 396.55C51.3103 396.84 49.0003 401.12 48.5003 403.48C48.5003 403.62 48.3103 405.36 48.2403 406.31C47.8603 405.47 47.4803 404.63 47.0603 403.8C45.8603 401.38 44.5803 398.97 43.3003 396.57C42.9103 395.83 42.5303 395.09 42.1503 394.35C42.5103 394.27 46.7703 393.28 48.3803 392.05C49.8103 390.95 51.3203 389.16 51.3103 387.26C51.3222 386.809 51.2382 386.36 51.0639 385.944C50.8895 385.527 50.6288 385.153 50.2989 384.845C49.969 384.537 49.5775 384.302 49.1502 384.156C48.723 384.011 48.2696 383.958 47.8203 384C45.1403 384.29 42.8203 388.56 42.3203 390.92C42.3203 391.1 42.0603 393.59 42.0403 394.23C41.1903 392.6 40.3603 390.97 39.6103 389.34C38.5956 387.125 37.7238 384.847 37.0003 382.52C37.1703 382.52 41.6303 381.52 43.2703 380.21C44.7003 379.11 46.2103 377.32 46.2003 375.42C46.213 374.972 46.1311 374.526 45.9597 374.111C45.7884 373.697 45.5316 373.323 45.206 373.014C44.8804 372.706 44.4934 372.469 44.0703 372.32C43.6471 372.171 43.1973 372.113 42.7503 372.15C40.0703 372.44 37.7503 376.71 37.2603 379.07C37.2603 379.23 37.0503 381.13 36.9903 382.07H36.8403C36.1656 379.713 35.7037 377.3 35.4603 374.86C35.3103 373.52 35.2403 372.23 35.2103 370.98C36.0603 370.87 39.9303 370.36 41.5403 369.39C43.1503 368.42 44.7803 366.84 44.9803 364.94C45.0408 364.497 45.0073 364.045 44.8819 363.615C44.7565 363.186 44.542 362.787 44.2525 362.446C43.9629 362.104 43.6047 361.827 43.2011 361.634C42.7976 361.44 42.3578 361.333 41.9103 361.32C39.2103 361.32 36.4303 365.32 35.6803 367.59C35.6803 367.72 35.3703 369.03 35.1903 369.99C35.1903 369.42 35.1903 368.84 35.1903 368.29C35.1903 366.29 35.3303 364.39 35.4503 362.73C35.5303 361.79 35.6303 360.94 35.7203 360.15C36.5003 359.62 39.6203 357.41 40.5803 355.84C41.5403 354.27 42.2803 352.08 41.5803 350.31C41.431 349.888 41.1943 349.502 40.8854 349.177C40.5766 348.853 40.2027 348.597 39.7883 348.427C39.3738 348.257 38.9281 348.177 38.4804 348.191C38.0327 348.205 37.593 348.314 37.1903 348.51C34.7903 349.75 34.1903 354.57 34.5603 356.95C34.5603 357.15 35.5003 360.3 35.5603 360.28C35.4503 361.04 35.3503 361.86 35.2503 362.76C35.0903 364.41 34.9203 366.28 34.8703 368.33C34.787 370.535 34.8404 372.742 35.0303 374.94C35.2138 377.409 35.6222 379.856 36.2503 382.25V382.33C35.8203 381.66 34.5703 379.84 34.4603 379.71C32.8903 377.89 28.7703 375.29 26.2903 376.35C25.8828 376.536 25.519 376.805 25.2226 377.141C24.9262 377.477 24.7038 377.871 24.5699 378.298C24.4359 378.726 24.3935 379.176 24.4452 379.621C24.497 380.066 24.6418 380.495 24.8703 380.88C25.8003 382.49 28.0003 383.32 29.7803 383.58Z" fill="#212121"/>
<path d="M683.32 370.9C683.32 370.9 684.18 367.75 684.21 367.55C684.54 365.16 683.78 360.36 681.35 359.18C680.941 358.996 680.497 358.901 680.048 358.9C679.599 358.9 679.156 358.993 678.745 359.175C678.335 359.357 677.968 359.624 677.667 359.957C677.366 360.29 677.139 360.683 677 361.11C676.35 362.9 677.18 365.11 678.16 366.6C679.3 368.38 683.31 370.9 683.32 370.9Z" fill="#212121"/>
<path d="M635.41 369.86C637.35 370.71 642.081 370.6 642.091 370.6C642.101 370.6 641.09 367.5 640.98 367.31C639.98 365.14 636.66 361.55 633.98 361.91C633.538 361.982 633.116 362.147 632.742 362.393C632.368 362.639 632.049 362.961 631.808 363.339C631.566 363.716 631.407 364.14 631.34 364.583C631.274 365.026 631.301 365.478 631.42 365.91C631.86 367.76 633.76 369.14 635.41 369.86Z" fill="#212121"/>
<path d="M637.05 383.581C639.05 383.871 643.28 382.651 643.62 382.581C644.315 384.998 645.171 387.366 646.18 389.671C646.76 391.021 647.39 392.351 648.04 393.671L647.25 392.531C645.67 390.711 641.55 388.121 639.07 389.171C638.663 389.359 638.3 389.63 638.004 389.967C637.709 390.303 637.487 390.698 637.353 391.126C637.22 391.554 637.177 392.005 637.228 392.45C637.279 392.895 637.423 393.324 637.65 393.711C638.57 395.381 640.77 396.201 642.55 396.461C644.33 396.721 647.98 395.751 648.94 395.461L649.69 396.991C650.91 399.431 652.15 401.861 653.28 404.271C653.68 405.121 654.05 405.981 654.41 406.831C654.07 406.331 653.78 405.911 653.73 405.831C652.15 404.011 648.03 401.411 645.55 402.471C645.142 402.658 644.778 402.928 644.481 403.265C644.185 403.601 643.963 403.996 643.829 404.424C643.695 404.853 643.652 405.304 643.704 405.75C643.756 406.195 643.901 406.625 644.13 407.011C645.05 408.671 647.25 409.501 649.03 409.761C650.81 410.021 654.11 409.141 655.24 408.831C655.59 409.711 655.94 410.601 656.24 411.471C656.43 412.071 656.66 412.641 656.81 413.251C656.96 413.861 657.15 414.451 657.31 415.041C657.59 416.201 657.88 417.381 658.12 418.521C658.3 419.301 658.45 420.051 658.6 420.811C658.22 419.961 657.42 418.311 657.34 418.181C656.06 416.181 652.34 412.951 649.76 413.611C649.329 413.734 648.928 413.946 648.585 414.234C648.242 414.522 647.963 414.879 647.766 415.281C647.57 415.684 647.461 416.124 647.446 416.572C647.431 417.02 647.511 417.466 647.68 417.881C648.33 419.671 650.38 420.821 652.1 421.351C653.99 421.931 658.19 421.401 658.71 421.351C658.96 422.601 659.2 423.821 659.4 424.981C659.82 427.391 660.15 429.571 660.4 431.431H662.16C661.86 429.501 661.47 427.221 660.97 424.681C660.72 423.411 660.43 422.051 660.11 420.681C661.373 420.174 662.605 419.593 663.8 418.941C665.18 420.441 668.72 422.191 669.18 422.411C668.7 423.591 668.18 424.741 667.75 425.821C666.83 427.931 665.96 429.821 665.17 431.441H667.08C667.74 429.961 668.47 428.281 669.22 426.441C669.72 425.241 670.22 423.941 670.72 422.611C671.229 422.721 675.38 423.561 677.32 423.121C679.08 422.731 681.2 421.741 681.99 420.001C682.188 419.599 682.3 419.159 682.317 418.711C682.334 418.263 682.257 417.816 682.09 417.4C681.923 416.984 681.67 416.608 681.347 416.296C681.025 415.984 680.641 415.744 680.22 415.591C677.67 414.731 673.76 417.591 672.33 419.591C672.25 419.711 671.47 421.051 670.99 421.901C671.2 421.361 671.4 420.831 671.6 420.271C672.01 419.151 672.39 418.031 672.79 416.831L673.33 415.041C673.52 414.451 673.65 413.801 673.81 413.171C674.16 411.711 674.44 410.171 674.69 408.701C675.69 409.051 679.15 410.271 680.95 410.141C682.75 410.011 684.95 409.351 686.03 407.761C686.288 407.394 686.465 406.977 686.551 406.537C686.637 406.097 686.63 405.644 686.529 405.207C686.428 404.77 686.236 404.359 685.965 404.001C685.695 403.644 685.352 403.347 684.96 403.131C682.56 401.891 678.26 404.131 676.56 405.871C676.45 405.981 675.36 407.331 674.78 408.091C674.92 407.181 675.07 406.271 675.18 405.341C675.52 402.671 675.77 399.951 676.03 397.241C676.11 396.411 676.2 395.581 676.29 394.761C676.64 394.891 680.74 396.411 682.76 396.271C684.56 396.151 686.76 395.491 687.85 393.891C688.106 393.523 688.283 393.106 688.368 392.667C688.453 392.227 688.445 391.774 688.344 391.338C688.243 390.901 688.052 390.491 687.782 390.133C687.513 389.775 687.171 389.478 686.78 389.261C684.38 388.021 680.08 390.261 678.37 392.001C678.24 392.131 676.68 394.091 676.31 394.601C676.5 392.781 676.71 390.971 676.99 389.191C677.353 386.783 677.871 384.402 678.54 382.061C678.7 382.121 682.98 383.741 685.05 383.591C686.85 383.471 689.1 382.811 690.14 381.211C690.396 380.843 690.572 380.425 690.656 379.985C690.74 379.545 690.731 379.092 690.63 378.655C690.528 378.219 690.335 377.809 690.065 377.451C689.794 377.094 689.452 376.797 689.06 376.581C686.67 375.341 682.37 377.581 680.66 379.321C680.55 379.441 679.35 380.921 678.8 381.641L678.67 381.571C679.406 379.236 680.354 376.974 681.5 374.811C682.11 373.611 682.76 372.491 683.42 371.421C684.19 371.811 687.71 373.521 689.59 373.591C691.47 373.661 693.7 373.261 694.9 371.781C695.197 371.445 695.42 371.05 695.554 370.622C695.688 370.195 695.731 369.743 695.679 369.298C695.627 368.852 695.482 368.423 695.253 368.038C695.024 367.652 694.716 367.319 694.35 367.061C692.1 365.571 687.58 367.371 685.69 368.871C685.59 368.951 684.64 369.871 683.96 370.591C684.26 370.111 684.57 369.591 684.87 369.161C686 367.461 687.14 365.981 688.16 364.671C688.74 363.931 689.29 363.271 689.8 362.671C690.8 362.671 694.57 362.541 696.24 361.761C697.91 360.981 699.73 359.561 700.12 357.701C700.228 357.266 700.243 356.813 700.164 356.371C700.085 355.93 699.914 355.51 699.662 355.139C699.41 354.769 699.083 354.455 698.702 354.219C698.321 353.983 697.894 353.831 697.45 353.771C694.77 353.481 691.58 357.161 690.6 359.361C690.52 359.551 689.53 362.681 689.6 362.681H689.66C689.15 363.261 688.66 363.881 688.04 364.581C687.04 365.871 685.82 367.331 684.65 369.021C683.366 370.815 682.19 372.685 681.13 374.621C679.933 376.785 678.93 379.051 678.13 381.391C678.13 381.391 678.13 381.391 678.13 381.471C678.13 380.681 678.13 378.471 678.13 378.301C677.82 375.911 675.81 371.481 673.13 370.991C672.687 370.92 672.234 370.943 671.801 371.06C671.368 371.176 670.965 371.383 670.617 371.666C670.27 371.949 669.986 372.303 669.785 372.703C669.583 373.104 669.469 373.543 669.45 373.991C669.29 375.891 670.67 377.791 672.01 378.991C673.52 380.341 677.73 381.651 678.01 381.751C677.253 384.151 676.662 386.6 676.24 389.081C675.98 390.521 675.76 391.991 675.57 393.451C675.57 392.771 675.57 392.161 675.57 392.071C675.26 389.691 673.26 385.251 670.57 384.761C670.127 384.691 669.674 384.716 669.241 384.833C668.808 384.95 668.405 385.157 668.057 385.439C667.709 385.722 667.424 386.075 667.222 386.475C667.019 386.875 666.902 387.313 666.88 387.761C666.73 389.661 668.1 391.561 669.45 392.761C670.8 393.961 674.37 395.161 675.31 395.471L675.1 397.161C674.78 399.871 674.47 402.571 674.1 405.211C673.96 406.141 673.8 407.051 673.63 407.971C673.63 407.361 673.63 406.851 673.63 406.771C673.32 404.381 671.32 399.951 668.63 399.461C668.187 399.39 667.734 399.413 667.301 399.53C666.868 399.646 666.465 399.853 666.117 400.136C665.77 400.419 665.486 400.773 665.285 401.173C665.083 401.574 664.969 402.013 664.95 402.461C664.8 404.361 666.17 406.261 667.51 407.461C668.85 408.661 672.09 409.741 673.21 410.111C673.01 411.041 672.82 411.971 672.59 412.861C672.41 413.471 672.29 414.061 672.08 414.661L671.51 416.441C671.1 417.551 670.69 418.701 670.27 419.781C669.98 420.531 669.69 421.241 669.41 421.961C669.55 421.031 669.8 419.211 669.8 419.061C669.767 416.952 669.195 414.886 668.14 413.061C668.159 412.824 668.159 412.587 668.14 412.351C668.083 411.906 667.933 411.478 667.7 411.094C667.468 410.711 667.157 410.38 666.788 410.125C666.419 409.869 666.001 409.694 665.56 409.611C665.119 409.527 664.666 409.538 664.23 409.641C661.62 410.341 659.97 414.921 659.85 417.321C659.85 417.461 659.93 419.011 660.01 419.991C659.88 419.421 659.75 418.871 659.61 418.291C659.34 417.131 659.03 415.991 658.71 414.761L658.17 412.981C658 412.381 657.75 411.761 657.54 411.151C657.02 409.741 656.43 408.341 655.8 406.941C656.8 406.701 660.38 405.791 661.8 404.681C663.22 403.571 664.74 401.801 664.73 399.891C664.741 399.443 664.658 398.997 664.486 398.584C664.314 398.17 664.057 397.797 663.732 397.488C663.407 397.18 663.02 396.944 662.598 396.794C662.175 396.645 661.726 396.586 661.28 396.621C658.6 396.911 656.28 401.191 655.78 403.551C655.78 403.691 655.59 405.431 655.52 406.381C655.14 405.541 654.76 404.701 654.35 403.871C653.15 401.451 651.86 399.041 650.58 396.641C650.19 395.901 649.81 395.161 649.43 394.421C649.79 394.341 654.06 393.351 655.66 392.121C657.09 391.021 658.6 389.231 658.59 387.331C658.602 386.882 658.52 386.436 658.349 386.022C658.178 385.607 657.921 385.233 657.595 384.925C657.27 384.616 656.883 384.38 656.46 384.231C656.036 384.082 655.587 384.024 655.14 384.061C652.46 384.351 650.14 388.621 649.64 390.981C649.64 391.161 649.38 393.651 649.36 394.291C648.51 392.661 647.69 391.031 646.94 389.401C645.911 387.191 645.029 384.916 644.3 382.591C644.47 382.591 648.93 381.591 650.57 380.281C652 379.181 653.57 377.391 653.5 375.491C653.512 375.042 653.43 374.596 653.259 374.182C653.088 373.767 652.831 373.393 652.505 373.085C652.18 372.776 651.793 372.54 651.37 372.391C650.946 372.242 650.497 372.184 650.05 372.221C647.37 372.511 645.05 376.781 644.56 379.141C644.56 379.301 644.35 381.201 644.29 382.141H644.14C643.465 379.783 643.003 377.37 642.76 374.931C642.61 373.591 642.55 372.301 642.51 371.051C643.36 370.941 647.24 370.431 648.84 369.461C650.44 368.491 652.08 366.911 652.28 365.011C652.34 364.567 652.307 364.116 652.181 363.686C652.056 363.256 651.841 362.858 651.552 362.516C651.262 362.175 650.904 361.898 650.5 361.704C650.097 361.51 649.657 361.403 649.21 361.391C646.51 361.391 643.73 365.391 642.99 367.661C642.99 367.791 642.68 369.101 642.49 370.061C642.49 369.491 642.49 368.911 642.49 368.361C642.49 366.361 642.62 364.461 642.75 362.801C642.83 361.861 642.92 361.011 643.01 360.221C643.79 359.691 646.91 357.481 647.87 355.911C648.83 354.341 649.58 352.151 648.87 350.381C648.719 349.958 648.481 349.572 648.172 349.247C647.862 348.923 647.487 348.667 647.072 348.497C646.657 348.327 646.21 348.247 645.762 348.261C645.313 348.276 644.873 348.385 644.47 348.581C642.07 349.821 641.47 354.641 641.84 357.021C641.84 357.221 642.78 360.371 642.84 360.351C642.73 361.111 642.63 361.931 642.53 362.831C642.37 364.481 642.2 366.351 642.15 368.401C642.076 370.605 642.13 372.812 642.31 375.011C642.503 377.478 642.911 379.924 643.53 382.321V382.401C643.11 381.731 641.86 379.911 641.74 379.781C640.17 377.961 636.05 375.361 633.57 376.421C633.162 376.607 632.798 376.876 632.502 377.212C632.206 377.547 631.983 377.942 631.849 378.369C631.715 378.796 631.673 379.247 631.725 379.692C631.776 380.137 631.921 380.566 632.15 380.951C633.07 382.491 635.27 383.321 637.05 383.581Z" fill="#212121"/>
<path opacity="0.3" d="M635.41 369.86C637.35 370.71 642.081 370.6 642.091 370.6C642.101 370.6 641.09 367.5 640.98 367.31C639.98 365.14 636.66 361.55 633.98 361.91C633.538 361.982 633.116 362.147 632.742 362.393C632.368 362.639 632.049 362.961 631.808 363.339C631.566 363.716 631.407 364.14 631.34 364.583C631.274 365.026 631.301 365.478 631.42 365.91C631.86 367.76 633.76 369.14 635.41 369.86Z" fill="#212121"/>
<path opacity="0.3" d="M683.32 370.9C683.32 370.9 684.18 367.75 684.21 367.55C684.54 365.16 683.78 360.36 681.35 359.18C680.941 358.996 680.497 358.901 680.048 358.9C679.599 358.9 679.156 358.993 678.745 359.175C678.335 359.357 677.968 359.624 677.667 359.957C677.366 360.29 677.139 360.683 677 361.11C676.35 362.9 677.18 365.11 678.16 366.6C679.3 368.38 683.31 370.9 683.32 370.9Z" fill="#212121"/>
<path opacity="0.3" d="M637.05 383.581C639.05 383.871 643.28 382.651 643.62 382.581C644.315 384.998 645.171 387.366 646.18 389.671C646.76 391.021 647.39 392.351 648.04 393.671L647.25 392.531C645.67 390.711 641.55 388.121 639.07 389.171C638.663 389.359 638.3 389.63 638.004 389.967C637.709 390.303 637.487 390.698 637.353 391.126C637.22 391.554 637.177 392.005 637.228 392.45C637.279 392.895 637.423 393.324 637.65 393.711C638.57 395.381 640.77 396.201 642.55 396.461C644.33 396.721 647.98 395.751 648.94 395.461L649.69 396.991C650.91 399.431 652.15 401.861 653.28 404.271C653.68 405.121 654.05 405.981 654.41 406.831C654.07 406.331 653.78 405.911 653.73 405.831C652.15 404.011 648.03 401.411 645.55 402.471C645.142 402.658 644.778 402.928 644.481 403.265C644.185 403.601 643.963 403.996 643.829 404.424C643.695 404.853 643.652 405.304 643.704 405.75C643.756 406.195 643.901 406.625 644.13 407.011C645.05 408.671 647.25 409.501 649.03 409.761C650.81 410.021 654.11 409.141 655.24 408.831C655.59 409.711 655.94 410.601 656.24 411.471C656.43 412.071 656.66 412.641 656.81 413.251C656.96 413.861 657.15 414.451 657.31 415.041C657.59 416.201 657.88 417.381 658.12 418.521C658.3 419.301 658.45 420.051 658.6 420.811C658.22 419.961 657.42 418.311 657.34 418.181C656.06 416.181 652.34 412.951 649.76 413.611C649.329 413.734 648.928 413.946 648.585 414.234C648.242 414.522 647.963 414.879 647.766 415.281C647.57 415.684 647.461 416.124 647.446 416.572C647.431 417.02 647.511 417.466 647.68 417.881C648.33 419.671 650.38 420.821 652.1 421.351C653.99 421.931 658.19 421.401 658.71 421.351C658.96 422.601 659.2 423.821 659.4 424.981C659.82 427.391 660.15 429.571 660.4 431.431H662.16C661.86 429.501 661.47 427.221 660.97 424.681C660.72 423.411 660.43 422.051 660.11 420.681C661.373 420.174 662.605 419.593 663.8 418.941C665.18 420.441 668.72 422.191 669.18 422.411C668.7 423.591 668.18 424.741 667.75 425.821C666.83 427.931 665.96 429.821 665.17 431.441H667.08C667.74 429.961 668.47 428.281 669.22 426.441C669.72 425.241 670.22 423.941 670.72 422.611C671.229 422.721 675.38 423.561 677.32 423.121C679.08 422.731 681.2 421.741 681.99 420.001C682.188 419.599 682.3 419.159 682.317 418.711C682.334 418.263 682.257 417.816 682.09 417.4C681.923 416.984 681.67 416.608 681.347 416.296C681.025 415.984 680.641 415.744 680.22 415.591C677.67 414.731 673.76 417.591 672.33 419.591C672.25 419.711 671.47 421.051 670.99 421.901C671.2 421.361 671.4 420.831 671.6 420.271C672.01 419.151 672.39 418.031 672.79 416.831L673.33 415.041C673.52 414.451 673.65 413.801 673.81 413.171C674.16 411.711 674.44 410.171 674.69 408.701C675.69 409.051 679.15 410.271 680.95 410.141C682.75 410.011 684.95 409.351 686.03 407.761C686.288 407.394 686.465 406.977 686.551 406.537C686.637 406.097 686.63 405.644 686.529 405.207C686.428 404.77 686.236 404.359 685.965 404.001C685.695 403.644 685.352 403.347 684.96 403.131C682.56 401.891 678.26 404.131 676.56 405.871C676.45 405.981 675.36 407.331 674.78 408.091C674.92 407.181 675.07 406.271 675.18 405.341C675.52 402.671 675.77 399.951 676.03 397.241C676.11 396.411 676.2 395.581 676.29 394.761C676.64 394.891 680.74 396.411 682.76 396.271C684.56 396.151 686.76 395.491 687.85 393.891C688.106 393.523 688.283 393.106 688.368 392.667C688.453 392.227 688.445 391.774 688.344 391.338C688.243 390.901 688.052 390.491 687.782 390.133C687.513 389.775 687.171 389.478 686.78 389.261C684.38 388.021 680.08 390.261 678.37 392.001C678.24 392.131 676.68 394.091 676.31 394.601C676.5 392.781 676.71 390.971 676.99 389.191C677.353 386.783 677.871 384.402 678.54 382.061C678.7 382.121 682.98 383.741 685.05 383.591C686.85 383.471 689.1 382.811 690.14 381.211C690.396 380.843 690.572 380.425 690.656 379.985C690.74 379.545 690.731 379.092 690.63 378.655C690.528 378.219 690.335 377.809 690.065 377.451C689.794 377.094 689.452 376.797 689.06 376.581C686.67 375.341 682.37 377.581 680.66 379.321C680.55 379.441 679.35 380.921 678.8 381.641L678.67 381.571C679.406 379.236 680.354 376.974 681.5 374.811C682.11 373.611 682.76 372.491 683.42 371.421C684.19 371.811 687.71 373.521 689.59 373.591C691.47 373.661 693.7 373.261 694.9 371.781C695.197 371.445 695.42 371.05 695.554 370.622C695.688 370.195 695.731 369.743 695.679 369.298C695.627 368.852 695.482 368.423 695.253 368.038C695.024 367.652 694.716 367.319 694.35 367.061C692.1 365.571 687.58 367.371 685.69 368.871C685.59 368.951 684.64 369.871 683.96 370.591C684.26 370.111 684.57 369.591 684.87 369.161C686 367.461 687.14 365.981 688.16 364.671C688.74 363.931 689.29 363.271 689.8 362.671C690.8 362.671 694.57 362.541 696.24 361.761C697.91 360.981 699.73 359.561 700.12 357.701C700.228 357.266 700.243 356.813 700.164 356.371C700.085 355.93 699.914 355.51 699.662 355.139C699.41 354.769 699.083 354.455 698.702 354.219C698.321 353.983 697.894 353.831 697.45 353.771C694.77 353.481 691.58 357.161 690.6 359.361C690.52 359.551 689.53 362.681 689.6 362.681H689.66C689.15 363.261 688.66 363.881 688.04 364.581C687.04 365.871 685.82 367.331 684.65 369.021C683.366 370.815 682.19 372.685 681.13 374.621C679.933 376.785 678.93 379.051 678.13 381.391C678.13 381.391 678.13 381.391 678.13 381.471C678.13 380.681 678.13 378.471 678.13 378.301C677.82 375.911 675.81 371.481 673.13 370.991C672.687 370.92 672.234 370.943 671.801 371.06C671.368 371.176 670.965 371.383 670.617 371.666C670.27 371.949 669.986 372.303 669.785 372.703C669.583 373.104 669.469 373.543 669.45 373.991C669.29 375.891 670.67 377.791 672.01 378.991C673.52 380.341 677.73 381.651 678.01 381.751C677.253 384.151 676.662 386.6 676.24 389.081C675.98 390.521 675.76 391.991 675.57 393.451C675.57 392.771 675.57 392.161 675.57 392.071C675.26 389.691 673.26 385.251 670.57 384.761C670.127 384.691 669.674 384.716 669.241 384.833C668.808 384.95 668.405 385.157 668.057 385.439C667.709 385.722 667.424 386.075 667.222 386.475C667.019 386.875 666.902 387.313 666.88 387.761C666.73 389.661 668.1 391.561 669.45 392.761C670.8 393.961 674.37 395.161 675.31 395.471L675.1 397.161C674.78 399.871 674.47 402.571 674.1 405.211C673.96 406.141 673.8 407.051 673.63 407.971C673.63 407.361 673.63 406.851 673.63 406.771C673.32 404.381 671.32 399.951 668.63 399.461C668.187 399.39 667.734 399.413 667.301 399.53C666.868 399.646 666.465 399.853 666.117 400.136C665.77 400.419 665.486 400.773 665.285 401.173C665.083 401.574 664.969 402.013 664.95 402.461C664.8 404.361 666.17 406.261 667.51 407.461C668.85 408.661 672.09 409.741 673.21 410.111C673.01 411.041 672.82 411.971 672.59 412.861C672.41 413.471 672.29 414.061 672.08 414.661L671.51 416.441C671.1 417.551 670.69 418.701 670.27 419.781C669.98 420.531 669.69 421.241 669.41 421.961C669.55 421.031 669.8 419.211 669.8 419.061C669.767 416.952 669.195 414.886 668.14 413.061C668.159 412.824 668.159 412.587 668.14 412.351C668.083 411.906 667.933 411.478 667.7 411.094C667.468 410.711 667.157 410.38 666.788 410.125C666.419 409.869 666.001 409.694 665.56 409.611C665.119 409.527 664.666 409.538 664.23 409.641C661.62 410.341 659.97 414.921 659.85 417.321C659.85 417.461 659.93 419.011 660.01 419.991C659.88 419.421 659.75 418.871 659.61 418.291C659.34 417.131 659.03 415.991 658.71 414.761L658.17 412.981C658 412.381 657.75 411.761 657.54 411.151C657.02 409.741 656.43 408.341 655.8 406.941C656.8 406.701 660.38 405.791 661.8 404.681C663.22 403.571 664.74 401.801 664.73 399.891C664.741 399.443 664.658 398.997 664.486 398.584C664.314 398.17 664.057 397.797 663.732 397.488C663.407 397.18 663.02 396.944 662.598 396.794C662.175 396.645 661.726 396.586 661.28 396.621C658.6 396.911 656.28 401.191 655.78 403.551C655.78 403.691 655.59 405.431 655.52 406.381C655.14 405.541 654.76 404.701 654.35 403.871C653.15 401.451 651.86 399.041 650.58 396.641C650.19 395.901 649.81 395.161 649.43 394.421C649.79 394.341 654.06 393.351 655.66 392.121C657.09 391.021 658.6 389.231 658.59 387.331C658.602 386.882 658.52 386.436 658.349 386.022C658.178 385.607 657.921 385.233 657.595 384.925C657.27 384.616 656.883 384.38 656.46 384.231C656.036 384.082 655.587 384.024 655.14 384.061C652.46 384.351 650.14 388.621 649.64 390.981C649.64 391.161 649.38 393.651 649.36 394.291C648.51 392.661 647.69 391.031 646.94 389.401C645.911 387.191 645.029 384.916 644.3 382.591C644.47 382.591 648.93 381.591 650.57 380.281C652 379.181 653.57 377.391 653.5 375.491C653.512 375.042 653.43 374.596 653.259 374.182C653.088 373.767 652.831 373.393 652.505 373.085C652.18 372.776 651.793 372.54 651.37 372.391C650.946 372.242 650.497 372.184 650.05 372.221C647.37 372.511 645.05 376.781 644.56 379.141C644.56 379.301 644.35 381.201 644.29 382.141H644.14C643.465 379.783 643.003 377.37 642.76 374.931C642.61 373.591 642.55 372.301 642.51 371.051C643.36 370.941 647.24 370.431 648.84 369.461C650.44 368.491 652.08 366.911 652.28 365.011C652.34 364.567 652.307 364.116 652.181 363.686C652.056 363.256 651.841 362.858 651.552 362.516C651.262 362.175 650.904 361.898 650.5 361.704C650.097 361.51 649.657 361.403 649.21 361.391C646.51 361.391 643.73 365.391 642.99 367.661C642.99 367.791 642.68 369.101 642.49 370.061C642.49 369.491 642.49 368.911 642.49 368.361C642.49 366.361 642.62 364.461 642.75 362.801C642.83 361.861 642.92 361.011 643.01 360.221C643.79 359.691 646.91 357.481 647.87 355.911C648.83 354.341 649.58 352.151 648.87 350.381C648.719 349.958 648.481 349.572 648.172 349.247C647.862 348.923 647.487 348.667 647.072 348.497C646.657 348.327 646.21 348.247 645.762 348.261C645.313 348.276 644.873 348.385 644.47 348.581C642.07 349.821 641.47 354.641 641.84 357.021C641.84 357.221 642.78 360.371 642.84 360.351C642.73 361.111 642.63 361.931 642.53 362.831C642.37 364.481 642.2 366.351 642.15 368.401C642.076 370.605 642.13 372.812 642.31 375.011C642.503 377.478 642.911 379.924 643.53 382.321V382.401C643.11 381.731 641.86 379.911 641.74 379.781C640.17 377.961 636.05 375.361 633.57 376.421C633.162 376.607 632.798 376.876 632.502 377.212C632.206 377.547 631.983 377.942 631.849 378.369C631.715 378.796 631.673 379.247 631.725 379.692C631.776 380.137 631.921 380.566 632.15 380.951C633.07 382.491 635.27 383.321 637.05 383.581Z" fill="#212121"/>
<path d="M161.94 341.439C161.94 341.439 163.19 341.189 173.44 338.189C180.006 336.087 185.996 332.493 190.94 327.689L187.69 307.189L166.94 310.189L161.94 341.439Z" fill="#BEEBC3" stroke="#212121" stroke-linecap="round" stroke-linejoin="round"/>
<path d="M110.94 410.939C110.94 410.939 107.44 417.939 106.94 424.439C106.44 430.939 110.19 433.189 111.44 431.439C112.69 429.689 114.69 423.439 114.94 420.689L115.69 412.439L110.94 410.939Z" fill="white" stroke="#212121" stroke-linecap="round" stroke-linejoin="round"/>
<path d="M203.001 415.439C203.001 415.439 202.001 424.439 201.731 428.689C201.461 432.939 206.731 436.939 207.471 437.199C208.211 437.459 208.971 437.199 210.221 434.199C211.471 431.199 211.481 423.949 210.741 421.699C210.001 419.449 208.501 415.949 208.501 415.949L203.001 415.439Z" fill="white" stroke="#212121" stroke-linecap="round" stroke-linejoin="round"/>
<path d="M167.94 283.689C167.94 283.689 157.85 295.689 154.35 305.689C150.85 315.689 148.06 328.069 145.69 334.689C143.71 340.344 142.04 346.102 140.69 351.939C140.69 351.939 134.19 358.439 132.44 364.189C130.69 369.939 110.19 412.439 110.19 412.439C110.19 412.439 111.44 414.189 112.44 414.439C113.44 414.689 115.69 413.439 115.69 413.439C115.69 413.439 151.94 365.939 154.19 362.439C156.44 358.939 163.54 350.839 164.29 349.589C165.04 348.339 170.69 330.939 172.69 328.439C174.172 326.447 175.47 324.325 176.57 322.099L178.07 323.099L179.82 323.349C179.82 323.349 187.69 339.189 189.69 345.689C191.69 352.189 197.44 387.689 198.94 394.189C200.44 400.689 202.44 417.689 202.44 417.689C203.343 417.987 204.261 418.237 205.19 418.439C206.44 418.689 209.69 417.689 209.69 417.689C209.69 417.689 215.44 391.689 215.69 382.689C215.94 373.689 214.19 353.689 214.19 350.689C214.19 347.689 209.69 306.439 207.44 300.939C205.19 295.439 197.69 285.689 197.69 285.689L167.94 283.689Z" fill="#212121" stroke="#212121" stroke-linecap="round" stroke-linejoin="round"/>
<path d="M182.691 236.439L167.691 241.189C167.691 241.189 167.691 270.189 167.941 273.939C168.191 277.689 166.191 283.939 167.441 285.439C168.691 286.939 174.691 292.939 185.691 293.189C196.691 293.439 199.691 289.939 199.691 289.939L201.941 280.189C201.941 280.189 209.191 260.689 209.191 257.689C209.191 254.689 201.941 245.939 197.691 242.439C193.441 238.939 182.691 236.439 182.691 236.439Z" fill="white" stroke="#212121" stroke-linecap="round" stroke-linejoin="round"/>
<path d="M143.94 270.689C140.747 272.839 137.405 274.761 133.94 276.439L113.94 286.439L116.19 291.189C121.069 290.319 125.994 289.735 130.94 289.439C137.44 289.189 148.44 284.939 149.19 283.689C149.94 282.439 152.44 275.689 152.44 275.689L143.94 270.689Z" fill="white" stroke="#212121" stroke-linecap="round" stroke-linejoin="round"/>
<path d="M180.69 236.689C180.69 236.689 169.94 266.189 169.44 270.439C168.94 274.689 164.69 285.439 164.44 286.939C164.19 288.439 157.19 303.689 157.19 303.689C157.19 303.689 164.69 280.189 165.44 275.439C165.851 272.403 165.507 269.312 164.44 266.439C164.44 266.439 159.37 277.199 158.62 277.949C157.87 278.699 152.78 287.289 152.78 287.289L143.94 270.689C143.94 270.689 153.69 253.689 155.69 250.939C157.69 248.189 161.94 240.689 164.94 239.189C167.94 237.689 180.69 236.689 180.69 236.689Z" fill="#BEEBC3" stroke="#212121" stroke-linecap="round" stroke-linejoin="round"/>
<path d="M195.44 240.439C195.44 240.439 187.69 272.939 187.69 278.189C187.69 283.439 186.94 299.689 186.19 308.689C185.44 317.689 183.94 346.439 183.94 346.439C188.737 347.174 193.604 347.342 198.44 346.939C205.44 346.189 217.44 341.439 217.44 341.439C217.44 341.439 211.19 309.939 208.69 302.439C206.588 295.955 204.835 289.362 203.44 282.689C203.44 281.939 210.19 259.939 210.19 256.939C210.19 253.939 198.19 241.189 195.44 240.439Z" fill="#BEEBC3" stroke="#212121" stroke-linecap="round" stroke-linejoin="round"/>
<path d="M107.28 288.32C107.43 286.425 107.085 284.523 106.28 282.8C104.92 280.12 104.18 279.29 106.36 279.88C108.54 280.47 109.82 284.74 109.82 284.74L107.28 288.32Z" fill="white" stroke="#212121" stroke-linecap="round" stroke-linejoin="round"/>
<path d="M121.351 290.12C121.351 290.12 118.491 294.64 116.771 294.23C115.051 293.82 107.421 290 107.281 288.32C107.141 286.64 108.591 281.59 109.851 281.81C111.111 282.03 121.351 290.12 121.351 290.12Z" fill="white" stroke="#212121" stroke-linecap="round" stroke-linejoin="round"/>
<path d="M206.001 209.77C206.652 211.71 207.144 213.7 207.471 215.72C207.377 216.951 207.149 218.169 206.791 219.35C206.791 219.35 210.881 222.99 211.111 223.9C211.341 224.81 208.841 226.17 208.841 226.17C208.841 226.17 209.061 235.71 209.061 236.39C209.061 237.07 197.931 237.53 197.931 237.53L186.301 251.16L180.851 237.76L183.351 230.26C183.351 230.26 175.851 225.94 178.581 219.35C181.311 212.76 187.441 209.13 193.581 208.22C197.578 207.697 201.634 207.849 205.581 208.67L206.001 209.77Z" fill="white" stroke="#212121" stroke-linecap="round" stroke-linejoin="round"/>
<path d="M197.89 237.529L192.19 236.439L191.86 244.109L197.89 237.529Z" fill="#212121" stroke="#212121" stroke-linecap="round" stroke-linejoin="round"/>
<path d="M204.421 220.23C204.421 221.03 204.131 221.67 203.761 221.67C203.391 221.67 203.101 221.03 203.101 220.23C203.101 219.43 203.401 218.8 203.761 218.8C204.121 218.8 204.421 219.44 204.421 220.23Z" fill="#212121"/>
<path d="M202.221 217.92C202.221 217.92 202.881 216.6 205.301 217.26" stroke="#212121" stroke-linecap="round" stroke-linejoin="round"/>
<path d="M207.73 228.5C207.73 228.5 204.86 228.94 203.73 227.39" stroke="#212121" stroke-linecap="round" stroke-linejoin="round"/>
<path d="M206.521 212.54C206.521 212.54 199.031 210.72 197.661 213.45C196.291 216.18 197.441 217.54 196.301 220.04C195.161 222.54 190.851 225.72 190.851 225.72C190.851 225.72 186.761 221.17 185.391 223.44C184.021 225.71 184.481 229.12 185.851 230.26C187.221 231.4 191.071 230.71 191.071 230.71L185.171 233.44C185.171 233.44 185.391 236.85 179.941 238.21C174.491 239.57 167.941 235.94 168.811 231.4C169.681 226.86 177.211 224.13 177.211 224.13C177.211 224.13 169.211 214.36 175.851 207.13C182.491 199.9 195.391 203.27 195.391 203.27C195.391 203.27 197.211 201.27 202.391 200.77C207.571 200.27 209.891 205.54 209.891 208.5C209.891 211.46 206.521 212.54 206.521 212.54Z" fill="#212121" stroke="#212121" stroke-linecap="round" stroke-linejoin="round"/>
<path d="M583.86 137L581.19 85.4199L536.85 109.51L537.85 113.51L554.62 122.07L475.71 276.72L225.27 344.82L52.1405 226.66C50.6062 225.612 48.7186 225.217 46.8929 225.561C45.0673 225.905 43.4531 226.961 42.4055 228.495C41.3579 230.029 40.9627 231.917 41.3068 233.742C41.6509 235.568 42.7062 237.182 44.2405 238.23L220 358.2C221.178 359.005 222.574 359.43 224 359.42C224.619 359.421 225.235 359.337 225.83 359.17L482.38 289.42C483.322 289.164 484.2 288.715 484.958 288.1C485.716 287.485 486.336 286.719 486.78 285.85L567.1 128.47L583.86 137Z" fill="#212121" stroke="#212121" stroke-linecap="round" stroke-linejoin="round"/>
<path d="M582.86 133L580.19 81.4199L536.85 109.51L553.62 118.07L474.71 272.72L224.27 340.82L51.1405 222.66C49.6062 221.612 47.7186 221.217 45.8929 221.561C44.0673 221.905 42.4531 222.961 41.4055 224.495C40.3579 226.029 39.9627 227.917 40.3068 229.742C40.6509 231.568 41.7062 233.182 43.2405 234.23L219 354.2C220.178 355.005 221.574 355.43 223 355.42C223.619 355.421 224.235 355.337 224.83 355.17L481.38 285.42C482.322 285.164 483.2 284.715 483.958 284.1C484.716 283.485 485.336 282.719 485.78 281.85L566.1 124.47L582.86 133Z" fill="#BEEBC3" stroke="#212121" stroke-linecap="round" stroke-linejoin="round"/>
<path d="M575.651 90.3496L546.841 109L560.35 115.89L478.161 277L223.351 346.25L48.3505 226.79C48.1332 226.642 47.8889 226.538 47.6316 226.485C47.3742 226.431 47.1088 226.429 46.8506 226.478C46.5925 226.528 46.3465 226.627 46.1268 226.772C45.9072 226.916 45.7181 227.102 45.5705 227.32C45.2708 227.757 45.1573 228.296 45.2548 228.817C45.3523 229.339 45.6529 229.8 46.0905 230.1L221.891 350.1C222.223 350.328 222.617 350.45 223.021 350.45C223.196 350.446 223.37 350.423 223.54 350.38L480.091 280.62C480.358 280.549 480.609 280.424 480.826 280.252C481.042 280.08 481.221 279.864 481.351 279.62L563.94 117.79L577.451 124.68L575.651 90.3496Z" fill="white"/>
<path d="M200.821 294.73L199.451 300C197.896 302.99 196.097 305.847 194.071 308.54C190.771 312.91 178.921 325.1 178.921 325.1L175.571 329.23L175.181 332.85L177.901 333.9C177.901 333.9 179.261 334.43 180.371 335C181.481 335.57 184.371 336.09 185.261 335.42C186.151 334.75 188.261 329.32 188.261 329.32L189.061 325.13C189.061 325.13 203.141 314.08 206.361 310.73C209.581 307.38 212.361 304.37 213.301 302.43C214.241 300.49 213.471 294.54 213.471 294.54L200.821 294.73Z" fill="white" stroke="#212121" stroke-linecap="round" stroke-linejoin="round"/>
<path d="M200.47 269.17L198 295.73C200.352 296.576 202.757 297.264 205.2 297.79C209.15 298.63 217.4 296.45 217.4 296.45C217.4 296.45 216.13 274.34 214.48 266.25C212.83 258.16 208.23 252.11 205.27 251.1" fill="#BEEBC3"/>
<path d="M200.47 269.17L198 295.73C200.352 296.576 202.757 297.264 205.2 297.79C209.15 298.63 217.4 296.45 217.4 296.45C217.4 296.45 216.13 274.34 214.48 266.25C212.83 258.16 208.23 252.11 205.27 251.1" stroke="#212121" stroke-linecap="round" stroke-linejoin="round"/>
<path d="M517.19 431.439H698.19" stroke="#212121" stroke-linecap="round" stroke-linejoin="round"/>
<path d="M495.19 431.439H508.19" stroke="#212121" stroke-linecap="round" stroke-linejoin="round"/>
<path d="M168.19 431.439H484.19" stroke="#212121" stroke-linecap="round" stroke-linejoin="round"/>
<path d="M17.1904 431.439H159.19" stroke="#212121" stroke-linecap="round" stroke-linejoin="round"/>
</svg>
