<svg width="153" height="174" viewBox="0 0 153 174" fill="none" xmlns="http://www.w3.org/2000/svg">
<g clip-path="url(#clip0_85_3948)">
<path d="M3.37614 62.9977C3.37614 62.9977 -3.2045 91.2079 15.1637 115.79C33.5319 140.372 65.6003 149.932 91.3635 158.344C117.127 166.756 141.257 157.04 150.31 135.387C159.362 113.733 141.076 102.067 137.046 73.7873C133.015 45.5072 136.223 37.3625 117.427 15.8284C98.631 -5.7056 60.0314 -5.19141 33.935 16.9144C7.83864 39.0202 3.37614 62.9977 3.37614 62.9977Z" fill="#92E3A9"/>
<path opacity="0.7" d="M3.37614 62.9977C3.37614 62.9977 -3.2045 91.2079 15.1637 115.79C33.5319 140.372 65.6003 149.932 91.3635 158.344C117.127 166.756 141.257 157.04 150.31 135.387C159.362 113.733 141.076 102.067 137.046 73.7873C133.015 45.5072 136.223 37.3625 117.427 15.8284C98.631 -5.7056 60.0314 -5.19141 33.935 16.9144C7.83864 39.0202 3.37614 62.9977 3.37614 62.9977Z" fill="white"/>
<path d="M107.182 85.4159L105.484 82.7051H90.5293V85.4159V86.3908V131.479H152.079V85.4159H107.182Z" fill="#212121"/>
<path d="M151.675 86.6582H90.9854V130.496H151.675V86.6582Z" fill="white"/>
<mask id="mask0_85_3948" style="mask-type:luminance" maskUnits="userSpaceOnUse" x="90" y="86" width="62" height="45">
<path d="M151.675 86.6582H90.9854V130.496H151.675V86.6582Z" fill="white"/>
</mask>
<g mask="url(#mask0_85_3948)">
<path opacity="0.17" d="M151.972 86.2842H150.562V130.829H151.972V86.2842Z" fill="#212121"/>
<path opacity="0.17" d="M151.972 113.216H150.562V130.468H151.972V113.216Z" fill="#212121"/>
<path d="M151.754 86.0664H90.7432V88.4522H151.754V86.0664Z" fill="#92E3A9" stroke="#212121" stroke-miterlimit="10"/>
</g>
<path d="M151.675 86.6582H90.9854V130.496H151.675V86.6582Z" stroke="#212121" stroke-linecap="round" stroke-linejoin="round"/>
<g opacity="0.17">
<path d="M122.606 90.7467H118.362C118.312 90.7472 118.263 90.7379 118.218 90.7193C118.172 90.7007 118.131 90.6732 118.096 90.6383C118.061 90.6034 118.033 90.5619 118.015 90.5163C117.996 90.4706 117.987 90.4217 117.987 90.3724C117.987 90.2731 118.027 90.1779 118.097 90.1077C118.167 90.0375 118.262 89.998 118.362 89.998H122.606C122.705 89.998 122.801 90.0375 122.871 90.1077C122.941 90.1779 122.98 90.2731 122.98 90.3724C122.98 90.4717 122.941 90.5669 122.871 90.6371C122.801 90.7073 122.705 90.7467 122.606 90.7467Z" fill="#212121"/>
<path d="M131.099 90.7467H126.851C126.752 90.7467 126.656 90.7073 126.586 90.6371C126.516 90.5669 126.477 90.4717 126.477 90.3724C126.477 90.2731 126.516 90.1779 126.586 90.1077C126.656 90.0375 126.752 89.998 126.851 89.998H131.099C131.149 89.998 131.197 90.0077 131.243 90.0265C131.288 90.0454 131.329 90.0729 131.364 90.1077C131.399 90.1424 131.426 90.1837 131.445 90.2291C131.464 90.2745 131.474 90.3232 131.474 90.3724C131.474 90.4215 131.464 90.4702 131.445 90.5156C131.426 90.561 131.399 90.6023 131.364 90.6371C131.329 90.6718 131.288 90.6994 131.243 90.7182C131.197 90.737 131.149 90.7467 131.099 90.7467Z" fill="#212121"/>
<path d="M139.589 90.7467H135.344C135.245 90.7467 135.15 90.7073 135.079 90.6371C135.009 90.5669 134.97 90.4717 134.97 90.3724C134.97 90.2731 135.009 90.1779 135.079 90.1077C135.15 90.0375 135.245 89.998 135.344 89.998H139.589C139.638 89.998 139.686 90.0077 139.732 90.0265C139.777 90.0454 139.818 90.0729 139.853 90.1077C139.888 90.1424 139.915 90.1837 139.934 90.2291C139.953 90.2745 139.963 90.3232 139.963 90.3724C139.963 90.4217 139.954 90.4706 139.935 90.5163C139.917 90.5619 139.889 90.6034 139.854 90.6383C139.82 90.6732 139.778 90.7007 139.732 90.7193C139.687 90.7379 139.638 90.7472 139.589 90.7467Z" fill="#212121"/>
<path d="M148.064 90.7467H143.836C143.787 90.7472 143.738 90.738 143.692 90.7194C143.646 90.7008 143.604 90.6733 143.569 90.6385C143.534 90.6037 143.506 90.5623 143.487 90.5166C143.468 90.4709 143.458 90.4219 143.458 90.3724C143.459 90.2727 143.499 90.1775 143.57 90.1074C143.641 90.0373 143.737 89.998 143.836 89.998H148.064C148.114 89.998 148.162 90.0077 148.208 90.0265C148.253 90.0454 148.294 90.0729 148.329 90.1077C148.364 90.1424 148.391 90.1837 148.41 90.2291C148.429 90.2745 148.439 90.3232 148.439 90.3724C148.439 90.4215 148.429 90.4702 148.41 90.5156C148.391 90.561 148.364 90.6023 148.329 90.6371C148.294 90.6718 148.253 90.6994 148.208 90.7182C148.162 90.737 148.114 90.7467 148.064 90.7467Z" fill="#212121"/>
</g>
<path d="M142.586 113.1H138.593V125.699H142.586V113.1Z" fill="#92E3A9" stroke="#212121" stroke-miterlimit="10"/>
<path d="M138.148 121.253H134.154V125.7H138.148V121.253Z" fill="#212121" stroke="#212121" stroke-linecap="round" stroke-linejoin="round"/>
<path d="M133.71 96.4199H129.717V125.696H133.71V96.4199Z" fill="#92E3A9" stroke="#212121" stroke-miterlimit="10"/>
<path d="M129.277 97.9043H125.283V125.699H129.277V97.9043Z" fill="white" stroke="#212121" stroke-linecap="round" stroke-linejoin="round"/>
<path d="M124.839 113.1H120.846V125.699H124.839V113.1Z" fill="#92E3A9" stroke="#212121" stroke-miterlimit="10"/>
<path d="M120.401 109.023H116.407V125.699H120.401V109.023Z" fill="#212121" stroke="#212121" stroke-linecap="round" stroke-linejoin="round"/>
<path d="M115.967 123.475H111.974V125.7H115.967V123.475Z" fill="#92E3A9" stroke="#212121" stroke-miterlimit="10"/>
<path d="M111.53 121.253H107.536V125.7H111.53V121.253Z" fill="white" stroke="#212121" stroke-linecap="round" stroke-linejoin="round"/>
<path d="M107.092 113.1H103.099V125.699H107.092V113.1Z" fill="#92E3A9" stroke="#212121" stroke-miterlimit="10"/>
<path d="M108.145 101.787L109.572 109.895C108.388 110.105 107.173 110.052 106.011 109.742C104.85 109.431 103.771 108.869 102.85 108.096C101.929 107.323 101.188 106.358 100.68 105.268C100.173 104.178 99.9101 102.99 99.9111 101.787H108.145Z" stroke="#212121" stroke-width="0.75" stroke-linecap="round" stroke-linejoin="round"/>
<path d="M108.145 101.788L114.631 106.856C113.404 108.489 111.589 109.579 109.572 109.896L108.145 101.788Z" stroke="#212121" stroke-width="0.75" stroke-miterlimit="10"/>
<path d="M108.144 101.788L104.031 94.6594C104.967 94.118 106 93.7664 107.072 93.6247C108.144 93.483 109.233 93.554 110.278 93.8336C111.322 94.1133 112.301 94.5961 113.159 95.2545C114.016 95.9128 114.736 96.7338 115.276 97.6705C116.114 99.0858 116.501 100.723 116.386 102.363C116.272 104.004 115.661 105.571 114.634 106.856L108.144 101.788Z" stroke="#212121" stroke-width="0.75" stroke-linecap="round" stroke-linejoin="round"/>
<path d="M110.984 104.624C112.552 103.056 112.552 100.514 110.984 98.9463C109.417 97.3784 106.875 97.3784 105.307 98.9463C103.74 100.514 103.74 103.056 105.307 104.624C106.875 106.192 109.416 106.192 110.984 104.624Z" fill="white" stroke="#212121" stroke-width="0.75" stroke-linecap="round" stroke-linejoin="round"/>
<path d="M119.801 134.271H129.585" stroke="#212121" stroke-miterlimit="10"/>
<path d="M119.801 135.938H129.585" stroke="#212121" stroke-miterlimit="10"/>
<path d="M119.801 137.604H129.585" stroke="#212121" stroke-miterlimit="10"/>
<path d="M119.801 139.266H129.585" stroke="#212121" stroke-miterlimit="10"/>
<path d="M140.789 124.148V137.649H131.227" stroke="#212121" stroke-miterlimit="10"/>
<path d="M29.2674 15.4336L26.8613 11.5957H5.67578V15.4336V16.8157V80.6938H92.8817V15.4336H29.2674Z" fill="#212121"/>
<path d="M92.3056 17.1943H6.32129V79.3037H92.3056V17.1943Z" fill="white"/>
<mask id="mask1_85_3948" style="mask-type:luminance" maskUnits="userSpaceOnUse" x="6" y="17" width="87" height="63">
<path d="M92.3056 17.1943H6.32129V79.3037H92.3056V17.1943Z" fill="white"/>
</mask>
<g mask="url(#mask1_85_3948)">
<path opacity="0.17" d="M92.7291 16.6602H90.7344V79.7732H92.7291V16.6602Z" fill="#212121"/>
<path opacity="0.17" d="M92.7291 54.8203H90.7344V79.2626H92.7291V54.8203Z" fill="#212121"/>
<path d="M92.4204 16.3555H5.97949V19.7326H92.4204V16.3555Z" fill="#92E3A9" stroke="#212121" stroke-miterlimit="10"/>
</g>
<path d="M92.3056 17.1943H6.32129V79.3037H92.3056V17.1943Z" stroke="#212121" stroke-linecap="round" stroke-linejoin="round"/>
<g opacity="0.17">
<path d="M51.1229 22.99H45.1058C44.965 22.99 44.8301 22.9341 44.7306 22.8346C44.6311 22.7351 44.5752 22.6001 44.5752 22.4593C44.5752 22.3897 44.5889 22.3207 44.6156 22.2563C44.6422 22.1919 44.6813 22.1334 44.7306 22.0841C44.7799 22.0349 44.8384 21.9958 44.9027 21.9691C44.9671 21.9424 45.0361 21.9287 45.1058 21.9287H51.1229C51.1926 21.9287 51.2616 21.9424 51.326 21.9691C51.3903 21.9958 51.4488 22.0349 51.4981 22.0841C51.5474 22.1334 51.5865 22.1919 51.6131 22.2563C51.6398 22.3207 51.6535 22.3897 51.6535 22.4593C51.6535 22.6001 51.5976 22.7351 51.4981 22.8346C51.3986 22.9341 51.2637 22.99 51.1229 22.99Z" fill="#212121"/>
<path d="M63.153 22.99H57.1399C56.9992 22.99 56.8643 22.9341 56.7648 22.8346C56.6653 22.7351 56.6094 22.6001 56.6094 22.4593C56.6094 22.3897 56.6231 22.3207 56.6498 22.2563C56.6764 22.1919 56.7155 22.1334 56.7648 22.0841C56.814 22.0349 56.8725 21.9958 56.9369 21.9691C57.0013 21.9424 57.0703 21.9287 57.1399 21.9287H63.153C63.2227 21.9287 63.2917 21.9424 63.356 21.9691C63.4204 21.9958 63.4789 22.0349 63.5282 22.0841C63.5774 22.1334 63.6165 22.1919 63.6432 22.2563C63.6698 22.3207 63.6836 22.3897 63.6836 22.4593C63.6836 22.6001 63.6277 22.7351 63.5282 22.8346C63.4287 22.9341 63.2937 22.99 63.153 22.99Z" fill="#212121"/>
<path d="M75.1833 22.99H69.1702C69.0295 22.99 68.8945 22.9341 68.795 22.8346C68.6955 22.7351 68.6396 22.6001 68.6396 22.4593C68.6396 22.3897 68.6534 22.3207 68.68 22.2563C68.7067 22.1919 68.7458 22.1334 68.795 22.0841C68.8443 22.0349 68.9028 21.9958 68.9672 21.9691C69.0315 21.9424 69.1005 21.9287 69.1702 21.9287H75.1833C75.253 21.9287 75.3219 21.9424 75.3863 21.9691C75.4507 21.9958 75.5092 22.0349 75.5584 22.0841C75.6077 22.1334 75.6468 22.1919 75.6735 22.2563C75.7001 22.3207 75.7138 22.3897 75.7138 22.4593C75.7138 22.6001 75.6579 22.7351 75.5584 22.8346C75.4589 22.9341 75.324 22.99 75.1833 22.99Z" fill="#212121"/>
<path d="M87.2177 22.99H81.2005C81.0598 22.99 80.9248 22.9341 80.8253 22.8346C80.7258 22.7351 80.6699 22.6001 80.6699 22.4593C80.6699 22.3897 80.6836 22.3207 80.7103 22.2563C80.737 22.1919 80.776 22.1334 80.8253 22.0841C80.8746 22.0349 80.9331 21.9958 80.9974 21.9691C81.0618 21.9424 81.1308 21.9287 81.2005 21.9287H87.2177C87.2873 21.9287 87.3563 21.9424 87.4207 21.9691C87.4851 21.9958 87.5436 22.0349 87.5928 22.0841C87.6421 22.1334 87.6812 22.1919 87.7078 22.2563C87.7345 22.3207 87.7482 22.3897 87.7482 22.4593C87.7482 22.6001 87.6923 22.7351 87.5928 22.8346C87.4933 22.9341 87.3584 22.99 87.2177 22.99Z" fill="#212121"/>
</g>
<path d="M11.0146 52.8867H88.4688" stroke="#212121" stroke-width="0.5" stroke-miterlimit="10"/>
<path d="M11.0146 52.8867V52.2861" stroke="#212121" stroke-width="0.5" stroke-miterlimit="10"/>
<path d="M20.6963 52.8867V52.2861" stroke="#212121" stroke-width="0.5" stroke-miterlimit="10"/>
<path d="M30.3779 52.8867V52.2861" stroke="#212121" stroke-width="0.5" stroke-miterlimit="10"/>
<path d="M40.0596 52.8867V52.2861" stroke="#212121" stroke-width="0.5" stroke-miterlimit="10"/>
<path d="M49.7412 52.8867V52.2861" stroke="#212121" stroke-width="0.5" stroke-miterlimit="10"/>
<path d="M59.4229 52.8867V52.2861" stroke="#212121" stroke-width="0.5" stroke-miterlimit="10"/>
<path d="M69.1045 52.8867V52.2861" stroke="#212121" stroke-width="0.5" stroke-miterlimit="10"/>
<path d="M78.7871 52.8867V52.2861" stroke="#212121" stroke-width="0.5" stroke-miterlimit="10"/>
<path d="M88.4688 52.8867V52.2861" stroke="#212121" stroke-width="0.5" stroke-miterlimit="10"/>
<path d="M25.5372 46.6426L15.8555 49.6372" stroke="#212121" stroke-width="2" stroke-miterlimit="10" stroke-linecap="round"/>
<path d="M35.2189 40.0566L25.5371 46.6423" stroke="#212121" stroke-width="2" stroke-miterlimit="10" stroke-linecap="round"/>
<path d="M44.9005 31.0732L35.2188 40.0571" stroke="#212121" stroke-width="2" stroke-miterlimit="10" stroke-linecap="round"/>
<path d="M54.5822 30.1758L44.9004 31.0725" stroke="#212121" stroke-width="2" stroke-miterlimit="10" stroke-linecap="round"/>
<path d="M64.2638 36.7615L54.582 30.1758" stroke="#212121" stroke-width="2" stroke-miterlimit="10" stroke-linecap="round"/>
<path d="M73.9464 43.0512L64.2646 36.7617" stroke="#212121" stroke-width="2" stroke-miterlimit="10" stroke-linecap="round"/>
<path d="M83.6281 29.876L73.9463 43.0514" stroke="#212121" stroke-width="2" stroke-miterlimit="10" stroke-linecap="round"/>
<path d="M15.855 48.4033C16.1822 48.4033 16.496 48.5333 16.7274 48.7648C16.9588 48.9962 17.0888 49.3101 17.0888 49.6374C17.0888 49.9647 16.9588 50.2785 16.7274 50.51C16.496 50.7414 16.1822 50.8714 15.855 50.8714C15.5277 50.8714 15.2139 50.7414 14.9825 50.51C14.7511 50.2785 14.6211 49.9647 14.6211 49.6374C14.6211 49.3101 14.7511 48.9962 14.9825 48.7648C15.2139 48.5333 15.5277 48.4033 15.855 48.4033Z" fill="#92E3A9" stroke="#212121" stroke-miterlimit="10"/>
<path d="M25.5366 45.4082C25.8638 45.4082 26.1777 45.5382 26.4091 45.7696C26.6405 46.0011 26.7705 46.315 26.7705 46.6422C26.7705 46.9695 26.6405 47.2834 26.4091 47.5148C26.1777 47.7463 25.8638 47.8763 25.5366 47.8763C25.2094 47.8763 24.8955 47.7463 24.6641 47.5148C24.4327 47.2834 24.3027 46.9695 24.3027 46.6422C24.3027 46.315 24.4327 46.0011 24.6641 45.7696C24.8955 45.5382 25.2094 45.4082 25.5366 45.4082Z" fill="#92E3A9" stroke="#212121" stroke-miterlimit="10"/>
<path d="M35.2192 38.8223C35.5465 38.8223 35.8603 38.9523 36.0917 39.1837C36.3231 39.4151 36.4531 39.729 36.4531 40.0563C36.4531 40.3836 36.3231 40.6975 36.0917 40.9289C35.8603 41.1603 35.5465 41.2904 35.2192 41.2904C34.892 41.2904 34.5781 41.1603 34.3467 40.9289C34.1153 40.6975 33.9854 40.3836 33.9854 40.0563C33.9854 39.729 34.1153 39.4151 34.3467 39.1837C34.5781 38.9523 34.892 38.8223 35.2192 38.8223Z" fill="#92E3A9" stroke="#212121" stroke-miterlimit="10"/>
<path d="M44.9009 29.8389C45.2281 29.8389 45.5419 29.9689 45.7733 30.2003C46.0047 30.4317 46.1347 30.7456 46.1347 31.0729C46.1347 31.4002 46.0047 31.7141 45.7733 31.9455C45.5419 32.1769 45.2281 32.307 44.9009 32.307C44.5736 32.307 44.2598 32.1769 44.0284 31.9455C43.797 31.7141 43.667 31.4002 43.667 31.0729C43.667 30.7456 43.797 30.4317 44.0284 30.2003C44.2598 29.9689 44.5736 29.8389 44.9009 29.8389Z" fill="#92E3A9" stroke="#212121" stroke-miterlimit="10"/>
<path d="M54.5825 28.9424C54.9097 28.9424 55.2236 29.0724 55.455 29.3038C55.6864 29.5353 55.8164 29.8491 55.8164 30.1764C55.8164 30.5037 55.6864 30.8176 55.455 31.049C55.2236 31.2805 54.9097 31.4105 54.5825 31.4105C54.2553 31.4105 53.9414 31.2805 53.71 31.049C53.4786 30.8176 53.3486 30.5037 53.3486 30.1764C53.3486 29.8491 53.4786 29.5353 53.71 29.3038C53.9414 29.0724 54.2553 28.9424 54.5825 28.9424Z" fill="#92E3A9" stroke="#212121" stroke-miterlimit="10"/>
<path d="M64.2641 35.5273C64.5914 35.5273 64.9052 35.6574 65.1366 35.8888C65.368 36.1202 65.498 36.4341 65.498 36.7614C65.498 37.0887 65.368 37.4026 65.1366 37.634C64.9052 37.8654 64.5914 37.9954 64.2641 37.9954C63.9369 37.9954 63.6231 37.8654 63.3917 37.634C63.1603 37.4026 63.0303 37.0887 63.0303 36.7614C63.0303 36.4341 63.1603 36.1202 63.3917 35.8888C63.6231 35.6574 63.9369 35.5273 64.2641 35.5273Z" fill="#92E3A9" stroke="#212121" stroke-miterlimit="10"/>
<path d="M75.1797 43.0514C75.1797 42.3699 74.6272 41.8174 73.9458 41.8174C73.2643 41.8174 72.7119 42.3699 72.7119 43.0514C72.7119 43.733 73.2643 44.2855 73.9458 44.2855C74.6272 44.2855 75.1797 43.733 75.1797 43.0514Z" fill="#92E3A9" stroke="#212121" stroke-miterlimit="10"/>
<path d="M83.6274 28.6426C83.9547 28.6426 84.2685 28.7726 84.4999 29.004C84.7313 29.2355 84.8613 29.5493 84.8613 29.8766C84.8613 30.2039 84.7313 30.5178 84.4999 30.7492C84.2685 30.9806 83.9547 31.1107 83.6274 31.1107C83.3002 31.1107 82.9863 30.9806 82.755 30.7492C82.5236 30.5178 82.3936 30.2039 82.3936 29.8766C82.3936 29.5493 82.5236 29.2355 82.755 29.004C82.9863 28.7726 83.3002 28.6426 83.6274 28.6426Z" fill="#92E3A9" stroke="#212121" stroke-miterlimit="10"/>
<path d="M46.9366 68.4236L38.2502 69.958C37.8437 67.6495 38.3706 65.2742 39.7149 63.3542C41.0593 61.4342 43.111 60.1268 45.419 59.7195C45.9257 59.6327 46.4389 59.5886 46.9531 59.5879L46.9366 68.4236Z" fill="#212121" stroke="#212121" stroke-linecap="round" stroke-linejoin="round"/>
<path d="M46.9363 68.4238L41.499 75.3879C39.7438 74.0735 38.5719 72.1249 38.2334 69.9582L46.9363 68.4238Z" fill="#92E3A9" stroke="#212121" stroke-miterlimit="10"/>
<path d="M46.9369 68.4237L54.591 64.0059C55.1743 65.0118 55.5534 66.123 55.7066 67.2758C55.8598 68.4285 55.7841 69.6001 55.4838 70.7236C55.1835 71.847 54.6645 72.9001 53.9566 73.8226C53.2486 74.7451 52.3657 75.5188 51.3583 76.0995C49.8383 77.0033 48.0787 77.4215 46.3147 77.298C44.5507 77.1745 42.8665 76.5152 41.4873 75.4084L46.9369 68.4237Z" fill="white" stroke="#212121" stroke-linecap="round" stroke-linejoin="round"/>
<path d="M46.9365 68.4229V59.5872C48.4929 59.5607 50.0272 59.9577 51.3754 60.7359C52.7236 61.514 53.8349 62.644 54.5906 64.0051L46.9365 68.4229Z" fill="#92E3A9" stroke="#212121" stroke-miterlimit="10"/>
<path d="M49.9834 71.4721C51.6667 69.7886 51.6667 67.0591 49.9834 65.3755C48.3001 63.692 45.571 63.692 43.8877 65.3755C42.2044 67.0591 42.2044 69.7886 43.8877 71.4721C45.571 73.1556 48.3001 73.1556 49.9834 71.4721Z" fill="white" stroke="#212121" stroke-linecap="round" stroke-linejoin="round"/>
<path d="M20.7986 68.4395L22.3327 77.1436C21.1898 77.3454 20.0183 77.32 18.8852 77.0689C17.7521 76.8178 16.6796 76.3458 15.7289 75.68C14.7782 75.0142 13.968 74.1675 13.3446 73.1884C12.7212 72.2093 12.2968 71.117 12.0957 69.9738C12.0073 69.4671 11.9619 68.9538 11.96 68.4395H20.7986Z" fill="#212121" stroke="#212121" stroke-linecap="round" stroke-linejoin="round"/>
<path d="M20.7988 68.4404L27.762 73.8826C26.4461 75.6355 24.4983 76.8058 22.3329 77.1445L20.7988 68.4404Z" fill="#92E3A9" stroke="#212121" stroke-miterlimit="10"/>
<path d="M20.7983 68.4399L16.377 60.7847C18.4077 59.6132 20.8204 59.2961 23.0848 59.9032C25.3492 60.5102 27.2799 61.9917 28.4524 64.022C29.3539 65.5429 29.7707 67.3023 29.6472 69.066C29.5238 70.8297 28.866 72.5139 27.7615 73.8943L20.7983 68.4399Z" fill="white" stroke="#212121" stroke-linecap="round" stroke-linejoin="round"/>
<path d="M20.7989 68.4403H11.9602C11.9337 66.8838 12.3307 65.3492 13.1087 64.0009C13.8868 62.6525 15.0166 61.541 16.3775 60.7852L20.7989 68.4403Z" fill="#92E3A9" stroke="#212121" stroke-miterlimit="10"/>
<path d="M20.7986 72.7508C23.1791 72.7508 25.1089 70.8207 25.1089 68.4398C25.1089 66.059 23.1791 64.1289 20.7986 64.1289C18.4181 64.1289 16.4883 66.059 16.4883 68.4398C16.4883 70.8207 18.4181 72.7508 20.7986 72.7508Z" fill="white" stroke="#212121" stroke-linecap="round" stroke-linejoin="round"/>
<path d="M73.0496 68.4404L74.5837 77.1445C73.4408 77.3464 72.2693 77.321 71.1362 77.0699C70.0031 76.8188 68.9305 76.3468 67.9799 75.681C67.0292 75.0151 66.219 74.1685 65.5956 73.1894C64.9722 72.2103 64.5478 71.1179 64.3467 69.9748C64.2583 69.468 64.2129 68.9548 64.2109 68.4404H73.0496Z" fill="#212121" stroke="#212121" stroke-linecap="round" stroke-linejoin="round"/>
<path d="M73.0488 68.4395L80.012 73.8816C78.6961 75.6345 76.7483 76.8048 74.5829 77.1436L73.0488 68.4395Z" fill="#92E3A9" stroke="#212121" stroke-miterlimit="10"/>
<path d="M73.0493 68.4399L68.6279 60.7847C70.6586 59.6132 73.0714 59.2961 75.3358 59.9032C77.6001 60.5102 79.5308 61.9917 80.7034 64.022C81.6049 65.5429 82.0216 67.3023 81.8982 69.066C81.7747 70.8297 81.117 72.5139 80.0124 73.8943L73.0493 68.4399Z" fill="white" stroke="#212121" stroke-linecap="round" stroke-linejoin="round"/>
<path d="M73.0498 68.4403H64.2112C64.1847 66.8838 64.5817 65.3492 65.3597 64.0009C66.1378 62.6525 67.2676 61.541 68.6285 60.7852L73.0498 68.4403Z" fill="#92E3A9" stroke="#212121" stroke-miterlimit="10"/>
<path d="M73.0496 72.7508C75.4301 72.7508 77.3599 70.8207 77.3599 68.4398C77.3599 66.059 75.4301 64.1289 73.0496 64.1289C70.6691 64.1289 68.7393 66.059 68.7393 68.4398C68.7393 70.8207 70.6691 72.7508 73.0496 72.7508Z" fill="white" stroke="#212121" stroke-linecap="round" stroke-linejoin="round"/>
<path d="M11.2285 26.6797H21.0131" stroke="#212121" stroke-miterlimit="10"/>
<path d="M11.2285 28.3418H21.0131" stroke="#212121" stroke-miterlimit="10"/>
<path d="M11.2285 30.0078H21.0131" stroke="#212121" stroke-miterlimit="10"/>
<path d="M11.2285 31.6738H21.0131" stroke="#212121" stroke-miterlimit="10"/>
<path d="M87.3496 30.4805H96.9121L108.165 40.324" stroke="#212121" stroke-linecap="round" stroke-linejoin="round"/>
<path d="M109.958 37.5107H119.743" stroke="#212121" stroke-miterlimit="10"/>
<path d="M109.958 39.1768H119.743" stroke="#212121" stroke-miterlimit="10"/>
<path d="M109.958 40.8418H119.743" stroke="#212121" stroke-miterlimit="10"/>
<path d="M109.958 42.5039H119.743" stroke="#212121" stroke-miterlimit="10"/>
<path d="M109.958 65.918H119.743" stroke="#212121" stroke-miterlimit="10"/>
<path d="M109.958 67.584H119.743" stroke="#212121" stroke-miterlimit="10"/>
<path d="M109.958 69.25H119.743" stroke="#212121" stroke-miterlimit="10"/>
<path d="M109.958 70.916H119.743" stroke="#212121" stroke-miterlimit="10"/>
<path d="M16.0234 98.8301H25.808" stroke="#212121" stroke-miterlimit="10"/>
<path d="M16.0234 100.496H25.808" stroke="#212121" stroke-miterlimit="10"/>
<path d="M16.0234 102.162H25.808" stroke="#212121" stroke-miterlimit="10"/>
<path d="M16.0234 103.824H25.808" stroke="#212121" stroke-miterlimit="10"/>
<path d="M77.5078 63.3888L81.4439 58.8887H97.1963L108.445 68.1728" stroke="#212121" stroke-miterlimit="10"/>
<path d="M20.6963 76.8926V97.9865" stroke="#212121" stroke-miterlimit="10"/>
<path d="M1.64494 112.564C2.43873 112.914 4.38413 112.869 4.38413 112.869C4.38413 112.869 3.97284 111.598 3.93171 111.52C3.52042 110.627 2.15494 109.154 1.05268 109.302C0.870821 109.332 0.69726 109.4 0.543297 109.501C0.389333 109.602 0.258423 109.735 0.159093 109.89C0.0597617 110.045 -0.00576407 110.22 -0.0332134 110.402C-0.0606627 110.584 -0.0494204 110.77 -0.000221543 110.948C0.184859 111.705 0.966311 112.268 1.64494 112.564Z" fill="#212121"/>
<path d="M27.0869 105.955C25.9847 105.835 24.6809 107.341 24.2778 108.246C24.2408 108.324 23.8378 109.607 23.8665 109.607H23.8912C23.6815 109.842 23.4799 110.097 23.229 110.381C22.8178 110.911 22.316 111.512 21.8348 112.203C21.3095 112.941 20.8275 113.709 20.3911 114.502C19.8967 115.389 19.4837 116.318 19.1573 117.279V117.312C19.1573 116.987 19.1573 116.078 19.1573 116.012C19.0298 115.033 18.2072 113.211 17.1008 113.009C16.9189 112.981 16.7332 112.992 16.5557 113.04C16.3781 113.089 16.2127 113.174 16.0701 113.29C15.9274 113.406 15.8108 113.551 15.7276 113.715C15.6445 113.88 15.5967 114.059 15.5873 114.243C15.5256 115.021 16.089 115.802 16.6402 116.3C17.2612 116.855 18.9845 117.394 19.1079 117.435C18.8002 118.421 18.5571 119.425 18.3799 120.442C18.2771 121.035 18.1866 121.635 18.1085 122.236C18.1085 121.956 18.1085 121.705 18.1085 121.668C17.981 120.689 17.1625 118.871 16.0726 118.669C15.8908 118.641 15.7051 118.651 15.5275 118.699C15.3499 118.747 15.1845 118.832 15.042 118.949C14.8995 119.065 14.7833 119.21 14.7007 119.375C14.6182 119.539 14.5713 119.72 14.5632 119.903C14.4974 120.685 15.0608 121.462 15.6119 121.96C16.1631 122.458 17.6314 122.947 18.018 123.071L17.9316 123.762C17.8 124.872 17.6725 125.983 17.5203 127.053C17.4669 127.435 17.3969 127.809 17.3311 128.184C17.3311 127.937 17.3311 127.727 17.3311 127.694C17.2078 126.715 16.3852 124.897 15.2747 124.696C15.0929 124.667 14.9072 124.677 14.7296 124.725C14.552 124.773 14.3866 124.859 14.2441 124.975C14.1016 125.092 13.9853 125.237 13.9028 125.401C13.8203 125.566 13.7734 125.746 13.7653 125.93C13.6994 126.707 14.267 127.489 14.8182 127.986C15.3693 128.484 16.6936 128.924 17.1543 129.076C17.072 129.459 16.9939 129.837 16.8952 130.203C16.8253 130.454 16.7759 130.697 16.6895 130.944L16.4551 131.672C16.2906 132.129 16.1219 132.602 15.9492 133.042C15.8299 133.35 15.7107 133.642 15.5914 133.934C15.6531 133.556 15.7518 132.811 15.7559 132.746C15.7417 131.878 15.5067 131.029 15.0732 130.278C15.0815 130.182 15.0815 130.085 15.0732 129.99C15.0499 129.807 14.9884 129.631 14.8929 129.474C14.7973 129.317 14.6698 129.182 14.5185 129.077C14.3673 128.972 14.1957 128.9 14.0149 128.866C13.8341 128.832 13.6481 128.837 13.4691 128.879C12.3998 129.163 11.7211 131.039 11.6718 132.026C11.6718 132.083 11.7088 132.721 11.7376 133.12C11.6841 132.885 11.6348 132.659 11.5772 132.421C11.462 131.948 11.3386 131.479 11.2029 130.977C11.133 130.734 11.059 130.491 10.9849 130.245C10.9109 129.998 10.8122 129.747 10.7258 129.496C10.5119 128.916 10.2693 128.34 10.0143 127.768C10.4256 127.665 11.8939 127.295 12.482 126.843C13.0702 126.39 13.6871 125.658 13.683 124.877C13.6876 124.693 13.6536 124.51 13.5831 124.34C13.5126 124.171 13.4073 124.018 13.2739 123.891C13.1405 123.765 12.982 123.668 12.8088 123.607C12.6355 123.545 12.4514 123.521 12.2682 123.536C11.1659 123.655 10.2117 125.407 10.0143 126.378C10.0143 126.436 9.93614 127.147 9.90735 127.538C9.75106 127.192 9.59477 126.851 9.42203 126.505C8.93259 125.514 8.40203 124.527 7.87969 123.54C7.71929 123.239 7.563 122.935 7.4067 122.635C7.55477 122.598 9.30687 122.195 9.96493 121.689C10.549 121.24 11.17 120.504 11.1659 119.722C11.1705 119.539 11.1365 119.356 11.066 119.186C10.9955 119.017 10.8902 118.863 10.7568 118.737C10.6234 118.611 10.4649 118.514 10.2917 118.452C10.1184 118.391 9.93425 118.367 9.75106 118.381C8.6488 118.501 7.69461 120.253 7.49719 121.22C7.49719 121.294 7.39025 122.318 7.37791 122.577C7.03243 121.911 6.69106 121.244 6.3867 120.57C5.96502 119.665 5.60366 118.733 5.30501 117.781C5.37493 117.781 7.20106 117.369 7.87558 116.831C8.46372 116.382 9.08477 115.646 9.07654 114.864C9.08174 114.681 9.04824 114.498 8.97823 114.329C8.90822 114.159 8.80327 114.006 8.6702 113.879C8.53713 113.753 8.37893 113.656 8.20588 113.594C8.03284 113.533 7.84882 113.509 7.66582 113.523C6.56356 113.643 5.60937 115.399 5.40783 116.366C5.40783 116.44 5.29679 117.542 5.29267 117.744C5.29267 117.686 5.25154 117.633 5.23509 117.575C4.96021 116.612 4.773 115.626 4.67574 114.63C4.61404 114.079 4.58525 113.552 4.5688 113.038C4.9184 112.993 6.50598 112.783 7.16816 112.384C7.83033 111.985 8.49662 111.339 8.57477 110.562C8.59964 110.38 8.58596 110.194 8.53463 110.018C8.48331 109.841 8.39547 109.677 8.27681 109.537C8.15816 109.397 8.01133 109.283 7.84585 109.203C7.68037 109.123 7.49993 109.078 7.31622 109.073C6.20985 109.073 5.07057 110.718 4.76622 111.648C4.76622 111.701 4.63872 112.24 4.56057 112.631C4.56057 112.4 4.56057 112.158 4.56057 111.936C4.56057 111.113 4.61404 110.331 4.66751 109.653C4.70041 109.27 4.73743 108.92 4.77445 108.595C5.09525 108.377 6.37436 107.472 6.7692 106.827C7.16404 106.181 7.4684 105.288 7.18049 104.56C7.11904 104.387 7.02179 104.229 6.89507 104.095C6.76835 103.962 6.61501 103.858 6.44505 103.788C6.27508 103.718 6.09231 103.685 5.90863 103.69C5.72496 103.696 5.54451 103.74 5.37904 103.82C4.39606 104.326 4.14517 106.288 4.29735 107.279C4.29735 107.365 4.68396 108.657 4.70864 108.645H4.7292C4.68396 108.957 4.64283 109.295 4.60171 109.661C4.5359 110.34 4.46598 111.105 4.44541 111.948C4.41528 112.852 4.43726 113.757 4.51122 114.659C4.59047 115.67 4.75837 116.672 5.013 117.653V117.69C4.84025 117.415 4.32614 116.666 4.2809 116.613C3.63517 115.868 1.94477 114.803 0.924769 115.235C0.757981 115.312 0.609238 115.423 0.488124 115.562C0.36701 115.7 0.27621 115.862 0.221576 116.038C0.166941 116.213 0.149685 116.398 0.170917 116.581C0.192149 116.763 0.251397 116.94 0.344848 117.098C0.723235 117.781 1.62396 118.118 2.35195 118.225C3.17453 118.344 4.91017 117.843 5.05001 117.814C5.33485 118.807 5.68522 119.78 6.0988 120.726C6.33735 121.277 6.59646 121.824 6.85969 122.371C6.7034 122.141 6.55945 121.935 6.53477 121.907C5.88904 121.162 4.20275 120.097 3.18275 120.529C3.01565 120.605 2.86651 120.716 2.74506 120.854C2.6236 120.991 2.53255 121.153 2.47784 121.329C2.42313 121.504 2.40598 121.689 2.42752 121.872C2.44906 122.054 2.50879 122.23 2.60283 122.388C2.97711 123.075 3.87783 123.412 4.60993 123.519C5.34203 123.626 6.83912 123.227 7.22985 123.108L7.53832 123.737C8.04009 124.737 8.54598 125.732 9.01074 126.723C9.17525 127.073 9.32743 127.423 9.47549 127.772C9.33566 127.567 9.21638 127.394 9.19582 127.361C8.54598 126.612 6.85969 125.551 5.83969 125.983C5.67259 126.059 5.52345 126.17 5.40199 126.308C5.28054 126.446 5.18949 126.608 5.13478 126.783C5.08007 126.959 5.06292 127.144 5.08446 127.326C5.10599 127.509 5.16573 127.685 5.25977 127.842C5.63816 128.529 6.53888 128.867 7.26686 128.974C7.99485 129.081 9.35211 128.719 9.81687 128.591C9.96082 128.953 10.1048 129.315 10.2282 129.673C10.3063 129.92 10.4009 130.154 10.4667 130.405C10.5325 130.656 10.6024 130.899 10.6682 131.141C10.7834 131.614 10.9027 132.1 11.0014 132.565C11.0754 132.89 11.1371 133.198 11.1988 133.507C11.0384 133.157 10.7135 132.478 10.6806 132.425C10.1541 131.602 8.62412 130.282 7.57533 130.553C7.39824 130.603 7.23371 130.69 7.09249 130.808C6.95126 130.926 6.83653 131.073 6.75578 131.238C6.67504 131.403 6.63011 131.584 6.62391 131.768C6.61772 131.952 6.65041 132.135 6.71985 132.305C6.98719 133.038 7.82622 133.511 8.52953 133.725C9.30686 133.963 11.0302 133.745 11.244 133.725C11.3469 134.235 11.4415 134.737 11.5237 135.214C11.8157 136.859 11.9926 138.237 12.1036 139.2C12.1242 139.372 12.1407 139.525 12.1571 139.673H8.82565L10.0595 163.403H15.7353L16.9692 139.673H13.8681L13.938 139.529C14.3493 138.64 14.9539 137.365 15.5832 135.806C15.7847 135.312 15.9944 134.782 16.2001 134.239C16.4057 134.28 18.1085 134.625 18.9023 134.449C19.622 134.284 20.494 133.877 20.8189 133.165C20.9006 133 20.9466 132.82 20.9539 132.636C20.9612 132.453 20.9297 132.269 20.8614 132.098C20.7931 131.928 20.6895 131.773 20.5575 131.645C20.4254 131.517 20.2678 131.418 20.095 131.355C19.0462 131.002 17.4463 132.178 16.8582 133.001C16.8253 133.05 16.5044 133.601 16.3111 133.951L16.562 133.28C16.7265 132.824 16.8828 132.363 17.0473 131.869C17.1214 131.627 17.1954 131.384 17.2653 131.137C17.3353 130.89 17.3969 130.627 17.4628 130.368C17.6067 129.772 17.7219 129.155 17.8247 128.533C18.236 128.682 19.6508 129.175 20.3911 129.126C21.1315 129.076 22.0363 128.801 22.4764 128.147C22.5824 127.997 22.6554 127.826 22.6907 127.645C22.726 127.465 22.7228 127.279 22.6813 127.1C22.6397 126.921 22.5608 126.753 22.4496 126.606C22.3384 126.46 22.1976 126.339 22.0363 126.25C21.0533 125.74 19.293 126.662 18.5897 127.373C18.5486 127.419 18.1003 127.974 17.8617 128.287C17.9193 127.912 17.981 127.538 18.0262 127.16C18.1661 126.061 18.2689 124.946 18.3758 123.832C18.4087 123.494 18.4457 123.153 18.4828 122.816C18.6226 122.869 20.3089 123.494 21.1356 123.437C21.8718 123.383 22.7807 123.116 23.2208 122.462C23.3269 122.311 23.4 122.14 23.4353 121.959C23.4707 121.779 23.4675 121.593 23.4259 121.413C23.3844 121.234 23.3054 121.065 23.1942 120.918C23.0831 120.772 22.9422 120.65 22.7807 120.562C21.7978 120.056 20.0374 120.973 19.3341 121.684C19.2807 121.738 18.6432 122.54 18.4869 122.754C18.5691 122.005 18.6514 121.261 18.7665 120.529C18.9161 119.542 19.1291 118.567 19.404 117.608C19.4698 117.633 21.2261 118.295 22.0733 118.237C22.8095 118.184 23.7185 117.912 24.1627 117.258C24.2681 117.108 24.3407 116.936 24.3756 116.756C24.4106 116.575 24.4073 116.389 24.3658 116.21C24.3243 116.031 24.2456 115.862 24.1348 115.716C24.024 115.569 23.8835 115.447 23.7226 115.358C22.7355 114.852 20.9752 115.769 20.2719 116.485C20.2184 116.539 19.5274 117.402 19.4164 117.567C19.4164 117.513 19.4411 117.452 19.4616 117.398C19.7612 116.443 20.148 115.518 20.6173 114.634C20.8682 114.14 21.1356 113.684 21.407 113.244C21.7237 113.4 23.1673 114.103 23.9365 114.132C24.7056 114.161 25.6228 113.996 26.1163 113.392C26.2376 113.253 26.3284 113.091 26.3829 112.915C26.4374 112.74 26.4544 112.554 26.4326 112.372C26.4109 112.189 26.351 112.013 26.2569 111.855C26.1627 111.697 26.0363 111.56 25.886 111.454C24.9647 110.841 23.1098 111.578 22.3365 112.195C22.2954 112.228 21.9253 112.606 21.625 112.902C21.7525 112.709 21.8759 112.491 21.9993 112.318C22.464 111.619 22.9288 111.01 23.3483 110.471C23.5869 110.171 23.8131 109.899 24.0228 109.648C24.4341 109.648 25.9765 109.595 26.6633 109.274C27.3502 108.953 28.0946 108.373 28.255 107.629C28.3111 107.441 28.324 107.242 28.2928 107.049C28.2616 106.855 28.1871 106.671 28.0748 106.51C27.9626 106.349 27.8154 106.215 27.6444 106.119C27.4733 106.023 27.2828 105.967 27.0869 105.955ZM14.9045 135.518C14.2382 137.048 13.6254 138.299 13.1894 139.167L12.9468 139.64H12.8728C12.8728 139.467 12.8275 139.282 12.7987 139.076C12.663 138.101 12.4532 136.711 12.1242 135.057C12.0214 134.535 11.9021 133.98 11.7746 133.412C12.292 133.206 12.7961 132.969 13.284 132.7C13.8516 133.317 15.3035 134.033 15.4927 134.124C15.2953 134.605 15.0978 135.078 14.9045 135.518Z" fill="#212121"/>
<path d="M21.288 112.993C21.288 112.993 21.6418 111.702 21.6541 111.619C21.7898 110.64 21.4772 108.666 20.4819 108.185C20.3143 108.109 20.1326 108.07 19.9488 108.069C19.765 108.069 19.5832 108.107 19.4151 108.182C19.2471 108.256 19.0966 108.365 18.9736 108.502C18.8506 108.638 18.7577 108.799 18.701 108.974C18.4337 109.711 18.771 110.62 19.174 111.228C19.6429 111.957 21.288 112.993 21.288 112.993Z" fill="#212121"/>
<path d="M92.0585 173.988C103.511 173.988 112.796 171.26 112.796 167.896C112.796 164.531 103.511 161.804 92.0585 161.804C80.6057 161.804 71.3213 164.531 71.3213 167.896C71.3213 171.26 80.6057 173.988 92.0585 173.988Z" fill="#92E3A9"/>
<path opacity="0.5" d="M92.0585 173.988C103.511 173.988 112.796 171.26 112.796 167.896C112.796 164.531 103.511 161.804 92.0585 161.804C80.6057 161.804 71.3213 164.531 71.3213 167.896C71.3213 171.26 80.6057 173.988 92.0585 173.988Z" fill="white"/>
<path d="M90.5369 70.8013C89.5844 69.5434 88.1717 68.715 86.609 68.4978C84.0837 68.2181 81.9532 69.9581 80.9415 71.081C79.9297 72.204 80.6042 74.3718 80.4932 74.8407C80.3821 75.3097 79.0331 76.7453 79.0907 77.1978C79.1482 77.6502 79.8187 77.6996 79.8187 77.6996C79.8187 77.6996 80.3821 80.3405 80.7194 80.9575C81.0566 81.5745 81.9532 81.6856 82.2905 81.6856C82.5342 81.7067 82.7661 81.7997 82.9568 81.9529L83.4791 83.7752L91.1538 82.0229L90.9276 79.4972C90.9276 79.4972 92.836 76.9715 92.6674 74.5034C92.6061 73.7677 92.3835 73.0545 92.0152 72.4146C91.647 71.7747 91.1422 71.2239 90.5369 70.8013Z" fill="white" stroke="#212121" stroke-linecap="round" stroke-linejoin="round"/>
<path d="M88.9663 71.8673C87.3211 72.147 85.0385 69.7899 83.6195 70.8019C83.6195 70.8019 81.7111 72.3732 81.8263 73.1013C81.9415 73.8294 82.834 74.3929 82.7764 75.0634C82.7188 75.7339 83.0026 77.1407 83.3398 76.5237C83.6771 75.9067 83.5085 75.2321 84.0144 75.0634C84.5202 74.8948 85.2482 75.7956 85.3593 76.6348C85.4703 77.4739 85.3017 77.8688 85.75 78.4858C86.0665 78.9012 86.4738 79.2387 86.9407 79.4725C87.4076 79.7064 87.9218 79.8304 88.444 79.8351C89.2735 79.781 90.0981 79.6683 90.9117 79.4977C90.9117 79.4977 92.8201 76.9721 92.6515 74.504C92.5902 73.7682 92.3676 73.055 91.9993 72.4151C91.6311 71.7752 91.1263 71.2244 90.521 70.8019C90.521 70.8019 90.595 71.5752 88.9663 71.8673Z" fill="white" stroke="#212121" stroke-linecap="round" stroke-linejoin="round"/>
<path d="M83.5781 78.0366C83.5781 78.0366 83.7468 79.3282 84.5323 79.1019C85.3179 78.8757 85.4865 77.7568 85.4865 77.7568" stroke="#212121" stroke-linecap="round" stroke-linejoin="round"/>
<path d="M81.1683 85.5021C81.4874 84.9749 81.861 84.4827 82.2829 84.0336C83.0109 83.2479 87.1403 81.7013 89.0486 81.5861C90.957 81.4709 92.524 83.0423 93.4207 83.7745C93.6697 83.9401 93.8609 84.1793 93.9678 84.4587C94.0747 84.7381 94.0919 85.0438 94.017 85.3335C91.8211 84.6558 89.5042 84.4635 87.2266 84.7699C85.074 85.0504 82.9388 85.4514 80.8311 85.971L81.1683 85.5021Z" fill="#92E3A9" stroke="#212121" stroke-linecap="round" stroke-linejoin="round"/>
<path d="M71.0215 118.505C71.0215 118.505 71.5274 121.968 71.696 122.812C71.8646 123.655 73.0656 126.382 73.7525 125.736C74.4393 125.09 74.6696 122.898 74.3324 121.8C73.9951 120.701 73.4892 118.678 73.407 118.423C73.3247 118.167 71.0215 118.505 71.0215 118.505Z" fill="white" stroke="#212121" stroke-linecap="round" stroke-linejoin="round"/>
<path d="M70.059 106.206C69.6545 107.556 69.4102 108.949 69.3311 110.357C69.4037 112.465 69.6277 114.566 70.0015 116.642C70.2318 118.139 71.2353 119.653 72.0209 119.616C74.4352 119.505 73.5386 115.017 73.9869 112.434C74.4352 109.851 74.8094 109.686 75.0521 106.823" fill="#92E3A9"/>
<path d="M70.059 106.206C69.6545 107.556 69.4102 108.949 69.3311 110.357C69.4037 112.465 69.6277 114.566 70.0015 116.642C70.2318 118.139 71.2353 119.653 72.0209 119.616C74.4352 119.505 73.5386 115.017 73.9869 112.434C74.4352 109.851 74.8094 109.686 75.0521 106.823" stroke="#212121" stroke-linecap="round" stroke-linejoin="round"/>
<path d="M81.6781 164.391C81.1922 164.388 80.7113 164.489 80.2674 164.687C79.56 165.012 79.3831 165.452 79.6216 165.892C79.8602 166.332 80.3825 167.394 81.238 167.92C82.0935 168.447 83.2657 168.714 83.9402 169.154C84.6147 169.594 85.8815 169.446 86.3257 168.652C86.7699 167.858 86.2352 166.094 86.2352 166.094C85.2437 165.848 84.2707 165.533 83.3233 165.152C82.295 164.687 81.6781 164.391 81.6781 164.391Z" fill="white" stroke="#212121" stroke-linecap="round" stroke-linejoin="round"/>
<path d="M86.3259 168.652C86.3603 168.582 86.3892 168.509 86.4122 168.434C86.1366 168.683 85.8086 168.865 85.4526 168.969C85.0965 169.073 84.7217 169.096 84.3558 169.035C83.7676 168.916 82.7106 168.183 82.032 167.916C81.2558 167.535 80.6102 166.933 80.1771 166.184C79.9714 165.804 79.8521 165.382 79.8275 164.95C79.6808 165.051 79.5779 165.204 79.5398 165.379C79.5016 165.553 79.5309 165.735 79.6218 165.888C79.8563 166.328 80.3827 167.389 81.2382 167.916C82.0937 168.443 83.2659 168.71 83.9404 169.15C84.6149 169.59 85.8817 169.45 86.3259 168.652Z" fill="white" stroke="#212121" stroke-linecap="round" stroke-linejoin="round"/>
<path d="M92.9766 165.144C92.9766 165.144 93.1822 166.526 93.1822 167.085C93.1822 167.645 94.1241 168.644 95.0947 168.644C96.0654 168.644 97.0319 168.262 97.4432 167.764C97.8545 167.266 97.7105 165.526 97.7105 165.526C97.7105 165.526 93.8855 166.114 92.9766 165.144Z" fill="white" stroke="#212121" stroke-linecap="round" stroke-linejoin="round"/>
<path d="M97.4424 167.764C97.5615 167.591 97.6363 167.392 97.6604 167.184C97.1915 167.706 96.2497 168.467 95.1926 168.261C94.3792 168.054 93.667 167.563 93.1855 166.875C93.1855 166.953 93.1855 167.023 93.1855 167.085C93.1855 167.644 94.1274 168.644 95.098 168.644C96.0687 168.644 97.0311 168.261 97.4424 167.764Z" fill="white" stroke="#212121" stroke-linecap="round" stroke-linejoin="round"/>
<path d="M76.7922 113.166C76.7922 113.166 77.0143 117.765 76.9032 119.748C76.7922 121.73 77.0718 131.755 77.3145 135.066C77.5572 138.377 78.2687 145.839 78.7705 148.867C79.2722 151.894 81.9292 163.795 81.9292 163.795C81.9292 163.795 81.3904 164.872 81.5179 165.321C81.6454 165.769 82.7271 166.937 84.3435 167.118C85.9598 167.299 86.2724 166.937 86.5891 166.217C86.9058 165.498 87.0374 163.614 87.1279 162.45C87.2184 161.285 88.189 158.912 87.8518 155.769C87.5145 152.627 88.1314 141.685 88.1314 141.685L88.6373 134.165C88.6373 134.165 88.9746 143.367 89.3118 144.77C89.6491 146.173 92.1909 161.318 92.4788 162.17C92.7667 163.021 92.524 164.547 92.7009 164.909C92.8777 165.271 93.0176 166.073 93.4659 166.435C93.9142 166.797 95.8431 166.974 96.5629 166.658C97.2827 166.341 97.8626 165.942 97.8626 165.625C97.8626 165.308 98.134 163.832 98.0435 163.021C97.9531 162.211 97.731 161.54 97.731 161.318C97.731 161.096 98.4014 149.147 98.4014 145.839C98.4014 142.532 97.9901 138.822 97.9901 138.822C97.9901 138.822 99.2815 129.06 99.5036 125.132C99.7004 122.362 99.6067 119.578 99.2239 116.827C99.0019 115.651 98.607 113.125 98.607 113.125C98.607 113.125 93.8936 114.585 90.192 114.696C86.4904 114.807 85.1989 115.087 83.1219 114.585C81.0449 114.083 78.2975 113.351 78.0754 113.182C77.8533 113.014 76.566 112.38 76.7922 113.166Z" fill="#212121" stroke="#212121" stroke-linecap="round" stroke-linejoin="round"/>
<path d="M88.6289 134.149L89.5831 125.901" stroke="white" stroke-linecap="round" stroke-linejoin="round"/>
<path d="M89.3574 127.81L92.4627 126.526" stroke="white" stroke-linecap="round" stroke-linejoin="round"/>
<path d="M97.998 138.806L95.666 149.151" stroke="white" stroke-linecap="round" stroke-linejoin="round"/>
<path d="M105.545 84.7622C105.545 84.7622 106.273 82.5821 106.536 81.9198C106.799 81.2576 107.396 80.5336 107.396 79.678C107.396 78.8224 107.063 76.9014 106.865 77.432C106.677 78.0291 106.588 78.6531 106.602 79.279C106.614 79.6075 106.522 79.9315 106.339 80.2045C106.339 80.2045 105.545 78.4892 104.887 78.4234C104.229 78.3576 104.225 78.555 104.476 78.8347C104.807 79.1013 105.083 79.4296 105.29 79.8014C105.452 80.0396 105.564 80.3083 105.619 80.5912C105.619 80.5912 104.496 79.3366 103.974 79.3366C103.451 79.3366 102.983 79.5998 103.312 79.8014C103.627 79.9528 103.96 80.0634 104.303 80.1305L104.768 81.056C104.768 81.056 103.645 80.6447 103.312 80.9902C102.978 81.3357 103.645 81.4468 103.645 81.4468L104.105 81.5126C103.781 82.056 103.578 82.664 103.513 83.2937C103.536 83.9582 103.602 84.6205 103.711 85.2764L105.545 84.7622Z" fill="white" stroke="#212121" stroke-linecap="round" stroke-linejoin="round"/>
<path d="M104.423 83.639C104.548 83.0219 104.749 82.4224 105.019 81.8537C105.348 81.3272 106.142 80.9981 106.603 80.4675C107.063 79.9368 107.331 79.1471 107.66 79.4761C107.989 79.8052 107.726 80.4017 107.396 80.8665C107.067 81.3313 105.945 82.5119 105.875 83.5732" fill="white"/>
<path d="M104.423 83.639C104.548 83.0219 104.749 82.4224 105.019 81.8537C105.348 81.3272 106.142 80.9981 106.603 80.4675C107.063 79.9368 107.331 79.1471 107.66 79.4761C107.989 79.8052 107.726 80.4017 107.396 80.8665C107.067 81.3313 105.945 82.5119 105.875 83.5732" stroke="#212121" stroke-linecap="round" stroke-linejoin="round"/>
<path d="M103.168 86.6754L103.3 84.6968C103.726 84.4719 104.21 84.3789 104.69 84.4294C105.545 84.4952 105.808 84.8408 105.808 84.8408L105.874 87.0209L103.168 86.6754Z" fill="#92E3A9" stroke="#212121" stroke-linecap="round" stroke-linejoin="round"/>
<path d="M74.4146 107.979C74.5291 107.868 74.6299 107.744 74.7148 107.609C74.7148 107.609 74.7148 107.65 74.7395 107.712C75.1508 106.478 75.8952 104.692 75.8952 104.692C75.8952 104.692 76.1173 113.109 76.8494 114.005C77.4129 114.705 78.4946 114.902 79.3172 115.079C80.4194 115.313 81.5258 115.544 82.6404 115.704C86.5106 116.264 90.3891 116.037 94.2511 115.54C95.3781 115.396 97.2371 115.47 98.0514 114.511C98.4662 113.985 98.6844 113.33 98.6684 112.66C98.6684 112.434 99.1167 103.063 99.1167 103.063C99.1167 103.063 103.941 106.654 104.953 106.543C105.965 106.432 106.635 105.532 106.524 102.841C106.413 100.151 106.113 86.9592 105.792 86.3421C105.471 85.7251 103.661 85.614 102.987 86.3997C102.312 87.1854 102 93.7053 102 93.7053C102 93.7053 99.8529 89.0365 98.9563 87.5762C98.0597 86.1159 92.6183 84.38 92.6183 84.38C92.6183 84.38 89.1964 83.257 85.8855 83.9687C83.4539 84.4547 81.1175 85.3327 78.9676 86.5684C77.2854 87.5227 73.9745 88.4194 73.411 89.5959C72.8476 90.7723 70.8323 103.232 70.3839 104.861C70.2523 105.326 70.1043 105.84 69.9727 106.391C70.0292 106.699 70.1202 107 70.2441 107.288" fill="#92E3A9"/>
<path d="M74.4146 107.979C74.5291 107.868 74.6299 107.744 74.7148 107.609C74.7148 107.609 74.7148 107.65 74.7395 107.712C75.1508 106.478 75.8952 104.692 75.8952 104.692C75.8952 104.692 76.1173 113.109 76.8494 114.005C77.4129 114.705 78.4946 114.902 79.3172 115.079C80.4194 115.313 81.5258 115.544 82.6404 115.704C86.5106 116.264 90.3891 116.037 94.2511 115.54C95.3781 115.396 97.2371 115.47 98.0514 114.511C98.4662 113.985 98.6844 113.33 98.6684 112.66C98.6684 112.434 99.1167 103.063 99.1167 103.063C99.1167 103.063 103.941 106.654 104.953 106.543C105.965 106.432 106.635 105.532 106.524 102.841C106.413 100.151 106.113 86.9592 105.792 86.3421C105.471 85.7251 103.661 85.614 102.987 86.3997C102.312 87.1854 102 93.7053 102 93.7053C102 93.7053 99.8529 89.0365 98.9563 87.5762C98.0597 86.1159 92.6183 84.38 92.6183 84.38C92.6183 84.38 89.1964 83.257 85.8855 83.9687C83.4539 84.4547 81.1175 85.3327 78.9676 86.5684C77.2854 87.5227 73.9745 88.4194 73.411 89.5959C72.8476 90.7723 70.8323 103.232 70.3839 104.861C70.2523 105.326 70.1043 105.84 69.9727 106.391C70.0292 106.699 70.1202 107 70.2441 107.288" stroke="#212121" stroke-linecap="round" stroke-linejoin="round"/>
<path d="M94.7773 102.665L96.4677 101.278" stroke="#212121" stroke-miterlimit="10"/>
<path d="M83.4463 111.969L93.4118 103.787" stroke="#212121" stroke-miterlimit="10"/>
<path d="M82.085 110.023L86.3624 106.526" stroke="#212121" stroke-miterlimit="10"/>
<path d="M74.7395 112.516L72.2717 117.098C72.0739 117.464 72.0044 117.886 72.0743 118.295L73.3575 125.7C73.3551 125.727 73.358 125.754 73.3661 125.78C73.3742 125.806 73.3873 125.83 73.4047 125.851C73.422 125.871 73.4434 125.889 73.4674 125.901C73.4914 125.914 73.5177 125.921 73.5447 125.924C73.5717 125.926 73.5989 125.923 73.6248 125.915C73.6506 125.907 73.6747 125.894 73.6955 125.877C73.7163 125.859 73.7335 125.838 73.7461 125.814C73.7587 125.79 73.7664 125.764 73.7688 125.737L76.0556 119.587C76.1519 119.324 76.1857 119.043 76.1543 118.764L75.4057 112.648C75.4144 112.604 75.4143 112.559 75.4056 112.515C75.3968 112.471 75.3795 112.43 75.3547 112.393C75.3299 112.356 75.298 112.324 75.2609 112.299C75.2238 112.274 75.1822 112.257 75.1384 112.249C75.0501 112.231 74.9584 112.25 74.8836 112.3C74.8087 112.35 74.7569 112.428 74.7395 112.516Z" fill="#212121" stroke="#212121" stroke-linecap="round" stroke-linejoin="round"/>
<path d="M101.996 93.7051L104.48 99.4598" stroke="#212121" stroke-linecap="round" stroke-linejoin="round"/>
<path d="M75.1592 123.487C75.5219 122.744 75.7661 121.948 75.883 121.13C75.9694 120.068 75.6733 120.151 75.4183 120.747C75.1633 121.344 75.1592 123.487 75.1592 123.487Z" fill="white" stroke="#212121" stroke-linecap="round" stroke-linejoin="round"/>
<path d="M73.9744 125.428C73.9744 125.428 74.9902 124.247 75.1589 123.486C75.3275 122.725 75.747 121.208 75.3275 121.376C74.908 121.545 74.7352 122.388 74.7352 122.388C74.6661 122.341 74.5861 122.312 74.5028 122.305C74.4195 122.298 74.3357 122.312 74.2594 122.346C74.1831 122.38 74.1168 122.434 74.0669 122.501C74.017 122.568 73.9851 122.647 73.9744 122.73C73.8057 123.404 73.9744 125.428 73.9744 125.428Z" fill="white" stroke="#212121" stroke-linecap="round" stroke-linejoin="round"/>
<path d="M74.7356 122.389C74.7356 122.389 75.0276 123.672 74.6533 124.524" stroke="#212121" stroke-linecap="round" stroke-linejoin="round"/>
<path d="M99.1211 103.063L99.3473 95.6016" stroke="#212121" stroke-linecap="round" stroke-linejoin="round"/>
<path d="M99.2324 100.706L100.133 96.498" stroke="#212121" stroke-linecap="round" stroke-linejoin="round"/>
<path d="M75.8952 104.693L75.6689 96.2188" stroke="#212121" stroke-linecap="round" stroke-linejoin="round"/>
<path d="M47.2949 173.988C58.7477 173.988 68.0321 171.26 68.0321 167.896C68.0321 164.531 58.7477 161.804 47.2949 161.804C35.842 161.804 26.5576 164.531 26.5576 167.896C26.5576 171.26 35.842 173.988 47.2949 173.988Z" fill="#92E3A9"/>
<path opacity="0.5" d="M47.2949 173.988C58.7477 173.988 68.0321 171.26 68.0321 167.896C68.0321 164.531 58.7477 161.804 47.2949 161.804C35.842 161.804 26.5576 164.531 26.5576 167.896C26.5576 171.26 35.842 173.988 47.2949 173.988Z" fill="white"/>
<path d="M55.7882 83.3056C55.8258 82.5954 55.7816 81.8832 55.6566 81.1831C55.4551 80.455 54.9903 79.9902 55.0561 79.7228C55.1219 79.4554 55.9198 79.657 56.1214 80.1876C56.3229 80.7183 56.6519 81.6479 56.6519 81.6479V79.5912C56.6519 79.258 55.854 79.1798 55.5908 78.8631C55.3276 78.5464 55.5209 78.3983 55.7224 78.3983C55.924 78.3983 56.7177 78.3283 57.1825 78.7273C57.3534 78.9006 57.4837 79.1097 57.5641 79.3395C57.6445 79.5692 57.6729 79.8139 57.6473 80.056C57.6473 80.2566 57.6252 80.4567 57.5815 80.6525C57.5815 80.6525 58.6426 80.7841 58.9716 81.5163C59.2442 82.2366 59.2915 83.0227 59.1073 83.7705C58.9716 84.371 59.4364 85.5639 59.4364 85.5639L58.0421 86.6252C58.0421 86.6252 56.9152 85.4323 56.3188 84.7659C55.9627 84.3644 55.773 83.8422 55.7882 83.3056Z" fill="white" stroke="#212121" stroke-linecap="round" stroke-linejoin="round"/>
<path d="M59.4363 85.5605L58.042 86.6218C58.042 86.6218 65.7126 102.253 66.4405 102.792C67.1685 103.331 68.0857 103.458 69.1633 101.998C70.2409 100.538 70.0928 99.6081 69.3607 97.9503C68.6286 96.2926 59.4363 85.5605 59.4363 85.5605Z" fill="#92E3A9" stroke="#212121" stroke-linecap="round" stroke-linejoin="round"/>
<path d="M53.4934 70.0603C53.4934 70.0603 54.4847 72.4338 54.4847 73.0302C54.4802 73.5895 54.6342 74.1385 54.9288 74.6139C55.225 75.1075 55.5746 75.2556 55.373 75.6505C55.2844 75.8471 55.168 76.0299 55.0276 76.1935C55.0276 76.1935 54.8795 78.3243 54.8795 79.0153C54.8795 79.7064 54.534 79.7558 53.8924 79.8051C53.3281 79.8132 52.7644 79.7635 52.2102 79.657L52.1115 81.5369C52.1115 81.5369 49.7342 81.2407 48.7965 81.2407H46.9663L47.065 78.3243C46.5154 77.2408 46.052 76.1157 45.6789 74.9594C45.4966 74.4731 45.4228 73.9528 45.4627 73.4349C45.5026 72.9171 45.6552 72.4142 45.9099 71.9616C46.1646 71.5089 46.5152 71.1175 46.9371 70.8146C47.359 70.5118 47.842 70.3049 48.3523 70.2084C50.0477 69.8904 51.7825 69.8404 53.4934 70.0603Z" fill="white" stroke="#212121" stroke-linecap="round" stroke-linejoin="round"/>
<path d="M51.8232 75.7495C51.8232 75.7495 52.8638 75.4533 52.6664 74.5607C52.469 73.6681 52.1235 73.2773 52.1728 73.1292C52.2222 72.9811 52.9954 72.6808 52.9954 72.0391C52.9954 71.3974 52.1728 71.0519 52.1728 71.0519C52.1728 71.0519 55.8333 69.9125 56.0801 68.8717C56.3269 67.831 55.8333 66.7944 54.8462 66.7944C54.3478 66.7975 53.8507 66.8471 53.3615 66.9425C53.164 66.9425 51.8767 65.5069 50.7415 66.054C49.6064 66.6011 49.5077 67.2881 49.5077 67.2881C49.5077 67.2881 45.3536 67.4896 43.7702 69.1679C42.1867 70.8462 43.5234 74.7622 44.5927 76.1937C45.6621 77.6252 46.5217 79.1637 47.5129 79.3611C48.5041 79.5586 50.3344 79.2624 51.0253 78.3245C51.7163 77.3866 51.3708 75.9469 51.3708 75.9469L51.8232 75.7495Z" fill="#212121" stroke="#212121" stroke-linecap="round" stroke-linejoin="round"/>
<path d="M52.3577 76.099C52.3577 76.099 51.3171 74.0217 50.5768 74.4536C49.8365 74.8855 50.3794 76.5844 50.8729 77.1274C50.9458 77.2306 51.0389 77.3179 51.1465 77.384C51.2541 77.4502 51.374 77.4938 51.499 77.5123C51.624 77.5307 51.7514 77.5237 51.8735 77.4914C51.9957 77.4592 52.11 77.4025 52.2096 77.3248" fill="white"/>
<path d="M52.3577 76.099C52.3577 76.099 51.3171 74.0217 50.5768 74.4536C49.8365 74.8855 50.3794 76.5844 50.8729 77.1274C50.9458 77.2306 51.0389 77.3179 51.1465 77.384C51.2541 77.4502 51.374 77.4938 51.499 77.5123C51.624 77.5307 51.7514 77.5237 51.8735 77.4914C51.9957 77.4592 52.11 77.4025 52.2096 77.3248" stroke="#212121" stroke-linecap="round" stroke-linejoin="round"/>
<path d="M44.3915 83.1702C44.6714 82.452 45.0908 81.7963 45.6253 81.241C46.3657 80.5993 48.1959 80.155 49.7382 80.4512C51.2806 80.7473 52.5103 81.1916 52.8065 81.8868C53.033 82.4825 53.2145 83.0944 53.3494 83.7173C53.3494 83.7173 51.9181 83.0221 49.0966 83.0221C47.4668 83.0067 45.8455 83.2582 44.2969 83.7666L44.3915 83.1702Z" fill="#92E3A9" stroke="#212121" stroke-linecap="round" stroke-linejoin="round"/>
<path d="M37.9878 164.539C37.9878 164.539 36.1082 164.391 35.3185 164.588C34.5288 164.785 34.3273 165.477 34.6769 165.97C35.1358 166.621 35.6655 167.218 36.2562 167.751C36.7498 168.163 38.3127 168.344 39.0242 168.689C39.7357 169.035 40.5583 169.335 41.492 168.689C42.4256 168.043 41.9032 165.625 41.9032 165.625C41.9032 165.625 39.5712 166.02 37.9878 164.539Z" fill="white" stroke="#212121" stroke-linecap="round" stroke-linejoin="round"/>
<path d="M40.8541 168.541C39.9657 168.689 38.3329 168.245 36.8975 167.505C35.8898 166.982 35.0261 165.773 34.6066 165.103C34.5359 165.239 34.5049 165.393 34.5173 165.547C34.5297 165.7 34.5848 165.847 34.6765 165.97C35.1354 166.621 35.6651 167.218 36.2558 167.752C36.7494 168.163 38.3123 168.344 39.0238 168.689C39.7354 169.035 40.5579 169.335 41.4916 168.689C41.6384 168.585 41.7548 168.443 41.8288 168.278C41.5114 168.391 41.1854 168.48 40.8541 168.541Z" fill="white" stroke="#212121" stroke-linecap="round" stroke-linejoin="round"/>
<path d="M56.9147 164.539C56.9147 164.539 58.7943 164.391 59.5839 164.588C60.3736 164.785 60.5751 165.477 60.2297 165.97C59.7681 166.62 59.2371 167.217 58.6462 167.751C58.1526 168.163 56.5692 168.344 55.8782 168.689C55.1872 169.035 54.3441 169.335 53.4105 168.689C52.4768 168.043 52.9992 165.625 52.9992 165.625C52.9992 165.625 55.3312 166.02 56.9147 164.539Z" fill="white" stroke="#212121" stroke-linecap="round" stroke-linejoin="round"/>
<path d="M54.048 168.541C54.9364 168.689 56.5692 168.245 58.0046 167.505C59.0123 166.982 59.876 165.773 60.2955 165.103C60.3668 165.239 60.3984 165.393 60.3868 165.546C60.3751 165.699 60.3207 165.846 60.2297 165.97C59.7681 166.62 59.2372 167.217 58.6462 167.752C58.1527 168.163 56.5692 168.344 55.8782 168.689C55.1873 169.035 54.3441 169.335 53.4105 168.689C53.2637 168.585 53.1473 168.443 53.0732 168.278C53.3909 168.391 53.7168 168.479 54.048 168.541Z" fill="white" stroke="#212121" stroke-linecap="round" stroke-linejoin="round"/>
<path d="M40.8786 109.888C40.8786 109.888 40.4673 114.491 40.4344 116.568C40.4127 117.908 40.4952 119.247 40.6811 120.574L39.694 139.575C39.694 139.575 38.2093 151.796 38.2093 154.219C38.2093 156.641 38.4067 162.976 38.4067 162.976C38.1832 163.41 37.9854 163.856 37.8145 164.313C37.8153 164.89 37.8483 165.467 37.9132 166.041C38.6848 166.505 39.5424 166.809 40.4344 166.933C40.7854 166.979 41.142 166.913 41.453 166.743C41.764 166.574 42.0135 166.311 42.1659 165.991C42.3391 165.039 42.4545 164.078 42.5114 163.112C42.533 162.534 42.5165 161.956 42.462 161.38C42.462 161.38 44.6378 150.743 45.6783 147.131C46.7189 143.519 48.5985 133.721 48.6972 132.438C48.7959 131.154 49.9311 125.165 49.9311 125.165C49.9311 125.165 50.9223 135.901 51.1649 137.917C51.4076 139.932 50.8071 145.576 50.8071 148.612C50.8071 151.648 52.6456 163.416 52.6456 163.416C52.6389 164.036 52.6705 164.656 52.7402 165.271C52.8389 165.683 53.427 167.032 53.427 167.032C53.427 167.032 54.8912 167.324 55.5781 166.933C56.2649 166.543 57.3343 165.86 57.433 164.687C57.5317 163.515 57.0834 161.142 56.9888 160.459C56.8942 159.776 58.634 146.576 58.634 141.886C58.634 137.197 59.4154 127.024 59.4154 124.877C59.4154 122.73 58.926 115.49 58.926 115.49L58.0458 108.551C58.0458 108.551 49.9105 111.615 40.8786 109.888Z" fill="#212121" stroke="#212121" stroke-linecap="round" stroke-linejoin="round"/>
<path d="M49.9313 125.177L49.2485 120.673H47.5869" stroke="white" stroke-linecap="round" stroke-linejoin="round"/>
<path d="M37.6663 86.0908C37.6663 86.0908 26.4751 102.882 26.6725 103.565C26.8699 104.248 37.6169 109.92 37.6169 109.92L37.5182 107.769L33.4053 102.294L39.1634 96.2347L37.6663 86.0908Z" fill="#92E3A9" stroke="#212121" stroke-linecap="round" stroke-linejoin="round"/>
<path d="M37.5182 107.772L39.0647 107.135L40.7098 108.595C40.7098 108.595 41.2815 109.792 40.862 109.891L40.4507 109.99C40.4507 109.99 40.9155 111.117 40.1875 111.45C39.4595 111.783 38.3943 111.384 37.9295 110.985C37.5477 110.572 37.234 110.102 37 109.591L37.5182 107.772Z" fill="white" stroke="#212121" stroke-linecap="round" stroke-linejoin="round"/>
<path d="M39.5294 107.662C39.5294 107.662 40.1299 108.328 40.06 108.658C39.9901 108.987 39.731 110.118 39.4636 110.184C39.1963 110.249 38.9331 109.719 38.9989 109.521C39.0547 109.325 39.1 109.126 39.1346 108.925C39.1346 108.925 38.5341 109.39 38.2051 109.122" fill="white"/>
<path d="M39.5294 107.662C39.5294 107.662 40.1299 108.328 40.06 108.658C39.9901 108.987 39.731 110.118 39.4636 110.184C39.1963 110.249 38.9331 109.719 38.9989 109.521C39.0547 109.325 39.1 109.126 39.1346 108.925C39.1346 108.925 38.5341 109.39 38.2051 109.122" stroke="#212121" stroke-linecap="round" stroke-linejoin="round"/>
<path d="M52.16 82.6806C50.4907 82.4124 48.792 82.3791 47.1135 82.5819C44.9758 82.8741 42.8953 83.4914 40.9442 84.4124C39.7103 85.0047 37.6826 85.8974 37.6826 86.0948C37.6826 86.2923 40.5616 104.647 40.5616 104.647C40.5616 104.647 40.5616 109.398 40.8578 110.089C41.1539 110.78 42.0464 110.883 44.2221 111.129C47.49 111.331 50.7694 111.231 54.0191 110.833C55.948 110.484 57.6302 110.187 57.9263 109.299C58.2225 108.41 57.8276 106.033 57.8276 106.033L58.8353 86.7941C57.9754 85.7689 56.9162 84.9292 55.7218 84.326C54.5681 83.7076 53.3788 83.1582 52.16 82.6806Z" fill="#92E3A9" stroke="#212121" stroke-linecap="round" stroke-linejoin="round"/>
<path d="M68.3658 97.5558L58.8362 86.7949L58.1699 97.4077C58.1699 97.4077 65.5485 103.693 67.2183 103.496C68.8881 103.298 69.1761 102.015 69.1761 102.015" fill="#92E3A9"/>
<path d="M68.3658 97.5558L58.8362 86.7949L58.1699 97.4077C58.1699 97.4077 65.5485 103.693 67.2183 103.496C68.8881 103.298 69.1761 102.015 69.1761 102.015" stroke="#212121" stroke-linecap="round" stroke-linejoin="round"/>
</g>
<defs>
<clipPath id="clip0_85_3948">
<rect width="153" height="174" fill="white"/>
</clipPath>
</defs>
</svg>
