<svg width="695" height="568" viewBox="0 0 695 568" fill="none" xmlns="http://www.w3.org/2000/svg">
<g clip-path="url(#clip0_99_188)">
<path d="M90.572 396.799C169.339 487.201 248.872 498.646 360.668 520.07C472.464 541.494 554.553 526.688 615.041 472.089C684.882 408.977 682.123 264.402 575.249 212.924C541.862 196.805 502.104 191.926 472.856 169.258C417 126.001 371.826 58.6937 282.157 46.0544C192.488 33.4152 132.033 93.6436 132.033 93.6436C58.3941 174.392 11.8053 306.328 90.572 396.799Z" fill="#BEEBC3"/>
<path opacity="0.7" d="M90.572 396.799C169.339 487.201 248.872 498.646 360.668 520.07C472.464 541.494 554.553 526.688 615.041 472.089C684.882 408.977 682.123 264.402 575.249 212.924C541.862 196.805 502.104 191.926 472.856 169.258C417 126.001 371.826 58.6937 282.157 46.0544C192.488 33.4152 132.033 93.6436 132.033 93.6436C58.3941 174.392 11.8053 306.328 90.572 396.799Z" fill="white"/>
<path d="M691.508 541.356H27.1699V568.648H691.508V541.356Z" fill="#BEEBC3"/>
<path opacity="0.5" d="M691.508 541.356H27.1699V568.648H691.508V541.356Z" fill="white"/>
<path d="M183.835 247.822C180.585 248.883 177.395 250.119 174.278 251.523C175.982 250.278 177.685 248.982 179.389 247.668C186.973 241.56 194.191 235.01 201.005 228.053C193.009 235.831 184.47 243.03 175.454 249.596C176.697 247.433 177.789 245.188 178.724 242.875C180.428 238.628 180.734 234.347 176.697 232.078C171.706 229.281 165.676 233.46 167.26 240.607C168.227 244.597 170.111 248.306 172.762 251.438C166.878 255.516 160.733 259.203 154.365 262.474L153.769 262.781C155.115 260.446 156.304 258.024 157.329 255.531C158.93 251.301 159.339 247.003 155.285 244.751C150.294 241.937 144.264 246.133 145.865 253.28C146.816 257.216 148.657 260.881 151.248 263.992C143.599 267.761 135.696 270.968 127.826 274.448L126.684 274.959C128.22 273.308 129.649 271.559 130.96 269.723C133.515 265.97 134.895 261.911 131.488 258.755C127.298 254.866 120.433 257.527 120.331 264.896C120.335 268.963 121.28 272.973 123.09 276.614C115.726 280.059 108.729 284.243 102.206 289.1L102.002 289.27C102.884 287.87 103.691 286.424 104.421 284.938C106.345 280.827 107.061 276.597 103.177 274.021C102.388 273.478 101.486 273.121 100.539 272.976C99.592 272.832 98.6248 272.905 97.7099 273.189C96.7951 273.473 95.9564 273.961 95.257 274.616C94.5576 275.271 94.0157 276.077 93.6719 276.972C93.1599 276.172 92.465 275.506 91.6448 275.028C87.744 272.776 83.9112 275.215 80.6236 278.661C79.7719 279.565 78.9202 280.537 78.1877 281.492C80.7238 274.444 83.9117 267.649 87.7099 261.194C91.3269 262.776 95.2271 263.606 99.174 263.634C106.942 263.634 110.212 257.152 106.397 253.126C103.296 249.868 98.9355 251.114 94.8132 253.502C93.4558 254.294 92.1422 255.16 90.8783 256.094C94.8271 250.139 99.3085 244.555 104.267 239.413C107.517 242.044 111.292 243.946 115.34 244.99C122.886 246.849 127.621 241.374 124.896 236.547C122.681 232.624 118.082 232.777 113.568 234.091C111.407 234.738 109.291 235.524 107.231 236.445C109.292 234.432 111.422 232.504 113.585 230.594C116.413 228.172 119.343 225.835 122.324 223.549C125.529 226.111 129.238 227.965 133.209 228.991C140.755 230.85 145.49 225.375 142.765 220.547C140.55 216.624 135.951 216.778 131.42 218.091C130.364 218.398 129.291 218.774 128.252 219.166C132.186 216.351 136.173 213.605 140.176 210.876L143.872 208.335C147.203 211.128 151.113 213.144 155.319 214.236C162.865 216.096 167.618 210.62 164.892 205.793C162.661 201.87 158.079 202.023 153.548 203.337C151.765 203.883 150.01 204.514 148.284 205.23L150.566 203.524C151.963 202.518 153.36 201.495 154.723 200.42C156.426 199.141 158.045 197.725 159.697 196.361C160.651 195.61 161.554 194.808 162.456 193.99C165.801 196.813 169.736 198.848 173.972 199.943C181.518 201.802 186.253 196.326 183.528 191.499C181.313 187.576 176.714 187.73 172.2 189.043C169.669 189.826 167.188 190.766 164.773 191.857C167.856 188.992 170.837 186.007 173.665 182.902C173.852 182.681 174.023 182.459 174.227 182.254C175.437 180.907 176.629 179.542 177.787 178.127C178.946 176.711 180.445 174.852 181.705 173.146C186.882 166.342 191.143 158.887 194.379 150.972C190.987 158.793 186.583 166.134 181.279 172.805C176.034 179.504 170.177 185.699 163.785 191.312L163.087 191.909C164.539 189.433 165.825 186.863 166.936 184.216C168.555 179.986 168.947 175.687 164.892 173.436C159.918 170.621 153.871 174.817 155.472 181.964C156.501 186.196 158.554 190.11 161.451 193.358L159.952 194.655L158.249 196.122C157.261 196.923 156.239 197.691 155.217 198.459C154.672 198.868 154.144 199.294 153.513 199.704C152.066 200.778 150.601 201.819 149.119 202.842L146.989 204.292L144.57 205.998C145.984 203.581 147.225 201.068 148.284 198.476C149.902 194.228 150.294 189.947 146.257 187.696C141.266 184.881 135.219 189.077 136.82 196.224C137.807 200.329 139.764 204.137 142.526 207.328L140.823 208.488L134.197 212.838L132.885 213.69L129.188 216.164L127.587 217.238C125.884 218.415 124.18 219.609 122.477 220.837C123.846 218.383 125.041 215.835 126.054 213.213C127.758 208.983 128.064 204.684 124.027 202.433C119.036 199.618 113.006 203.814 114.607 210.961C115.608 215.122 117.607 218.974 120.433 222.185C117.537 224.317 114.675 226.5 111.916 228.786C109.889 230.492 107.896 232.197 105.937 234.04C106.79 232.459 107.552 230.83 108.219 229.161C109.82 224.914 110.229 220.633 106.175 218.381C101.184 215.567 95.1539 219.763 96.7551 226.91C97.7058 230.846 99.5475 234.511 102.138 237.622C96.6209 243.111 91.6518 249.127 87.3011 255.583C87.795 253.721 88.1705 251.829 88.4253 249.92C88.9704 245.417 88.3231 241.186 83.8431 239.958C78.324 238.44 73.4862 243.967 76.7739 250.551C78.6651 254.175 81.3707 257.311 84.6778 259.71C80.3868 266.729 76.8033 274.156 73.9802 281.885C73.9065 280.268 73.7473 278.657 73.5033 277.057C72.7367 272.571 70.9311 268.7 66.2807 268.785C60.5572 268.904 57.474 275.608 62.4991 280.964C65.179 283.761 68.45 285.923 72.0724 287.292C70.1351 293.258 68.5594 299.335 67.3539 305.492C67.1495 306.464 66.9962 307.436 66.8088 308.408C66.6044 308.596 66.4 308.784 66.2126 308.988C66.0082 308.152 65.7697 307.283 65.4971 306.481C64.0663 302.182 61.6814 298.618 57.0992 299.436C51.4779 300.426 49.4508 307.487 55.2425 312.041C58.1859 314.291 61.5789 315.88 65.1905 316.698C65.1905 316.869 65.3268 317.022 65.412 317.193C64.7817 321.815 64.3047 326.472 64.0152 331.145C63.7937 334.557 63.6745 338.122 63.6063 341.618C58.7345 341.618 55.2936 346.974 58.6493 352.774C60.0654 355.178 61.8799 357.324 64.0152 359.119C64.424 365.686 65.0713 372.253 65.94 378.769C65.2512 378.131 64.4082 377.684 63.4941 377.471C62.5801 377.259 61.6266 377.289 60.7275 377.558C57.6614 378.393 56.2816 380.867 55.7876 383.903C54.6965 385.033 54.0859 386.544 54.0842 388.116C51.8016 384.705 49.6382 381.293 47.543 377.694C50.7414 375.239 53.3928 372.143 55.3277 368.603C58.99 361.78 54.8507 355.793 49.519 357.243C45.1582 358.437 44.2043 362.872 44.4087 367.63C44.4768 369.435 44.6474 371.235 44.9197 373.02L42.6712 369.063C40.7974 365.652 39.2643 362.24 37.4246 358.829C36.9817 357.993 36.5899 357.123 36.2322 356.27C39.821 354.46 42.9942 351.922 45.55 348.816C50.4388 342.778 47.4919 336.143 41.9728 336.57C37.4757 336.928 35.6871 341.107 34.9376 345.814C34.6455 347.867 34.4635 349.934 34.3925 352.006L32.7913 348.305C29.3809 339.908 26.5744 331.278 24.3933 322.48C28.4554 321.039 32.145 318.708 35.1931 315.658C40.6611 310.114 38.3955 303.24 32.8594 303.104C28.3623 303.001 26.1649 306.976 24.9384 311.632C24.3373 314.104 23.8879 316.61 23.5927 319.137C22.4003 314.088 21.3783 308.971 20.5266 303.786C19.9474 300.613 19.5726 297.389 19.1808 294.183C23.547 293.316 27.6593 291.467 31.2071 288.776C37.3394 284 35.9937 276.836 30.5087 276.034C26.0627 275.335 23.3713 279.002 21.5656 283.42C20.5085 286.206 19.6211 289.054 18.9083 291.948C18.5676 288.23 18.1758 284.494 18.0055 280.759C17.4945 273.046 17.4945 265.308 18.0055 257.595C17.2279 265.302 16.9604 273.051 17.2049 280.793C17.2049 284.358 17.5115 287.906 17.7329 291.471C16.7598 289.047 15.6215 286.693 14.3261 284.426C12.0094 280.52 8.90915 277.603 4.61651 279.309C-0.681165 281.492 -1.14109 288.827 5.50229 292.034C9.39874 293.826 13.6729 294.64 17.9544 294.404C18.261 297.594 18.5335 300.767 19.0105 303.922C19.6748 309.039 20.5266 313.952 21.5316 318.915C20.4415 317.014 19.2295 315.185 17.9033 313.44C15.0926 309.875 11.6517 307.351 7.68268 309.654C2.7257 312.502 3.20266 319.888 10.2038 322.156C14.1654 323.389 18.3613 323.669 22.4514 322.975C24.3949 331.869 26.9505 340.617 30.0998 349.158L31.1049 351.716C30.2036 350.521 29.2309 349.382 28.192 348.305C25.0406 345.03 21.3783 342.864 17.5796 345.576C12.9293 348.987 14.1728 356.151 21.3272 357.754C25.2756 358.555 29.3548 358.438 33.2512 357.413C33.6089 358.283 33.9666 359.119 34.3925 360.006C36.0959 363.52 37.612 367.119 39.4006 370.564L40.8826 373.549C39.9968 372.782 39.0769 372.048 38.123 371.366C34.4095 368.756 30.3894 367.323 27.187 370.684C23.235 374.829 25.7902 381.72 33.149 381.941C36.9801 382.031 40.7837 381.274 44.2894 379.724C46.4017 383.545 48.565 387.314 50.9158 391.016C51.7845 392.431 52.6192 393.83 53.6072 395.229C52.2708 394.005 50.86 392.866 49.3827 391.817C45.6692 389.208 41.6491 387.775 38.4296 391.135C34.4947 395.28 37.0498 402.171 44.4087 402.393C48.6146 402.443 52.7721 401.49 56.5371 399.612C57.7636 401.318 59.0241 403.024 60.3187 404.73C57.5762 407.919 58.479 413.258 64.0492 415.697C66.7546 416.826 69.638 417.467 72.5664 417.591C72.9071 417.863 73.2478 418.136 73.6225 418.392L73.7929 418.529C77.3133 431.697 81.4867 444.671 86.3131 457.453C88.3572 462.894 90.5546 468.284 92.8202 473.64H72.379V554.354H134.844V473.572H101.593C98.7481 467.346 96.0056 461.052 93.4504 454.69C89.277 444.251 85.4954 433.641 82.2078 422.878C82.7672 423.043 83.3361 423.174 83.9112 423.271C84.6678 423.424 85.4437 423.459 86.2109 423.373L85.3251 417.761H84.7289C84.3736 417.711 84.0211 417.643 83.6728 417.556C82.8858 417.331 82.1171 417.046 81.3731 416.704L80.4873 416.294C83.7749 415.147 86.8279 413.413 89.4985 411.177C95.4094 406.06 93.74 399.067 88.2209 398.47C83.7579 397.975 81.2368 401.762 79.7038 406.248C79.2438 407.527 78.8691 408.857 78.5454 410.154C78.2218 408.96 77.8981 407.766 77.5915 406.572C76.6887 403.041 75.8881 399.476 75.0704 395.911C78.6382 394.797 81.9539 392.995 84.8311 390.606C90.742 385.489 89.0556 378.513 83.5535 377.916C79.0735 377.421 76.5695 381.208 75.0364 385.694C74.5764 386.99 74.1846 388.338 73.8439 389.668C73.3329 387.076 72.8389 384.466 72.379 381.856C72.0554 379.929 71.7487 377.984 71.4591 376.04C71.3569 373.276 71.3058 370.513 71.3399 367.733C71.3399 366.215 71.3399 364.697 71.4762 363.179C74.8159 364.235 78.3186 364.68 81.816 364.492C89.5837 363.98 92.4454 357.328 88.3913 353.558C85.0866 350.471 80.811 352.006 76.842 354.633C75.0621 355.844 73.3557 357.16 71.7317 358.573C72.21 352.081 73.1954 345.637 74.6786 339.299C75.5479 335.565 76.6343 331.886 77.9322 328.28C81.4939 329.509 85.2597 330.036 89.0215 329.832C96.7892 329.337 99.6509 322.685 95.5968 318.898C92.3092 315.828 88.0165 317.346 84.0475 319.99C82.662 320.943 81.3313 321.974 80.0615 323.077C81.5593 319.549 83.3011 316.129 85.274 312.843C89.1866 306.213 94.0929 300.225 99.8213 295.087C102.79 297.829 106.301 299.915 110.127 301.21C117.52 303.632 122.647 298.515 120.348 293.5C118.423 289.424 113.892 289.236 109.224 290.208C107.426 290.593 105.651 291.083 103.91 291.675L104.029 291.573C110.385 286.607 117.235 282.308 124.47 278.746C127.023 282.093 130.264 284.85 133.975 286.831C140.891 290.396 146.768 286.166 145.235 280.844C143.991 276.512 139.545 275.608 134.793 275.727C132.926 275.829 131.066 276.034 129.223 276.341C136.905 272.708 144.741 269.279 152.304 265.271H152.474C155.86 268.198 159.878 270.3 164.211 271.412C171.757 273.288 176.493 267.795 173.767 262.883C171.553 258.96 166.954 259.13 162.439 260.427C161.162 260.802 159.884 261.263 158.641 261.74C163.692 258.801 168.587 255.601 173.307 252.154L173.699 252.581V252.359C177.119 255.312 181.169 257.442 185.538 258.585C193.067 260.444 197.82 254.969 195.094 250.056C192.948 246.355 188.417 246.508 183.835 247.822ZM64.7306 402.376C63.1805 400.568 61.7155 398.674 60.2846 396.764C60.6253 396.457 61.0001 396.116 61.3748 395.74C63.5034 396.405 65.7066 396.8 67.933 396.917V397.276L68.9721 397.054C69.5172 399.749 70.0794 402.427 70.6756 405.105C69.9833 404.197 69.0793 403.474 68.0428 402.998C67.0062 402.522 65.8689 402.309 64.7306 402.376ZM70.2838 338.156C69.7557 340.169 69.3128 342.181 68.887 344.211L68.6315 343.853C68.6315 339.691 68.6939 335.54 68.8188 331.401C68.9381 328.502 69.1425 325.619 69.398 322.719C70.7995 324.149 72.3403 325.434 73.9973 326.557C72.5555 330.353 71.3215 334.225 70.3008 338.156H70.2838ZM77.2679 319.052C77.3701 318.301 77.4552 317.534 77.4893 316.783V315.641C78.1025 315.453 78.7328 315.231 79.346 314.975C78.6647 316.323 77.9492 317.687 77.2849 319.052H77.2679ZM86.1427 304.639C85.8484 303.964 85.4204 303.356 84.8845 302.852C84.3487 302.347 83.7163 301.957 83.0254 301.705C78.818 299.999 75.4111 303.069 72.7027 306.993L72.5664 307.18H72.2938C72.0082 307.116 71.7175 307.076 71.4251 307.061C71.4049 306.821 71.4459 306.581 71.5443 306.361C72.6228 300.2 74.0792 294.11 75.9051 288.127C79.8155 288.624 83.7861 288.317 87.5736 287.223C89.9137 286.608 91.9489 285.158 93.2971 283.147C94.0469 286.586 95.4776 289.84 97.5046 292.716C93.3139 296.285 89.5113 300.287 86.1598 304.656L86.1427 304.639Z" fill="#BEEBC3"/>
<path opacity="0.3" d="M183.835 247.822C180.585 248.883 177.395 250.119 174.278 251.523C175.982 250.278 177.685 248.982 179.389 247.668C186.973 241.56 194.191 235.01 201.005 228.053C193.009 235.831 184.47 243.03 175.454 249.596C176.697 247.433 177.789 245.188 178.724 242.875C180.428 238.628 180.734 234.347 176.697 232.078C171.706 229.281 165.676 233.46 167.26 240.607C168.227 244.597 170.111 248.306 172.762 251.438C166.878 255.516 160.733 259.203 154.365 262.474L153.769 262.781C155.115 260.446 156.304 258.024 157.329 255.531C158.93 251.301 159.339 247.003 155.285 244.751C150.294 241.937 144.264 246.133 145.865 253.28C146.816 257.216 148.657 260.881 151.248 263.992C143.599 267.761 135.696 270.968 127.826 274.448L126.684 274.959C128.22 273.308 129.649 271.559 130.96 269.723C133.515 265.97 134.895 261.911 131.488 258.755C127.298 254.866 120.433 257.527 120.331 264.896C120.335 268.963 121.28 272.973 123.09 276.614C115.726 280.059 108.729 284.243 102.206 289.1L102.002 289.27C102.884 287.87 103.691 286.424 104.421 284.938C106.345 280.827 107.061 276.597 103.177 274.021C102.388 273.478 101.486 273.121 100.539 272.976C99.592 272.832 98.6248 272.905 97.7099 273.189C96.7951 273.473 95.9564 273.961 95.257 274.616C94.5576 275.271 94.0157 276.077 93.6719 276.972C93.1599 276.172 92.465 275.506 91.6448 275.028C87.744 272.776 83.9112 275.215 80.6236 278.661C79.7719 279.565 78.9202 280.537 78.1877 281.492C80.7238 274.444 83.9117 267.649 87.7099 261.194C91.3269 262.776 95.2271 263.606 99.174 263.634C106.942 263.634 110.212 257.152 106.397 253.126C103.296 249.868 98.9355 251.114 94.8132 253.502C93.4558 254.294 92.1422 255.16 90.8783 256.094C94.8271 250.139 99.3085 244.555 104.267 239.413C107.517 242.044 111.292 243.946 115.34 244.99C122.886 246.849 127.621 241.374 124.896 236.547C122.681 232.624 118.082 232.777 113.568 234.091C111.407 234.738 109.291 235.524 107.231 236.445C109.292 234.432 111.422 232.504 113.585 230.594C116.413 228.172 119.343 225.835 122.324 223.549C125.529 226.111 129.238 227.965 133.209 228.991C140.755 230.85 145.49 225.375 142.765 220.547C140.55 216.624 135.951 216.778 131.42 218.091C130.364 218.398 129.291 218.774 128.252 219.166C132.186 216.351 136.173 213.605 140.176 210.876L143.872 208.335C147.203 211.128 151.113 213.144 155.319 214.236C162.865 216.096 167.618 210.62 164.892 205.793C162.661 201.87 158.079 202.023 153.548 203.337C151.765 203.883 150.01 204.514 148.284 205.23L150.566 203.524C151.963 202.518 153.36 201.495 154.723 200.42C156.426 199.141 158.045 197.725 159.697 196.361C160.651 195.61 161.554 194.808 162.456 193.99C165.801 196.813 169.736 198.848 173.972 199.943C181.518 201.802 186.253 196.326 183.528 191.499C181.313 187.576 176.714 187.73 172.2 189.043C169.669 189.826 167.188 190.766 164.773 191.857C167.856 188.992 170.837 186.007 173.665 182.902C173.852 182.681 174.023 182.459 174.227 182.254C175.437 180.907 176.629 179.542 177.787 178.127C178.946 176.711 180.445 174.852 181.705 173.146C186.882 166.342 191.143 158.887 194.379 150.972C190.987 158.793 186.583 166.134 181.279 172.805C176.034 179.504 170.177 185.699 163.785 191.312L163.087 191.909C164.539 189.433 165.825 186.863 166.936 184.216C168.555 179.986 168.947 175.687 164.892 173.436C159.918 170.621 153.871 174.817 155.472 181.964C156.501 186.196 158.554 190.11 161.451 193.358L159.952 194.655L158.249 196.122C157.261 196.923 156.239 197.691 155.217 198.459C154.672 198.868 154.144 199.294 153.513 199.704C152.066 200.778 150.601 201.819 149.119 202.842L146.989 204.292L144.57 205.998C145.984 203.581 147.225 201.068 148.284 198.476C149.902 194.228 150.294 189.947 146.257 187.696C141.266 184.881 135.219 189.077 136.82 196.224C137.807 200.329 139.764 204.137 142.526 207.328L140.823 208.488L134.197 212.838L132.885 213.69L129.188 216.164L127.587 217.238C125.884 218.415 124.18 219.609 122.477 220.837C123.846 218.383 125.041 215.835 126.054 213.213C127.758 208.983 128.064 204.684 124.027 202.433C119.036 199.618 113.006 203.814 114.607 210.961C115.608 215.122 117.607 218.974 120.433 222.185C117.537 224.317 114.675 226.5 111.916 228.786C109.889 230.492 107.896 232.197 105.937 234.04C106.79 232.459 107.552 230.83 108.219 229.161C109.82 224.914 110.229 220.633 106.175 218.381C101.184 215.567 95.1539 219.763 96.7551 226.91C97.7058 230.846 99.5475 234.511 102.138 237.622C96.6209 243.111 91.6518 249.127 87.3011 255.583C87.795 253.721 88.1705 251.829 88.4253 249.92C88.9704 245.417 88.3231 241.186 83.8431 239.958C78.324 238.44 73.4862 243.967 76.7739 250.551C78.6651 254.175 81.3707 257.311 84.6778 259.71C80.3868 266.729 76.8033 274.156 73.9802 281.885C73.9065 280.268 73.7473 278.657 73.5033 277.057C72.7367 272.571 70.9311 268.7 66.2807 268.785C60.5572 268.904 57.474 275.608 62.4991 280.964C65.179 283.761 68.45 285.923 72.0724 287.292C70.1351 293.258 68.5594 299.335 67.3539 305.492C67.1495 306.464 66.9962 307.436 66.8088 308.408C66.6044 308.596 66.4 308.784 66.2126 308.988C66.0082 308.152 65.7697 307.283 65.4971 306.481C64.0663 302.182 61.6814 298.618 57.0992 299.436C51.4779 300.426 49.4508 307.487 55.2425 312.041C58.1859 314.291 61.5789 315.88 65.1905 316.698C65.1905 316.869 65.3268 317.022 65.412 317.193C64.7817 321.815 64.3047 326.472 64.0152 331.145C63.7937 334.557 63.6745 338.122 63.6063 341.618C58.7345 341.618 55.2936 346.974 58.6493 352.774C60.0654 355.178 61.8799 357.324 64.0152 359.119C64.424 365.686 65.0713 372.253 65.94 378.769C65.2512 378.131 64.4082 377.684 63.4941 377.471C62.5801 377.259 61.6266 377.289 60.7275 377.558C57.6614 378.393 56.2816 380.867 55.7876 383.903C54.6965 385.033 54.0859 386.544 54.0842 388.116C51.8016 384.705 49.6382 381.293 47.543 377.694C50.7414 375.239 53.3928 372.143 55.3277 368.603C58.99 361.78 54.8507 355.793 49.519 357.243C45.1582 358.437 44.2043 362.872 44.4087 367.63C44.4768 369.435 44.6474 371.235 44.9197 373.02L42.6712 369.063C40.7974 365.652 39.2643 362.24 37.4246 358.829C36.9817 357.993 36.5899 357.123 36.2322 356.27C39.821 354.46 42.9942 351.922 45.55 348.816C50.4388 342.778 47.4919 336.143 41.9728 336.57C37.4757 336.928 35.6871 341.107 34.9376 345.814C34.6455 347.867 34.4635 349.934 34.3925 352.006L32.7913 348.305C29.3809 339.908 26.5744 331.278 24.3933 322.48C28.4554 321.039 32.145 318.708 35.1931 315.658C40.6611 310.114 38.3955 303.24 32.8594 303.104C28.3623 303.001 26.1649 306.976 24.9384 311.632C24.3373 314.104 23.8879 316.61 23.5927 319.137C22.4003 314.088 21.3783 308.971 20.5266 303.786C19.9474 300.613 19.5726 297.389 19.1808 294.183C23.547 293.316 27.6593 291.467 31.2071 288.776C37.3394 284 35.9937 276.836 30.5087 276.034C26.0627 275.335 23.3713 279.002 21.5656 283.42C20.5085 286.206 19.6211 289.054 18.9083 291.948C18.5676 288.23 18.1758 284.494 18.0055 280.759C17.4945 273.046 17.4945 265.308 18.0055 257.595C17.2279 265.302 16.9604 273.051 17.2049 280.793C17.2049 284.358 17.5115 287.906 17.7329 291.471C16.7598 289.047 15.6215 286.693 14.3261 284.426C12.0094 280.52 8.90915 277.603 4.61651 279.309C-0.681165 281.492 -1.14109 288.827 5.50229 292.034C9.39874 293.826 13.6729 294.64 17.9544 294.404C18.261 297.594 18.5335 300.767 19.0105 303.922C19.6748 309.039 20.5266 313.952 21.5316 318.915C20.4415 317.014 19.2295 315.185 17.9033 313.44C15.0926 309.875 11.6517 307.351 7.68268 309.654C2.7257 312.502 3.20266 319.888 10.2038 322.156C14.1654 323.389 18.3613 323.669 22.4514 322.975C24.3949 331.869 26.9505 340.617 30.0998 349.158L31.1049 351.716C30.2036 350.521 29.2309 349.382 28.192 348.305C25.0406 345.03 21.3783 342.864 17.5796 345.576C12.9293 348.987 14.1728 356.151 21.3272 357.754C25.2756 358.555 29.3548 358.438 33.2512 357.413C33.6089 358.283 33.9666 359.119 34.3925 360.006C36.0959 363.52 37.612 367.119 39.4006 370.564L40.8826 373.549C39.9968 372.782 39.0769 372.048 38.123 371.366C34.4095 368.756 30.3894 367.323 27.187 370.684C23.235 374.829 25.7902 381.72 33.149 381.941C36.9801 382.031 40.7837 381.274 44.2894 379.724C46.4017 383.545 48.565 387.314 50.9158 391.016C51.7845 392.431 52.6192 393.83 53.6072 395.229C52.2708 394.005 50.86 392.866 49.3827 391.817C45.6692 389.208 41.6491 387.775 38.4296 391.135C34.4947 395.28 37.0498 402.171 44.4087 402.393C48.6146 402.443 52.7721 401.49 56.5371 399.612C57.7636 401.318 59.0241 403.024 60.3187 404.73C57.5762 407.919 58.479 413.258 64.0492 415.697C66.7546 416.826 69.638 417.467 72.5664 417.591C72.9071 417.863 73.2478 418.136 73.6225 418.392L73.7929 418.529C77.3133 431.697 81.4867 444.671 86.3131 457.453C88.3572 462.894 90.5546 468.284 92.8202 473.64H72.379V554.354H134.844V473.572H101.593C98.7481 467.346 96.0056 461.052 93.4504 454.69C89.277 444.251 85.4954 433.641 82.2078 422.878C82.7672 423.043 83.3361 423.174 83.9112 423.271C84.6678 423.424 85.4437 423.459 86.2109 423.373L85.3251 417.761H84.7289C84.3736 417.711 84.0211 417.643 83.6728 417.556C82.8858 417.331 82.1171 417.046 81.3731 416.704L80.4873 416.294C83.7749 415.147 86.8279 413.413 89.4985 411.177C95.4094 406.06 93.74 399.067 88.2209 398.47C83.7579 397.975 81.2368 401.762 79.7038 406.248C79.2438 407.527 78.8691 408.857 78.5454 410.154C78.2218 408.96 77.8981 407.766 77.5915 406.572C76.6887 403.041 75.8881 399.476 75.0704 395.911C78.6382 394.797 81.9539 392.995 84.8311 390.606C90.742 385.489 89.0556 378.513 83.5535 377.916C79.0735 377.421 76.5695 381.208 75.0364 385.694C74.5764 386.99 74.1846 388.338 73.8439 389.668C73.3329 387.076 72.8389 384.466 72.379 381.856C72.0554 379.929 71.7487 377.984 71.4591 376.04C71.3569 373.276 71.3058 370.513 71.3399 367.733C71.3399 366.215 71.3399 364.697 71.4762 363.179C74.8159 364.235 78.3186 364.68 81.816 364.492C89.5837 363.98 92.4454 357.328 88.3913 353.558C85.0866 350.471 80.811 352.006 76.842 354.633C75.0621 355.844 73.3557 357.16 71.7317 358.573C72.21 352.081 73.1954 345.637 74.6786 339.299C75.5479 335.565 76.6343 331.886 77.9322 328.28C81.4939 329.509 85.2597 330.036 89.0215 329.832C96.7892 329.337 99.6509 322.685 95.5968 318.898C92.3092 315.828 88.0165 317.346 84.0475 319.99C82.662 320.943 81.3313 321.974 80.0615 323.077C81.5593 319.549 83.3011 316.129 85.274 312.843C89.1866 306.213 94.0929 300.225 99.8213 295.087C102.79 297.829 106.301 299.915 110.127 301.21C117.52 303.632 122.647 298.515 120.348 293.5C118.423 289.424 113.892 289.236 109.224 290.208C107.426 290.593 105.651 291.083 103.91 291.675L104.029 291.573C110.385 286.607 117.235 282.308 124.47 278.746C127.023 282.093 130.264 284.85 133.975 286.831C140.891 290.396 146.768 286.166 145.235 280.844C143.991 276.512 139.545 275.608 134.793 275.727C132.926 275.829 131.066 276.034 129.223 276.341C136.905 272.708 144.741 269.279 152.304 265.271H152.474C155.86 268.198 159.878 270.3 164.211 271.412C171.757 273.288 176.493 267.795 173.767 262.883C171.553 258.96 166.954 259.13 162.439 260.427C161.162 260.802 159.884 261.263 158.641 261.74C163.692 258.801 168.587 255.601 173.307 252.154L173.699 252.581V252.359C177.119 255.312 181.169 257.442 185.538 258.585C193.067 260.444 197.82 254.969 195.094 250.056C192.948 246.355 188.417 246.508 183.835 247.822ZM64.7306 402.376C63.1805 400.568 61.7155 398.674 60.2846 396.764C60.6253 396.457 61.0001 396.116 61.3748 395.74C63.5034 396.405 65.7066 396.8 67.933 396.917V397.276L68.9721 397.054C69.5172 399.749 70.0794 402.427 70.6756 405.105C69.9833 404.197 69.0793 403.474 68.0428 402.998C67.0062 402.522 65.8689 402.309 64.7306 402.376ZM70.2838 338.156C69.7557 340.169 69.3128 342.181 68.887 344.211L68.6315 343.853C68.6315 339.691 68.6939 335.54 68.8188 331.401C68.9381 328.502 69.1425 325.619 69.398 322.719C70.7995 324.149 72.3403 325.434 73.9973 326.557C72.5555 330.353 71.3215 334.225 70.3008 338.156H70.2838ZM77.2679 319.052C77.3701 318.301 77.4552 317.534 77.4893 316.783V315.641C78.1025 315.453 78.7328 315.231 79.346 314.975C78.6647 316.323 77.9492 317.687 77.2849 319.052H77.2679ZM86.1427 304.639C85.8484 303.964 85.4204 303.356 84.8845 302.852C84.3487 302.347 83.7163 301.957 83.0254 301.705C78.818 299.999 75.4111 303.069 72.7027 306.993L72.5664 307.18H72.2938C72.0082 307.116 71.7175 307.076 71.4251 307.061C71.4049 306.821 71.4459 306.581 71.5443 306.361C72.6228 300.2 74.0792 294.11 75.9051 288.127C79.8155 288.624 83.7861 288.317 87.5736 287.223C89.9137 286.608 91.9489 285.158 93.2971 283.147C94.0469 286.586 95.4776 289.84 97.5046 292.716C93.3139 296.285 89.5113 300.287 86.1598 304.656L86.1427 304.639Z" fill="white"/>
<path d="M603.848 479.934C603.848 479.934 595.604 461.496 593.628 459.602C591.652 457.709 575.861 451.978 571.483 437.428C567.105 422.879 558.793 384.04 579.745 386.581C600.697 389.123 595.604 429.804 603.218 428.524C610.832 427.245 596.881 362.445 610.202 353.473C623.523 344.501 645.105 352.842 642.567 387.161C640.029 421.48 634.953 441.164 639.399 439.27C643.845 437.377 656.536 430.367 656.536 444.985C656.536 459.602 644.475 469.768 637.491 470.4C630.507 471.031 627.271 471.679 627.271 471.679V481.197L603.848 479.934Z" fill="#212121" stroke="#212121" stroke-linecap="round" stroke-linejoin="round"/>
<path d="M597.137 444.199C592.35 439.662 587.955 435.261 585.928 431.219C581.908 423.151 578.876 400.516 578.876 400.516" stroke="white" stroke-width="0.5" stroke-linecap="round" stroke-linejoin="round"/>
<path d="M571.74 411.569C574.909 424.789 575.351 434.75 584.925 446.349C590.035 452.626 603.56 457.947 605.076 463.491C606.433 470.161 607.45 476.896 608.126 483.669L615.689 484.181C615.689 484.181 617.222 471.047 612.895 461.683" stroke="white" stroke-width="0.5" stroke-linecap="round" stroke-linejoin="round"/>
<path d="M573.852 390.368C573.852 390.368 568.196 394.717 570.206 405.429" stroke="white" stroke-width="0.5" stroke-linecap="round" stroke-linejoin="round"/>
<path d="M610.084 429.377L607.086 434.238" stroke="white" stroke-width="0.5" stroke-linecap="round" stroke-linejoin="round"/>
<path d="M611.123 427.688L610.084 429.377" stroke="white" stroke-width="0.5" stroke-linecap="round" stroke-linejoin="round"/>
<path d="M621.19 355.059C621.19 355.059 609.606 354.564 609.606 365.651C609.606 375.016 612.468 406.981 611.855 421.599" stroke="white" stroke-width="0.5" stroke-linecap="round" stroke-linejoin="round"/>
<path d="M630.269 445.888C629.997 449.692 629.827 452.387 629.827 453.41C629.827 458.954 643.914 437.769 650.472 437.274C650.472 437.274 657.013 436.762 654.492 448.873C653.575 453.369 651.45 457.528 648.346 460.904C645.243 464.279 641.278 466.742 636.879 468.028C631.326 469.546 626.794 467.022 625.789 469.546C624.987 472.514 624.479 475.553 624.273 478.62" stroke="white" stroke-width="0.5" stroke-linecap="round" stroke-linejoin="round"/>
<path d="M633.558 365.583C634.434 369.241 634.846 372.995 634.785 376.756C634.785 388.559 632.536 416.397 631.037 435.193" stroke="white" stroke-width="0.5" stroke-linecap="round" stroke-linejoin="round"/>
<path d="M627.732 356.083C629.245 356.951 630.471 358.243 631.258 359.801" stroke="white" stroke-width="0.5" stroke-linecap="round" stroke-linejoin="round"/>
<path d="M619.538 442.818L619.181 449.88" stroke="white" stroke-width="0.5" stroke-linecap="round" stroke-linejoin="round"/>
<path d="M622.196 362.121C622.196 362.121 619.181 363.127 620.186 373.72C621.02 382.47 620.186 422.196 619.794 435.756" stroke="white" stroke-width="0.5" stroke-linecap="round" stroke-linejoin="round"/>
<path d="M653.931 440.293C649.611 448.388 642.691 454.788 634.29 458.459C620.663 464.003 620.186 461.478 620.186 466.988C620.186 472.497 619.675 482.629 619.675 482.629" stroke="white" stroke-width="0.5" stroke-linecap="round" stroke-linejoin="round"/>
<path d="M635.039 554.303H591.023L581.603 490.458H644.459L635.039 554.303Z" fill="#BEEBC3" stroke="#212121" stroke-linecap="round" stroke-linejoin="round"/>
<path d="M649.859 480.395H576.203V497.486H649.859V480.395Z" fill="#BEEBC3" stroke="#212121" stroke-linecap="round" stroke-linejoin="round"/>
<path d="M393.358 511.32V476.66H291.425V511.32C291.408 522.61 287.591 533.565 280.591 542.415L276.128 548.044H408.655L404.192 542.415C397.191 533.565 393.375 522.61 393.358 511.32Z" fill="white" stroke="#212121" stroke-linecap="round" stroke-linejoin="round"/>
<path d="M285.156 535.592H399.627C395.517 528.164 393.36 519.812 393.358 511.32V476.66H291.425V511.32C291.423 519.812 289.266 528.164 285.156 535.592Z" fill="#BEEBC3"/>
<path d="M532.783 179.901H151.981C144.003 179.901 137.536 186.377 137.536 194.366V473.129C137.536 481.118 144.003 487.594 151.981 487.594H532.783C540.761 487.594 547.228 481.118 547.228 473.129V194.366C547.228 186.377 540.761 179.901 532.783 179.901Z" fill="#212121" stroke="#212121" stroke-linecap="round" stroke-linejoin="round"/>
<path d="M137.536 439.766H547.245V473.112C547.245 476.948 545.724 480.627 543.015 483.34C540.306 486.053 536.631 487.577 532.8 487.577H151.998C148.167 487.577 144.493 486.053 141.784 483.34C139.075 480.627 137.553 476.948 137.553 473.112V439.766H137.536Z" fill="white" stroke="#212121" stroke-linecap="round" stroke-linejoin="round"/>
<path d="M526.634 199.057H158.147V416.432H526.634V199.057Z" fill="white" stroke="#212121" stroke-linecap="round" stroke-linejoin="round"/>
<path d="M349.955 463.68C349.955 462.182 349.511 460.718 348.68 459.472C347.849 458.227 346.668 457.256 345.286 456.683C343.904 456.11 342.383 455.96 340.916 456.252C339.449 456.544 338.101 457.265 337.043 458.325C335.986 459.384 335.265 460.733 334.973 462.202C334.682 463.671 334.831 465.194 335.404 466.578C335.976 467.962 336.946 469.145 338.189 469.977C339.433 470.809 340.896 471.253 342.391 471.253C344.397 471.253 346.321 470.455 347.739 469.035C349.158 467.615 349.955 465.688 349.955 463.68Z" fill="#212121" stroke="#212121" stroke-linecap="round" stroke-linejoin="round"/>
<path d="M408.672 548.112H276.128V554.304H408.672V548.112Z" fill="white" stroke="#212121" stroke-linecap="round" stroke-linejoin="round"/>
<path d="M523.176 214.374H161.044V233.426H523.176V214.374Z" fill="white" stroke="#212121" stroke-linecap="round" stroke-linejoin="round"/>
<path d="M220.8 233.427L216.457 221.657H161.044V233.427V249.034V407.17H523.176V233.427H220.8Z" fill="#BEEBC3" stroke="#212121" stroke-linecap="round" stroke-linejoin="round"/>
<path d="M258.513 319.582H428.311" stroke="#212121" stroke-width="2" stroke-linecap="round" stroke-linejoin="round"/>
<path d="M258.513 336.297H428.311" stroke="#212121" stroke-width="2" stroke-linecap="round" stroke-linejoin="round"/>
<path d="M258.513 353.013H428.311" stroke="#212121" stroke-width="2" stroke-linecap="round" stroke-linejoin="round"/>
<path d="M258.513 369.746H428.311" stroke="#212121" stroke-width="2" stroke-linecap="round" stroke-linejoin="round"/>
<path d="M419.335 275.012H265.464C263.88 275.014 262.312 274.704 260.847 274.099C259.383 273.494 258.053 272.606 256.931 271.487C255.81 270.367 254.919 269.037 254.311 267.572C253.703 266.108 253.389 264.538 253.387 262.952C253.384 261.366 253.694 259.796 254.298 258.33C254.902 256.864 255.789 255.531 256.907 254.408C258.025 253.285 259.354 252.394 260.816 251.785C262.278 251.176 263.846 250.861 265.43 250.859H419.335C420.922 250.857 422.493 251.168 423.96 251.775C425.426 252.382 426.758 253.273 427.88 254.396C429.002 255.519 429.891 256.853 430.498 258.322C431.104 259.79 431.415 261.364 431.412 262.952C431.41 264.538 431.096 266.108 430.488 267.572C429.88 269.037 428.989 270.367 427.868 271.487C426.746 272.606 425.416 273.494 423.952 274.099C422.488 274.704 420.919 275.014 419.335 275.012Z" fill="white" stroke="#212121" stroke-linecap="round" stroke-linejoin="round"/>
<path d="M419.335 275.011H398.314V250.824H419.335C420.921 250.822 422.493 251.133 423.959 251.74C425.426 252.347 426.758 253.238 427.88 254.361C429.002 255.485 429.891 256.819 430.497 258.287C431.104 259.755 431.414 261.329 431.412 262.918C431.414 264.506 431.104 266.08 430.497 267.548C429.891 269.017 429.002 270.351 427.88 271.474C426.758 272.597 425.426 273.488 423.959 274.095C422.493 274.702 420.921 275.013 419.335 275.011Z" fill="#212121" stroke="#212121" stroke-linecap="round" stroke-linejoin="round"/>
<path d="M414.65 253.895C413.649 252.956 412.392 252.336 411.039 252.112C409.686 251.888 408.297 252.071 407.048 252.638C405.799 253.205 404.745 254.13 404.021 255.296C403.297 256.463 402.935 257.818 402.98 259.191C403.026 260.563 403.476 261.891 404.276 263.007C405.075 264.123 406.187 264.977 407.471 265.46C408.755 265.943 410.153 266.034 411.488 265.721C412.824 265.408 414.037 264.706 414.973 263.703C415.597 263.041 416.085 262.262 416.407 261.411C416.73 260.56 416.881 259.654 416.853 258.744C416.824 257.834 416.616 256.939 416.241 256.11C415.866 255.28 415.331 254.534 414.667 253.912L414.65 253.895ZM413.968 262.765C413.216 263.564 412.244 264.123 411.175 264.37C410.106 264.617 408.988 264.542 407.962 264.153C406.936 263.764 406.048 263.08 405.409 262.187C404.771 261.293 404.412 260.23 404.376 259.132C404.34 258.034 404.63 256.95 405.209 256.017C405.788 255.084 406.63 254.344 407.629 253.889C408.628 253.435 409.739 253.287 410.821 253.464C411.904 253.641 412.91 254.135 413.713 254.884C414.79 255.896 415.422 257.294 415.469 258.772C415.517 260.249 414.977 261.686 413.968 262.765Z" fill="white"/>
<path d="M419.863 266.227C419.711 266.079 419.519 265.977 419.311 265.935C419.102 265.892 418.886 265.911 418.688 265.988L416.184 263.634C416.056 263.509 415.885 263.439 415.707 263.439C415.528 263.439 415.357 263.509 415.23 263.634L415.008 263.873C414.886 264.006 414.818 264.179 414.818 264.359C414.818 264.54 414.886 264.713 415.008 264.846L417.478 267.165C417.405 267.376 417.394 267.604 417.445 267.821C417.496 268.039 417.608 268.237 417.768 268.393L422.026 272.572C422.307 272.852 422.687 273.008 423.083 273.008C423.478 273.008 423.858 272.852 424.139 272.572C424.417 272.291 424.574 271.911 424.574 271.515C424.574 271.119 424.417 270.738 424.139 270.457L419.863 266.227Z" fill="white"/>
<path d="M463.846 347.964C464.343 349.199 465.084 350.322 466.023 351.266C466.962 352.209 468.081 352.954 469.314 353.456C471.239 354.241 473.811 354.07 476.775 355.742C483.469 359.511 500.18 356.151 512.291 357.447C524.403 358.744 540.722 345.32 540.722 345.32L588.775 347.964V300.204C588.775 300.204 538.626 302.302 527.759 298.106C516.891 293.91 504.779 285.143 499.345 285.552C493.911 285.961 449.196 290.993 449.196 290.993L463.829 347.964H463.846Z" fill="white" stroke="#212121" stroke-linecap="round" stroke-linejoin="round"/>
<path d="M451.41 155.389C441.488 156.489 432.114 160.51 424.475 166.945C416.835 173.379 411.273 181.937 408.49 191.537C405.708 201.136 405.831 211.347 408.844 220.876C411.857 230.406 417.624 238.827 425.417 245.075C433.209 251.323 442.677 255.116 452.622 255.976C462.568 256.835 472.545 254.722 481.291 249.904C490.038 245.086 497.161 237.779 501.76 228.907C506.359 220.035 508.227 209.997 507.129 200.062C506.404 193.463 504.387 187.073 501.194 181.256C498 175.438 493.693 170.308 488.518 166.159C483.343 162.01 477.402 158.924 471.035 157.076C464.667 155.228 457.999 154.655 451.41 155.389ZM461.426 245.928C453.467 246.814 445.424 245.316 438.315 241.624C431.206 237.933 425.35 232.213 421.487 225.189C417.624 218.164 415.928 210.151 416.613 202.161C417.299 194.172 420.335 186.565 425.337 180.304C430.34 174.042 437.085 169.406 444.719 166.983C452.352 164.559 460.532 164.457 468.224 166.689C475.916 168.921 482.774 173.386 487.932 179.521C493.089 185.655 496.314 193.184 497.198 201.154C497.785 206.445 497.326 211.801 495.846 216.916C494.366 222.03 491.895 226.802 488.573 230.96C485.251 235.117 481.144 238.579 476.486 241.148C471.828 243.716 466.711 245.34 461.426 245.928Z" fill="white" stroke="#212121" stroke-linecap="round" stroke-linejoin="round"/>
<path d="M451.137 152.507C441.215 153.607 431.842 157.628 424.202 164.062C416.563 170.496 411 179.054 408.218 188.654C405.436 198.254 405.559 208.464 408.571 217.994C411.584 227.524 417.352 235.945 425.144 242.192C432.937 248.44 442.404 252.233 452.35 253.093C462.296 253.953 472.272 251.84 481.019 247.022C489.765 242.203 496.888 234.896 501.487 226.025C506.087 217.153 507.955 207.115 506.857 197.179C505.379 183.859 498.681 171.67 488.232 163.293C477.784 154.917 464.441 151.037 451.137 152.507ZM461.154 243.046C453.194 243.931 445.152 242.433 438.042 238.742C430.933 235.05 425.077 229.331 421.214 222.306C417.351 215.282 415.655 207.268 416.341 199.279C417.026 191.289 420.062 183.683 425.065 177.421C430.068 171.159 436.812 166.524 444.446 164.1C452.08 161.677 460.26 161.574 467.952 163.806C475.644 166.038 482.502 170.504 487.659 176.638C492.816 182.773 496.041 190.301 496.926 198.271C497.513 203.563 497.054 208.919 495.574 214.033C494.094 219.147 491.622 223.919 488.301 228.077C484.979 232.235 480.872 235.697 476.214 238.265C471.556 240.833 466.438 242.458 461.154 243.046Z" fill="white" stroke="#212121" stroke-linecap="round" stroke-linejoin="round"/>
<path d="M463.905 253.912L461.518 254.177C458.825 254.475 456.883 256.903 457.182 259.6L461.056 294.626C461.354 297.322 463.779 299.266 466.472 298.967L468.859 298.703C471.552 298.404 473.493 295.976 473.195 293.279L469.321 258.254C469.023 255.557 466.598 253.613 463.905 253.912Z" fill="#BEEBC3" stroke="#212121" stroke-linecap="round" stroke-linejoin="round"/>
<path d="M463.129 283.147L468.239 282.601C470.437 282.366 472.639 283.008 474.367 284.387C476.096 285.766 477.211 287.772 477.472 289.97L485.121 359.239C485.431 362.071 484.606 364.91 482.827 367.133C481.048 369.356 478.46 370.78 475.632 371.093H475.292C473.891 371.25 472.473 371.128 471.12 370.735C469.766 370.342 468.503 369.685 467.404 368.803C466.304 367.92 465.389 366.829 464.711 365.592C464.033 364.355 463.605 362.996 463.453 361.593L455.804 292.341C455.681 291.244 455.775 290.134 456.081 289.074C456.387 288.014 456.899 287.024 457.587 286.163C458.276 285.301 459.127 284.583 460.092 284.051C461.058 283.519 462.119 283.183 463.214 283.062L463.129 283.147Z" fill="#212121" stroke="#212121" stroke-linecap="round" stroke-linejoin="round"/>
<path d="M470.557 340.869C470.557 340.869 458.445 341.312 456.742 343.41C455.038 345.508 455.345 352.809 458.633 353.644C467.014 355.845 484.831 354.565 485.53 353.064C486.228 351.563 487.659 342.83 483.98 341.892C479.538 341.21 475.051 340.868 470.557 340.869Z" fill="white" stroke="#212121" stroke-linecap="round" stroke-linejoin="round"/>
<path d="M467.064 323.948C467.064 323.948 452.977 323.419 450.779 325.96C448.582 328.502 448.156 338.003 451.869 339.435C461.34 343.068 482.65 341.653 483.621 339.776C484.592 337.9 486.704 328.161 482.531 326.591C478.358 325.022 467.064 323.948 467.064 323.948Z" fill="white" stroke="#212121" stroke-linecap="round" stroke-linejoin="round"/>
<path d="M465.037 304.844C465.037 304.844 449.979 304.264 447.628 306.993C445.277 309.722 444.817 319.854 448.786 321.389C459.007 325.278 481.152 325.278 482.191 323.265C483.23 321.252 486.023 309.347 481.56 307.658C477.097 305.969 465.037 304.844 465.037 304.844Z" fill="white" stroke="#212121" stroke-linecap="round" stroke-linejoin="round"/>
<path d="M456.349 286.968C456.349 286.968 441.29 286.405 438.94 289.118C436.589 291.83 436.027 302.286 440.098 303.514C444.169 304.742 472.463 307.403 473.502 305.407C474.541 303.411 477.335 291.471 472.872 289.783C468.409 288.094 456.349 286.968 456.349 286.968Z" fill="white" stroke="#212121" stroke-linecap="round" stroke-linejoin="round"/>
<path d="M505.663 337.133C502.96 336.389 500.399 335.201 498.083 333.619C485.971 325.244 486.38 306.004 486.38 306.004L483.467 305.168C481.061 304.251 478.805 302.981 476.773 301.399C477.748 305.373 478.319 309.436 478.476 313.526C478.433 315.774 477.556 317.925 476.016 319.561C474.477 321.197 472.385 322.201 470.147 322.379C466.382 322.805 464.713 323.214 463.452 318.2C462.192 313.185 455.94 293.092 455.514 290.158C455.139 287.497 459.602 282.755 466.706 281.629C477.625 282.516 488.39 285.57 499.395 285.57C503.223 285.929 506.893 287.282 510.041 289.493" fill="white"/>
<path d="M505.663 337.133C502.96 336.389 500.399 335.201 498.083 333.619C485.971 325.244 486.38 306.004 486.38 306.004L483.467 305.168C481.061 304.251 478.805 302.981 476.773 301.399C477.748 305.373 478.319 309.436 478.476 313.526C478.433 315.774 477.556 317.925 476.016 319.561C474.477 321.197 472.385 322.201 470.147 322.379C466.382 322.805 464.713 323.214 463.452 318.2C462.192 313.185 455.94 293.092 455.514 290.158C455.139 287.497 459.602 282.755 466.706 281.629C477.625 282.516 488.39 285.57 499.395 285.57C503.223 285.929 506.893 287.282 510.041 289.493" stroke="#212121" stroke-linecap="round" stroke-linejoin="round"/>
<path d="M517.179 338.19C515.852 338.259 514.521 338.259 513.193 338.19H517.179Z" fill="white"/>
<path d="M517.179 338.19C515.852 338.259 514.521 338.259 513.193 338.19" stroke="#212121" stroke-linecap="round" stroke-linejoin="round"/>
<path d="M526.087 336.536C523.194 337.453 520.204 338.025 517.178 338.242L526.087 336.536Z" fill="white"/>
<path d="M526.087 336.536C523.194 337.453 520.204 338.025 517.178 338.242" stroke="#212121" stroke-linecap="round" stroke-linejoin="round"/>
<path d="M541.129 331.112H556.17" stroke="#212121" stroke-linecap="round" stroke-linejoin="round"/>
<path d="M542.391 335.291H548.659" stroke="#212121" stroke-linecap="round" stroke-linejoin="round"/>
<path d="M486.38 306.004C486.38 306.004 494.693 306.004 500.144 301.04" stroke="#212121" stroke-linecap="round" stroke-linejoin="round"/>
<path d="M476.586 300.852C476.346 298.581 475.872 296.34 475.172 294.166" stroke="#212121" stroke-linecap="round" stroke-linejoin="round"/>
<path d="M463.333 315.999C463.333 315.999 461.749 311.599 463.673 310.012C465.598 308.426 470.709 306.14 471.594 307.897C472.48 309.654 474.405 317.756 473.877 319.343L473.349 320.929" stroke="#212121" stroke-width="0.5" stroke-linecap="round" stroke-linejoin="round"/>
<path d="M694.234 369.371H550.209V298.481H694.234" fill="#BEEBC3"/>
<path d="M694.234 369.371H550.209V298.481H694.234" stroke="#212121" stroke-linecap="round" stroke-linejoin="round"/>
<path d="M560.77 364.629C562.557 364.629 564.006 363.178 564.006 361.388C564.006 359.598 562.557 358.147 560.77 358.147C558.982 358.147 557.533 359.598 557.533 361.388C557.533 363.178 558.982 364.629 560.77 364.629Z" fill="white" stroke="#212121" stroke-linecap="round" stroke-linejoin="round"/>
<path d="M331.879 230.97C333.113 230.471 334.234 229.73 335.176 228.789C336.119 227.849 336.862 226.728 337.364 225.494C338.147 223.567 337.96 221.008 339.646 218.023C343.394 211.337 340.055 194.604 341.35 182.459C342.644 170.315 329.221 154.008 329.221 154.008L331.828 105.89H284.132C284.132 105.89 286.21 156.106 282.036 166.971C277.863 177.837 269.09 189.998 269.499 195.44C269.908 200.881 274.967 245.622 274.967 245.622L331.794 230.97H331.879Z" fill="white" stroke="#212121" stroke-linecap="round" stroke-linejoin="round"/>
<path d="M139.681 243.387C140.772 253.323 144.781 262.712 151.201 270.367C157.621 278.022 166.164 283.598 175.75 286.391C185.335 289.184 195.532 289.068 205.051 286.058C214.571 283.047 222.985 277.278 229.23 269.479C235.474 261.68 239.269 252.201 240.134 242.243C240.999 232.284 238.895 222.292 234.089 213.531C229.283 204.77 221.99 197.632 213.132 193.021C204.275 188.411 194.251 186.533 184.328 187.627H184.209C170.926 189.123 158.778 195.834 150.43 206.287C142.083 216.741 138.217 230.083 139.681 243.387ZM229.963 233.34C230.85 241.313 229.356 249.37 225.67 256.493C221.985 263.616 216.272 269.484 209.256 273.356C202.239 277.228 194.234 278.93 186.252 278.246C178.269 277.562 170.669 274.524 164.411 269.515C158.153 264.506 153.52 257.751 151.095 250.105C148.671 242.459 148.566 234.265 150.793 226.559C153.019 218.853 157.478 211.981 163.605 206.812C169.732 201.643 177.252 198.41 185.214 197.52C195.891 196.332 206.602 199.438 214.993 206.155C223.384 212.872 228.769 222.65 229.963 233.34Z" fill="white" stroke="#212121" stroke-linecap="round" stroke-linejoin="round"/>
<path d="M136.735 243.694C137.836 253.624 141.853 263.004 148.277 270.649C154.701 278.294 163.245 283.859 172.828 286.642C182.411 289.425 192.603 289.301 202.115 286.284C211.627 283.268 220.032 277.496 226.269 269.696C232.505 261.897 236.292 252.422 237.151 242.468C238.01 232.514 235.902 222.528 231.094 213.774C226.286 205.019 218.994 197.888 210.139 193.283C201.285 188.678 191.265 186.805 181.348 187.901C174.759 188.629 168.378 190.65 162.57 193.848C156.761 197.047 151.639 201.36 147.496 206.541C143.353 211.723 140.27 217.671 138.424 224.046C136.577 230.42 136.003 237.097 136.735 243.694ZM227.153 233.682C228.037 241.652 226.542 249.705 222.855 256.824C219.168 263.942 213.456 269.806 206.441 273.674C199.426 277.542 191.423 279.241 183.444 278.554C175.466 277.868 167.869 274.828 161.616 269.819C155.362 264.809 150.733 258.055 148.313 250.412C145.893 242.768 145.79 234.577 148.019 226.875C150.248 219.172 154.708 212.305 160.834 207.141C166.961 201.977 174.479 198.748 182.438 197.862C187.723 197.274 193.072 197.734 198.179 199.216C203.286 200.698 208.052 203.172 212.204 206.498C216.357 209.825 219.814 213.937 222.379 218.601C224.944 223.265 226.566 228.39 227.153 233.682Z" fill="white" stroke="#212121" stroke-linecap="round" stroke-linejoin="round"/>
<path d="M277.331 221.632L242.352 225.511C239.659 225.81 237.717 228.238 238.016 230.935L238.28 233.325C238.578 236.022 241.003 237.966 243.696 237.667L278.675 233.788C281.368 233.489 283.309 231.061 283.011 228.364L282.747 225.974C282.449 223.277 280.024 221.334 277.331 221.632Z" fill="#BEEBC3" stroke="#212121" stroke-linecap="round" stroke-linejoin="round"/>
<path d="M267.2 231.703L266.637 226.586C266.394 224.369 267.039 222.146 268.432 220.406C269.825 218.666 271.851 217.551 274.064 217.307L343.224 209.648C344.63 209.484 346.055 209.601 347.417 209.99C348.778 210.379 350.05 211.034 351.158 211.917C352.266 212.8 353.189 213.893 353.873 215.134C354.558 216.375 354.991 217.74 355.148 219.149V219.49C355.311 220.898 355.195 222.325 354.806 223.689C354.418 225.052 353.763 226.325 352.882 227.435C352 228.544 350.908 229.468 349.669 230.154C348.429 230.84 347.067 231.273 345.66 231.43L276.5 239.089C274.29 239.338 272.071 238.702 270.328 237.318C268.585 235.934 267.46 233.915 267.2 231.703Z" fill="#212121" stroke="#212121" stroke-linecap="round" stroke-linejoin="round"/>
<path d="M324.827 224.266C324.827 224.266 325.287 236.376 327.365 238.082C329.443 239.788 336.768 239.481 337.586 236.189C339.8 227.814 338.506 209.955 337.007 209.273C335.508 208.59 326.786 207.124 325.866 210.825C325.18 215.272 324.832 219.766 324.827 224.266Z" fill="white" stroke="#212121" stroke-linecap="round" stroke-linejoin="round"/>
<path d="M307.946 227.746C307.946 227.746 307.401 241.852 309.939 244.052C312.477 246.253 321.965 246.696 323.396 242.961C327.041 233.477 325.61 212.139 323.737 211.184C321.863 210.228 312.136 208.096 310.569 212.275C309.002 216.454 307.946 227.746 307.946 227.746Z" fill="white" stroke="#212121" stroke-linecap="round" stroke-linejoin="round"/>
<path d="M288.867 229.81C288.867 229.81 288.288 244.888 290.997 247.242C293.705 249.596 303.858 250.056 305.391 246.065C309.275 235.933 309.275 213.657 307.264 212.633C305.254 211.61 293.347 208.795 291.678 213.264C290.009 217.733 288.867 229.81 288.867 229.81Z" fill="white" stroke="#212121" stroke-linecap="round" stroke-linejoin="round"/>
<path d="M271.015 238.492C271.015 238.492 270.436 253.57 273.162 255.924C275.887 258.278 286.312 258.841 287.539 254.747C288.765 250.654 291.422 222.339 289.412 221.298C287.402 220.258 275.512 217.478 273.826 221.947C272.14 226.416 271.015 238.492 271.015 238.492Z" fill="white" stroke="#212121" stroke-linecap="round" stroke-linejoin="round"/>
<path d="M322.152 177.53C322.846 184.249 321.236 191.004 317.587 196.685C309.24 208.83 290.008 208.404 290.008 208.404L289.174 211.337C288.265 213.744 286.995 215.999 285.409 218.024C289.384 217.047 293.448 216.475 297.538 216.318C299.774 216.383 301.908 217.275 303.528 218.821C305.148 220.367 306.139 222.459 306.31 224.693C306.736 228.463 307.145 230.134 302.137 231.379C297.129 232.625 277.062 238.919 274.132 239.345C271.475 239.72 266.739 235.251 265.615 228.139C266.518 217.205 269.567 206.408 269.567 195.406C269.924 191.566 271.274 187.886 273.485 184.728" fill="white"/>
<path d="M322.152 177.53C322.846 184.249 321.236 191.004 317.587 196.685C309.24 208.83 290.008 208.404 290.008 208.404L289.174 211.337C288.265 213.744 286.995 215.999 285.409 218.024C289.384 217.047 293.448 216.475 297.538 216.318C299.774 216.383 301.908 217.275 303.528 218.821C305.148 220.367 306.139 222.459 306.31 224.693C306.736 228.463 307.145 230.134 302.137 231.379C297.129 232.625 277.062 238.919 274.132 239.345C271.475 239.72 266.739 235.251 265.615 228.139C266.518 217.205 269.567 206.408 269.567 195.406C269.924 191.566 271.274 187.886 273.485 184.728" stroke="#212121" stroke-linecap="round" stroke-linejoin="round"/>
<path d="M320.518 168.661C321.022 170.256 321.409 171.887 321.676 173.539L320.518 168.661Z" fill="white"/>
<path d="M320.518 168.661C321.022 170.256 321.409 171.887 321.676 173.539" stroke="#212121" stroke-linecap="round" stroke-linejoin="round"/>
<path d="M315.084 153.582V138.521" stroke="#212121" stroke-linecap="round" stroke-linejoin="round"/>
<path d="M319.257 152.337V146.06" stroke="#212121" stroke-linecap="round" stroke-linejoin="round"/>
<path d="M290.01 208.403C290.01 208.403 290.01 200.079 285.053 194.621" stroke="#212121" stroke-linecap="round" stroke-linejoin="round"/>
<path d="M284.882 218.228C282.613 218.462 280.376 218.93 278.204 219.626" stroke="#212121" stroke-linecap="round" stroke-linejoin="round"/>
<path d="M300.008 231.43C300.008 231.43 295.613 233.017 294.029 231.072C292.444 229.128 290.162 224.027 291.916 223.158C293.671 222.288 301.762 220.343 303.346 220.872L304.931 221.384" stroke="#212121" stroke-width="0.5" stroke-linecap="round" stroke-linejoin="round"/>
<path d="M353.309 0.272949V144.49H282.497V0.272949" fill="#BEEBC3"/>
<path d="M353.309 0.272949V144.49H282.497V0.272949" stroke="#212121" stroke-linecap="round" stroke-linejoin="round"/>
<path d="M345.319 137.156C347.106 137.156 348.555 135.705 348.555 133.915C348.555 132.125 347.106 130.674 345.319 130.674C343.531 130.674 342.082 132.125 342.082 133.915C342.082 135.705 343.531 137.156 345.319 137.156Z" fill="white" stroke="#212121" stroke-linecap="round" stroke-linejoin="round"/>
<path d="M260.624 487.832C260.129 489.069 259.389 490.193 258.45 491.137C257.51 492.08 256.39 492.824 255.156 493.324C253.231 494.126 250.676 493.938 247.695 495.61C241.017 499.379 224.307 496.036 212.178 497.315C200.05 498.595 183.765 485.188 183.765 485.188L135.66 487.832V440.072C135.66 440.072 185.809 442.17 196.677 437.991C207.545 433.812 219.656 425.01 225.09 425.437C230.524 425.863 275.239 430.878 275.239 430.878L260.624 487.832Z" fill="white" stroke="#212121" stroke-linecap="round" stroke-linejoin="round"/>
<path d="M272.974 295.36C282.896 296.46 292.269 300.481 299.909 306.915C307.549 313.349 313.111 321.907 315.894 331.507C318.676 341.107 318.553 351.317 315.54 360.847C312.527 370.377 306.76 378.798 298.967 385.045C291.175 391.293 281.707 395.086 271.761 395.946C261.816 396.806 251.839 394.693 243.093 389.875C234.346 385.056 227.223 377.749 222.624 368.878C218.025 360.006 216.156 349.968 217.255 340.032C218.728 326.714 225.424 314.527 235.87 306.153C246.316 297.778 259.657 293.902 272.957 295.377L272.974 295.36ZM262.958 385.899C270.92 386.787 278.966 385.291 286.08 381.601C293.193 377.91 299.053 372.19 302.92 365.164C306.787 358.139 308.487 350.122 307.804 342.129C307.121 334.136 304.087 326.526 299.084 320.26C294.082 313.993 287.336 309.353 279.7 306.926C272.064 304.499 263.881 304.393 256.185 306.623C248.49 308.853 241.627 313.317 236.465 319.452C231.303 325.587 228.074 333.117 227.186 341.09C225.999 351.781 229.101 362.507 235.809 370.909C242.516 379.311 252.282 384.703 262.958 385.899Z" fill="white" stroke="#212121" stroke-linecap="round" stroke-linejoin="round"/>
<path d="M273.281 292.477C283.199 293.58 292.567 297.603 300.201 304.037C307.836 310.471 313.393 319.027 316.172 328.624C318.95 338.22 318.825 348.426 315.811 357.951C312.797 367.476 307.03 375.893 299.24 382.136C291.449 388.38 281.985 392.17 272.043 393.028C262.102 393.886 252.13 391.773 243.387 386.956C234.645 382.139 227.525 374.834 222.929 365.966C218.332 357.098 216.464 347.064 217.562 337.133C218.291 330.537 220.311 324.149 223.506 318.335C226.701 312.521 231.009 307.394 236.183 303.247C241.358 299.1 247.297 296.014 253.662 294.167C260.028 292.319 266.694 291.745 273.281 292.477ZM263.265 383.016C271.227 383.904 279.274 382.409 286.387 378.718C293.5 375.027 299.361 369.308 303.228 362.282C307.095 355.256 308.794 347.24 308.111 339.247C307.429 331.254 304.394 323.643 299.392 317.377C294.389 311.111 287.644 306.471 280.008 304.044C272.372 301.616 264.189 301.511 256.493 303.74C248.797 305.97 241.934 310.435 236.772 316.57C231.611 322.705 228.381 330.235 227.493 338.207C226.312 348.894 229.416 359.613 236.124 368.009C242.832 376.405 252.594 381.79 263.265 382.982V383.016Z" fill="white" stroke="#212121" stroke-linecap="round" stroke-linejoin="round"/>
<path d="M255.085 398.226L251.211 433.251C250.913 435.948 252.854 438.376 255.547 438.675L257.934 438.939C260.627 439.238 263.052 437.294 263.35 434.598L267.224 399.572C267.523 396.875 265.581 394.447 262.888 394.148L260.501 393.884C257.808 393.585 255.383 395.529 255.085 398.226Z" fill="#BEEBC3" stroke="#212121" stroke-linecap="round" stroke-linejoin="round"/>
<path d="M249.16 511.132H248.82C247.412 510.977 246.048 510.545 244.807 509.86C243.567 509.175 242.474 508.251 241.592 507.141C240.71 506.031 240.056 504.757 239.668 503.393C239.28 502.028 239.166 500.601 239.332 499.192L246.98 429.94C247.099 428.842 247.433 427.778 247.963 426.809C248.494 425.84 249.21 424.986 250.071 424.295C250.932 423.604 251.921 423.09 252.98 422.783C254.04 422.475 255.15 422.38 256.247 422.504L261.357 423.066C263.571 423.311 265.597 424.426 266.989 426.166C268.382 427.906 269.028 430.129 268.784 432.345L261.136 501.682C260.977 503.091 260.542 504.454 259.857 505.694C259.171 506.934 258.249 508.026 257.141 508.909C256.033 509.791 254.763 510.446 253.402 510.836C252.042 511.227 250.618 511.345 249.212 511.183L249.16 511.132Z" fill="#212121" stroke="#212121" stroke-linecap="round" stroke-linejoin="round"/>
<path d="M253.812 480.821C253.812 480.821 265.906 481.282 267.609 483.363C269.313 485.444 269.006 492.761 265.719 493.597C257.355 495.814 239.52 494.518 238.838 493.017C238.157 491.516 236.692 482.783 240.389 481.845C244.831 481.163 249.318 480.821 253.812 480.821Z" fill="white" stroke="#212121" stroke-linecap="round" stroke-linejoin="round"/>
<path d="M257.354 463.952C257.354 463.952 271.441 463.406 273.639 465.948C275.836 468.489 276.279 477.99 272.548 479.423C263.077 483.056 241.767 481.64 240.814 479.764C239.86 477.888 237.73 468.148 241.904 466.579C246.077 465.01 257.354 463.952 257.354 463.952Z" fill="white" stroke="#212121" stroke-linecap="round" stroke-linejoin="round"/>
<path d="M259.415 444.797C259.415 444.797 274.473 444.234 276.824 446.946C279.175 449.658 279.635 459.824 275.666 461.342C265.445 465.248 243.3 465.231 242.261 463.236C241.222 461.24 238.429 449.3 242.892 447.611C247.355 445.923 259.415 444.797 259.415 444.797Z" fill="white" stroke="#212121" stroke-linecap="round" stroke-linejoin="round"/>
<path d="M268.086 426.938C268.086 426.938 283.145 426.358 285.495 429.07C287.846 431.782 288.408 442.255 284.32 443.483C280.232 444.711 251.955 447.355 250.916 445.359C249.877 443.364 247.1 431.424 251.563 429.752C256.026 428.081 268.086 426.938 268.086 426.938Z" fill="white" stroke="#212121" stroke-linecap="round" stroke-linejoin="round"/>
<path d="M209.522 478.229C215.463 478.463 221.329 476.835 226.301 473.572C238.43 465.197 238.004 445.957 238.004 445.957L240.934 445.121C243.338 444.211 245.589 442.94 247.611 441.352C246.636 445.326 246.065 449.389 245.908 453.479C245.972 455.721 246.862 457.86 248.406 459.484C249.95 461.109 252.039 462.105 254.272 462.281C258.036 462.69 259.706 463.116 260.966 458.085C262.227 453.053 268.478 432.977 268.904 430.06C269.33 427.143 264.816 422.64 257.713 421.531C246.794 422.435 236.011 425.488 225.024 425.488C221.192 425.847 217.518 427.192 214.36 429.395" fill="white"/>
<path d="M209.522 478.229C215.463 478.463 221.329 476.835 226.301 473.572C238.43 465.197 238.004 445.957 238.004 445.957L240.934 445.121C243.338 444.211 245.589 442.94 247.611 441.352C246.636 445.326 246.065 449.389 245.908 453.479C245.972 455.721 246.862 457.86 248.406 459.484C249.95 461.109 252.039 462.105 254.272 462.281C258.036 462.69 259.706 463.116 260.966 458.085C262.227 453.053 268.478 432.977 268.904 430.06C269.33 427.143 264.816 422.64 257.713 421.531C246.794 422.435 236.011 425.488 225.024 425.488C221.192 425.847 217.518 427.192 214.36 429.395" stroke="#212121" stroke-linecap="round" stroke-linejoin="round"/>
<path d="M198.347 476.506C200.728 477.239 203.176 477.736 205.654 477.99L198.347 476.506Z" fill="white"/>
<path d="M198.347 476.506C200.728 477.239 203.176 477.736 205.654 477.99" stroke="#212121" stroke-linecap="round" stroke-linejoin="round"/>
<path d="M183.288 471.064H168.247" stroke="#212121" stroke-linecap="round" stroke-linejoin="round"/>
<path d="M182.045 475.244H175.776" stroke="#212121" stroke-linecap="round" stroke-linejoin="round"/>
<path d="M238.038 445.957C238.038 445.957 229.725 445.957 224.274 440.993" stroke="#212121" stroke-linecap="round" stroke-linejoin="round"/>
<path d="M247.85 440.805C248.083 438.534 248.551 436.294 249.246 434.119" stroke="#212121" stroke-linecap="round" stroke-linejoin="round"/>
<path d="M261.033 455.952C261.033 455.952 262.617 451.551 260.676 449.965C258.734 448.379 253.64 446.093 252.772 447.85C251.903 449.607 249.961 457.726 250.489 459.295L251.017 460.881" stroke="#212121" stroke-width="0.5" stroke-linecap="round" stroke-linejoin="round"/>
<path d="M30.1846 509.341H174.21V438.435H30.1846" fill="#BEEBC3"/>
<path d="M30.1846 509.341H174.21V438.435H30.1846" stroke="#212121" stroke-linecap="round" stroke-linejoin="round"/>
<path d="M160.412 501.341C160.412 501.982 160.602 502.609 160.958 503.141C161.313 503.674 161.819 504.09 162.41 504.335C163.001 504.58 163.652 504.645 164.28 504.52C164.908 504.394 165.485 504.086 165.937 503.633C166.39 503.179 166.698 502.602 166.823 501.973C166.948 501.345 166.884 500.693 166.639 500.101C166.394 499.509 165.979 499.002 165.447 498.646C164.914 498.29 164.289 498.1 163.649 498.1C162.79 498.1 161.967 498.442 161.36 499.049C160.753 499.657 160.412 500.481 160.412 501.341Z" fill="white" stroke="#212121" stroke-linecap="round" stroke-linejoin="round"/>
</g>
<defs>
<clipPath id="clip0_99_188">
<rect width="695" height="568" fill="white"/>
</clipPath>
</defs>
</svg>
